M48
;GenerationSoftware,Autodesk,EAGLE,9.6.0*%
;CreationDate,2025-08-24T09:38:53Z*%
FMAT,2
ICI,OFF
METRIC,TZ,000.000
T5C0.305
T4C0.800
T3C0.813
T2C1.200
T1C3.200
%
G90
M71
T1
X94297Y40958
X94297Y5715
X5048Y41005
X5398Y5715
T2
X60960Y42863
X78740Y42863
X76200Y42863
X73660Y42863
X71120Y42863
X68580Y42863
X63500Y42863
X66040Y42863
T3
X63500Y21590
X34608Y24130
X58420Y21590
X60960Y24130
X33338Y27940
X35878Y27940
X37148Y21590
X32067Y21590
X85090Y21590
X87947Y27940
X90487Y27940
X80645Y4445
X85725Y4445
X67945Y4445
X73025Y4445
X55245Y4445
X60325Y4445
X42545Y4445
X47625Y4445
X29210Y4445
X34290Y4445
X16510Y4445
X21590Y4445
X90170Y21590
X87630Y24130
X60960Y27940
X63500Y27940
T4
X82868Y7620
X80328Y6985
X80328Y14605
X84138Y12065
X82868Y13970
X84138Y9525
X76518Y9525
X76518Y12065
X77788Y13970
X67628Y6985
X71438Y12065
X70168Y13970
X71438Y9525
X70168Y7620
X63817Y9525
X63817Y12065
X65087Y13970
X54927Y6985
X54927Y14605
X58737Y12065
X57467Y13970
X58737Y9525
X57467Y7620
X51117Y9525
X51117Y12065
X52387Y13970
X42228Y6985
X42228Y14605
X46037Y12065
X44767Y13970
X46037Y9525
X44767Y7620
X38418Y9525
X13017Y12065
X14287Y13970
X26987Y13970
X25717Y12065
X16828Y6985
X25717Y9525
X32067Y7620
X33338Y9525
X32067Y13970
X67628Y14605
X33338Y12065
X29527Y14605
X29527Y6985
X39688Y13970
X16828Y14605
X20638Y12065
X19368Y13970
X20638Y9525
X19368Y7620
X13017Y9525
X38418Y12065
T5
X80328Y27940
X76200Y17463
X79781Y19685
X58737Y15240
X55880Y27940
X50800Y18098
X33655Y16192
X72073Y39053
X56515Y37465
X31115Y37465
X66993Y39053
X46037Y38418
X18415Y38418
X69533Y39053
X64452Y39053
X42545Y38735
X13970Y38735
X21907Y20320
X30162Y27305
X75565Y31432
X63817Y33338
X51752Y33655
X47625Y32067
X49847Y31115
X80328Y30797
X27940Y33655
X22542Y32067
X73858Y31870
X73660Y35878
X54610Y30797
X55245Y34608
X29210Y31432
X29210Y34925
X84455Y15875
X65405Y16510
X73025Y24705
X73025Y23495
X68275Y20320
X47307Y22225
X46355Y22542
X39370Y15875
X42863Y20320
X53657Y19368
X19685Y20638
X18733Y21273
X15875Y25717
X13652Y17145
X24226Y20733
X2540Y33020
X2540Y24130
X2540Y10160
X16510Y44450
X43180Y44450
X38100Y33338
X29210Y44450
X19050Y1270
X38735Y1270
X63500Y1270
X87630Y1270
X97790Y11430
X97790Y35560
X97790Y24130
X18098Y33973
X20003Y35560
X44450Y33655
X46037Y33655
X46355Y35243
X70168Y33655
X71438Y33655
X71755Y34608
X74295Y38100
X31750Y35243
X35878Y31115
X30480Y29845
X55880Y29527
X41910Y29527
X44450Y24130
X67945Y29527
X77153Y34608
X91757Y32067
X87947Y11747
X82233Y12065
X78423Y12065
X80010Y17145
X74613Y21907
X70168Y24130
X82868Y4445
X75565Y4445
X70485Y4445
X63817Y4763
X57785Y4445
X50800Y4445
X45085Y4445
X38100Y4445
X31750Y4445
X24765Y4445
X19368Y4445
X14922Y12065
X18733Y12065
X27622Y12382
X31750Y12382
X40323Y12382
X44450Y12382
X52705Y12382
X57150Y12382
X65723Y12382
X69850Y12382
X61277Y14605
X57150Y32702
X57150Y35560
X62865Y35878
X54292Y16828
X40640Y32702
X26035Y34925
X17780Y24130
X26352Y24130
X26987Y16828
X17463Y17463
X36830Y16192
X44767Y16828
X48895Y16510
X49847Y20320
X53022Y23812
X78740Y23812
X68898Y16510
X73978Y9843
X71120Y16510
X23495Y9843
X35878Y9843
X48577Y9843
X61277Y9843
X11430Y16192
X16192Y29527
X13335Y40640
X25082Y40640
X36830Y41910
X52705Y35243
X33655Y39688
X44132Y39688
X54610Y41593
X82233Y44450
M30