G04 EAGLE Gerber RS-274X export*
G75*
%MOMM*%
%FSLAX34Y34*%
%LPD*%
%INSoldermask Bottom*%
%IPPOS*%
%AMOC8*
5,1,8,0,0,1.08239X$1,22.5*%
G01*
%ADD10C,1.643200*%
%ADD11C,1.803200*%
%ADD12C,2.363200*%
%ADD13C,6.045200*%
%ADD14P,1.803519X8X22.500000*%
%ADD15P,1.951982X8X22.500000*%
%ADD16P,2.034460X8X22.500000*%
%ADD17C,0.660400*%


D10*
X803275Y69850D03*
D11*
X803275Y146050D03*
X841375Y120650D03*
X828675Y139700D03*
X841375Y95250D03*
X828675Y76200D03*
X765175Y95250D03*
X765175Y120650D03*
X777875Y139700D03*
D10*
X676275Y69850D03*
D11*
X676275Y146050D03*
X714375Y120650D03*
X701675Y139700D03*
X714375Y95250D03*
X701675Y76200D03*
X638175Y95250D03*
X638175Y120650D03*
X650875Y139700D03*
D10*
X549275Y69850D03*
D11*
X549275Y146050D03*
X587375Y120650D03*
X574675Y139700D03*
X587375Y95250D03*
X574675Y76200D03*
X511175Y95250D03*
X511175Y120650D03*
X523875Y139700D03*
D10*
X422275Y69850D03*
D11*
X422275Y146050D03*
X460375Y120650D03*
X447675Y139700D03*
X460375Y95250D03*
X447675Y76200D03*
X384175Y95250D03*
X384175Y120650D03*
X396875Y139700D03*
D10*
X295275Y69850D03*
D11*
X295275Y146050D03*
X333375Y120650D03*
X320675Y139700D03*
X333375Y95250D03*
X320675Y76200D03*
X257175Y95250D03*
X257175Y120650D03*
X269875Y139700D03*
D10*
X168275Y69850D03*
D11*
X168275Y146050D03*
X206375Y120650D03*
X193675Y139700D03*
X206375Y95250D03*
X193675Y76200D03*
X130175Y95250D03*
X130175Y120650D03*
X142875Y139700D03*
D12*
X609600Y417825D02*
X609600Y439425D01*
X635000Y439425D02*
X635000Y417825D01*
X660400Y417825D02*
X660400Y439425D01*
X685800Y439425D02*
X685800Y417825D01*
X711200Y417825D02*
X711200Y439425D01*
X736600Y439425D02*
X736600Y417825D01*
X762000Y417825D02*
X762000Y439425D01*
X787400Y439425D02*
X787400Y417825D01*
D13*
X53975Y57150D03*
X942975Y409575D03*
X50475Y410050D03*
X942975Y57150D03*
D14*
X879475Y279400D03*
X904875Y279400D03*
D15*
X806450Y44450D03*
X857250Y44450D03*
X679450Y44450D03*
X730250Y44450D03*
X552450Y44450D03*
X603250Y44450D03*
X425450Y44450D03*
X476250Y44450D03*
X292100Y44450D03*
X342900Y44450D03*
X165100Y44450D03*
X215900Y44450D03*
D16*
X901700Y215900D03*
X850900Y215900D03*
X876300Y241300D03*
D14*
X609600Y279400D03*
X635000Y279400D03*
D16*
X635000Y215900D03*
X584200Y215900D03*
X609600Y241300D03*
D14*
X333375Y279400D03*
X358775Y279400D03*
D16*
X371475Y215900D03*
X320675Y215900D03*
X346075Y241300D03*
D17*
X25400Y330200D03*
X25400Y241300D03*
X25400Y101600D03*
X165100Y444500D03*
X431800Y444500D03*
X292100Y444500D03*
X190500Y12700D03*
X387350Y12700D03*
X635000Y12700D03*
X876300Y12700D03*
X977900Y114300D03*
X977900Y355600D03*
X977900Y241300D03*
X180975Y339725D03*
X200025Y355600D03*
X444500Y336550D03*
X460375Y336550D03*
X463550Y352425D03*
X701675Y336550D03*
X714375Y336550D03*
X717550Y346075D03*
X742950Y381000D03*
X317500Y352425D03*
X358775Y311150D03*
X304800Y298450D03*
X558800Y295275D03*
X419100Y295275D03*
X444500Y241300D03*
X679450Y295275D03*
X803275Y307975D03*
X771525Y346075D03*
X917575Y320675D03*
X879475Y117475D03*
X822325Y120650D03*
X784225Y120650D03*
X800100Y171450D03*
X746125Y219075D03*
X701675Y241300D03*
X828675Y44450D03*
X755650Y44450D03*
X704850Y44450D03*
X638175Y47625D03*
X577850Y44450D03*
X508000Y44450D03*
X450850Y44450D03*
X381000Y44450D03*
X317500Y44450D03*
X247650Y44450D03*
X193675Y44450D03*
X149225Y120650D03*
X187325Y120650D03*
X276225Y123825D03*
X317500Y123825D03*
X403225Y123825D03*
X444500Y123825D03*
X527050Y123825D03*
X571500Y123825D03*
X657225Y123825D03*
X698500Y123825D03*
X612775Y146050D03*
X571500Y327025D03*
X571500Y355600D03*
X628650Y358775D03*
X406400Y327025D03*
X260350Y349250D03*
X177800Y241300D03*
X263525Y241300D03*
X269875Y168275D03*
X174625Y174625D03*
X368300Y161925D03*
X447675Y168275D03*
X488950Y165100D03*
X498475Y203200D03*
X530225Y238125D03*
X787400Y238125D03*
X688975Y165100D03*
X739775Y98425D03*
X711200Y165100D03*
X234950Y98425D03*
X358775Y98425D03*
X485775Y98425D03*
X612775Y98425D03*
X114300Y161925D03*
X161925Y295275D03*
X133350Y406400D03*
X250825Y406400D03*
X368300Y419100D03*
X527050Y352425D03*
X542925Y168275D03*
X336550Y396875D03*
X441325Y396875D03*
X546100Y415925D03*
X822325Y444500D03*
X803275Y279400D03*
X762000Y174625D03*
X797814Y196850D03*
X587375Y152400D03*
X558800Y279400D03*
X508000Y180975D03*
X336550Y161925D03*
X720725Y390525D03*
X565150Y374650D03*
X311150Y374650D03*
X669925Y390525D03*
X460375Y384175D03*
X184150Y384175D03*
X695325Y390525D03*
X644525Y390525D03*
X425450Y387350D03*
X139700Y387350D03*
X219075Y203200D03*
X301625Y273050D03*
X755650Y314325D03*
X638175Y333375D03*
X517525Y336550D03*
X476250Y320675D03*
X498475Y311150D03*
X381000Y333375D03*
X279400Y336550D03*
X225425Y320675D03*
X738575Y318700D03*
X736600Y358775D03*
X546100Y307975D03*
X552450Y346075D03*
X292100Y314325D03*
X292100Y349250D03*
X844550Y158750D03*
X654050Y165100D03*
X730250Y247047D03*
X730250Y234950D03*
X682753Y203200D03*
X473075Y222250D03*
X463550Y225425D03*
X393700Y158750D03*
X428625Y203200D03*
X536575Y193675D03*
X196850Y206375D03*
X187325Y212725D03*
X158750Y257175D03*
X136525Y171450D03*
X242256Y207331D03*
M02*
