G04 EAGLE Gerber RS-274X export*
G75*
%MOMM*%
%FSLAX34Y34*%
%LPD*%
%INBottom Copper*%
%IPPOS*%
%AMOC8*
5,1,8,0,0,1.08239X$1,22.5*%
G01*
%ADD10C,1.440000*%
%ADD11C,1.600000*%
%ADD12C,2.160000*%
%ADD13C,5.842000*%
%ADD14P,1.583577X8X22.500000*%
%ADD15P,1.732040X8X22.500000*%
%ADD16P,1.814519X8X22.500000*%
%ADD17C,0.457200*%
%ADD18C,0.304800*%

G36*
X984368Y8271D02*
X984368Y8271D01*
X984487Y8278D01*
X984525Y8291D01*
X984566Y8296D01*
X984676Y8339D01*
X984789Y8376D01*
X984824Y8398D01*
X984861Y8413D01*
X984957Y8483D01*
X985058Y8546D01*
X985086Y8576D01*
X985119Y8599D01*
X985195Y8691D01*
X985276Y8778D01*
X985296Y8813D01*
X985321Y8844D01*
X985372Y8952D01*
X985430Y9056D01*
X985440Y9096D01*
X985457Y9132D01*
X985479Y9249D01*
X985509Y9364D01*
X985513Y9425D01*
X985517Y9445D01*
X985515Y9465D01*
X985519Y9525D01*
X985519Y450850D01*
X985504Y450968D01*
X985497Y451087D01*
X985484Y451125D01*
X985479Y451166D01*
X985436Y451276D01*
X985399Y451389D01*
X985377Y451424D01*
X985362Y451461D01*
X985293Y451557D01*
X985229Y451658D01*
X985199Y451686D01*
X985176Y451719D01*
X985084Y451795D01*
X984997Y451876D01*
X984962Y451896D01*
X984931Y451921D01*
X984823Y451972D01*
X984719Y452030D01*
X984679Y452040D01*
X984643Y452057D01*
X984526Y452079D01*
X984411Y452109D01*
X984351Y452113D01*
X984331Y452117D01*
X984310Y452115D01*
X984250Y452119D01*
X796637Y452119D01*
X796499Y452102D01*
X796360Y452089D01*
X796341Y452082D01*
X796321Y452079D01*
X796192Y452028D01*
X796061Y451981D01*
X796044Y451970D01*
X796025Y451962D01*
X795913Y451881D01*
X795798Y451803D01*
X795784Y451787D01*
X795768Y451776D01*
X795679Y451668D01*
X795587Y451564D01*
X795578Y451546D01*
X795565Y451531D01*
X795506Y451405D01*
X795443Y451281D01*
X795438Y451261D01*
X795430Y451243D01*
X795404Y451107D01*
X795373Y450971D01*
X795374Y450950D01*
X795370Y450931D01*
X795379Y450792D01*
X795383Y450653D01*
X795388Y450633D01*
X795390Y450613D01*
X795432Y450481D01*
X795471Y450347D01*
X795481Y450330D01*
X795488Y450311D01*
X795562Y450193D01*
X795633Y450073D01*
X795651Y450052D01*
X795658Y450042D01*
X795673Y450028D01*
X795739Y449953D01*
X798710Y446982D01*
X800741Y442079D01*
X800741Y415171D01*
X798710Y410268D01*
X794957Y406515D01*
X790054Y404484D01*
X784746Y404484D01*
X779843Y406515D01*
X776090Y410268D01*
X775873Y410794D01*
X775804Y410915D01*
X775739Y411037D01*
X775725Y411052D01*
X775715Y411070D01*
X775618Y411170D01*
X775525Y411273D01*
X775508Y411284D01*
X775494Y411298D01*
X775375Y411371D01*
X775259Y411447D01*
X775240Y411454D01*
X775223Y411464D01*
X775090Y411505D01*
X774958Y411551D01*
X774938Y411552D01*
X774919Y411558D01*
X774780Y411565D01*
X774641Y411576D01*
X774621Y411572D01*
X774601Y411573D01*
X774465Y411545D01*
X774328Y411521D01*
X774309Y411513D01*
X774290Y411509D01*
X774165Y411448D01*
X774038Y411391D01*
X774022Y411378D01*
X774004Y411369D01*
X773898Y411279D01*
X773790Y411192D01*
X773777Y411176D01*
X773762Y411163D01*
X773682Y411049D01*
X773598Y410938D01*
X773586Y410913D01*
X773579Y410903D01*
X773572Y410884D01*
X773527Y410794D01*
X773310Y410268D01*
X769557Y406515D01*
X764654Y404484D01*
X759346Y404484D01*
X754443Y406515D01*
X750690Y410268D01*
X750413Y410938D01*
X750369Y411015D01*
X750333Y411098D01*
X750290Y411153D01*
X750255Y411214D01*
X750193Y411278D01*
X750138Y411349D01*
X750083Y411392D01*
X750034Y411442D01*
X749958Y411489D01*
X749887Y411544D01*
X749823Y411572D01*
X749763Y411608D01*
X749677Y411635D01*
X749595Y411670D01*
X749526Y411681D01*
X749459Y411702D01*
X749370Y411706D01*
X749281Y411720D01*
X749212Y411714D01*
X749141Y411717D01*
X749054Y411699D01*
X748965Y411691D01*
X748899Y411667D01*
X748830Y411653D01*
X748749Y411614D01*
X748665Y411583D01*
X748607Y411544D01*
X748544Y411513D01*
X748476Y411455D01*
X748402Y411405D01*
X748356Y411352D01*
X748302Y411307D01*
X748251Y411234D01*
X748191Y411167D01*
X748128Y411059D01*
X748119Y411047D01*
X748117Y411041D01*
X748109Y411028D01*
X748010Y410833D01*
X746776Y409134D01*
X745291Y407649D01*
X743592Y406415D01*
X741721Y405462D01*
X739724Y404813D01*
X739139Y404720D01*
X739139Y427355D01*
X739124Y427473D01*
X739117Y427592D01*
X739104Y427630D01*
X739099Y427670D01*
X739056Y427781D01*
X739019Y427894D01*
X738997Y427928D01*
X738982Y427966D01*
X738912Y428062D01*
X738849Y428163D01*
X738819Y428191D01*
X738795Y428223D01*
X738704Y428299D01*
X738617Y428381D01*
X738582Y428400D01*
X738551Y428426D01*
X738443Y428477D01*
X738339Y428534D01*
X738299Y428545D01*
X738263Y428562D01*
X738146Y428584D01*
X738031Y428614D01*
X737970Y428618D01*
X737950Y428622D01*
X737930Y428620D01*
X737870Y428624D01*
X735330Y428624D01*
X735212Y428609D01*
X735093Y428602D01*
X735055Y428589D01*
X735014Y428584D01*
X734904Y428540D01*
X734791Y428504D01*
X734756Y428482D01*
X734719Y428467D01*
X734623Y428397D01*
X734522Y428334D01*
X734494Y428304D01*
X734461Y428280D01*
X734386Y428189D01*
X734304Y428102D01*
X734284Y428067D01*
X734259Y428035D01*
X734208Y427928D01*
X734150Y427823D01*
X734140Y427784D01*
X734123Y427748D01*
X734101Y427631D01*
X734071Y427516D01*
X734067Y427455D01*
X734063Y427435D01*
X734065Y427415D01*
X734061Y427355D01*
X734061Y404720D01*
X733476Y404813D01*
X731479Y405462D01*
X729608Y406415D01*
X727909Y407649D01*
X726424Y409134D01*
X725190Y410833D01*
X725091Y411028D01*
X725040Y411102D01*
X724998Y411181D01*
X724951Y411233D01*
X724912Y411291D01*
X724845Y411350D01*
X724784Y411417D01*
X724726Y411455D01*
X724673Y411501D01*
X724593Y411542D01*
X724519Y411591D01*
X724452Y411614D01*
X724390Y411646D01*
X724303Y411665D01*
X724218Y411695D01*
X724148Y411700D01*
X724080Y411715D01*
X723990Y411713D01*
X723901Y411720D01*
X723832Y411708D01*
X723762Y411706D01*
X723676Y411681D01*
X723588Y411665D01*
X723524Y411637D01*
X723456Y411617D01*
X723379Y411572D01*
X723298Y411535D01*
X723243Y411491D01*
X723182Y411455D01*
X723119Y411392D01*
X723049Y411336D01*
X723007Y411280D01*
X722957Y411231D01*
X722912Y411153D01*
X722858Y411082D01*
X722803Y410970D01*
X722795Y410957D01*
X722793Y410951D01*
X722787Y410938D01*
X722510Y410268D01*
X718757Y406515D01*
X716048Y405393D01*
X716023Y405379D01*
X715995Y405370D01*
X715885Y405300D01*
X715772Y405236D01*
X715751Y405215D01*
X715726Y405199D01*
X715637Y405105D01*
X715544Y405014D01*
X715528Y404989D01*
X715508Y404968D01*
X715445Y404854D01*
X715377Y404743D01*
X715369Y404715D01*
X715354Y404689D01*
X715322Y404564D01*
X715284Y404439D01*
X715282Y404410D01*
X715275Y404381D01*
X715265Y404221D01*
X715265Y402259D01*
X715277Y402161D01*
X715280Y402062D01*
X715297Y402004D01*
X715305Y401944D01*
X715341Y401852D01*
X715369Y401757D01*
X715399Y401705D01*
X715422Y401648D01*
X715480Y401568D01*
X715530Y401483D01*
X715596Y401407D01*
X715608Y401391D01*
X715618Y401383D01*
X715636Y401362D01*
X721441Y395557D01*
X721448Y395552D01*
X721454Y395544D01*
X721573Y395455D01*
X721692Y395362D01*
X721701Y395359D01*
X721708Y395353D01*
X721853Y395282D01*
X723459Y394617D01*
X724817Y393259D01*
X725552Y391485D01*
X725552Y389565D01*
X724817Y387791D01*
X723459Y386433D01*
X721685Y385698D01*
X719765Y385698D01*
X717991Y386433D01*
X716623Y387801D01*
X716610Y387836D01*
X716549Y387927D01*
X716494Y388022D01*
X716460Y388058D01*
X716432Y388099D01*
X716349Y388172D01*
X716273Y388251D01*
X716230Y388277D01*
X716193Y388310D01*
X716095Y388360D01*
X716002Y388417D01*
X715954Y388432D01*
X715910Y388454D01*
X715803Y388478D01*
X715698Y388511D01*
X715648Y388513D01*
X715600Y388524D01*
X715490Y388521D01*
X715380Y388526D01*
X715331Y388516D01*
X715282Y388514D01*
X715176Y388484D01*
X715069Y388462D01*
X715024Y388440D01*
X714976Y388426D01*
X714882Y388370D01*
X714783Y388322D01*
X714745Y388290D01*
X714702Y388264D01*
X714581Y388158D01*
X697009Y370585D01*
X568202Y370585D01*
X568193Y370584D01*
X568184Y370585D01*
X568035Y370564D01*
X567887Y370545D01*
X567878Y370542D01*
X567869Y370541D01*
X567716Y370489D01*
X566278Y369893D01*
X566270Y369888D01*
X566261Y369886D01*
X566209Y369855D01*
X566159Y369835D01*
X566092Y369787D01*
X566002Y369735D01*
X565995Y369729D01*
X565987Y369724D01*
X565866Y369618D01*
X563659Y367410D01*
X312641Y367410D01*
X310434Y369618D01*
X310427Y369623D01*
X310421Y369631D01*
X310331Y369698D01*
X310277Y369749D01*
X310235Y369772D01*
X310183Y369813D01*
X310174Y369816D01*
X310167Y369822D01*
X310022Y369893D01*
X308416Y370558D01*
X307058Y371916D01*
X306323Y373690D01*
X306323Y375610D01*
X307058Y377384D01*
X307617Y377944D01*
X307702Y378053D01*
X307791Y378160D01*
X307800Y378179D01*
X307812Y378195D01*
X307868Y378323D01*
X307927Y378448D01*
X307931Y378468D01*
X307939Y378487D01*
X307961Y378625D01*
X307987Y378761D01*
X307985Y378781D01*
X307989Y378801D01*
X307976Y378940D01*
X307967Y379078D01*
X307961Y379097D01*
X307959Y379117D01*
X307912Y379248D01*
X307869Y379380D01*
X307858Y379398D01*
X307851Y379417D01*
X307773Y379531D01*
X307699Y379649D01*
X307684Y379663D01*
X307673Y379680D01*
X307569Y379772D01*
X307467Y379867D01*
X307449Y379877D01*
X307434Y379890D01*
X307311Y379953D01*
X307189Y380021D01*
X307169Y380026D01*
X307151Y380035D01*
X307015Y380065D01*
X306881Y380100D01*
X306853Y380102D01*
X306841Y380105D01*
X306820Y380104D01*
X306720Y380110D01*
X187202Y380110D01*
X187193Y380109D01*
X187184Y380110D01*
X187035Y380089D01*
X186887Y380070D01*
X186878Y380067D01*
X186869Y380066D01*
X186716Y380014D01*
X185110Y379348D01*
X183190Y379348D01*
X181416Y380083D01*
X180058Y381441D01*
X179323Y383215D01*
X179323Y385135D01*
X180058Y386909D01*
X180617Y387469D01*
X180702Y387578D01*
X180791Y387685D01*
X180800Y387704D01*
X180812Y387720D01*
X180868Y387848D01*
X180927Y387973D01*
X180931Y387993D01*
X180939Y388012D01*
X180961Y388150D01*
X180987Y388286D01*
X180985Y388306D01*
X180989Y388326D01*
X180976Y388465D01*
X180967Y388603D01*
X180961Y388622D01*
X180959Y388642D01*
X180912Y388773D01*
X180869Y388905D01*
X180858Y388923D01*
X180851Y388942D01*
X180773Y389056D01*
X180699Y389174D01*
X180684Y389188D01*
X180673Y389205D01*
X180569Y389297D01*
X180467Y389392D01*
X180449Y389402D01*
X180434Y389415D01*
X180311Y389478D01*
X180189Y389546D01*
X180169Y389551D01*
X180151Y389560D01*
X180015Y389590D01*
X179881Y389625D01*
X179853Y389627D01*
X179841Y389630D01*
X179820Y389629D01*
X179720Y389635D01*
X148259Y389635D01*
X148161Y389623D01*
X148062Y389620D01*
X148004Y389603D01*
X147944Y389595D01*
X147852Y389559D01*
X147757Y389531D01*
X147705Y389501D01*
X147648Y389478D01*
X147568Y389420D01*
X147483Y389370D01*
X147407Y389304D01*
X147391Y389292D01*
X147383Y389282D01*
X147362Y389264D01*
X144732Y386634D01*
X144727Y386627D01*
X144719Y386621D01*
X144630Y386502D01*
X144537Y386383D01*
X144534Y386374D01*
X144528Y386367D01*
X144457Y386222D01*
X143792Y384616D01*
X142434Y383258D01*
X140660Y382523D01*
X138740Y382523D01*
X136966Y383258D01*
X135608Y384616D01*
X134873Y386390D01*
X134873Y388310D01*
X135608Y390084D01*
X136966Y391442D01*
X138572Y392107D01*
X138580Y392112D01*
X138589Y392114D01*
X138718Y392191D01*
X138848Y392265D01*
X138855Y392271D01*
X138863Y392276D01*
X138984Y392382D01*
X144366Y397765D01*
X319184Y397765D01*
X325162Y391786D01*
X325240Y391726D01*
X325312Y391658D01*
X325365Y391629D01*
X325413Y391592D01*
X325504Y391552D01*
X325591Y391504D01*
X325649Y391489D01*
X325705Y391465D01*
X325803Y391450D01*
X325899Y391425D01*
X325999Y391419D01*
X326019Y391415D01*
X326031Y391417D01*
X326059Y391415D01*
X422398Y391415D01*
X422407Y391416D01*
X422416Y391415D01*
X422565Y391436D01*
X422713Y391455D01*
X422722Y391458D01*
X422731Y391459D01*
X422884Y391511D01*
X424490Y392177D01*
X426410Y392177D01*
X428016Y391511D01*
X428025Y391509D01*
X428034Y391504D01*
X428179Y391467D01*
X428323Y391427D01*
X428332Y391427D01*
X428341Y391425D01*
X428502Y391415D01*
X448641Y391415D01*
X448739Y391427D01*
X448838Y391430D01*
X448896Y391447D01*
X448956Y391455D01*
X449048Y391491D01*
X449143Y391519D01*
X449195Y391549D01*
X449252Y391572D01*
X449332Y391630D01*
X449417Y391680D01*
X449493Y391746D01*
X449509Y391758D01*
X449517Y391768D01*
X449538Y391786D01*
X455516Y397765D01*
X626441Y397765D01*
X626539Y397777D01*
X626638Y397780D01*
X626696Y397797D01*
X626756Y397805D01*
X626848Y397841D01*
X626943Y397869D01*
X626995Y397899D01*
X627052Y397922D01*
X627132Y397980D01*
X627217Y398030D01*
X627293Y398096D01*
X627309Y398108D01*
X627317Y398118D01*
X627338Y398136D01*
X630564Y401362D01*
X630624Y401440D01*
X630692Y401512D01*
X630721Y401565D01*
X630758Y401613D01*
X630798Y401704D01*
X630846Y401791D01*
X630861Y401849D01*
X630885Y401905D01*
X630900Y402003D01*
X630925Y402099D01*
X630931Y402199D01*
X630935Y402219D01*
X630933Y402231D01*
X630935Y402259D01*
X630935Y404221D01*
X630932Y404250D01*
X630934Y404279D01*
X630912Y404408D01*
X630895Y404536D01*
X630885Y404564D01*
X630880Y404593D01*
X630826Y404711D01*
X630778Y404832D01*
X630761Y404856D01*
X630749Y404883D01*
X630668Y404984D01*
X630592Y405089D01*
X630569Y405108D01*
X630550Y405131D01*
X630447Y405209D01*
X630347Y405292D01*
X630320Y405305D01*
X630296Y405322D01*
X630152Y405393D01*
X627443Y406515D01*
X623690Y410268D01*
X623413Y410938D01*
X623369Y411015D01*
X623333Y411098D01*
X623290Y411153D01*
X623255Y411214D01*
X623193Y411278D01*
X623138Y411349D01*
X623083Y411392D01*
X623034Y411442D01*
X622958Y411489D01*
X622887Y411544D01*
X622823Y411572D01*
X622763Y411608D01*
X622677Y411635D01*
X622595Y411670D01*
X622526Y411681D01*
X622459Y411702D01*
X622370Y411706D01*
X622281Y411720D01*
X622212Y411714D01*
X622141Y411717D01*
X622054Y411699D01*
X621965Y411691D01*
X621899Y411667D01*
X621830Y411653D01*
X621749Y411614D01*
X621665Y411583D01*
X621607Y411544D01*
X621544Y411513D01*
X621476Y411455D01*
X621402Y411405D01*
X621356Y411352D01*
X621302Y411307D01*
X621251Y411234D01*
X621191Y411167D01*
X621128Y411059D01*
X621119Y411047D01*
X621117Y411041D01*
X621109Y411028D01*
X621010Y410833D01*
X619776Y409134D01*
X618291Y407649D01*
X616592Y406415D01*
X614721Y405462D01*
X612724Y404813D01*
X612139Y404720D01*
X612139Y427355D01*
X612124Y427473D01*
X612117Y427592D01*
X612104Y427630D01*
X612099Y427670D01*
X612056Y427781D01*
X612019Y427894D01*
X611997Y427928D01*
X611982Y427966D01*
X611912Y428062D01*
X611849Y428163D01*
X611819Y428191D01*
X611795Y428223D01*
X611704Y428299D01*
X611617Y428381D01*
X611582Y428400D01*
X611551Y428426D01*
X611443Y428477D01*
X611339Y428534D01*
X611299Y428545D01*
X611263Y428562D01*
X611146Y428584D01*
X611031Y428614D01*
X610970Y428618D01*
X610950Y428622D01*
X610930Y428620D01*
X610870Y428624D01*
X609599Y428624D01*
X609599Y429895D01*
X609584Y430013D01*
X609577Y430132D01*
X609564Y430170D01*
X609559Y430210D01*
X609515Y430321D01*
X609479Y430434D01*
X609457Y430469D01*
X609442Y430506D01*
X609372Y430602D01*
X609309Y430703D01*
X609279Y430731D01*
X609255Y430764D01*
X609164Y430839D01*
X609077Y430921D01*
X609042Y430941D01*
X609010Y430966D01*
X608903Y431017D01*
X608798Y431075D01*
X608759Y431085D01*
X608723Y431102D01*
X608606Y431124D01*
X608491Y431154D01*
X608430Y431158D01*
X608410Y431162D01*
X608390Y431160D01*
X608330Y431164D01*
X596259Y431164D01*
X596259Y440475D01*
X596588Y442549D01*
X597237Y444546D01*
X598190Y446417D01*
X599424Y448116D01*
X600909Y449601D01*
X601215Y449823D01*
X601273Y449878D01*
X601338Y449924D01*
X601389Y449986D01*
X601447Y450041D01*
X601490Y450108D01*
X601541Y450169D01*
X601575Y450242D01*
X601618Y450309D01*
X601642Y450385D01*
X601676Y450457D01*
X601691Y450536D01*
X601716Y450612D01*
X601721Y450691D01*
X601736Y450770D01*
X601731Y450849D01*
X601736Y450929D01*
X601721Y451007D01*
X601716Y451087D01*
X601691Y451163D01*
X601677Y451242D01*
X601643Y451314D01*
X601618Y451389D01*
X601575Y451457D01*
X601541Y451529D01*
X601491Y451591D01*
X601448Y451658D01*
X601390Y451713D01*
X601339Y451775D01*
X601274Y451821D01*
X601216Y451876D01*
X601146Y451915D01*
X601082Y451962D01*
X601008Y451991D01*
X600938Y452030D01*
X600860Y452050D01*
X600786Y452079D01*
X600707Y452089D01*
X600630Y452109D01*
X600472Y452119D01*
X600471Y452119D01*
X600470Y452119D01*
X600469Y452119D01*
X9525Y452119D01*
X9407Y452104D01*
X9288Y452097D01*
X9250Y452084D01*
X9209Y452079D01*
X9099Y452036D01*
X8986Y451999D01*
X8951Y451977D01*
X8914Y451962D01*
X8818Y451893D01*
X8717Y451829D01*
X8689Y451799D01*
X8656Y451776D01*
X8581Y451684D01*
X8499Y451597D01*
X8479Y451562D01*
X8454Y451531D01*
X8403Y451423D01*
X8345Y451319D01*
X8335Y451279D01*
X8318Y451243D01*
X8296Y451126D01*
X8266Y451011D01*
X8262Y450951D01*
X8258Y450931D01*
X8260Y450910D01*
X8256Y450850D01*
X8256Y9525D01*
X8271Y9407D01*
X8278Y9288D01*
X8291Y9250D01*
X8296Y9209D01*
X8339Y9099D01*
X8376Y8986D01*
X8398Y8951D01*
X8413Y8914D01*
X8483Y8818D01*
X8546Y8717D01*
X8576Y8689D01*
X8599Y8656D01*
X8691Y8581D01*
X8778Y8499D01*
X8813Y8479D01*
X8844Y8454D01*
X8952Y8403D01*
X9056Y8345D01*
X9096Y8335D01*
X9132Y8318D01*
X9249Y8296D01*
X9364Y8266D01*
X9425Y8262D01*
X9445Y8258D01*
X9465Y8260D01*
X9525Y8256D01*
X984250Y8256D01*
X984368Y8271D01*
G37*
%LPC*%
G36*
X699578Y65659D02*
X699578Y65659D01*
X695704Y67264D01*
X692739Y70229D01*
X691134Y74103D01*
X691134Y78297D01*
X692739Y82171D01*
X695704Y85136D01*
X699578Y86741D01*
X703772Y86741D01*
X705056Y86209D01*
X705123Y86190D01*
X705188Y86163D01*
X705276Y86148D01*
X705363Y86125D01*
X705433Y86124D01*
X705502Y86113D01*
X705591Y86121D01*
X705681Y86120D01*
X705749Y86136D01*
X705818Y86143D01*
X705903Y86173D01*
X705990Y86194D01*
X706052Y86226D01*
X706118Y86250D01*
X706192Y86301D01*
X706271Y86343D01*
X706323Y86390D01*
X706381Y86429D01*
X706440Y86496D01*
X706507Y86557D01*
X706545Y86615D01*
X706591Y86667D01*
X706632Y86747D01*
X706681Y86822D01*
X706704Y86888D01*
X706736Y86950D01*
X706755Y87038D01*
X706785Y87123D01*
X706790Y87193D01*
X706805Y87261D01*
X706803Y87350D01*
X706810Y87440D01*
X706798Y87509D01*
X706796Y87579D01*
X706771Y87665D01*
X706755Y87753D01*
X706727Y87817D01*
X706707Y87884D01*
X706662Y87961D01*
X706625Y88043D01*
X706581Y88098D01*
X706546Y88158D01*
X706439Y88279D01*
X705439Y89279D01*
X703834Y93153D01*
X703834Y97347D01*
X705439Y101221D01*
X708404Y104186D01*
X712278Y105791D01*
X716472Y105791D01*
X717594Y105326D01*
X717623Y105318D01*
X717649Y105305D01*
X717776Y105276D01*
X717901Y105242D01*
X717931Y105241D01*
X717959Y105235D01*
X718089Y105239D01*
X718219Y105237D01*
X718248Y105244D01*
X718277Y105245D01*
X718402Y105281D01*
X718528Y105311D01*
X718554Y105325D01*
X718583Y105333D01*
X718694Y105399D01*
X718809Y105460D01*
X718831Y105480D01*
X718857Y105494D01*
X718977Y105601D01*
X725814Y112437D01*
X725874Y112515D01*
X725942Y112587D01*
X725971Y112640D01*
X726008Y112688D01*
X726048Y112779D01*
X726096Y112866D01*
X726111Y112924D01*
X726135Y112980D01*
X726150Y113078D01*
X726175Y113174D01*
X726181Y113274D01*
X726185Y113294D01*
X726183Y113306D01*
X726185Y113334D01*
X726185Y115237D01*
X726177Y115307D01*
X726178Y115376D01*
X726157Y115464D01*
X726145Y115553D01*
X726120Y115618D01*
X726103Y115686D01*
X726061Y115765D01*
X726028Y115849D01*
X725987Y115905D01*
X725955Y115967D01*
X725894Y116033D01*
X725842Y116106D01*
X725788Y116150D01*
X725741Y116202D01*
X725666Y116251D01*
X725597Y116309D01*
X725533Y116338D01*
X725475Y116377D01*
X725390Y116406D01*
X725309Y116444D01*
X725240Y116457D01*
X725174Y116480D01*
X725085Y116487D01*
X724997Y116504D01*
X724927Y116500D01*
X724857Y116505D01*
X724769Y116490D01*
X724679Y116484D01*
X724613Y116463D01*
X724544Y116451D01*
X724462Y116414D01*
X724377Y116386D01*
X724318Y116349D01*
X724254Y116320D01*
X724184Y116264D01*
X724108Y116216D01*
X724060Y116165D01*
X724006Y116122D01*
X723951Y116050D01*
X723890Y115984D01*
X723856Y115923D01*
X723814Y115868D01*
X723743Y115723D01*
X723311Y114679D01*
X720346Y111714D01*
X716472Y110109D01*
X712278Y110109D01*
X708404Y111714D01*
X705439Y114679D01*
X703834Y118553D01*
X703834Y122747D01*
X705439Y126621D01*
X706439Y127621D01*
X706482Y127676D01*
X706532Y127725D01*
X706579Y127802D01*
X706634Y127872D01*
X706662Y127936D01*
X706698Y127996D01*
X706725Y128082D01*
X706761Y128164D01*
X706772Y128233D01*
X706792Y128300D01*
X706796Y128389D01*
X706810Y128478D01*
X706804Y128548D01*
X706807Y128618D01*
X706789Y128705D01*
X706781Y128795D01*
X706757Y128861D01*
X706743Y128929D01*
X706704Y129010D01*
X706673Y129094D01*
X706634Y129152D01*
X706603Y129215D01*
X706545Y129283D01*
X706494Y129357D01*
X706442Y129404D01*
X706397Y129457D01*
X706323Y129508D01*
X706256Y129568D01*
X706194Y129600D01*
X706137Y129640D01*
X706053Y129672D01*
X705973Y129713D01*
X705905Y129728D01*
X705839Y129753D01*
X705750Y129763D01*
X705663Y129782D01*
X705593Y129780D01*
X705523Y129788D01*
X705434Y129775D01*
X705345Y129773D01*
X705278Y129753D01*
X705208Y129743D01*
X705056Y129691D01*
X703772Y129159D01*
X699578Y129159D01*
X695704Y130764D01*
X692739Y133729D01*
X691134Y137603D01*
X691134Y141797D01*
X692739Y145671D01*
X695704Y148636D01*
X699578Y150241D01*
X703772Y150241D01*
X707646Y148636D01*
X710611Y145671D01*
X712216Y141797D01*
X712216Y137603D01*
X710611Y133729D01*
X709611Y132729D01*
X709568Y132674D01*
X709518Y132625D01*
X709471Y132548D01*
X709416Y132478D01*
X709388Y132414D01*
X709352Y132354D01*
X709325Y132268D01*
X709289Y132186D01*
X709278Y132117D01*
X709258Y132050D01*
X709254Y131961D01*
X709240Y131872D01*
X709246Y131802D01*
X709243Y131732D01*
X709261Y131645D01*
X709269Y131555D01*
X709293Y131489D01*
X709307Y131421D01*
X709346Y131340D01*
X709377Y131256D01*
X709416Y131198D01*
X709447Y131135D01*
X709505Y131067D01*
X709556Y130993D01*
X709608Y130946D01*
X709653Y130893D01*
X709727Y130842D01*
X709794Y130782D01*
X709856Y130750D01*
X709913Y130710D01*
X709997Y130678D01*
X710077Y130637D01*
X710145Y130622D01*
X710211Y130597D01*
X710300Y130587D01*
X710387Y130568D01*
X710457Y130570D01*
X710527Y130562D01*
X710616Y130575D01*
X710705Y130577D01*
X710772Y130597D01*
X710842Y130607D01*
X710994Y130659D01*
X712278Y131191D01*
X715391Y131191D01*
X715509Y131206D01*
X715628Y131213D01*
X715666Y131226D01*
X715707Y131231D01*
X715817Y131274D01*
X715930Y131311D01*
X715965Y131333D01*
X716002Y131348D01*
X716098Y131417D01*
X716199Y131481D01*
X716227Y131511D01*
X716260Y131534D01*
X716336Y131626D01*
X716417Y131713D01*
X716437Y131748D01*
X716462Y131779D01*
X716513Y131887D01*
X716571Y131991D01*
X716581Y132031D01*
X716598Y132067D01*
X716620Y132184D01*
X716650Y132299D01*
X716654Y132359D01*
X716658Y132379D01*
X716656Y132400D01*
X716660Y132460D01*
X716660Y239206D01*
X725218Y247763D01*
X725223Y247771D01*
X725231Y247777D01*
X725320Y247895D01*
X725413Y248015D01*
X725416Y248023D01*
X725422Y248031D01*
X725493Y248175D01*
X726158Y249781D01*
X727516Y251139D01*
X729290Y251874D01*
X731210Y251874D01*
X732984Y251139D01*
X734342Y249781D01*
X735077Y248008D01*
X735077Y246087D01*
X734342Y244313D01*
X732984Y242955D01*
X731378Y242290D01*
X731370Y242285D01*
X731361Y242283D01*
X731232Y242207D01*
X731102Y242133D01*
X731095Y242126D01*
X731087Y242121D01*
X730966Y242015D01*
X730798Y241847D01*
X730768Y241808D01*
X730731Y241774D01*
X730670Y241683D01*
X730603Y241596D01*
X730583Y241550D01*
X730556Y241509D01*
X730520Y241405D01*
X730477Y241304D01*
X730469Y241255D01*
X730453Y241208D01*
X730444Y241098D01*
X730427Y240990D01*
X730432Y240940D01*
X730428Y240891D01*
X730446Y240783D01*
X730457Y240673D01*
X730474Y240626D01*
X730482Y240577D01*
X730527Y240477D01*
X730564Y240374D01*
X730592Y240333D01*
X730613Y240287D01*
X730681Y240202D01*
X730743Y240111D01*
X730780Y240078D01*
X730811Y240039D01*
X730899Y239973D01*
X730981Y239900D01*
X731026Y239878D01*
X731065Y239848D01*
X731210Y239777D01*
X732984Y239042D01*
X734342Y237684D01*
X735077Y235910D01*
X735077Y233990D01*
X734411Y232384D01*
X734409Y232375D01*
X734404Y232366D01*
X734367Y232221D01*
X734327Y232077D01*
X734327Y232067D01*
X734325Y232058D01*
X734315Y231898D01*
X734315Y109441D01*
X724726Y99852D01*
X724708Y99829D01*
X724685Y99810D01*
X724611Y99704D01*
X724531Y99601D01*
X724519Y99574D01*
X724502Y99550D01*
X724456Y99429D01*
X724405Y99309D01*
X724400Y99280D01*
X724389Y99253D01*
X724375Y99124D01*
X724355Y98995D01*
X724358Y98966D01*
X724354Y98937D01*
X724372Y98808D01*
X724385Y98679D01*
X724395Y98651D01*
X724399Y98622D01*
X724451Y98469D01*
X724916Y97347D01*
X724916Y93153D01*
X723311Y89279D01*
X720346Y86314D01*
X716472Y84709D01*
X712278Y84709D01*
X710994Y85241D01*
X710927Y85260D01*
X710862Y85287D01*
X710774Y85302D01*
X710687Y85325D01*
X710617Y85326D01*
X710548Y85337D01*
X710459Y85329D01*
X710369Y85330D01*
X710301Y85314D01*
X710232Y85307D01*
X710147Y85277D01*
X710060Y85256D01*
X709998Y85224D01*
X709932Y85200D01*
X709858Y85149D01*
X709779Y85107D01*
X709727Y85060D01*
X709669Y85021D01*
X709610Y84954D01*
X709543Y84893D01*
X709505Y84835D01*
X709459Y84783D01*
X709418Y84703D01*
X709369Y84628D01*
X709346Y84562D01*
X709314Y84500D01*
X709295Y84412D01*
X709265Y84327D01*
X709260Y84257D01*
X709245Y84189D01*
X709247Y84100D01*
X709240Y84010D01*
X709252Y83941D01*
X709254Y83871D01*
X709279Y83785D01*
X709295Y83697D01*
X709323Y83633D01*
X709343Y83566D01*
X709388Y83489D01*
X709425Y83407D01*
X709469Y83352D01*
X709504Y83292D01*
X709611Y83171D01*
X710611Y82171D01*
X712216Y78297D01*
X712216Y74103D01*
X710611Y70229D01*
X707646Y67264D01*
X703772Y65659D01*
X699578Y65659D01*
G37*
%LPD*%
%LPC*%
G36*
X191578Y65659D02*
X191578Y65659D01*
X187704Y67264D01*
X184739Y70229D01*
X183134Y74103D01*
X183134Y78297D01*
X184739Y82171D01*
X187704Y85136D01*
X191578Y86741D01*
X195772Y86741D01*
X197056Y86209D01*
X197123Y86190D01*
X197188Y86163D01*
X197276Y86148D01*
X197363Y86125D01*
X197433Y86124D01*
X197502Y86113D01*
X197591Y86121D01*
X197681Y86120D01*
X197749Y86136D01*
X197818Y86143D01*
X197903Y86173D01*
X197990Y86194D01*
X198052Y86226D01*
X198118Y86250D01*
X198192Y86301D01*
X198271Y86343D01*
X198323Y86390D01*
X198381Y86429D01*
X198440Y86496D01*
X198507Y86557D01*
X198545Y86615D01*
X198591Y86667D01*
X198632Y86747D01*
X198681Y86822D01*
X198704Y86888D01*
X198736Y86950D01*
X198755Y87038D01*
X198785Y87123D01*
X198790Y87193D01*
X198805Y87261D01*
X198803Y87350D01*
X198810Y87440D01*
X198798Y87509D01*
X198796Y87579D01*
X198771Y87665D01*
X198755Y87753D01*
X198727Y87817D01*
X198707Y87884D01*
X198662Y87961D01*
X198625Y88043D01*
X198581Y88098D01*
X198546Y88158D01*
X198439Y88279D01*
X197439Y89279D01*
X195834Y93153D01*
X195834Y97347D01*
X197439Y101221D01*
X200404Y104186D01*
X204278Y105791D01*
X208472Y105791D01*
X209594Y105326D01*
X209623Y105318D01*
X209649Y105305D01*
X209776Y105276D01*
X209901Y105242D01*
X209931Y105241D01*
X209959Y105235D01*
X210089Y105239D01*
X210219Y105237D01*
X210248Y105244D01*
X210277Y105245D01*
X210402Y105281D01*
X210528Y105311D01*
X210554Y105325D01*
X210583Y105333D01*
X210694Y105399D01*
X210809Y105460D01*
X210831Y105480D01*
X210857Y105494D01*
X210977Y105601D01*
X224164Y118787D01*
X224224Y118865D01*
X224292Y118937D01*
X224321Y118990D01*
X224358Y119038D01*
X224398Y119129D01*
X224446Y119216D01*
X224461Y119274D01*
X224485Y119330D01*
X224500Y119428D01*
X224525Y119524D01*
X224531Y119624D01*
X224535Y119644D01*
X224533Y119656D01*
X224535Y119684D01*
X224535Y137491D01*
X224523Y137589D01*
X224520Y137688D01*
X224503Y137746D01*
X224495Y137806D01*
X224459Y137898D01*
X224431Y137993D01*
X224401Y138045D01*
X224378Y138102D01*
X224320Y138182D01*
X224270Y138267D01*
X224204Y138343D01*
X224192Y138359D01*
X224182Y138367D01*
X224164Y138388D01*
X218956Y143595D01*
X218847Y143680D01*
X218740Y143769D01*
X218721Y143778D01*
X218705Y143790D01*
X218577Y143846D01*
X218452Y143905D01*
X218432Y143908D01*
X218413Y143916D01*
X218275Y143938D01*
X218139Y143964D01*
X218119Y143963D01*
X218099Y143966D01*
X217960Y143953D01*
X217822Y143945D01*
X217803Y143938D01*
X217783Y143936D01*
X217651Y143889D01*
X217520Y143847D01*
X217502Y143836D01*
X217483Y143829D01*
X217368Y143751D01*
X217251Y143676D01*
X217237Y143662D01*
X217220Y143650D01*
X217128Y143546D01*
X217033Y143445D01*
X217023Y143427D01*
X217010Y143412D01*
X216946Y143288D01*
X216879Y143166D01*
X216874Y143147D01*
X216865Y143129D01*
X216835Y142993D01*
X216800Y142858D01*
X216798Y142830D01*
X216795Y142818D01*
X216796Y142798D01*
X216790Y142698D01*
X216790Y125316D01*
X216726Y125253D01*
X216708Y125229D01*
X216685Y125210D01*
X216611Y125104D01*
X216531Y125001D01*
X216519Y124974D01*
X216502Y124950D01*
X216456Y124828D01*
X216405Y124709D01*
X216400Y124680D01*
X216389Y124653D01*
X216375Y124523D01*
X216355Y124395D01*
X216358Y124366D01*
X216354Y124337D01*
X216372Y124208D01*
X216385Y124079D01*
X216395Y124051D01*
X216399Y124022D01*
X216451Y123869D01*
X216916Y122747D01*
X216916Y118553D01*
X215311Y114679D01*
X212346Y111714D01*
X208472Y110109D01*
X204278Y110109D01*
X200404Y111714D01*
X197439Y114679D01*
X195834Y118553D01*
X195834Y122747D01*
X197439Y126621D01*
X198439Y127621D01*
X198482Y127676D01*
X198532Y127725D01*
X198579Y127802D01*
X198634Y127872D01*
X198662Y127936D01*
X198698Y127996D01*
X198725Y128082D01*
X198761Y128164D01*
X198772Y128233D01*
X198792Y128300D01*
X198796Y128389D01*
X198810Y128478D01*
X198804Y128548D01*
X198807Y128618D01*
X198789Y128705D01*
X198781Y128795D01*
X198757Y128861D01*
X198743Y128929D01*
X198704Y129010D01*
X198673Y129094D01*
X198634Y129152D01*
X198603Y129215D01*
X198545Y129283D01*
X198494Y129357D01*
X198442Y129404D01*
X198397Y129457D01*
X198323Y129508D01*
X198256Y129568D01*
X198194Y129600D01*
X198137Y129640D01*
X198053Y129672D01*
X197973Y129713D01*
X197905Y129728D01*
X197839Y129753D01*
X197750Y129763D01*
X197663Y129782D01*
X197593Y129780D01*
X197523Y129788D01*
X197434Y129775D01*
X197345Y129773D01*
X197278Y129753D01*
X197208Y129743D01*
X197056Y129691D01*
X195772Y129159D01*
X191578Y129159D01*
X187704Y130764D01*
X184739Y133729D01*
X183134Y137603D01*
X183134Y141797D01*
X184739Y145671D01*
X187704Y148636D01*
X191578Y150241D01*
X195772Y150241D01*
X196430Y149968D01*
X196498Y149949D01*
X196562Y149922D01*
X196651Y149908D01*
X196737Y149884D01*
X196807Y149883D01*
X196876Y149872D01*
X196965Y149880D01*
X197055Y149879D01*
X197123Y149895D01*
X197192Y149902D01*
X197277Y149932D01*
X197364Y149953D01*
X197426Y149986D01*
X197492Y150009D01*
X197566Y150060D01*
X197645Y150102D01*
X197697Y150149D01*
X197755Y150188D01*
X197814Y150255D01*
X197881Y150316D01*
X197919Y150374D01*
X197965Y150426D01*
X198006Y150506D01*
X198056Y150581D01*
X198078Y150647D01*
X198110Y150710D01*
X198130Y150797D01*
X198159Y150882D01*
X198164Y150952D01*
X198180Y151020D01*
X198177Y151110D01*
X198184Y151199D01*
X198172Y151268D01*
X198170Y151338D01*
X198145Y151424D01*
X198130Y151513D01*
X198101Y151576D01*
X198082Y151643D01*
X198036Y151721D01*
X197999Y151803D01*
X197955Y151857D01*
X197920Y151917D01*
X197814Y152038D01*
X183260Y166591D01*
X183260Y209673D01*
X183259Y209682D01*
X183260Y209691D01*
X183239Y209840D01*
X183220Y209988D01*
X183217Y209997D01*
X183216Y210006D01*
X183164Y210159D01*
X182498Y211765D01*
X182498Y213685D01*
X183233Y215459D01*
X184591Y216817D01*
X186365Y217552D01*
X188285Y217552D01*
X190059Y216817D01*
X191417Y215459D01*
X192152Y213685D01*
X192152Y211553D01*
X192158Y211504D01*
X192156Y211454D01*
X192178Y211347D01*
X192192Y211237D01*
X192210Y211191D01*
X192220Y211143D01*
X192268Y211044D01*
X192309Y210942D01*
X192338Y210902D01*
X192360Y210857D01*
X192431Y210773D01*
X192495Y210684D01*
X192534Y210653D01*
X192566Y210615D01*
X192656Y210552D01*
X192740Y210482D01*
X192785Y210460D01*
X192826Y210432D01*
X192929Y210393D01*
X193028Y210346D01*
X193077Y210337D01*
X193123Y210319D01*
X193233Y210307D01*
X193340Y210286D01*
X193390Y210289D01*
X193439Y210284D01*
X193548Y210299D01*
X193658Y210306D01*
X193705Y210321D01*
X193754Y210328D01*
X193907Y210380D01*
X195890Y211202D01*
X197810Y211202D01*
X199584Y210467D01*
X200942Y209109D01*
X201677Y207335D01*
X201677Y205415D01*
X201011Y203809D01*
X201009Y203800D01*
X201004Y203791D01*
X200967Y203646D01*
X200927Y203502D01*
X200927Y203493D01*
X200925Y203484D01*
X200915Y203323D01*
X200915Y173659D01*
X200927Y173561D01*
X200930Y173462D01*
X200947Y173404D01*
X200955Y173344D01*
X200991Y173252D01*
X201019Y173157D01*
X201049Y173105D01*
X201072Y173048D01*
X201130Y172968D01*
X201180Y172883D01*
X201246Y172807D01*
X201258Y172791D01*
X201268Y172783D01*
X201286Y172762D01*
X232665Y141384D01*
X232665Y115791D01*
X216726Y99852D01*
X216708Y99829D01*
X216685Y99810D01*
X216611Y99704D01*
X216531Y99601D01*
X216519Y99574D01*
X216502Y99550D01*
X216456Y99429D01*
X216405Y99309D01*
X216400Y99280D01*
X216389Y99253D01*
X216375Y99124D01*
X216355Y98995D01*
X216358Y98966D01*
X216354Y98937D01*
X216372Y98808D01*
X216385Y98679D01*
X216395Y98651D01*
X216399Y98622D01*
X216451Y98469D01*
X216916Y97347D01*
X216916Y93153D01*
X215311Y89279D01*
X212346Y86314D01*
X208472Y84709D01*
X204278Y84709D01*
X202994Y85241D01*
X202927Y85260D01*
X202862Y85287D01*
X202774Y85302D01*
X202687Y85325D01*
X202617Y85326D01*
X202548Y85337D01*
X202459Y85329D01*
X202369Y85330D01*
X202301Y85314D01*
X202232Y85307D01*
X202147Y85277D01*
X202060Y85256D01*
X201998Y85224D01*
X201932Y85200D01*
X201858Y85149D01*
X201779Y85107D01*
X201727Y85060D01*
X201669Y85021D01*
X201610Y84954D01*
X201543Y84893D01*
X201505Y84835D01*
X201459Y84783D01*
X201418Y84703D01*
X201369Y84628D01*
X201346Y84562D01*
X201314Y84500D01*
X201295Y84412D01*
X201265Y84327D01*
X201260Y84257D01*
X201245Y84189D01*
X201247Y84100D01*
X201240Y84010D01*
X201252Y83941D01*
X201254Y83871D01*
X201279Y83785D01*
X201295Y83697D01*
X201323Y83633D01*
X201343Y83566D01*
X201388Y83489D01*
X201425Y83407D01*
X201469Y83352D01*
X201504Y83292D01*
X201611Y83171D01*
X202611Y82171D01*
X204216Y78297D01*
X204216Y74103D01*
X202611Y70229D01*
X199646Y67264D01*
X195772Y65659D01*
X191578Y65659D01*
G37*
%LPD*%
%LPC*%
G36*
X445578Y65659D02*
X445578Y65659D01*
X441704Y67264D01*
X438739Y70229D01*
X437134Y74103D01*
X437134Y78297D01*
X438739Y82171D01*
X441704Y85136D01*
X445578Y86741D01*
X449772Y86741D01*
X451056Y86209D01*
X451123Y86190D01*
X451187Y86163D01*
X451276Y86148D01*
X451363Y86125D01*
X451433Y86124D01*
X451502Y86113D01*
X451591Y86121D01*
X451681Y86120D01*
X451749Y86136D01*
X451818Y86143D01*
X451903Y86173D01*
X451990Y86194D01*
X452052Y86226D01*
X452117Y86250D01*
X452192Y86301D01*
X452271Y86343D01*
X452323Y86390D01*
X452381Y86429D01*
X452440Y86496D01*
X452507Y86556D01*
X452545Y86615D01*
X452591Y86667D01*
X452632Y86747D01*
X452681Y86822D01*
X452704Y86888D01*
X452736Y86950D01*
X452755Y87038D01*
X452785Y87123D01*
X452790Y87193D01*
X452805Y87261D01*
X452803Y87350D01*
X452810Y87440D01*
X452798Y87509D01*
X452796Y87579D01*
X452771Y87665D01*
X452755Y87753D01*
X452727Y87817D01*
X452707Y87884D01*
X452662Y87961D01*
X452625Y88043D01*
X452581Y88098D01*
X452546Y88158D01*
X452439Y88279D01*
X451439Y89279D01*
X449834Y93153D01*
X449834Y97347D01*
X451439Y101221D01*
X454404Y104186D01*
X458278Y105791D01*
X462472Y105791D01*
X463594Y105326D01*
X463623Y105318D01*
X463649Y105305D01*
X463776Y105276D01*
X463901Y105242D01*
X463931Y105241D01*
X463959Y105235D01*
X464089Y105239D01*
X464219Y105237D01*
X464248Y105244D01*
X464277Y105245D01*
X464402Y105281D01*
X464528Y105311D01*
X464554Y105325D01*
X464583Y105333D01*
X464694Y105399D01*
X464809Y105460D01*
X464831Y105480D01*
X464857Y105494D01*
X464977Y105601D01*
X474989Y115612D01*
X475049Y115690D01*
X475117Y115762D01*
X475146Y115815D01*
X475183Y115863D01*
X475223Y115954D01*
X475271Y116041D01*
X475286Y116099D01*
X475310Y116155D01*
X475325Y116253D01*
X475350Y116349D01*
X475356Y116449D01*
X475360Y116469D01*
X475358Y116481D01*
X475360Y116509D01*
X475360Y147016D01*
X475348Y147114D01*
X475345Y147213D01*
X475328Y147271D01*
X475320Y147331D01*
X475284Y147423D01*
X475256Y147518D01*
X475226Y147571D01*
X475203Y147627D01*
X475145Y147707D01*
X475095Y147792D01*
X475029Y147868D01*
X475017Y147884D01*
X475007Y147892D01*
X474989Y147913D01*
X471763Y151139D01*
X469781Y153120D01*
X469672Y153205D01*
X469565Y153294D01*
X469546Y153303D01*
X469530Y153315D01*
X469402Y153371D01*
X469277Y153430D01*
X469257Y153433D01*
X469238Y153441D01*
X469100Y153463D01*
X468964Y153489D01*
X468944Y153488D01*
X468924Y153491D01*
X468785Y153478D01*
X468647Y153470D01*
X468628Y153463D01*
X468608Y153461D01*
X468476Y153414D01*
X468345Y153372D01*
X468327Y153361D01*
X468308Y153354D01*
X468193Y153276D01*
X468076Y153201D01*
X468062Y153187D01*
X468045Y153175D01*
X467953Y153071D01*
X467858Y152970D01*
X467848Y152952D01*
X467835Y152937D01*
X467771Y152813D01*
X467704Y152691D01*
X467699Y152672D01*
X467690Y152654D01*
X467660Y152518D01*
X467625Y152383D01*
X467623Y152355D01*
X467620Y152343D01*
X467621Y152323D01*
X467615Y152223D01*
X467615Y128843D01*
X467627Y128745D01*
X467630Y128646D01*
X467647Y128587D01*
X467655Y128527D01*
X467691Y128435D01*
X467719Y128340D01*
X467741Y128301D01*
X467743Y128295D01*
X467752Y128282D01*
X467772Y128232D01*
X467830Y128152D01*
X467880Y128066D01*
X467910Y128033D01*
X467914Y128026D01*
X467923Y128018D01*
X467946Y127991D01*
X467958Y127974D01*
X467968Y127967D01*
X467986Y127945D01*
X469311Y126621D01*
X470916Y122747D01*
X470916Y118553D01*
X469311Y114679D01*
X466346Y111714D01*
X462472Y110109D01*
X458278Y110109D01*
X454404Y111714D01*
X451439Y114679D01*
X449834Y118553D01*
X449834Y122747D01*
X451439Y126621D01*
X452439Y127621D01*
X452482Y127676D01*
X452532Y127725D01*
X452579Y127801D01*
X452634Y127872D01*
X452662Y127937D01*
X452698Y127996D01*
X452725Y128082D01*
X452761Y128164D01*
X452772Y128233D01*
X452792Y128300D01*
X452796Y128389D01*
X452810Y128478D01*
X452804Y128548D01*
X452807Y128618D01*
X452789Y128705D01*
X452781Y128795D01*
X452757Y128861D01*
X452743Y128929D01*
X452703Y129010D01*
X452673Y129094D01*
X452634Y129152D01*
X452603Y129215D01*
X452545Y129283D01*
X452494Y129357D01*
X452442Y129404D01*
X452397Y129457D01*
X452323Y129508D01*
X452256Y129568D01*
X452194Y129600D01*
X452137Y129640D01*
X452053Y129672D01*
X451973Y129713D01*
X451905Y129728D01*
X451839Y129753D01*
X451750Y129763D01*
X451662Y129782D01*
X451593Y129780D01*
X451523Y129788D01*
X451434Y129775D01*
X451345Y129773D01*
X451278Y129753D01*
X451208Y129743D01*
X451056Y129691D01*
X449772Y129159D01*
X445578Y129159D01*
X441704Y130764D01*
X438739Y133729D01*
X437134Y137603D01*
X437134Y141797D01*
X438739Y145671D01*
X441704Y148636D01*
X445578Y150241D01*
X449772Y150241D01*
X453646Y148636D01*
X456611Y145671D01*
X457043Y144627D01*
X457078Y144566D01*
X457104Y144501D01*
X457156Y144429D01*
X457201Y144351D01*
X457249Y144301D01*
X457290Y144244D01*
X457360Y144187D01*
X457422Y144122D01*
X457482Y144086D01*
X457535Y144041D01*
X457617Y144003D01*
X457693Y143956D01*
X457760Y143935D01*
X457823Y143906D01*
X457911Y143889D01*
X457997Y143862D01*
X458067Y143859D01*
X458136Y143846D01*
X458225Y143852D01*
X458315Y143847D01*
X458383Y143861D01*
X458453Y143866D01*
X458538Y143893D01*
X458626Y143912D01*
X458689Y143942D01*
X458755Y143964D01*
X458831Y144012D01*
X458912Y144051D01*
X458965Y144097D01*
X459024Y144134D01*
X459086Y144199D01*
X459154Y144258D01*
X459194Y144315D01*
X459242Y144366D01*
X459285Y144444D01*
X459337Y144518D01*
X459362Y144583D01*
X459396Y144644D01*
X459418Y144731D01*
X459450Y144815D01*
X459458Y144885D01*
X459475Y144952D01*
X459485Y145113D01*
X459485Y222373D01*
X459484Y222382D01*
X459485Y222391D01*
X459464Y222540D01*
X459445Y222688D01*
X459442Y222697D01*
X459441Y222706D01*
X459389Y222859D01*
X458723Y224465D01*
X458723Y226385D01*
X459458Y228159D01*
X460816Y229517D01*
X462590Y230252D01*
X464510Y230252D01*
X466284Y229517D01*
X467642Y228159D01*
X468238Y226721D01*
X468262Y226678D01*
X468279Y226631D01*
X468341Y226540D01*
X468395Y226444D01*
X468430Y226409D01*
X468458Y226368D01*
X468540Y226295D01*
X468617Y226216D01*
X468659Y226190D01*
X468696Y226157D01*
X468794Y226107D01*
X468888Y226050D01*
X468935Y226035D01*
X468979Y226013D01*
X469087Y225988D01*
X469192Y225956D01*
X469241Y225954D01*
X469290Y225943D01*
X469400Y225946D01*
X469509Y225941D01*
X469558Y225951D01*
X469608Y225953D01*
X469713Y225983D01*
X469821Y226005D01*
X469865Y226027D01*
X469913Y226041D01*
X470008Y226097D01*
X470106Y226145D01*
X470144Y226177D01*
X470187Y226202D01*
X470308Y226309D01*
X470341Y226342D01*
X472115Y227077D01*
X474035Y227077D01*
X475809Y226342D01*
X477167Y224984D01*
X477902Y223210D01*
X477902Y221290D01*
X477236Y219684D01*
X477234Y219675D01*
X477229Y219666D01*
X477192Y219521D01*
X477152Y219377D01*
X477152Y219367D01*
X477150Y219358D01*
X477140Y219198D01*
X477140Y157784D01*
X477152Y157686D01*
X477155Y157587D01*
X477172Y157529D01*
X477180Y157469D01*
X477216Y157377D01*
X477244Y157282D01*
X477274Y157229D01*
X477297Y157173D01*
X477355Y157093D01*
X477405Y157008D01*
X477471Y156932D01*
X477483Y156916D01*
X477493Y156908D01*
X477511Y156887D01*
X480737Y153661D01*
X483490Y150909D01*
X483490Y112616D01*
X470726Y99852D01*
X470708Y99829D01*
X470685Y99810D01*
X470611Y99704D01*
X470531Y99601D01*
X470519Y99574D01*
X470502Y99550D01*
X470456Y99429D01*
X470405Y99309D01*
X470400Y99280D01*
X470389Y99253D01*
X470375Y99124D01*
X470355Y98995D01*
X470358Y98966D01*
X470354Y98937D01*
X470372Y98808D01*
X470385Y98679D01*
X470395Y98651D01*
X470399Y98622D01*
X470451Y98469D01*
X470916Y97347D01*
X470916Y93153D01*
X469311Y89279D01*
X466346Y86314D01*
X462472Y84709D01*
X458278Y84709D01*
X456994Y85241D01*
X456927Y85260D01*
X456863Y85287D01*
X456774Y85302D01*
X456687Y85325D01*
X456617Y85326D01*
X456548Y85337D01*
X456459Y85329D01*
X456369Y85330D01*
X456301Y85314D01*
X456232Y85307D01*
X456147Y85277D01*
X456060Y85256D01*
X455998Y85224D01*
X455933Y85200D01*
X455858Y85149D01*
X455779Y85107D01*
X455727Y85060D01*
X455669Y85021D01*
X455610Y84954D01*
X455543Y84894D01*
X455505Y84835D01*
X455459Y84783D01*
X455418Y84703D01*
X455369Y84628D01*
X455346Y84562D01*
X455314Y84500D01*
X455295Y84412D01*
X455265Y84327D01*
X455260Y84257D01*
X455245Y84189D01*
X455247Y84100D01*
X455240Y84010D01*
X455252Y83941D01*
X455254Y83871D01*
X455279Y83785D01*
X455295Y83697D01*
X455323Y83633D01*
X455343Y83566D01*
X455388Y83489D01*
X455425Y83407D01*
X455469Y83352D01*
X455504Y83292D01*
X455611Y83171D01*
X456611Y82171D01*
X458216Y78297D01*
X458216Y74103D01*
X456611Y70229D01*
X453646Y67264D01*
X449772Y65659D01*
X445578Y65659D01*
G37*
%LPD*%
%LPC*%
G36*
X763078Y84709D02*
X763078Y84709D01*
X759204Y86314D01*
X756239Y89279D01*
X754634Y93153D01*
X754634Y97347D01*
X755099Y98469D01*
X755107Y98498D01*
X755120Y98524D01*
X755149Y98651D01*
X755183Y98776D01*
X755184Y98806D01*
X755190Y98834D01*
X755186Y98964D01*
X755188Y99094D01*
X755181Y99123D01*
X755180Y99152D01*
X755144Y99277D01*
X755114Y99403D01*
X755100Y99429D01*
X755092Y99458D01*
X755026Y99569D01*
X754965Y99684D01*
X754945Y99706D01*
X754931Y99732D01*
X754824Y99852D01*
X745235Y109441D01*
X745235Y150020D01*
X747988Y152772D01*
X762847Y167632D01*
X762932Y167741D01*
X763021Y167848D01*
X763030Y167867D01*
X763042Y167883D01*
X763098Y168011D01*
X763157Y168136D01*
X763160Y168156D01*
X763168Y168175D01*
X763190Y168313D01*
X763216Y168449D01*
X763215Y168469D01*
X763218Y168489D01*
X763205Y168628D01*
X763197Y168766D01*
X763190Y168785D01*
X763188Y168805D01*
X763141Y168937D01*
X763099Y169068D01*
X763088Y169086D01*
X763081Y169105D01*
X763003Y169220D01*
X762928Y169337D01*
X762914Y169351D01*
X762902Y169368D01*
X762798Y169460D01*
X762697Y169555D01*
X762679Y169565D01*
X762664Y169578D01*
X762540Y169641D01*
X762418Y169709D01*
X762399Y169714D01*
X762381Y169723D01*
X762245Y169753D01*
X762110Y169788D01*
X762082Y169790D01*
X762070Y169793D01*
X762050Y169792D01*
X761950Y169798D01*
X761040Y169798D01*
X759266Y170533D01*
X757908Y171891D01*
X757173Y173665D01*
X757173Y175585D01*
X757908Y177359D01*
X759266Y178717D01*
X760872Y179382D01*
X760880Y179387D01*
X760889Y179389D01*
X761018Y179466D01*
X761148Y179540D01*
X761155Y179546D01*
X761163Y179551D01*
X761284Y179657D01*
X805189Y223562D01*
X805249Y223640D01*
X805317Y223712D01*
X805346Y223765D01*
X805383Y223813D01*
X805423Y223904D01*
X805471Y223991D01*
X805486Y224049D01*
X805510Y224105D01*
X805525Y224203D01*
X805550Y224299D01*
X805556Y224399D01*
X805560Y224419D01*
X805558Y224431D01*
X805560Y224459D01*
X805560Y270841D01*
X805548Y270939D01*
X805545Y271038D01*
X805528Y271096D01*
X805520Y271156D01*
X805484Y271248D01*
X805456Y271343D01*
X805426Y271395D01*
X805403Y271452D01*
X805345Y271532D01*
X805295Y271617D01*
X805229Y271693D01*
X805217Y271709D01*
X805207Y271717D01*
X805189Y271738D01*
X802559Y274368D01*
X802552Y274373D01*
X802546Y274381D01*
X802427Y274470D01*
X802308Y274563D01*
X802299Y274566D01*
X802292Y274572D01*
X802147Y274643D01*
X800541Y275308D01*
X799183Y276666D01*
X798448Y278440D01*
X798448Y280360D01*
X799183Y282134D01*
X800541Y283492D01*
X802315Y284227D01*
X804235Y284227D01*
X806009Y283492D01*
X807367Y282134D01*
X808032Y280528D01*
X808037Y280520D01*
X808039Y280511D01*
X808116Y280382D01*
X808190Y280252D01*
X808196Y280245D01*
X808201Y280237D01*
X808307Y280116D01*
X813690Y274734D01*
X813690Y220566D01*
X796967Y203843D01*
X796882Y203734D01*
X796793Y203627D01*
X796784Y203608D01*
X796772Y203592D01*
X796716Y203464D01*
X796657Y203339D01*
X796654Y203319D01*
X796646Y203300D01*
X796624Y203162D01*
X796598Y203026D01*
X796599Y203006D01*
X796596Y202986D01*
X796609Y202847D01*
X796617Y202709D01*
X796624Y202690D01*
X796626Y202670D01*
X796673Y202538D01*
X796715Y202407D01*
X796726Y202389D01*
X796733Y202370D01*
X796811Y202255D01*
X796886Y202138D01*
X796900Y202124D01*
X796912Y202107D01*
X797016Y202015D01*
X797117Y201920D01*
X797135Y201910D01*
X797150Y201897D01*
X797274Y201833D01*
X797396Y201766D01*
X797415Y201761D01*
X797433Y201752D01*
X797569Y201722D01*
X797704Y201687D01*
X797732Y201685D01*
X797744Y201682D01*
X797764Y201683D01*
X797864Y201677D01*
X798774Y201677D01*
X800548Y200942D01*
X801906Y199584D01*
X802641Y197810D01*
X802641Y195890D01*
X801906Y194116D01*
X800548Y192758D01*
X798942Y192093D01*
X798934Y192088D01*
X798925Y192086D01*
X798796Y192009D01*
X798666Y191935D01*
X798659Y191929D01*
X798651Y191924D01*
X798530Y191818D01*
X753736Y147024D01*
X753676Y146946D01*
X753608Y146874D01*
X753579Y146821D01*
X753542Y146773D01*
X753502Y146682D01*
X753454Y146595D01*
X753439Y146537D01*
X753415Y146481D01*
X753400Y146383D01*
X753375Y146287D01*
X753369Y146187D01*
X753365Y146167D01*
X753367Y146155D01*
X753365Y146127D01*
X753365Y126063D01*
X753373Y125993D01*
X753372Y125924D01*
X753393Y125836D01*
X753405Y125747D01*
X753430Y125682D01*
X753447Y125614D01*
X753489Y125535D01*
X753522Y125451D01*
X753563Y125395D01*
X753595Y125333D01*
X753656Y125267D01*
X753708Y125194D01*
X753762Y125150D01*
X753809Y125098D01*
X753884Y125049D01*
X753953Y124991D01*
X754017Y124962D01*
X754075Y124923D01*
X754160Y124894D01*
X754241Y124856D01*
X754310Y124843D01*
X754376Y124820D01*
X754465Y124813D01*
X754553Y124796D01*
X754623Y124800D01*
X754693Y124795D01*
X754781Y124810D01*
X754871Y124816D01*
X754937Y124837D01*
X755006Y124849D01*
X755088Y124886D01*
X755173Y124914D01*
X755232Y124951D01*
X755296Y124980D01*
X755366Y125036D01*
X755442Y125084D01*
X755490Y125135D01*
X755544Y125178D01*
X755599Y125250D01*
X755660Y125316D01*
X755694Y125377D01*
X755736Y125432D01*
X755807Y125577D01*
X756239Y126621D01*
X759204Y129586D01*
X763078Y131191D01*
X767272Y131191D01*
X768556Y130659D01*
X768623Y130640D01*
X768687Y130613D01*
X768776Y130598D01*
X768863Y130575D01*
X768933Y130574D01*
X769002Y130563D01*
X769091Y130571D01*
X769181Y130570D01*
X769249Y130586D01*
X769318Y130592D01*
X769403Y130623D01*
X769490Y130644D01*
X769552Y130676D01*
X769617Y130700D01*
X769692Y130751D01*
X769771Y130793D01*
X769823Y130839D01*
X769881Y130879D01*
X769940Y130946D01*
X770007Y131006D01*
X770045Y131065D01*
X770091Y131117D01*
X770132Y131197D01*
X770181Y131272D01*
X770204Y131338D01*
X770236Y131400D01*
X770255Y131488D01*
X770285Y131573D01*
X770290Y131643D01*
X770305Y131711D01*
X770303Y131800D01*
X770310Y131890D01*
X770298Y131959D01*
X770296Y132029D01*
X770271Y132115D01*
X770255Y132203D01*
X770227Y132267D01*
X770207Y132334D01*
X770162Y132411D01*
X770125Y132493D01*
X770081Y132548D01*
X770046Y132608D01*
X769939Y132729D01*
X768939Y133729D01*
X767334Y137603D01*
X767334Y141797D01*
X768939Y145671D01*
X771904Y148636D01*
X775778Y150241D01*
X779972Y150241D01*
X783846Y148636D01*
X786811Y145671D01*
X788416Y141797D01*
X788416Y137603D01*
X786811Y133729D01*
X783846Y130764D01*
X779972Y129159D01*
X775778Y129159D01*
X774494Y129691D01*
X774427Y129710D01*
X774363Y129737D01*
X774274Y129752D01*
X774187Y129775D01*
X774117Y129776D01*
X774048Y129787D01*
X773959Y129779D01*
X773869Y129780D01*
X773801Y129764D01*
X773732Y129758D01*
X773647Y129727D01*
X773560Y129706D01*
X773498Y129674D01*
X773433Y129650D01*
X773358Y129599D01*
X773279Y129557D01*
X773227Y129511D01*
X773169Y129471D01*
X773110Y129404D01*
X773043Y129344D01*
X773005Y129285D01*
X772959Y129233D01*
X772918Y129153D01*
X772869Y129078D01*
X772846Y129012D01*
X772814Y128950D01*
X772795Y128862D01*
X772765Y128777D01*
X772760Y128707D01*
X772745Y128639D01*
X772747Y128550D01*
X772740Y128460D01*
X772752Y128391D01*
X772754Y128321D01*
X772779Y128235D01*
X772795Y128147D01*
X772823Y128083D01*
X772843Y128016D01*
X772888Y127939D01*
X772925Y127857D01*
X772969Y127802D01*
X773004Y127742D01*
X773111Y127621D01*
X774111Y126621D01*
X775716Y122747D01*
X775716Y118553D01*
X774111Y114679D01*
X771146Y111714D01*
X767272Y110109D01*
X763078Y110109D01*
X759204Y111714D01*
X756239Y114679D01*
X755807Y115723D01*
X755772Y115784D01*
X755746Y115849D01*
X755694Y115921D01*
X755649Y115999D01*
X755601Y116049D01*
X755560Y116106D01*
X755490Y116163D01*
X755428Y116228D01*
X755368Y116264D01*
X755315Y116309D01*
X755233Y116347D01*
X755157Y116394D01*
X755090Y116415D01*
X755027Y116444D01*
X754939Y116461D01*
X754853Y116488D01*
X754783Y116491D01*
X754714Y116504D01*
X754625Y116498D01*
X754535Y116503D01*
X754467Y116489D01*
X754397Y116484D01*
X754312Y116457D01*
X754224Y116438D01*
X754161Y116408D01*
X754095Y116386D01*
X754019Y116338D01*
X753938Y116299D01*
X753885Y116253D01*
X753826Y116216D01*
X753764Y116151D01*
X753696Y116092D01*
X753656Y116035D01*
X753608Y115984D01*
X753565Y115906D01*
X753513Y115832D01*
X753488Y115767D01*
X753454Y115706D01*
X753432Y115619D01*
X753400Y115535D01*
X753392Y115465D01*
X753375Y115398D01*
X753365Y115237D01*
X753365Y113334D01*
X753377Y113236D01*
X753380Y113137D01*
X753397Y113079D01*
X753405Y113019D01*
X753441Y112927D01*
X753469Y112832D01*
X753499Y112780D01*
X753522Y112723D01*
X753580Y112643D01*
X753630Y112558D01*
X753696Y112482D01*
X753708Y112466D01*
X753718Y112458D01*
X753736Y112437D01*
X760573Y105601D01*
X760596Y105583D01*
X760615Y105560D01*
X760721Y105486D01*
X760824Y105406D01*
X760851Y105394D01*
X760875Y105377D01*
X760996Y105331D01*
X761116Y105280D01*
X761145Y105275D01*
X761172Y105264D01*
X761301Y105250D01*
X761430Y105230D01*
X761459Y105233D01*
X761488Y105229D01*
X761617Y105247D01*
X761746Y105260D01*
X761774Y105270D01*
X761803Y105274D01*
X761956Y105326D01*
X763078Y105791D01*
X767272Y105791D01*
X771146Y104186D01*
X774111Y101221D01*
X775716Y97347D01*
X775716Y93153D01*
X774111Y89279D01*
X771146Y86314D01*
X767272Y84709D01*
X763078Y84709D01*
G37*
%LPD*%
%LPC*%
G36*
X255078Y84709D02*
X255078Y84709D01*
X251204Y86314D01*
X248239Y89279D01*
X246634Y93153D01*
X246634Y97347D01*
X247099Y98469D01*
X247107Y98498D01*
X247120Y98524D01*
X247149Y98651D01*
X247183Y98776D01*
X247184Y98806D01*
X247190Y98834D01*
X247186Y98964D01*
X247188Y99094D01*
X247181Y99123D01*
X247180Y99152D01*
X247144Y99277D01*
X247114Y99403D01*
X247100Y99429D01*
X247092Y99458D01*
X247026Y99570D01*
X246965Y99684D01*
X246946Y99706D01*
X246931Y99732D01*
X246824Y99852D01*
X239988Y106689D01*
X237235Y109441D01*
X237235Y208059D01*
X237236Y208060D01*
X237327Y208180D01*
X237418Y208298D01*
X237422Y208307D01*
X237428Y208314D01*
X237499Y208459D01*
X238170Y210080D01*
X238183Y210128D01*
X238205Y210173D01*
X238225Y210281D01*
X238254Y210387D01*
X238255Y210437D01*
X238264Y210486D01*
X238258Y210595D01*
X238259Y210705D01*
X238248Y210753D01*
X238245Y210803D01*
X238211Y210907D01*
X238185Y211014D01*
X238162Y211058D01*
X238147Y211105D01*
X238088Y211198D01*
X238036Y211295D01*
X238003Y211332D01*
X237976Y211374D01*
X237896Y211449D01*
X237823Y211531D01*
X237781Y211558D01*
X237745Y211592D01*
X237649Y211645D01*
X237557Y211705D01*
X237510Y211722D01*
X237466Y211746D01*
X237360Y211773D01*
X237256Y211809D01*
X237206Y211813D01*
X237158Y211825D01*
X236998Y211835D01*
X233984Y211835D01*
X233886Y211823D01*
X233787Y211820D01*
X233729Y211803D01*
X233669Y211795D01*
X233577Y211759D01*
X233482Y211731D01*
X233430Y211701D01*
X233373Y211678D01*
X233293Y211620D01*
X233208Y211570D01*
X233132Y211504D01*
X233116Y211492D01*
X233108Y211482D01*
X233087Y211464D01*
X224107Y202484D01*
X224102Y202477D01*
X224094Y202471D01*
X224005Y202352D01*
X223912Y202233D01*
X223909Y202224D01*
X223903Y202217D01*
X223832Y202072D01*
X223167Y200466D01*
X221809Y199108D01*
X220035Y198373D01*
X218115Y198373D01*
X216341Y199108D01*
X214983Y200466D01*
X214248Y202240D01*
X214248Y204160D01*
X214983Y205934D01*
X216341Y207292D01*
X217947Y207957D01*
X217955Y207962D01*
X217964Y207964D01*
X218093Y208041D01*
X218223Y208115D01*
X218230Y208121D01*
X218238Y208126D01*
X218359Y208232D01*
X230091Y219965D01*
X274016Y219965D01*
X274114Y219977D01*
X274213Y219980D01*
X274271Y219997D01*
X274331Y220005D01*
X274423Y220041D01*
X274518Y220069D01*
X274570Y220099D01*
X274627Y220122D01*
X274707Y220180D01*
X274792Y220230D01*
X274868Y220296D01*
X274884Y220308D01*
X274892Y220318D01*
X274913Y220336D01*
X297189Y242612D01*
X297249Y242690D01*
X297317Y242762D01*
X297346Y242815D01*
X297383Y242863D01*
X297423Y242954D01*
X297471Y243041D01*
X297486Y243099D01*
X297510Y243155D01*
X297525Y243253D01*
X297550Y243349D01*
X297556Y243449D01*
X297560Y243469D01*
X297558Y243481D01*
X297560Y243509D01*
X297560Y269998D01*
X297559Y270007D01*
X297560Y270016D01*
X297539Y270165D01*
X297520Y270313D01*
X297517Y270322D01*
X297516Y270331D01*
X297464Y270484D01*
X296798Y272090D01*
X296798Y274010D01*
X297533Y275784D01*
X298891Y277142D01*
X300665Y277877D01*
X302585Y277877D01*
X304359Y277142D01*
X305717Y275784D01*
X306452Y274010D01*
X306452Y272090D01*
X305786Y270484D01*
X305784Y270475D01*
X305779Y270466D01*
X305742Y270321D01*
X305702Y270177D01*
X305702Y270167D01*
X305700Y270158D01*
X305690Y269998D01*
X305690Y239616D01*
X277909Y211835D01*
X247514Y211835D01*
X247465Y211829D01*
X247415Y211831D01*
X247308Y211809D01*
X247199Y211795D01*
X247152Y211777D01*
X247104Y211767D01*
X247005Y211719D01*
X246903Y211678D01*
X246863Y211649D01*
X246818Y211627D01*
X246735Y211556D01*
X246646Y211492D01*
X246614Y211453D01*
X246576Y211421D01*
X246513Y211331D01*
X246443Y211247D01*
X246422Y211202D01*
X246393Y211161D01*
X246354Y211058D01*
X246307Y210959D01*
X246298Y210910D01*
X246280Y210864D01*
X246268Y210754D01*
X246247Y210647D01*
X246251Y210597D01*
X246245Y210548D01*
X246260Y210439D01*
X246267Y210329D01*
X246283Y210282D01*
X246289Y210233D01*
X246342Y210080D01*
X247083Y208291D01*
X247083Y206371D01*
X246348Y204597D01*
X245736Y203985D01*
X245676Y203907D01*
X245608Y203835D01*
X245579Y203782D01*
X245542Y203734D01*
X245502Y203643D01*
X245454Y203557D01*
X245439Y203498D01*
X245415Y203442D01*
X245400Y203344D01*
X245375Y203249D01*
X245369Y203148D01*
X245365Y203128D01*
X245367Y203116D01*
X245365Y203088D01*
X245365Y126063D01*
X245373Y125993D01*
X245372Y125924D01*
X245393Y125836D01*
X245405Y125747D01*
X245430Y125682D01*
X245447Y125614D01*
X245489Y125535D01*
X245522Y125451D01*
X245563Y125395D01*
X245595Y125333D01*
X245656Y125267D01*
X245708Y125194D01*
X245762Y125150D01*
X245809Y125098D01*
X245884Y125049D01*
X245953Y124991D01*
X246017Y124962D01*
X246075Y124923D01*
X246160Y124894D01*
X246241Y124856D01*
X246310Y124843D01*
X246376Y124820D01*
X246465Y124813D01*
X246553Y124796D01*
X246623Y124800D01*
X246693Y124795D01*
X246781Y124810D01*
X246871Y124816D01*
X246937Y124837D01*
X247006Y124849D01*
X247088Y124886D01*
X247173Y124914D01*
X247232Y124951D01*
X247296Y124980D01*
X247366Y125036D01*
X247442Y125084D01*
X247490Y125135D01*
X247544Y125178D01*
X247599Y125250D01*
X247660Y125316D01*
X247694Y125377D01*
X247736Y125432D01*
X247807Y125577D01*
X248239Y126621D01*
X251204Y129586D01*
X255078Y131191D01*
X259272Y131191D01*
X260556Y130659D01*
X260623Y130640D01*
X260687Y130613D01*
X260776Y130598D01*
X260863Y130575D01*
X260933Y130574D01*
X261002Y130563D01*
X261091Y130571D01*
X261181Y130570D01*
X261249Y130586D01*
X261318Y130592D01*
X261403Y130623D01*
X261490Y130644D01*
X261552Y130676D01*
X261617Y130700D01*
X261692Y130751D01*
X261771Y130793D01*
X261823Y130839D01*
X261881Y130879D01*
X261940Y130946D01*
X262007Y131006D01*
X262045Y131065D01*
X262091Y131117D01*
X262132Y131197D01*
X262181Y131272D01*
X262204Y131338D01*
X262236Y131400D01*
X262255Y131488D01*
X262285Y131573D01*
X262290Y131643D01*
X262305Y131711D01*
X262303Y131800D01*
X262310Y131890D01*
X262298Y131959D01*
X262296Y132029D01*
X262271Y132115D01*
X262255Y132203D01*
X262227Y132267D01*
X262207Y132334D01*
X262162Y132411D01*
X262125Y132493D01*
X262081Y132548D01*
X262046Y132608D01*
X261939Y132729D01*
X260939Y133729D01*
X259334Y137603D01*
X259334Y141797D01*
X260939Y145671D01*
X263904Y148636D01*
X267778Y150241D01*
X271972Y150241D01*
X275846Y148636D01*
X278811Y145671D01*
X280416Y141797D01*
X280416Y137603D01*
X278811Y133729D01*
X275846Y130764D01*
X271972Y129159D01*
X267778Y129159D01*
X266494Y129691D01*
X266427Y129710D01*
X266363Y129737D01*
X266274Y129752D01*
X266187Y129775D01*
X266117Y129776D01*
X266048Y129787D01*
X265959Y129779D01*
X265869Y129780D01*
X265801Y129764D01*
X265732Y129758D01*
X265647Y129727D01*
X265560Y129706D01*
X265498Y129674D01*
X265433Y129650D01*
X265358Y129599D01*
X265279Y129557D01*
X265227Y129511D01*
X265169Y129471D01*
X265110Y129404D01*
X265043Y129344D01*
X265005Y129285D01*
X264959Y129233D01*
X264918Y129153D01*
X264869Y129078D01*
X264846Y129012D01*
X264814Y128950D01*
X264795Y128862D01*
X264765Y128777D01*
X264760Y128707D01*
X264745Y128639D01*
X264747Y128550D01*
X264740Y128460D01*
X264752Y128391D01*
X264754Y128321D01*
X264779Y128235D01*
X264795Y128147D01*
X264823Y128083D01*
X264843Y128016D01*
X264888Y127939D01*
X264925Y127857D01*
X264969Y127802D01*
X265004Y127742D01*
X265111Y127621D01*
X266111Y126621D01*
X267716Y122747D01*
X267716Y118553D01*
X266111Y114679D01*
X263146Y111714D01*
X259272Y110109D01*
X255078Y110109D01*
X251204Y111714D01*
X248239Y114679D01*
X247807Y115723D01*
X247772Y115784D01*
X247746Y115849D01*
X247694Y115921D01*
X247649Y115999D01*
X247601Y116049D01*
X247560Y116106D01*
X247490Y116163D01*
X247428Y116228D01*
X247368Y116264D01*
X247315Y116309D01*
X247233Y116347D01*
X247157Y116394D01*
X247090Y116415D01*
X247027Y116444D01*
X246939Y116461D01*
X246853Y116488D01*
X246783Y116491D01*
X246714Y116504D01*
X246625Y116498D01*
X246535Y116503D01*
X246467Y116489D01*
X246397Y116484D01*
X246312Y116457D01*
X246224Y116438D01*
X246161Y116408D01*
X246095Y116386D01*
X246019Y116338D01*
X245938Y116299D01*
X245885Y116254D01*
X245826Y116216D01*
X245764Y116151D01*
X245696Y116092D01*
X245656Y116035D01*
X245608Y115984D01*
X245565Y115906D01*
X245513Y115832D01*
X245488Y115767D01*
X245454Y115706D01*
X245432Y115619D01*
X245400Y115535D01*
X245392Y115465D01*
X245375Y115398D01*
X245365Y115237D01*
X245365Y113334D01*
X245377Y113236D01*
X245380Y113137D01*
X245397Y113079D01*
X245405Y113019D01*
X245441Y112927D01*
X245469Y112832D01*
X245499Y112779D01*
X245522Y112723D01*
X245580Y112643D01*
X245630Y112558D01*
X245696Y112482D01*
X245708Y112466D01*
X245718Y112458D01*
X245736Y112437D01*
X252573Y105601D01*
X252596Y105583D01*
X252615Y105560D01*
X252721Y105486D01*
X252824Y105406D01*
X252851Y105394D01*
X252875Y105377D01*
X252996Y105331D01*
X253116Y105280D01*
X253145Y105275D01*
X253172Y105264D01*
X253301Y105250D01*
X253430Y105230D01*
X253459Y105233D01*
X253488Y105229D01*
X253617Y105247D01*
X253746Y105260D01*
X253774Y105270D01*
X253803Y105274D01*
X253956Y105326D01*
X255078Y105791D01*
X259272Y105791D01*
X263146Y104186D01*
X266111Y101221D01*
X267716Y97347D01*
X267716Y93153D01*
X266111Y89279D01*
X263146Y86314D01*
X259272Y84709D01*
X255078Y84709D01*
G37*
%LPD*%
%LPC*%
G36*
X636078Y84709D02*
X636078Y84709D01*
X632204Y86314D01*
X629239Y89279D01*
X627634Y93153D01*
X627634Y97347D01*
X628099Y98469D01*
X628107Y98498D01*
X628120Y98524D01*
X628149Y98651D01*
X628183Y98776D01*
X628184Y98806D01*
X628190Y98834D01*
X628186Y98964D01*
X628188Y99094D01*
X628181Y99123D01*
X628180Y99152D01*
X628144Y99277D01*
X628114Y99403D01*
X628100Y99429D01*
X628092Y99458D01*
X628026Y99569D01*
X627965Y99684D01*
X627945Y99706D01*
X627931Y99732D01*
X627824Y99852D01*
X618235Y109441D01*
X618235Y135034D01*
X649018Y165816D01*
X649023Y165823D01*
X649031Y165829D01*
X649120Y165948D01*
X649213Y166067D01*
X649216Y166076D01*
X649222Y166083D01*
X649293Y166228D01*
X649958Y167834D01*
X651316Y169192D01*
X653090Y169927D01*
X655010Y169927D01*
X656784Y169192D01*
X658142Y167834D01*
X658877Y166060D01*
X658877Y164140D01*
X658159Y162408D01*
X658141Y162341D01*
X658113Y162277D01*
X658099Y162188D01*
X658075Y162101D01*
X658074Y162032D01*
X658063Y161963D01*
X658072Y161873D01*
X658070Y161783D01*
X658087Y161716D01*
X658093Y161646D01*
X658124Y161562D01*
X658145Y161474D01*
X658177Y161412D01*
X658201Y161347D01*
X658251Y161272D01*
X658293Y161193D01*
X658340Y161142D01*
X658379Y161084D01*
X658447Y161024D01*
X658507Y160958D01*
X658566Y160919D01*
X658618Y160873D01*
X658698Y160832D01*
X658773Y160783D01*
X658839Y160760D01*
X658901Y160729D01*
X658989Y160709D01*
X659074Y160680D01*
X659143Y160674D01*
X659211Y160659D01*
X659301Y160662D01*
X659391Y160655D01*
X659460Y160666D01*
X659529Y160669D01*
X659616Y160694D01*
X659704Y160709D01*
X659768Y160738D01*
X659835Y160757D01*
X659912Y160803D01*
X659994Y160840D01*
X660048Y160883D01*
X660109Y160919D01*
X660230Y161025D01*
X678317Y179112D01*
X678377Y179190D01*
X678445Y179262D01*
X678474Y179315D01*
X678511Y179363D01*
X678551Y179454D01*
X678599Y179541D01*
X678614Y179599D01*
X678638Y179655D01*
X678653Y179753D01*
X678678Y179849D01*
X678684Y179949D01*
X678688Y179969D01*
X678686Y179981D01*
X678688Y180009D01*
X678688Y200148D01*
X678687Y200157D01*
X678688Y200166D01*
X678667Y200315D01*
X678648Y200463D01*
X678645Y200472D01*
X678644Y200481D01*
X678592Y200634D01*
X677926Y202240D01*
X677926Y204160D01*
X678661Y205934D01*
X680019Y207292D01*
X681793Y208027D01*
X683713Y208027D01*
X685487Y207292D01*
X686845Y205934D01*
X687580Y204160D01*
X687580Y202240D01*
X686914Y200634D01*
X686912Y200625D01*
X686907Y200616D01*
X686870Y200471D01*
X686830Y200327D01*
X686830Y200317D01*
X686828Y200308D01*
X686818Y200148D01*
X686818Y176116D01*
X658989Y148288D01*
X658916Y148194D01*
X658837Y148104D01*
X658819Y148068D01*
X658794Y148036D01*
X658747Y147927D01*
X658693Y147821D01*
X658684Y147782D01*
X658668Y147745D01*
X658649Y147627D01*
X658623Y147511D01*
X658624Y147470D01*
X658618Y147430D01*
X658629Y147312D01*
X658633Y147193D01*
X658644Y147154D01*
X658648Y147114D01*
X658688Y147002D01*
X658721Y146887D01*
X658742Y146853D01*
X658755Y146815D01*
X658822Y146716D01*
X658883Y146614D01*
X658923Y146568D01*
X658934Y146551D01*
X658949Y146538D01*
X658989Y146493D01*
X659811Y145671D01*
X661416Y141797D01*
X661416Y137603D01*
X659811Y133729D01*
X656846Y130764D01*
X652972Y129159D01*
X648778Y129159D01*
X647494Y129691D01*
X647427Y129710D01*
X647362Y129737D01*
X647274Y129752D01*
X647187Y129775D01*
X647117Y129776D01*
X647048Y129787D01*
X646959Y129779D01*
X646869Y129780D01*
X646801Y129764D01*
X646732Y129757D01*
X646647Y129727D01*
X646560Y129706D01*
X646498Y129674D01*
X646432Y129650D01*
X646358Y129599D01*
X646279Y129557D01*
X646227Y129510D01*
X646169Y129471D01*
X646110Y129404D01*
X646043Y129343D01*
X646005Y129285D01*
X645959Y129233D01*
X645918Y129153D01*
X645869Y129078D01*
X645846Y129012D01*
X645814Y128950D01*
X645795Y128862D01*
X645765Y128777D01*
X645760Y128707D01*
X645745Y128639D01*
X645747Y128550D01*
X645740Y128460D01*
X645752Y128391D01*
X645754Y128321D01*
X645779Y128235D01*
X645795Y128147D01*
X645823Y128083D01*
X645843Y128016D01*
X645888Y127939D01*
X645925Y127857D01*
X645969Y127802D01*
X646004Y127742D01*
X646111Y127621D01*
X647111Y126621D01*
X648716Y122747D01*
X648716Y118553D01*
X647111Y114679D01*
X644146Y111714D01*
X640272Y110109D01*
X636078Y110109D01*
X632204Y111714D01*
X629239Y114679D01*
X628807Y115723D01*
X628772Y115784D01*
X628746Y115849D01*
X628694Y115921D01*
X628649Y115999D01*
X628601Y116049D01*
X628560Y116106D01*
X628490Y116163D01*
X628428Y116228D01*
X628368Y116264D01*
X628315Y116309D01*
X628233Y116347D01*
X628157Y116394D01*
X628090Y116415D01*
X628027Y116444D01*
X627939Y116461D01*
X627853Y116488D01*
X627783Y116491D01*
X627714Y116504D01*
X627625Y116498D01*
X627535Y116503D01*
X627467Y116489D01*
X627397Y116484D01*
X627312Y116457D01*
X627224Y116438D01*
X627161Y116408D01*
X627095Y116386D01*
X627019Y116338D01*
X626938Y116299D01*
X626885Y116253D01*
X626826Y116216D01*
X626764Y116151D01*
X626696Y116092D01*
X626656Y116035D01*
X626608Y115984D01*
X626565Y115906D01*
X626513Y115832D01*
X626488Y115767D01*
X626454Y115706D01*
X626432Y115619D01*
X626400Y115535D01*
X626392Y115465D01*
X626375Y115398D01*
X626365Y115237D01*
X626365Y113334D01*
X626377Y113236D01*
X626380Y113137D01*
X626397Y113079D01*
X626405Y113019D01*
X626441Y112927D01*
X626469Y112832D01*
X626499Y112780D01*
X626522Y112723D01*
X626580Y112643D01*
X626630Y112558D01*
X626696Y112482D01*
X626708Y112466D01*
X626718Y112458D01*
X626736Y112437D01*
X633573Y105601D01*
X633596Y105583D01*
X633615Y105560D01*
X633721Y105486D01*
X633824Y105406D01*
X633851Y105394D01*
X633875Y105377D01*
X633996Y105331D01*
X634116Y105280D01*
X634145Y105275D01*
X634172Y105264D01*
X634301Y105250D01*
X634430Y105230D01*
X634459Y105233D01*
X634488Y105229D01*
X634617Y105247D01*
X634746Y105260D01*
X634774Y105270D01*
X634803Y105274D01*
X634956Y105326D01*
X636078Y105791D01*
X640272Y105791D01*
X644146Y104186D01*
X647111Y101221D01*
X648716Y97347D01*
X648716Y93153D01*
X647111Y89279D01*
X644146Y86314D01*
X640272Y84709D01*
X636078Y84709D01*
G37*
%LPD*%
%LPC*%
G36*
X509078Y84709D02*
X509078Y84709D01*
X505204Y86314D01*
X502239Y89279D01*
X500634Y93153D01*
X500634Y97347D01*
X501099Y98469D01*
X501107Y98498D01*
X501120Y98524D01*
X501149Y98651D01*
X501183Y98776D01*
X501184Y98806D01*
X501190Y98834D01*
X501186Y98964D01*
X501188Y99094D01*
X501181Y99123D01*
X501180Y99152D01*
X501144Y99277D01*
X501114Y99403D01*
X501100Y99429D01*
X501092Y99458D01*
X501026Y99569D01*
X500965Y99684D01*
X500945Y99706D01*
X500931Y99732D01*
X500824Y99852D01*
X488060Y112616D01*
X488060Y150909D01*
X490813Y153661D01*
X511857Y174705D01*
X511899Y174760D01*
X511949Y174809D01*
X511996Y174885D01*
X512052Y174956D01*
X512079Y175020D01*
X512116Y175080D01*
X512142Y175166D01*
X512178Y175248D01*
X512189Y175317D01*
X512209Y175384D01*
X512214Y175473D01*
X512228Y175562D01*
X512221Y175632D01*
X512224Y175701D01*
X512206Y175789D01*
X512198Y175879D01*
X512174Y175945D01*
X512160Y176013D01*
X512121Y176093D01*
X512090Y176178D01*
X512051Y176236D01*
X512020Y176299D01*
X511962Y176367D01*
X511912Y176441D01*
X511859Y176487D01*
X511814Y176541D01*
X511741Y176592D01*
X511673Y176652D01*
X511611Y176683D01*
X511554Y176724D01*
X511470Y176755D01*
X511390Y176796D01*
X511322Y176812D01*
X511257Y176836D01*
X511167Y176846D01*
X511080Y176866D01*
X511010Y176864D01*
X510941Y176872D01*
X510852Y176859D01*
X510762Y176856D01*
X510695Y176837D01*
X510626Y176827D01*
X510473Y176775D01*
X508960Y176148D01*
X507040Y176148D01*
X505266Y176883D01*
X503908Y178241D01*
X503173Y180015D01*
X503173Y181935D01*
X503908Y183709D01*
X505266Y185067D01*
X506872Y185732D01*
X506880Y185737D01*
X506889Y185739D01*
X507018Y185816D01*
X507149Y185890D01*
X507155Y185896D01*
X507163Y185901D01*
X507284Y186007D01*
X560714Y239437D01*
X560774Y239515D01*
X560842Y239587D01*
X560871Y239640D01*
X560908Y239688D01*
X560948Y239779D01*
X560996Y239866D01*
X561011Y239924D01*
X561035Y239980D01*
X561050Y240078D01*
X561075Y240174D01*
X561081Y240274D01*
X561085Y240294D01*
X561083Y240306D01*
X561085Y240334D01*
X561085Y270841D01*
X561073Y270939D01*
X561070Y271038D01*
X561053Y271096D01*
X561045Y271156D01*
X561009Y271248D01*
X560981Y271343D01*
X560951Y271396D01*
X560928Y271452D01*
X560870Y271532D01*
X560820Y271617D01*
X560754Y271693D01*
X560742Y271709D01*
X560732Y271717D01*
X560714Y271738D01*
X558084Y274368D01*
X558077Y274373D01*
X558071Y274381D01*
X557951Y274471D01*
X557833Y274563D01*
X557824Y274566D01*
X557817Y274572D01*
X557672Y274643D01*
X556066Y275308D01*
X554708Y276666D01*
X553973Y278440D01*
X553973Y280360D01*
X554708Y282134D01*
X556066Y283492D01*
X557840Y284227D01*
X559760Y284227D01*
X561534Y283492D01*
X562892Y282134D01*
X563557Y280528D01*
X563562Y280520D01*
X563564Y280511D01*
X563641Y280382D01*
X563715Y280251D01*
X563721Y280245D01*
X563726Y280237D01*
X563832Y280116D01*
X566462Y277486D01*
X569215Y274734D01*
X569215Y236441D01*
X566462Y233689D01*
X532718Y199945D01*
X532676Y199890D01*
X532626Y199841D01*
X532579Y199765D01*
X532523Y199694D01*
X532496Y199630D01*
X532459Y199570D01*
X532433Y199484D01*
X532397Y199402D01*
X532386Y199333D01*
X532366Y199266D01*
X532361Y199177D01*
X532347Y199088D01*
X532354Y199018D01*
X532351Y198949D01*
X532369Y198861D01*
X532377Y198771D01*
X532401Y198705D01*
X532415Y198637D01*
X532454Y198557D01*
X532485Y198472D01*
X532524Y198414D01*
X532555Y198351D01*
X532613Y198283D01*
X532663Y198209D01*
X532716Y198163D01*
X532761Y198109D01*
X532834Y198058D01*
X532902Y197998D01*
X532964Y197967D01*
X533021Y197926D01*
X533105Y197895D01*
X533185Y197854D01*
X533253Y197838D01*
X533318Y197814D01*
X533408Y197804D01*
X533495Y197784D01*
X533565Y197786D01*
X533634Y197778D01*
X533723Y197791D01*
X533813Y197794D01*
X533880Y197813D01*
X533949Y197823D01*
X534102Y197875D01*
X535615Y198502D01*
X537535Y198502D01*
X539309Y197767D01*
X540667Y196409D01*
X541402Y194635D01*
X541402Y192715D01*
X540667Y190941D01*
X539309Y189583D01*
X537703Y188918D01*
X537695Y188913D01*
X537686Y188911D01*
X537557Y188834D01*
X537427Y188760D01*
X537420Y188754D01*
X537412Y188749D01*
X537291Y188643D01*
X496561Y147913D01*
X496501Y147835D01*
X496433Y147763D01*
X496404Y147710D01*
X496367Y147662D01*
X496327Y147571D01*
X496279Y147484D01*
X496264Y147426D01*
X496240Y147370D01*
X496225Y147272D01*
X496200Y147176D01*
X496194Y147076D01*
X496190Y147056D01*
X496192Y147044D01*
X496190Y147016D01*
X496190Y116509D01*
X496202Y116411D01*
X496205Y116312D01*
X496222Y116254D01*
X496230Y116194D01*
X496266Y116102D01*
X496294Y116007D01*
X496324Y115955D01*
X496347Y115898D01*
X496405Y115818D01*
X496455Y115733D01*
X496521Y115657D01*
X496533Y115641D01*
X496543Y115633D01*
X496561Y115612D01*
X506573Y105601D01*
X506596Y105583D01*
X506615Y105560D01*
X506721Y105486D01*
X506824Y105406D01*
X506851Y105394D01*
X506875Y105377D01*
X506996Y105331D01*
X507116Y105280D01*
X507145Y105275D01*
X507172Y105264D01*
X507301Y105250D01*
X507430Y105230D01*
X507459Y105233D01*
X507488Y105229D01*
X507617Y105247D01*
X507746Y105260D01*
X507774Y105270D01*
X507803Y105274D01*
X507956Y105326D01*
X509078Y105791D01*
X513272Y105791D01*
X517146Y104186D01*
X520111Y101221D01*
X521716Y97347D01*
X521716Y93153D01*
X520111Y89279D01*
X517146Y86314D01*
X513272Y84709D01*
X509078Y84709D01*
G37*
%LPD*%
%LPC*%
G36*
X382078Y84709D02*
X382078Y84709D01*
X378204Y86314D01*
X375239Y89279D01*
X373634Y93153D01*
X373634Y97347D01*
X374099Y98469D01*
X374107Y98498D01*
X374120Y98524D01*
X374149Y98651D01*
X374183Y98776D01*
X374184Y98806D01*
X374190Y98834D01*
X374186Y98964D01*
X374188Y99094D01*
X374181Y99123D01*
X374180Y99152D01*
X374144Y99277D01*
X374114Y99403D01*
X374100Y99429D01*
X374092Y99458D01*
X374026Y99569D01*
X373965Y99684D01*
X373945Y99706D01*
X373931Y99732D01*
X373824Y99852D01*
X364235Y109441D01*
X364235Y135034D01*
X388668Y159466D01*
X388673Y159473D01*
X388681Y159479D01*
X388770Y159598D01*
X388863Y159717D01*
X388866Y159726D01*
X388872Y159733D01*
X388943Y159878D01*
X389608Y161484D01*
X390966Y162842D01*
X392740Y163577D01*
X394660Y163577D01*
X396434Y162842D01*
X397792Y161484D01*
X398527Y159710D01*
X398527Y157790D01*
X397900Y156277D01*
X397882Y156209D01*
X397854Y156145D01*
X397840Y156056D01*
X397816Y155970D01*
X397815Y155900D01*
X397804Y155831D01*
X397812Y155742D01*
X397811Y155652D01*
X397827Y155584D01*
X397834Y155515D01*
X397864Y155430D01*
X397885Y155343D01*
X397918Y155281D01*
X397941Y155215D01*
X397992Y155141D01*
X398034Y155062D01*
X398081Y155010D01*
X398120Y154952D01*
X398187Y154893D01*
X398248Y154826D01*
X398306Y154788D01*
X398358Y154742D01*
X398438Y154701D01*
X398513Y154651D01*
X398579Y154629D01*
X398642Y154597D01*
X398729Y154577D01*
X398814Y154548D01*
X398884Y154543D01*
X398952Y154527D01*
X399042Y154530D01*
X399131Y154523D01*
X399200Y154535D01*
X399270Y154537D01*
X399356Y154562D01*
X399445Y154577D01*
X399508Y154606D01*
X399575Y154625D01*
X399653Y154671D01*
X399735Y154708D01*
X399789Y154752D01*
X399849Y154787D01*
X399970Y154893D01*
X424189Y179112D01*
X424249Y179190D01*
X424317Y179262D01*
X424346Y179315D01*
X424383Y179363D01*
X424423Y179454D01*
X424471Y179541D01*
X424486Y179599D01*
X424510Y179655D01*
X424525Y179753D01*
X424550Y179849D01*
X424556Y179949D01*
X424560Y179969D01*
X424558Y179981D01*
X424560Y180009D01*
X424560Y200148D01*
X424559Y200157D01*
X424560Y200166D01*
X424539Y200315D01*
X424520Y200463D01*
X424517Y200472D01*
X424516Y200481D01*
X424464Y200634D01*
X423798Y202240D01*
X423798Y204160D01*
X424533Y205934D01*
X425891Y207292D01*
X427665Y208027D01*
X429585Y208027D01*
X431359Y207292D01*
X432717Y205934D01*
X433452Y204160D01*
X433452Y202240D01*
X432786Y200634D01*
X432784Y200625D01*
X432779Y200616D01*
X432742Y200471D01*
X432702Y200327D01*
X432702Y200318D01*
X432700Y200309D01*
X432690Y200148D01*
X432690Y176116D01*
X404925Y148352D01*
X404852Y148258D01*
X404773Y148168D01*
X404755Y148132D01*
X404730Y148100D01*
X404683Y147991D01*
X404629Y147885D01*
X404620Y147846D01*
X404604Y147809D01*
X404585Y147691D01*
X404559Y147575D01*
X404560Y147534D01*
X404554Y147494D01*
X404565Y147376D01*
X404569Y147257D01*
X404580Y147218D01*
X404584Y147178D01*
X404624Y147066D01*
X404657Y146951D01*
X404678Y146917D01*
X404691Y146879D01*
X404758Y146780D01*
X404819Y146678D01*
X404859Y146632D01*
X404870Y146615D01*
X404885Y146602D01*
X404925Y146557D01*
X405811Y145671D01*
X407416Y141797D01*
X407416Y137603D01*
X405811Y133729D01*
X402846Y130764D01*
X398972Y129159D01*
X394778Y129159D01*
X393494Y129691D01*
X393426Y129710D01*
X393362Y129737D01*
X393274Y129752D01*
X393187Y129775D01*
X393117Y129776D01*
X393048Y129787D01*
X392959Y129779D01*
X392869Y129780D01*
X392801Y129764D01*
X392732Y129757D01*
X392647Y129727D01*
X392560Y129706D01*
X392498Y129674D01*
X392432Y129650D01*
X392358Y129599D01*
X392279Y129557D01*
X392227Y129511D01*
X392169Y129471D01*
X392110Y129404D01*
X392043Y129344D01*
X392005Y129285D01*
X391959Y129233D01*
X391918Y129153D01*
X391869Y129078D01*
X391846Y129012D01*
X391814Y128950D01*
X391795Y128862D01*
X391765Y128777D01*
X391760Y128707D01*
X391745Y128639D01*
X391747Y128550D01*
X391740Y128460D01*
X391752Y128391D01*
X391754Y128321D01*
X391779Y128235D01*
X391795Y128147D01*
X391823Y128083D01*
X391843Y128016D01*
X391888Y127939D01*
X391925Y127857D01*
X391969Y127802D01*
X392004Y127742D01*
X392111Y127621D01*
X393111Y126621D01*
X394716Y122747D01*
X394716Y118553D01*
X393111Y114679D01*
X390146Y111714D01*
X386272Y110109D01*
X382078Y110109D01*
X378204Y111714D01*
X375239Y114679D01*
X374807Y115723D01*
X374772Y115784D01*
X374746Y115849D01*
X374694Y115921D01*
X374649Y115999D01*
X374601Y116049D01*
X374560Y116106D01*
X374490Y116163D01*
X374428Y116228D01*
X374368Y116264D01*
X374315Y116309D01*
X374233Y116347D01*
X374157Y116394D01*
X374090Y116415D01*
X374027Y116444D01*
X373939Y116461D01*
X373853Y116488D01*
X373783Y116491D01*
X373714Y116504D01*
X373625Y116498D01*
X373535Y116503D01*
X373467Y116489D01*
X373397Y116484D01*
X373312Y116457D01*
X373224Y116438D01*
X373161Y116408D01*
X373095Y116386D01*
X373019Y116338D01*
X372938Y116299D01*
X372885Y116254D01*
X372826Y116216D01*
X372764Y116151D01*
X372696Y116092D01*
X372656Y116035D01*
X372608Y115984D01*
X372565Y115906D01*
X372513Y115832D01*
X372488Y115767D01*
X372454Y115706D01*
X372432Y115619D01*
X372400Y115535D01*
X372392Y115465D01*
X372375Y115398D01*
X372365Y115237D01*
X372365Y113334D01*
X372377Y113236D01*
X372380Y113137D01*
X372397Y113079D01*
X372405Y113019D01*
X372441Y112927D01*
X372469Y112832D01*
X372499Y112780D01*
X372522Y112723D01*
X372580Y112643D01*
X372630Y112558D01*
X372696Y112482D01*
X372708Y112466D01*
X372718Y112458D01*
X372736Y112437D01*
X379573Y105601D01*
X379596Y105583D01*
X379615Y105560D01*
X379721Y105486D01*
X379824Y105406D01*
X379851Y105394D01*
X379875Y105377D01*
X379996Y105331D01*
X380116Y105280D01*
X380145Y105275D01*
X380172Y105264D01*
X380301Y105250D01*
X380430Y105230D01*
X380459Y105233D01*
X380488Y105229D01*
X380617Y105247D01*
X380746Y105260D01*
X380774Y105270D01*
X380803Y105274D01*
X380956Y105326D01*
X382078Y105791D01*
X386272Y105791D01*
X390146Y104186D01*
X393111Y101221D01*
X394716Y97347D01*
X394716Y93153D01*
X393111Y89279D01*
X390146Y86314D01*
X386272Y84709D01*
X382078Y84709D01*
G37*
%LPD*%
%LPC*%
G36*
X128078Y110109D02*
X128078Y110109D01*
X124204Y111714D01*
X121239Y114679D01*
X119634Y118553D01*
X119634Y122747D01*
X121239Y126621D01*
X124204Y129586D01*
X128078Y131191D01*
X132272Y131191D01*
X133556Y130659D01*
X133623Y130640D01*
X133688Y130613D01*
X133776Y130598D01*
X133863Y130575D01*
X133933Y130574D01*
X134002Y130563D01*
X134091Y130571D01*
X134181Y130570D01*
X134249Y130586D01*
X134318Y130593D01*
X134403Y130623D01*
X134490Y130644D01*
X134552Y130676D01*
X134618Y130700D01*
X134692Y130751D01*
X134771Y130793D01*
X134823Y130840D01*
X134881Y130879D01*
X134940Y130946D01*
X135007Y131007D01*
X135045Y131065D01*
X135091Y131117D01*
X135132Y131197D01*
X135181Y131272D01*
X135204Y131338D01*
X135236Y131400D01*
X135255Y131488D01*
X135285Y131573D01*
X135290Y131643D01*
X135305Y131711D01*
X135303Y131800D01*
X135310Y131890D01*
X135298Y131959D01*
X135296Y132029D01*
X135271Y132115D01*
X135255Y132203D01*
X135227Y132267D01*
X135207Y132334D01*
X135162Y132411D01*
X135125Y132493D01*
X135081Y132548D01*
X135046Y132608D01*
X134939Y132729D01*
X133939Y133729D01*
X132334Y137603D01*
X132334Y141797D01*
X133939Y145671D01*
X136904Y148636D01*
X138027Y149101D01*
X138052Y149116D01*
X138080Y149125D01*
X138190Y149194D01*
X138303Y149259D01*
X138324Y149279D01*
X138349Y149295D01*
X138438Y149390D01*
X138531Y149480D01*
X138547Y149505D01*
X138567Y149526D01*
X138630Y149640D01*
X138698Y149751D01*
X138706Y149779D01*
X138721Y149805D01*
X138753Y149931D01*
X138791Y150055D01*
X138793Y150084D01*
X138800Y150113D01*
X138810Y150274D01*
X138810Y150909D01*
X154314Y166412D01*
X154374Y166490D01*
X154442Y166562D01*
X154471Y166615D01*
X154508Y166663D01*
X154548Y166754D01*
X154596Y166841D01*
X154611Y166899D01*
X154635Y166955D01*
X154650Y167053D01*
X154675Y167149D01*
X154681Y167249D01*
X154685Y167269D01*
X154683Y167281D01*
X154685Y167309D01*
X154685Y254123D01*
X154684Y254132D01*
X154685Y254141D01*
X154664Y254290D01*
X154645Y254438D01*
X154642Y254447D01*
X154641Y254456D01*
X154589Y254609D01*
X153923Y256215D01*
X153923Y258135D01*
X154658Y259909D01*
X156016Y261267D01*
X157790Y262002D01*
X159710Y262002D01*
X161484Y261267D01*
X162842Y259909D01*
X163577Y258135D01*
X163577Y256215D01*
X162911Y254609D01*
X162909Y254600D01*
X162904Y254591D01*
X162867Y254446D01*
X162827Y254302D01*
X162827Y254292D01*
X162825Y254283D01*
X162815Y254123D01*
X162815Y163416D01*
X149338Y149939D01*
X149265Y149845D01*
X149186Y149756D01*
X149168Y149720D01*
X149143Y149688D01*
X149095Y149578D01*
X149041Y149473D01*
X149032Y149433D01*
X149016Y149396D01*
X148998Y149278D01*
X148972Y149162D01*
X148973Y149122D01*
X148966Y149082D01*
X148978Y148963D01*
X148981Y148844D01*
X148993Y148806D01*
X148996Y148765D01*
X149037Y148653D01*
X149070Y148539D01*
X149090Y148504D01*
X149104Y148466D01*
X149171Y148367D01*
X149231Y148265D01*
X149271Y148220D01*
X149282Y148203D01*
X149298Y148189D01*
X149338Y148144D01*
X151811Y145671D01*
X153416Y141797D01*
X153416Y137603D01*
X151811Y133729D01*
X148846Y130764D01*
X144972Y129159D01*
X140778Y129159D01*
X139494Y129691D01*
X139427Y129710D01*
X139362Y129737D01*
X139274Y129752D01*
X139187Y129775D01*
X139117Y129776D01*
X139048Y129787D01*
X138959Y129779D01*
X138869Y129780D01*
X138801Y129764D01*
X138732Y129757D01*
X138647Y129727D01*
X138560Y129706D01*
X138498Y129674D01*
X138432Y129650D01*
X138358Y129599D01*
X138279Y129557D01*
X138227Y129510D01*
X138169Y129471D01*
X138110Y129404D01*
X138043Y129343D01*
X138005Y129285D01*
X137959Y129233D01*
X137918Y129153D01*
X137869Y129078D01*
X137846Y129012D01*
X137814Y128950D01*
X137795Y128862D01*
X137765Y128777D01*
X137760Y128707D01*
X137745Y128639D01*
X137747Y128550D01*
X137740Y128460D01*
X137752Y128391D01*
X137754Y128321D01*
X137779Y128235D01*
X137795Y128147D01*
X137823Y128083D01*
X137843Y128016D01*
X137888Y127939D01*
X137925Y127857D01*
X137969Y127802D01*
X138004Y127742D01*
X138111Y127621D01*
X139111Y126621D01*
X140716Y122747D01*
X140716Y118553D01*
X139111Y114679D01*
X136146Y111714D01*
X132272Y110109D01*
X128078Y110109D01*
G37*
%LPD*%
%LPC*%
G36*
X497515Y306323D02*
X497515Y306323D01*
X495909Y306989D01*
X495900Y306991D01*
X495891Y306996D01*
X495746Y307033D01*
X495602Y307073D01*
X495592Y307073D01*
X495583Y307075D01*
X495423Y307085D01*
X401541Y307085D01*
X380284Y328343D01*
X380277Y328348D01*
X380271Y328356D01*
X380152Y328445D01*
X380033Y328538D01*
X380024Y328541D01*
X380017Y328547D01*
X379872Y328618D01*
X378266Y329283D01*
X376908Y330641D01*
X376173Y332415D01*
X376173Y334335D01*
X376908Y336109D01*
X378266Y337467D01*
X380040Y338202D01*
X381960Y338202D01*
X383734Y337467D01*
X385092Y336109D01*
X385757Y334503D01*
X385762Y334495D01*
X385764Y334486D01*
X385841Y334357D01*
X385915Y334227D01*
X385921Y334220D01*
X385926Y334212D01*
X386032Y334091D01*
X404537Y315586D01*
X404615Y315526D01*
X404687Y315458D01*
X404740Y315429D01*
X404788Y315392D01*
X404879Y315352D01*
X404966Y315304D01*
X405024Y315289D01*
X405080Y315265D01*
X405178Y315250D01*
X405274Y315225D01*
X405374Y315219D01*
X405394Y315215D01*
X405406Y315217D01*
X405434Y315215D01*
X471820Y315215D01*
X471958Y315232D01*
X472096Y315245D01*
X472115Y315252D01*
X472136Y315255D01*
X472265Y315306D01*
X472396Y315353D01*
X472412Y315364D01*
X472431Y315372D01*
X472544Y315453D01*
X472659Y315531D01*
X472672Y315547D01*
X472689Y315558D01*
X472777Y315666D01*
X472869Y315770D01*
X472878Y315788D01*
X472891Y315803D01*
X472951Y315929D01*
X473014Y316053D01*
X473018Y316073D01*
X473027Y316091D01*
X473053Y316228D01*
X473084Y316363D01*
X473083Y316384D01*
X473087Y316403D01*
X473078Y316542D01*
X473074Y316681D01*
X473068Y316701D01*
X473067Y316721D01*
X473024Y316853D01*
X472985Y316987D01*
X472975Y317004D01*
X472969Y317023D01*
X472895Y317141D01*
X472824Y317261D01*
X472805Y317282D01*
X472799Y317292D01*
X472784Y317306D01*
X472717Y317381D01*
X472158Y317941D01*
X471423Y319715D01*
X471423Y321635D01*
X472158Y323409D01*
X473516Y324767D01*
X475290Y325502D01*
X477210Y325502D01*
X478816Y324836D01*
X478825Y324834D01*
X478834Y324829D01*
X478979Y324792D01*
X479123Y324752D01*
X479133Y324752D01*
X479142Y324750D01*
X479302Y324740D01*
X499441Y324740D01*
X499539Y324752D01*
X499638Y324755D01*
X499696Y324772D01*
X499756Y324780D01*
X499848Y324816D01*
X499943Y324844D01*
X499995Y324874D01*
X500052Y324897D01*
X500132Y324955D01*
X500217Y325005D01*
X500293Y325071D01*
X500309Y325083D01*
X500317Y325093D01*
X500338Y325111D01*
X512493Y337266D01*
X512498Y337273D01*
X512506Y337279D01*
X512595Y337398D01*
X512688Y337517D01*
X512691Y337526D01*
X512697Y337533D01*
X512768Y337678D01*
X513433Y339284D01*
X514791Y340642D01*
X516565Y341377D01*
X518485Y341377D01*
X520259Y340642D01*
X521617Y339284D01*
X522352Y337510D01*
X522352Y335590D01*
X521617Y333816D01*
X520259Y332458D01*
X518653Y331793D01*
X518645Y331788D01*
X518636Y331786D01*
X518589Y331758D01*
X518588Y331758D01*
X518586Y331756D01*
X518507Y331709D01*
X518377Y331635D01*
X518370Y331629D01*
X518362Y331624D01*
X518241Y331518D01*
X503334Y316610D01*
X502905Y316610D01*
X502767Y316593D01*
X502629Y316580D01*
X502610Y316573D01*
X502589Y316570D01*
X502460Y316519D01*
X502329Y316472D01*
X502313Y316461D01*
X502294Y316453D01*
X502181Y316372D01*
X502066Y316294D01*
X502053Y316278D01*
X502036Y316267D01*
X501948Y316159D01*
X501856Y316055D01*
X501847Y316037D01*
X501834Y316022D01*
X501774Y315896D01*
X501711Y315772D01*
X501707Y315752D01*
X501698Y315734D01*
X501672Y315597D01*
X501641Y315462D01*
X501642Y315441D01*
X501638Y315422D01*
X501647Y315283D01*
X501651Y315144D01*
X501657Y315124D01*
X501658Y315104D01*
X501701Y314972D01*
X501740Y314838D01*
X501750Y314821D01*
X501756Y314802D01*
X501830Y314684D01*
X501901Y314564D01*
X501920Y314543D01*
X501926Y314533D01*
X501941Y314519D01*
X502008Y314444D01*
X502567Y313884D01*
X503302Y312110D01*
X503302Y310190D01*
X502567Y308416D01*
X501209Y307058D01*
X499435Y306323D01*
X497515Y306323D01*
G37*
%LPD*%
%LPC*%
G36*
X658716Y307085D02*
X658716Y307085D01*
X637459Y328343D01*
X637452Y328348D01*
X637446Y328356D01*
X637327Y328445D01*
X637208Y328538D01*
X637199Y328541D01*
X637192Y328547D01*
X637047Y328618D01*
X635441Y329283D01*
X634083Y330641D01*
X633348Y332415D01*
X633348Y334335D01*
X634083Y336109D01*
X635441Y337467D01*
X637215Y338202D01*
X639135Y338202D01*
X640909Y337467D01*
X642267Y336109D01*
X642932Y334503D01*
X642937Y334495D01*
X642939Y334486D01*
X643016Y334357D01*
X643090Y334227D01*
X643096Y334220D01*
X643101Y334212D01*
X643207Y334091D01*
X661712Y315586D01*
X661790Y315526D01*
X661862Y315458D01*
X661915Y315429D01*
X661963Y315392D01*
X662054Y315352D01*
X662141Y315304D01*
X662199Y315289D01*
X662255Y315265D01*
X662353Y315250D01*
X662449Y315225D01*
X662549Y315219D01*
X662569Y315215D01*
X662581Y315217D01*
X662609Y315215D01*
X732895Y315215D01*
X732944Y315221D01*
X732994Y315219D01*
X733101Y315241D01*
X733210Y315255D01*
X733256Y315273D01*
X733305Y315283D01*
X733404Y315331D01*
X733506Y315372D01*
X733546Y315401D01*
X733591Y315423D01*
X733674Y315494D01*
X733763Y315558D01*
X733795Y315597D01*
X733833Y315629D01*
X733896Y315719D01*
X733966Y315803D01*
X733987Y315848D01*
X734016Y315889D01*
X734055Y315992D01*
X734102Y316091D01*
X734111Y316140D01*
X734129Y316186D01*
X734141Y316296D01*
X734161Y316403D01*
X734158Y316453D01*
X734164Y316502D01*
X734148Y316611D01*
X734142Y316721D01*
X734126Y316768D01*
X734119Y316817D01*
X734067Y316970D01*
X733748Y317740D01*
X733748Y319660D01*
X734414Y321266D01*
X734416Y321275D01*
X734421Y321284D01*
X734435Y321341D01*
X734448Y321368D01*
X734463Y321448D01*
X734498Y321573D01*
X734498Y321582D01*
X734500Y321591D01*
X734505Y321664D01*
X734508Y321680D01*
X734507Y321696D01*
X734510Y321752D01*
X734510Y353568D01*
X734507Y353598D01*
X734509Y353627D01*
X734487Y353755D01*
X734470Y353884D01*
X734460Y353911D01*
X734454Y353940D01*
X734401Y354059D01*
X734353Y354179D01*
X734336Y354203D01*
X734324Y354230D01*
X734243Y354331D01*
X734167Y354437D01*
X734144Y354456D01*
X734125Y354479D01*
X734022Y354557D01*
X733922Y354639D01*
X733899Y354650D01*
X732508Y356041D01*
X731773Y357815D01*
X731773Y359735D01*
X732508Y361509D01*
X733866Y362867D01*
X735640Y363602D01*
X737560Y363602D01*
X739334Y362867D01*
X740692Y361509D01*
X741357Y359903D01*
X741362Y359895D01*
X741364Y359886D01*
X741441Y359757D01*
X741515Y359627D01*
X741521Y359620D01*
X741526Y359612D01*
X741632Y359491D01*
X742640Y358484D01*
X742640Y321752D01*
X742641Y321743D01*
X742640Y321734D01*
X742656Y321618D01*
X742662Y321524D01*
X742673Y321490D01*
X742680Y321437D01*
X742683Y321428D01*
X742684Y321419D01*
X742736Y321266D01*
X743402Y319660D01*
X743402Y317740D01*
X743083Y316970D01*
X743070Y316922D01*
X743048Y316877D01*
X743028Y316769D01*
X742999Y316663D01*
X742998Y316613D01*
X742989Y316564D01*
X742995Y316455D01*
X742994Y316345D01*
X743005Y316297D01*
X743008Y316247D01*
X743042Y316143D01*
X743068Y316036D01*
X743091Y315992D01*
X743106Y315945D01*
X743165Y315852D01*
X743217Y315755D01*
X743250Y315718D01*
X743277Y315676D01*
X743357Y315601D01*
X743430Y315519D01*
X743472Y315492D01*
X743508Y315458D01*
X743604Y315405D01*
X743696Y315345D01*
X743743Y315328D01*
X743787Y315304D01*
X743893Y315277D01*
X743997Y315241D01*
X744047Y315237D01*
X744095Y315225D01*
X744255Y315215D01*
X747091Y315215D01*
X747189Y315227D01*
X747288Y315230D01*
X747346Y315247D01*
X747406Y315255D01*
X747498Y315291D01*
X747593Y315319D01*
X747645Y315349D01*
X747702Y315372D01*
X747782Y315430D01*
X747867Y315480D01*
X747943Y315546D01*
X747959Y315558D01*
X747967Y315568D01*
X747988Y315586D01*
X750791Y318390D01*
X752598Y318390D01*
X752607Y318391D01*
X752616Y318390D01*
X752765Y318411D01*
X752913Y318430D01*
X752922Y318433D01*
X752931Y318434D01*
X753084Y318486D01*
X754690Y319152D01*
X756610Y319152D01*
X758384Y318417D01*
X759742Y317059D01*
X760477Y315285D01*
X760477Y313365D01*
X759742Y311591D01*
X758384Y310233D01*
X756610Y309498D01*
X754690Y309498D01*
X754559Y309552D01*
X754531Y309560D01*
X754504Y309574D01*
X754378Y309602D01*
X754252Y309636D01*
X754223Y309637D01*
X754194Y309643D01*
X754064Y309639D01*
X753934Y309641D01*
X753906Y309635D01*
X753876Y309634D01*
X753751Y309598D01*
X753625Y309567D01*
X753599Y309553D01*
X753571Y309545D01*
X753459Y309479D01*
X753344Y309419D01*
X753322Y309399D01*
X753297Y309384D01*
X753176Y309277D01*
X750984Y307085D01*
X658716Y307085D01*
G37*
%LPD*%
%LPC*%
G36*
X318578Y65659D02*
X318578Y65659D01*
X314704Y67264D01*
X311739Y70229D01*
X310134Y74103D01*
X310134Y78297D01*
X311739Y82171D01*
X314704Y85136D01*
X318578Y86741D01*
X322772Y86741D01*
X324056Y86209D01*
X324123Y86190D01*
X324187Y86163D01*
X324276Y86148D01*
X324363Y86125D01*
X324433Y86124D01*
X324502Y86113D01*
X324591Y86121D01*
X324681Y86120D01*
X324749Y86136D01*
X324818Y86142D01*
X324903Y86173D01*
X324990Y86194D01*
X325052Y86226D01*
X325117Y86250D01*
X325192Y86301D01*
X325271Y86343D01*
X325323Y86389D01*
X325381Y86429D01*
X325440Y86496D01*
X325507Y86556D01*
X325545Y86615D01*
X325591Y86667D01*
X325632Y86747D01*
X325681Y86822D01*
X325704Y86888D01*
X325736Y86950D01*
X325755Y87038D01*
X325785Y87123D01*
X325790Y87193D01*
X325805Y87261D01*
X325803Y87350D01*
X325810Y87440D01*
X325798Y87509D01*
X325796Y87579D01*
X325771Y87665D01*
X325755Y87753D01*
X325727Y87817D01*
X325707Y87884D01*
X325662Y87961D01*
X325625Y88043D01*
X325581Y88098D01*
X325546Y88158D01*
X325439Y88279D01*
X324439Y89279D01*
X322834Y93153D01*
X322834Y97347D01*
X324439Y101221D01*
X327404Y104186D01*
X331278Y105791D01*
X335472Y105791D01*
X336594Y105326D01*
X336623Y105318D01*
X336649Y105305D01*
X336776Y105276D01*
X336901Y105242D01*
X336931Y105241D01*
X336959Y105235D01*
X337089Y105239D01*
X337219Y105237D01*
X337248Y105244D01*
X337277Y105245D01*
X337402Y105281D01*
X337528Y105311D01*
X337554Y105325D01*
X337583Y105333D01*
X337694Y105399D01*
X337809Y105460D01*
X337831Y105480D01*
X337857Y105494D01*
X337977Y105601D01*
X347989Y115612D01*
X348049Y115690D01*
X348117Y115762D01*
X348146Y115815D01*
X348183Y115863D01*
X348223Y115954D01*
X348271Y116041D01*
X348286Y116099D01*
X348310Y116155D01*
X348325Y116253D01*
X348350Y116349D01*
X348356Y116449D01*
X348360Y116469D01*
X348358Y116481D01*
X348360Y116509D01*
X348360Y143841D01*
X348348Y143939D01*
X348345Y144038D01*
X348328Y144096D01*
X348320Y144156D01*
X348284Y144248D01*
X348256Y144343D01*
X348226Y144395D01*
X348203Y144452D01*
X348145Y144532D01*
X348095Y144617D01*
X348029Y144693D01*
X348017Y144709D01*
X348007Y144717D01*
X347989Y144738D01*
X335834Y156893D01*
X335827Y156898D01*
X335821Y156906D01*
X335702Y156995D01*
X335583Y157088D01*
X335574Y157091D01*
X335567Y157097D01*
X335422Y157168D01*
X333816Y157833D01*
X332458Y159191D01*
X331723Y160965D01*
X331723Y162885D01*
X332458Y164659D01*
X333816Y166017D01*
X335590Y166752D01*
X337510Y166752D01*
X339284Y166017D01*
X340642Y164659D01*
X341307Y163053D01*
X341312Y163045D01*
X341314Y163036D01*
X341391Y162907D01*
X341465Y162777D01*
X341471Y162770D01*
X341476Y162762D01*
X341582Y162641D01*
X356490Y147734D01*
X356490Y112616D01*
X343726Y99852D01*
X343708Y99829D01*
X343685Y99810D01*
X343611Y99704D01*
X343531Y99601D01*
X343519Y99574D01*
X343502Y99550D01*
X343456Y99429D01*
X343405Y99309D01*
X343400Y99280D01*
X343389Y99253D01*
X343375Y99124D01*
X343355Y98995D01*
X343358Y98966D01*
X343354Y98937D01*
X343372Y98808D01*
X343385Y98679D01*
X343395Y98651D01*
X343399Y98622D01*
X343451Y98469D01*
X343916Y97347D01*
X343916Y93153D01*
X342311Y89279D01*
X339346Y86314D01*
X335472Y84709D01*
X331278Y84709D01*
X329994Y85241D01*
X329927Y85260D01*
X329863Y85287D01*
X329774Y85302D01*
X329687Y85325D01*
X329617Y85326D01*
X329548Y85337D01*
X329459Y85329D01*
X329369Y85330D01*
X329301Y85314D01*
X329232Y85308D01*
X329147Y85277D01*
X329060Y85256D01*
X328998Y85224D01*
X328933Y85200D01*
X328858Y85149D01*
X328779Y85107D01*
X328727Y85061D01*
X328669Y85021D01*
X328610Y84954D01*
X328543Y84894D01*
X328505Y84835D01*
X328459Y84783D01*
X328418Y84703D01*
X328369Y84628D01*
X328346Y84562D01*
X328314Y84500D01*
X328295Y84412D01*
X328265Y84327D01*
X328260Y84257D01*
X328245Y84189D01*
X328247Y84100D01*
X328240Y84010D01*
X328252Y83941D01*
X328254Y83871D01*
X328279Y83785D01*
X328295Y83697D01*
X328323Y83633D01*
X328343Y83566D01*
X328388Y83489D01*
X328425Y83407D01*
X328469Y83352D01*
X328504Y83292D01*
X328611Y83171D01*
X329611Y82171D01*
X331216Y78297D01*
X331216Y74103D01*
X329611Y70229D01*
X326646Y67264D01*
X322772Y65659D01*
X318578Y65659D01*
G37*
%LPD*%
%LPC*%
G36*
X826578Y65659D02*
X826578Y65659D01*
X822704Y67264D01*
X819739Y70229D01*
X818134Y74103D01*
X818134Y78297D01*
X819739Y82171D01*
X822704Y85136D01*
X826578Y86741D01*
X830772Y86741D01*
X832056Y86209D01*
X832123Y86190D01*
X832187Y86163D01*
X832276Y86148D01*
X832363Y86125D01*
X832433Y86124D01*
X832502Y86113D01*
X832591Y86121D01*
X832681Y86120D01*
X832749Y86136D01*
X832818Y86142D01*
X832903Y86173D01*
X832990Y86194D01*
X833052Y86226D01*
X833117Y86250D01*
X833192Y86301D01*
X833271Y86343D01*
X833323Y86389D01*
X833381Y86429D01*
X833440Y86496D01*
X833507Y86556D01*
X833545Y86615D01*
X833591Y86667D01*
X833632Y86747D01*
X833681Y86822D01*
X833704Y86888D01*
X833736Y86950D01*
X833755Y87038D01*
X833785Y87123D01*
X833790Y87193D01*
X833805Y87261D01*
X833803Y87350D01*
X833810Y87440D01*
X833798Y87509D01*
X833796Y87579D01*
X833771Y87665D01*
X833755Y87753D01*
X833727Y87817D01*
X833707Y87884D01*
X833662Y87961D01*
X833625Y88043D01*
X833581Y88098D01*
X833546Y88158D01*
X833439Y88279D01*
X832439Y89279D01*
X830834Y93153D01*
X830834Y97347D01*
X832439Y101221D01*
X835404Y104186D01*
X839278Y105791D01*
X843472Y105791D01*
X847346Y104186D01*
X848232Y103300D01*
X848326Y103227D01*
X848415Y103148D01*
X848451Y103130D01*
X848483Y103105D01*
X848592Y103058D01*
X848698Y103004D01*
X848738Y102995D01*
X848775Y102979D01*
X848893Y102960D01*
X849009Y102934D01*
X849049Y102935D01*
X849089Y102929D01*
X849208Y102940D01*
X849326Y102944D01*
X849365Y102955D01*
X849406Y102959D01*
X849518Y102999D01*
X849632Y103032D01*
X849667Y103053D01*
X849705Y103066D01*
X849803Y103133D01*
X849906Y103194D01*
X849951Y103234D01*
X849968Y103245D01*
X849981Y103260D01*
X850027Y103300D01*
X855989Y109262D01*
X856049Y109340D01*
X856117Y109412D01*
X856146Y109465D01*
X856183Y109513D01*
X856223Y109604D01*
X856271Y109691D01*
X856286Y109749D01*
X856310Y109805D01*
X856325Y109903D01*
X856350Y109999D01*
X856356Y110099D01*
X856360Y110119D01*
X856358Y110131D01*
X856360Y110159D01*
X856360Y140666D01*
X856348Y140764D01*
X856345Y140863D01*
X856328Y140921D01*
X856320Y140981D01*
X856284Y141073D01*
X856256Y141168D01*
X856226Y141220D01*
X856203Y141277D01*
X856145Y141357D01*
X856095Y141442D01*
X856029Y141518D01*
X856017Y141534D01*
X856007Y141542D01*
X855989Y141563D01*
X843834Y153718D01*
X843827Y153723D01*
X843821Y153731D01*
X843702Y153820D01*
X843583Y153913D01*
X843574Y153916D01*
X843567Y153922D01*
X843422Y153993D01*
X841816Y154658D01*
X840458Y156016D01*
X839723Y157790D01*
X839723Y159710D01*
X840458Y161484D01*
X841816Y162842D01*
X843590Y163577D01*
X845510Y163577D01*
X847284Y162842D01*
X848642Y161484D01*
X849307Y159878D01*
X849312Y159870D01*
X849314Y159861D01*
X849391Y159732D01*
X849465Y159602D01*
X849471Y159595D01*
X849476Y159587D01*
X849582Y159466D01*
X864490Y144559D01*
X864490Y106266D01*
X852287Y94064D01*
X852227Y93986D01*
X852159Y93914D01*
X852130Y93861D01*
X852093Y93813D01*
X852053Y93722D01*
X852005Y93635D01*
X851990Y93577D01*
X851966Y93521D01*
X851951Y93423D01*
X851926Y93327D01*
X851920Y93227D01*
X851916Y93207D01*
X851918Y93195D01*
X851916Y93167D01*
X851916Y93153D01*
X850311Y89279D01*
X847346Y86314D01*
X843472Y84709D01*
X839278Y84709D01*
X837994Y85241D01*
X837927Y85260D01*
X837863Y85287D01*
X837774Y85302D01*
X837687Y85325D01*
X837617Y85326D01*
X837548Y85337D01*
X837459Y85329D01*
X837369Y85330D01*
X837301Y85314D01*
X837232Y85308D01*
X837147Y85277D01*
X837060Y85256D01*
X836998Y85224D01*
X836933Y85200D01*
X836858Y85149D01*
X836779Y85107D01*
X836727Y85061D01*
X836669Y85021D01*
X836610Y84954D01*
X836543Y84894D01*
X836505Y84835D01*
X836459Y84783D01*
X836418Y84703D01*
X836369Y84628D01*
X836346Y84562D01*
X836314Y84500D01*
X836295Y84412D01*
X836265Y84327D01*
X836260Y84257D01*
X836245Y84189D01*
X836247Y84100D01*
X836240Y84010D01*
X836252Y83941D01*
X836254Y83871D01*
X836279Y83785D01*
X836295Y83697D01*
X836323Y83633D01*
X836343Y83566D01*
X836388Y83489D01*
X836425Y83407D01*
X836469Y83352D01*
X836504Y83292D01*
X836611Y83171D01*
X837611Y82171D01*
X839216Y78297D01*
X839216Y74103D01*
X837611Y70229D01*
X834646Y67264D01*
X830772Y65659D01*
X826578Y65659D01*
G37*
%LPD*%
%LPC*%
G36*
X572578Y65659D02*
X572578Y65659D01*
X568704Y67264D01*
X565739Y70229D01*
X564134Y74103D01*
X564134Y78297D01*
X565739Y82171D01*
X568704Y85136D01*
X572578Y86741D01*
X576772Y86741D01*
X578056Y86209D01*
X578123Y86190D01*
X578188Y86163D01*
X578276Y86148D01*
X578363Y86125D01*
X578433Y86124D01*
X578502Y86113D01*
X578591Y86121D01*
X578681Y86120D01*
X578749Y86136D01*
X578818Y86143D01*
X578903Y86173D01*
X578990Y86194D01*
X579052Y86226D01*
X579118Y86250D01*
X579192Y86301D01*
X579271Y86343D01*
X579323Y86390D01*
X579381Y86429D01*
X579440Y86496D01*
X579507Y86557D01*
X579545Y86615D01*
X579591Y86667D01*
X579632Y86747D01*
X579681Y86822D01*
X579704Y86888D01*
X579736Y86950D01*
X579755Y87038D01*
X579785Y87123D01*
X579790Y87193D01*
X579805Y87261D01*
X579803Y87350D01*
X579810Y87440D01*
X579798Y87509D01*
X579796Y87579D01*
X579771Y87665D01*
X579755Y87753D01*
X579727Y87817D01*
X579707Y87884D01*
X579662Y87961D01*
X579625Y88043D01*
X579581Y88098D01*
X579546Y88158D01*
X579439Y88279D01*
X578439Y89279D01*
X576834Y93153D01*
X576834Y97347D01*
X578439Y101221D01*
X581404Y104186D01*
X585278Y105791D01*
X589472Y105791D01*
X590594Y105326D01*
X590623Y105318D01*
X590649Y105305D01*
X590776Y105276D01*
X590901Y105242D01*
X590931Y105241D01*
X590959Y105235D01*
X591089Y105239D01*
X591219Y105237D01*
X591248Y105244D01*
X591277Y105245D01*
X591402Y105281D01*
X591528Y105311D01*
X591554Y105325D01*
X591583Y105333D01*
X591695Y105399D01*
X591809Y105460D01*
X591831Y105479D01*
X591857Y105494D01*
X591977Y105601D01*
X601989Y115612D01*
X602049Y115690D01*
X602117Y115762D01*
X602146Y115815D01*
X602183Y115863D01*
X602223Y115954D01*
X602271Y116041D01*
X602286Y116099D01*
X602310Y116155D01*
X602325Y116253D01*
X602350Y116349D01*
X602356Y116449D01*
X602360Y116469D01*
X602358Y116481D01*
X602360Y116509D01*
X602360Y131141D01*
X602348Y131239D01*
X602345Y131338D01*
X602328Y131396D01*
X602320Y131456D01*
X602284Y131548D01*
X602256Y131643D01*
X602226Y131695D01*
X602203Y131752D01*
X602145Y131832D01*
X602095Y131917D01*
X602029Y131993D01*
X602017Y132009D01*
X602007Y132017D01*
X601989Y132038D01*
X586659Y147368D01*
X586652Y147373D01*
X586646Y147381D01*
X586527Y147470D01*
X586408Y147563D01*
X586399Y147566D01*
X586392Y147572D01*
X586247Y147643D01*
X584641Y148308D01*
X583283Y149666D01*
X582548Y151440D01*
X582548Y153360D01*
X583283Y155134D01*
X584641Y156492D01*
X586415Y157227D01*
X588335Y157227D01*
X590109Y156492D01*
X591467Y155134D01*
X592132Y153528D01*
X592137Y153520D01*
X592139Y153511D01*
X592216Y153382D01*
X592290Y153252D01*
X592296Y153245D01*
X592301Y153237D01*
X592407Y153116D01*
X610490Y135034D01*
X610490Y112616D01*
X607737Y109864D01*
X597726Y99852D01*
X597708Y99829D01*
X597685Y99810D01*
X597611Y99704D01*
X597531Y99601D01*
X597519Y99574D01*
X597502Y99550D01*
X597456Y99429D01*
X597405Y99309D01*
X597400Y99280D01*
X597389Y99253D01*
X597375Y99124D01*
X597355Y98995D01*
X597358Y98966D01*
X597354Y98937D01*
X597372Y98808D01*
X597385Y98679D01*
X597395Y98651D01*
X597399Y98622D01*
X597451Y98469D01*
X597916Y97347D01*
X597916Y93153D01*
X596311Y89279D01*
X593346Y86314D01*
X589472Y84709D01*
X585278Y84709D01*
X583994Y85241D01*
X583927Y85260D01*
X583862Y85287D01*
X583774Y85302D01*
X583687Y85325D01*
X583617Y85326D01*
X583548Y85337D01*
X583459Y85329D01*
X583369Y85330D01*
X583301Y85314D01*
X583232Y85307D01*
X583147Y85277D01*
X583060Y85256D01*
X582998Y85224D01*
X582932Y85200D01*
X582858Y85149D01*
X582779Y85107D01*
X582727Y85060D01*
X582669Y85021D01*
X582610Y84954D01*
X582543Y84893D01*
X582505Y84835D01*
X582459Y84783D01*
X582418Y84703D01*
X582369Y84628D01*
X582346Y84562D01*
X582314Y84500D01*
X582295Y84412D01*
X582265Y84327D01*
X582260Y84257D01*
X582245Y84189D01*
X582247Y84100D01*
X582240Y84010D01*
X582252Y83941D01*
X582254Y83871D01*
X582279Y83785D01*
X582295Y83697D01*
X582323Y83633D01*
X582343Y83566D01*
X582388Y83489D01*
X582425Y83407D01*
X582469Y83352D01*
X582504Y83292D01*
X582611Y83171D01*
X583611Y82171D01*
X585216Y78297D01*
X585216Y74103D01*
X583611Y70229D01*
X580646Y67264D01*
X576772Y65659D01*
X572578Y65659D01*
G37*
%LPD*%
%LPC*%
G36*
X128078Y84709D02*
X128078Y84709D01*
X124204Y86314D01*
X121239Y89279D01*
X119634Y93153D01*
X119634Y97347D01*
X120099Y98469D01*
X120107Y98498D01*
X120120Y98524D01*
X120149Y98651D01*
X120183Y98776D01*
X120184Y98806D01*
X120190Y98834D01*
X120186Y98964D01*
X120188Y99094D01*
X120181Y99123D01*
X120180Y99152D01*
X120144Y99277D01*
X120114Y99403D01*
X120100Y99429D01*
X120092Y99458D01*
X120026Y99570D01*
X119965Y99684D01*
X119946Y99706D01*
X119931Y99732D01*
X119824Y99852D01*
X109813Y109864D01*
X107060Y112616D01*
X107060Y135034D01*
X132089Y160062D01*
X132149Y160140D01*
X132217Y160212D01*
X132246Y160265D01*
X132283Y160313D01*
X132323Y160404D01*
X132371Y160491D01*
X132386Y160549D01*
X132410Y160605D01*
X132425Y160703D01*
X132450Y160799D01*
X132456Y160899D01*
X132460Y160919D01*
X132458Y160931D01*
X132460Y160959D01*
X132460Y168398D01*
X132459Y168407D01*
X132460Y168416D01*
X132439Y168565D01*
X132420Y168713D01*
X132417Y168722D01*
X132416Y168731D01*
X132364Y168884D01*
X131698Y170490D01*
X131698Y172410D01*
X132433Y174184D01*
X133791Y175542D01*
X135565Y176277D01*
X137485Y176277D01*
X139259Y175542D01*
X140617Y174184D01*
X141352Y172410D01*
X141352Y170490D01*
X140686Y168884D01*
X140684Y168875D01*
X140679Y168866D01*
X140642Y168721D01*
X140602Y168577D01*
X140602Y168567D01*
X140600Y168558D01*
X140590Y168398D01*
X140590Y157066D01*
X115561Y132038D01*
X115501Y131960D01*
X115433Y131888D01*
X115404Y131835D01*
X115367Y131787D01*
X115327Y131696D01*
X115279Y131609D01*
X115264Y131551D01*
X115240Y131495D01*
X115225Y131397D01*
X115200Y131301D01*
X115194Y131201D01*
X115190Y131181D01*
X115192Y131169D01*
X115190Y131141D01*
X115190Y116509D01*
X115202Y116411D01*
X115205Y116312D01*
X115222Y116254D01*
X115230Y116194D01*
X115266Y116102D01*
X115294Y116007D01*
X115324Y115954D01*
X115347Y115898D01*
X115405Y115818D01*
X115455Y115733D01*
X115521Y115657D01*
X115533Y115641D01*
X115543Y115633D01*
X115561Y115612D01*
X125573Y105601D01*
X125596Y105583D01*
X125615Y105560D01*
X125721Y105486D01*
X125824Y105406D01*
X125851Y105394D01*
X125875Y105377D01*
X125996Y105331D01*
X126116Y105280D01*
X126145Y105275D01*
X126172Y105264D01*
X126301Y105250D01*
X126430Y105230D01*
X126459Y105233D01*
X126488Y105229D01*
X126617Y105247D01*
X126746Y105260D01*
X126774Y105270D01*
X126803Y105274D01*
X126956Y105326D01*
X128078Y105791D01*
X132272Y105791D01*
X136146Y104186D01*
X139111Y101221D01*
X140716Y97347D01*
X140716Y93153D01*
X139111Y89279D01*
X136146Y86314D01*
X132272Y84709D01*
X128078Y84709D01*
G37*
%LPD*%
%LPC*%
G36*
X585278Y110109D02*
X585278Y110109D01*
X581404Y111714D01*
X578439Y114679D01*
X576834Y118553D01*
X576834Y122747D01*
X578439Y126621D01*
X579439Y127621D01*
X579482Y127676D01*
X579532Y127725D01*
X579579Y127802D01*
X579634Y127872D01*
X579662Y127936D01*
X579698Y127996D01*
X579725Y128082D01*
X579761Y128164D01*
X579772Y128233D01*
X579792Y128300D01*
X579796Y128389D01*
X579810Y128478D01*
X579804Y128548D01*
X579807Y128618D01*
X579789Y128705D01*
X579781Y128795D01*
X579757Y128861D01*
X579743Y128929D01*
X579704Y129010D01*
X579673Y129094D01*
X579634Y129152D01*
X579603Y129215D01*
X579545Y129283D01*
X579494Y129357D01*
X579442Y129404D01*
X579397Y129457D01*
X579323Y129508D01*
X579256Y129568D01*
X579194Y129600D01*
X579137Y129640D01*
X579053Y129672D01*
X578973Y129713D01*
X578905Y129728D01*
X578839Y129753D01*
X578750Y129763D01*
X578663Y129782D01*
X578593Y129780D01*
X578523Y129788D01*
X578434Y129775D01*
X578345Y129773D01*
X578278Y129753D01*
X578208Y129743D01*
X578056Y129691D01*
X576772Y129159D01*
X572578Y129159D01*
X568704Y130764D01*
X565739Y133729D01*
X564134Y137603D01*
X564134Y141797D01*
X565739Y145671D01*
X568704Y148636D01*
X572578Y150241D01*
X576772Y150241D01*
X580646Y148636D01*
X583611Y145671D01*
X585216Y141797D01*
X585216Y137603D01*
X583611Y133729D01*
X582611Y132729D01*
X582568Y132674D01*
X582518Y132625D01*
X582471Y132548D01*
X582416Y132478D01*
X582388Y132414D01*
X582352Y132354D01*
X582325Y132268D01*
X582289Y132186D01*
X582278Y132117D01*
X582258Y132050D01*
X582254Y131961D01*
X582240Y131872D01*
X582246Y131802D01*
X582243Y131732D01*
X582261Y131645D01*
X582269Y131555D01*
X582293Y131489D01*
X582307Y131421D01*
X582346Y131340D01*
X582377Y131256D01*
X582416Y131198D01*
X582447Y131135D01*
X582505Y131067D01*
X582556Y130993D01*
X582608Y130946D01*
X582653Y130893D01*
X582727Y130842D01*
X582794Y130782D01*
X582856Y130750D01*
X582913Y130710D01*
X582997Y130678D01*
X583077Y130637D01*
X583145Y130622D01*
X583211Y130597D01*
X583300Y130587D01*
X583387Y130568D01*
X583457Y130570D01*
X583527Y130562D01*
X583616Y130575D01*
X583705Y130577D01*
X583772Y130597D01*
X583842Y130607D01*
X583994Y130659D01*
X585278Y131191D01*
X589472Y131191D01*
X593346Y129586D01*
X596311Y126621D01*
X597916Y122747D01*
X597916Y118553D01*
X596311Y114679D01*
X593346Y111714D01*
X589472Y110109D01*
X585278Y110109D01*
G37*
%LPD*%
%LPC*%
G36*
X509078Y110109D02*
X509078Y110109D01*
X505204Y111714D01*
X502239Y114679D01*
X500634Y118553D01*
X500634Y122747D01*
X502239Y126621D01*
X505204Y129586D01*
X509078Y131191D01*
X513272Y131191D01*
X514556Y130659D01*
X514623Y130640D01*
X514688Y130613D01*
X514776Y130598D01*
X514863Y130575D01*
X514933Y130574D01*
X515002Y130563D01*
X515091Y130571D01*
X515181Y130570D01*
X515249Y130586D01*
X515318Y130593D01*
X515403Y130623D01*
X515490Y130644D01*
X515552Y130676D01*
X515618Y130700D01*
X515692Y130751D01*
X515771Y130793D01*
X515823Y130840D01*
X515881Y130879D01*
X515940Y130946D01*
X516007Y131007D01*
X516045Y131065D01*
X516091Y131117D01*
X516132Y131197D01*
X516181Y131272D01*
X516204Y131338D01*
X516236Y131400D01*
X516255Y131488D01*
X516285Y131573D01*
X516290Y131643D01*
X516305Y131711D01*
X516303Y131800D01*
X516310Y131890D01*
X516298Y131959D01*
X516296Y132029D01*
X516271Y132115D01*
X516255Y132203D01*
X516227Y132267D01*
X516207Y132334D01*
X516162Y132411D01*
X516125Y132493D01*
X516081Y132548D01*
X516046Y132608D01*
X515939Y132729D01*
X514939Y133729D01*
X513334Y137603D01*
X513334Y141797D01*
X514939Y145671D01*
X517904Y148636D01*
X521778Y150241D01*
X525972Y150241D01*
X529846Y148636D01*
X532811Y145671D01*
X534416Y141797D01*
X534416Y137603D01*
X532811Y133729D01*
X529846Y130764D01*
X525972Y129159D01*
X521778Y129159D01*
X520494Y129691D01*
X520427Y129710D01*
X520362Y129737D01*
X520274Y129752D01*
X520187Y129775D01*
X520117Y129776D01*
X520048Y129787D01*
X519959Y129779D01*
X519869Y129780D01*
X519801Y129764D01*
X519732Y129757D01*
X519647Y129727D01*
X519560Y129706D01*
X519498Y129674D01*
X519432Y129650D01*
X519358Y129599D01*
X519279Y129557D01*
X519227Y129510D01*
X519169Y129471D01*
X519110Y129404D01*
X519043Y129343D01*
X519005Y129285D01*
X518959Y129233D01*
X518918Y129153D01*
X518869Y129078D01*
X518846Y129012D01*
X518814Y128950D01*
X518795Y128862D01*
X518765Y128777D01*
X518760Y128707D01*
X518745Y128639D01*
X518747Y128550D01*
X518740Y128460D01*
X518752Y128391D01*
X518754Y128321D01*
X518779Y128235D01*
X518795Y128147D01*
X518823Y128083D01*
X518843Y128016D01*
X518888Y127939D01*
X518925Y127857D01*
X518969Y127802D01*
X519004Y127742D01*
X519111Y127621D01*
X520111Y126621D01*
X521716Y122747D01*
X521716Y118553D01*
X520111Y114679D01*
X517146Y111714D01*
X513272Y110109D01*
X509078Y110109D01*
G37*
%LPD*%
%LPC*%
G36*
X839278Y110109D02*
X839278Y110109D01*
X835404Y111714D01*
X832439Y114679D01*
X830834Y118553D01*
X830834Y122747D01*
X832439Y126621D01*
X833439Y127621D01*
X833482Y127676D01*
X833532Y127725D01*
X833579Y127802D01*
X833634Y127872D01*
X833662Y127936D01*
X833699Y127996D01*
X833725Y128082D01*
X833761Y128164D01*
X833772Y128233D01*
X833792Y128300D01*
X833796Y128389D01*
X833811Y128478D01*
X833804Y128548D01*
X833807Y128618D01*
X833789Y128705D01*
X833781Y128795D01*
X833757Y128861D01*
X833743Y128929D01*
X833704Y129010D01*
X833673Y129094D01*
X833634Y129152D01*
X833603Y129215D01*
X833545Y129283D01*
X833495Y129357D01*
X833442Y129404D01*
X833397Y129457D01*
X833323Y129508D01*
X833256Y129568D01*
X833194Y129600D01*
X833137Y129640D01*
X833053Y129672D01*
X832973Y129713D01*
X832905Y129728D01*
X832839Y129753D01*
X832750Y129763D01*
X832663Y129782D01*
X832593Y129780D01*
X832523Y129788D01*
X832434Y129775D01*
X832345Y129773D01*
X832278Y129753D01*
X832209Y129743D01*
X832056Y129691D01*
X830772Y129159D01*
X826578Y129159D01*
X822704Y130764D01*
X819739Y133729D01*
X818134Y137603D01*
X818134Y141797D01*
X819739Y145671D01*
X822704Y148636D01*
X826578Y150241D01*
X830772Y150241D01*
X834646Y148636D01*
X837611Y145671D01*
X839216Y141797D01*
X839216Y137603D01*
X837611Y133729D01*
X836611Y132729D01*
X836568Y132674D01*
X836518Y132625D01*
X836471Y132548D01*
X836416Y132478D01*
X836388Y132414D01*
X836351Y132354D01*
X836325Y132268D01*
X836289Y132186D01*
X836278Y132117D01*
X836258Y132050D01*
X836254Y131961D01*
X836239Y131872D01*
X836246Y131802D01*
X836243Y131732D01*
X836261Y131645D01*
X836269Y131555D01*
X836293Y131489D01*
X836307Y131421D01*
X836346Y131340D01*
X836377Y131256D01*
X836416Y131198D01*
X836447Y131135D01*
X836505Y131067D01*
X836555Y130993D01*
X836608Y130946D01*
X836653Y130893D01*
X836727Y130842D01*
X836794Y130782D01*
X836856Y130750D01*
X836913Y130710D01*
X836997Y130678D01*
X837077Y130637D01*
X837145Y130622D01*
X837211Y130597D01*
X837300Y130587D01*
X837387Y130568D01*
X837457Y130570D01*
X837527Y130562D01*
X837616Y130575D01*
X837705Y130577D01*
X837772Y130597D01*
X837841Y130607D01*
X837994Y130659D01*
X839278Y131191D01*
X843472Y131191D01*
X847346Y129586D01*
X850311Y126621D01*
X851916Y122747D01*
X851916Y118553D01*
X850311Y114679D01*
X847346Y111714D01*
X843472Y110109D01*
X839278Y110109D01*
G37*
%LPD*%
%LPC*%
G36*
X331278Y110109D02*
X331278Y110109D01*
X327404Y111714D01*
X324439Y114679D01*
X322834Y118553D01*
X322834Y122747D01*
X324439Y126621D01*
X325439Y127621D01*
X325482Y127676D01*
X325532Y127725D01*
X325579Y127802D01*
X325634Y127872D01*
X325662Y127936D01*
X325699Y127996D01*
X325725Y128082D01*
X325761Y128164D01*
X325772Y128233D01*
X325792Y128300D01*
X325796Y128389D01*
X325811Y128478D01*
X325804Y128548D01*
X325807Y128618D01*
X325789Y128705D01*
X325781Y128795D01*
X325757Y128861D01*
X325743Y128929D01*
X325704Y129010D01*
X325673Y129094D01*
X325634Y129152D01*
X325603Y129215D01*
X325545Y129283D01*
X325495Y129357D01*
X325442Y129404D01*
X325397Y129457D01*
X325323Y129508D01*
X325256Y129568D01*
X325194Y129600D01*
X325137Y129640D01*
X325053Y129672D01*
X324973Y129713D01*
X324905Y129728D01*
X324839Y129753D01*
X324750Y129763D01*
X324663Y129782D01*
X324593Y129780D01*
X324523Y129788D01*
X324434Y129775D01*
X324345Y129773D01*
X324278Y129753D01*
X324209Y129743D01*
X324056Y129691D01*
X322772Y129159D01*
X318578Y129159D01*
X314704Y130764D01*
X311739Y133729D01*
X310134Y137603D01*
X310134Y141797D01*
X311739Y145671D01*
X314704Y148636D01*
X318578Y150241D01*
X322772Y150241D01*
X326646Y148636D01*
X329611Y145671D01*
X331216Y141797D01*
X331216Y137603D01*
X329611Y133729D01*
X328611Y132729D01*
X328568Y132674D01*
X328518Y132625D01*
X328471Y132548D01*
X328416Y132478D01*
X328388Y132414D01*
X328351Y132354D01*
X328325Y132268D01*
X328289Y132186D01*
X328278Y132117D01*
X328258Y132050D01*
X328254Y131961D01*
X328239Y131872D01*
X328246Y131802D01*
X328243Y131732D01*
X328261Y131645D01*
X328269Y131555D01*
X328293Y131489D01*
X328307Y131421D01*
X328346Y131340D01*
X328377Y131256D01*
X328416Y131198D01*
X328447Y131135D01*
X328505Y131067D01*
X328555Y130993D01*
X328608Y130946D01*
X328653Y130893D01*
X328727Y130842D01*
X328794Y130782D01*
X328856Y130750D01*
X328913Y130710D01*
X328997Y130678D01*
X329077Y130637D01*
X329145Y130622D01*
X329211Y130597D01*
X329300Y130587D01*
X329387Y130568D01*
X329457Y130570D01*
X329527Y130562D01*
X329616Y130575D01*
X329705Y130577D01*
X329772Y130597D01*
X329841Y130607D01*
X329994Y130659D01*
X331278Y131191D01*
X335472Y131191D01*
X339346Y129586D01*
X342311Y126621D01*
X343916Y122747D01*
X343916Y118553D01*
X342311Y114679D01*
X339346Y111714D01*
X335472Y110109D01*
X331278Y110109D01*
G37*
%LPD*%
%LPC*%
G36*
X53014Y412589D02*
X53014Y412589D01*
X53014Y441704D01*
X55139Y441495D01*
X58199Y440886D01*
X61184Y439981D01*
X64067Y438787D01*
X66818Y437316D01*
X69412Y435583D01*
X71823Y433604D01*
X74029Y431398D01*
X76008Y428987D01*
X77741Y426393D01*
X79212Y423642D01*
X80406Y420759D01*
X81311Y417774D01*
X81920Y414714D01*
X82129Y412589D01*
X53014Y412589D01*
G37*
%LPD*%
%LPC*%
G36*
X945514Y412114D02*
X945514Y412114D01*
X945514Y441229D01*
X947639Y441020D01*
X950699Y440411D01*
X953684Y439506D01*
X956567Y438312D01*
X959318Y436841D01*
X961912Y435108D01*
X964323Y433129D01*
X966529Y430923D01*
X968508Y428512D01*
X970241Y425918D01*
X971712Y423167D01*
X972906Y420284D01*
X973811Y417299D01*
X974420Y414239D01*
X974629Y412114D01*
X945514Y412114D01*
G37*
%LPD*%
%LPC*%
G36*
X56514Y59689D02*
X56514Y59689D01*
X56514Y88804D01*
X58639Y88595D01*
X61699Y87986D01*
X64684Y87081D01*
X67567Y85887D01*
X70318Y84416D01*
X72912Y82683D01*
X75323Y80704D01*
X77529Y78498D01*
X79508Y76087D01*
X81241Y73493D01*
X82712Y70742D01*
X83906Y67859D01*
X84811Y64874D01*
X85420Y61814D01*
X85629Y59689D01*
X56514Y59689D01*
G37*
%LPD*%
%LPC*%
G36*
X945514Y59689D02*
X945514Y59689D01*
X945514Y88804D01*
X947639Y88595D01*
X950699Y87986D01*
X953684Y87081D01*
X956567Y85887D01*
X959318Y84416D01*
X961912Y82683D01*
X964323Y80704D01*
X966529Y78498D01*
X968508Y76087D01*
X970241Y73493D01*
X971712Y70742D01*
X972906Y67859D01*
X973811Y64874D01*
X974420Y61814D01*
X974629Y59689D01*
X945514Y59689D01*
G37*
%LPD*%
%LPC*%
G36*
X18821Y412589D02*
X18821Y412589D01*
X19030Y414714D01*
X19639Y417774D01*
X20544Y420759D01*
X21738Y423642D01*
X23209Y426393D01*
X24942Y428987D01*
X26921Y431398D01*
X29127Y433604D01*
X31538Y435583D01*
X34132Y437316D01*
X36883Y438787D01*
X39766Y439981D01*
X42751Y440886D01*
X45811Y441495D01*
X47936Y441704D01*
X47936Y412589D01*
X18821Y412589D01*
G37*
%LPD*%
%LPC*%
G36*
X911321Y412114D02*
X911321Y412114D01*
X911530Y414239D01*
X912139Y417299D01*
X913044Y420284D01*
X914238Y423167D01*
X915709Y425918D01*
X917442Y428512D01*
X919421Y430923D01*
X921627Y433129D01*
X924038Y435108D01*
X926632Y436841D01*
X929383Y438312D01*
X932266Y439506D01*
X935251Y440411D01*
X938311Y441020D01*
X940436Y441229D01*
X940436Y412114D01*
X911321Y412114D01*
G37*
%LPD*%
%LPC*%
G36*
X911321Y59689D02*
X911321Y59689D01*
X911530Y61814D01*
X912139Y64874D01*
X913044Y67859D01*
X914238Y70742D01*
X915709Y73493D01*
X917442Y76087D01*
X919421Y78498D01*
X921627Y80704D01*
X924038Y82683D01*
X926632Y84416D01*
X929383Y85887D01*
X932266Y87081D01*
X935251Y87986D01*
X938311Y88595D01*
X940436Y88804D01*
X940436Y59689D01*
X911321Y59689D01*
G37*
%LPD*%
%LPC*%
G36*
X22321Y59689D02*
X22321Y59689D01*
X22530Y61814D01*
X23139Y64874D01*
X24044Y67859D01*
X25238Y70742D01*
X26709Y73493D01*
X28442Y76087D01*
X30421Y78498D01*
X32627Y80704D01*
X35038Y82683D01*
X37632Y84416D01*
X40383Y85887D01*
X43266Y87081D01*
X46251Y87986D01*
X49311Y88595D01*
X51436Y88804D01*
X51436Y59689D01*
X22321Y59689D01*
G37*
%LPD*%
%LPC*%
G36*
X945514Y54611D02*
X945514Y54611D01*
X974629Y54611D01*
X974420Y52486D01*
X973811Y49426D01*
X972906Y46441D01*
X971712Y43558D01*
X970241Y40807D01*
X968508Y38213D01*
X966529Y35802D01*
X964323Y33596D01*
X961912Y31617D01*
X959318Y29884D01*
X956567Y28413D01*
X953684Y27219D01*
X950699Y26314D01*
X947639Y25705D01*
X945514Y25496D01*
X945514Y54611D01*
G37*
%LPD*%
%LPC*%
G36*
X945514Y407036D02*
X945514Y407036D01*
X974629Y407036D01*
X974420Y404911D01*
X973811Y401851D01*
X972906Y398866D01*
X971712Y395983D01*
X970241Y393232D01*
X968508Y390638D01*
X966529Y388227D01*
X964323Y386021D01*
X961912Y384042D01*
X959318Y382309D01*
X956567Y380838D01*
X953684Y379644D01*
X950699Y378739D01*
X947639Y378130D01*
X945514Y377921D01*
X945514Y407036D01*
G37*
%LPD*%
%LPC*%
G36*
X53014Y407511D02*
X53014Y407511D01*
X82129Y407511D01*
X81920Y405386D01*
X81311Y402326D01*
X80406Y399341D01*
X79212Y396458D01*
X77741Y393707D01*
X76008Y391113D01*
X74029Y388702D01*
X71823Y386496D01*
X69412Y384517D01*
X66818Y382784D01*
X64067Y381313D01*
X61184Y380119D01*
X58199Y379214D01*
X55139Y378605D01*
X53014Y378396D01*
X53014Y407511D01*
G37*
%LPD*%
%LPC*%
G36*
X56514Y54611D02*
X56514Y54611D01*
X85629Y54611D01*
X85420Y52486D01*
X84811Y49426D01*
X83906Y46441D01*
X82712Y43558D01*
X81241Y40807D01*
X79508Y38213D01*
X77529Y35802D01*
X75323Y33596D01*
X72912Y31617D01*
X70318Y29884D01*
X67567Y28413D01*
X64684Y27219D01*
X61699Y26314D01*
X58639Y25705D01*
X56514Y25496D01*
X56514Y54611D01*
G37*
%LPD*%
%LPC*%
G36*
X49311Y25705D02*
X49311Y25705D01*
X46251Y26314D01*
X43266Y27219D01*
X40383Y28413D01*
X37632Y29884D01*
X35038Y31617D01*
X32627Y33596D01*
X30421Y35802D01*
X28442Y38213D01*
X26709Y40807D01*
X25238Y43558D01*
X24044Y46441D01*
X23139Y49426D01*
X22530Y52486D01*
X22321Y54611D01*
X51436Y54611D01*
X51436Y25496D01*
X49311Y25705D01*
G37*
%LPD*%
%LPC*%
G36*
X938311Y25705D02*
X938311Y25705D01*
X935251Y26314D01*
X932266Y27219D01*
X929383Y28413D01*
X926632Y29884D01*
X924038Y31617D01*
X921627Y33596D01*
X919421Y35802D01*
X917442Y38213D01*
X915709Y40807D01*
X914238Y43558D01*
X913044Y46441D01*
X912139Y49426D01*
X911530Y52486D01*
X911321Y54611D01*
X940436Y54611D01*
X940436Y25496D01*
X938311Y25705D01*
G37*
%LPD*%
%LPC*%
G36*
X938311Y378130D02*
X938311Y378130D01*
X935251Y378739D01*
X932266Y379644D01*
X929383Y380838D01*
X926632Y382309D01*
X924038Y384042D01*
X921627Y386021D01*
X919421Y388227D01*
X917442Y390638D01*
X915709Y393232D01*
X914238Y395983D01*
X913044Y398866D01*
X912139Y401851D01*
X911530Y404911D01*
X911321Y407036D01*
X940436Y407036D01*
X940436Y377921D01*
X938311Y378130D01*
G37*
%LPD*%
%LPC*%
G36*
X45811Y378605D02*
X45811Y378605D01*
X42751Y379214D01*
X39766Y380119D01*
X36883Y381313D01*
X34132Y382784D01*
X31538Y384517D01*
X29127Y386496D01*
X26921Y388702D01*
X24942Y391113D01*
X23209Y393707D01*
X21738Y396458D01*
X20544Y399341D01*
X19639Y402326D01*
X19030Y405386D01*
X18821Y407511D01*
X47936Y407511D01*
X47936Y378396D01*
X45811Y378605D01*
G37*
%LPD*%
%LPC*%
G36*
X224465Y315848D02*
X224465Y315848D01*
X222691Y316583D01*
X221333Y317941D01*
X220598Y319715D01*
X220598Y321635D01*
X221333Y323409D01*
X222691Y324767D01*
X224297Y325432D01*
X224305Y325437D01*
X224314Y325439D01*
X224443Y325515D01*
X224574Y325590D01*
X224580Y325596D01*
X224588Y325601D01*
X224709Y325707D01*
X239616Y340615D01*
X276348Y340615D01*
X276357Y340616D01*
X276366Y340615D01*
X276515Y340636D01*
X276663Y340655D01*
X276672Y340658D01*
X276681Y340659D01*
X276834Y340711D01*
X278440Y341377D01*
X280360Y341377D01*
X282134Y340642D01*
X283492Y339284D01*
X284227Y337510D01*
X284227Y335590D01*
X283492Y333816D01*
X282134Y332458D01*
X280360Y331723D01*
X278440Y331723D01*
X276834Y332389D01*
X276825Y332391D01*
X276816Y332396D01*
X276671Y332433D01*
X276527Y332473D01*
X276517Y332473D01*
X276508Y332475D01*
X276348Y332485D01*
X243509Y332485D01*
X243411Y332473D01*
X243312Y332470D01*
X243254Y332453D01*
X243194Y332445D01*
X243102Y332409D01*
X243007Y332381D01*
X242955Y332351D01*
X242898Y332328D01*
X242818Y332270D01*
X242733Y332220D01*
X242657Y332154D01*
X242641Y332142D01*
X242633Y332132D01*
X242612Y332114D01*
X230457Y319959D01*
X230452Y319952D01*
X230444Y319946D01*
X230354Y319826D01*
X230262Y319708D01*
X230259Y319699D01*
X230253Y319692D01*
X230182Y319547D01*
X229517Y317941D01*
X228159Y316583D01*
X226385Y315848D01*
X224465Y315848D01*
G37*
%LPD*%
%LPC*%
G36*
X545140Y303148D02*
X545140Y303148D01*
X543366Y303883D01*
X542008Y305241D01*
X541273Y307015D01*
X541273Y308935D01*
X542008Y310709D01*
X543366Y312067D01*
X544972Y312732D01*
X544980Y312737D01*
X544989Y312739D01*
X545118Y312816D01*
X545248Y312890D01*
X545255Y312896D01*
X545263Y312901D01*
X545384Y313007D01*
X548014Y315637D01*
X548074Y315715D01*
X548142Y315787D01*
X548171Y315840D01*
X548208Y315888D01*
X548248Y315979D01*
X548296Y316066D01*
X548311Y316124D01*
X548335Y316180D01*
X548350Y316278D01*
X548375Y316374D01*
X548381Y316474D01*
X548385Y316494D01*
X548383Y316506D01*
X548385Y316534D01*
X548385Y343023D01*
X548384Y343032D01*
X548385Y343041D01*
X548364Y343190D01*
X548345Y343338D01*
X548342Y343347D01*
X548341Y343356D01*
X548289Y343509D01*
X547623Y345115D01*
X547623Y347035D01*
X548358Y348809D01*
X549716Y350167D01*
X551490Y350902D01*
X553410Y350902D01*
X555184Y350167D01*
X556542Y348809D01*
X557277Y347035D01*
X557277Y345115D01*
X556611Y343509D01*
X556609Y343500D01*
X556604Y343491D01*
X556567Y343346D01*
X556527Y343202D01*
X556527Y343193D01*
X556525Y343184D01*
X556515Y343023D01*
X556515Y312641D01*
X551132Y307259D01*
X551127Y307252D01*
X551119Y307246D01*
X551030Y307127D01*
X550937Y307008D01*
X550934Y306999D01*
X550928Y306992D01*
X550857Y306847D01*
X550192Y305241D01*
X548834Y303883D01*
X547060Y303148D01*
X545140Y303148D01*
G37*
%LPD*%
%LPC*%
G36*
X341551Y230377D02*
X341551Y230377D01*
X335152Y236776D01*
X335152Y245824D01*
X341551Y252223D01*
X350599Y252223D01*
X356998Y245824D01*
X356998Y236776D01*
X350599Y230377D01*
X341551Y230377D01*
G37*
%LPD*%
%LPC*%
G36*
X871776Y230377D02*
X871776Y230377D01*
X865377Y236776D01*
X865377Y245824D01*
X871776Y252223D01*
X880824Y252223D01*
X887223Y245824D01*
X887223Y236776D01*
X880824Y230377D01*
X871776Y230377D01*
G37*
%LPD*%
%LPC*%
G36*
X605076Y230377D02*
X605076Y230377D01*
X598677Y236776D01*
X598677Y245824D01*
X605076Y252223D01*
X614124Y252223D01*
X620523Y245824D01*
X620523Y236776D01*
X614124Y230377D01*
X605076Y230377D01*
G37*
%LPD*%
%LPC*%
G36*
X630476Y204977D02*
X630476Y204977D01*
X624077Y211376D01*
X624077Y220424D01*
X630476Y226823D01*
X639524Y226823D01*
X645923Y220424D01*
X645923Y211376D01*
X639524Y204977D01*
X630476Y204977D01*
G37*
%LPD*%
%LPC*%
G36*
X366951Y204977D02*
X366951Y204977D01*
X360552Y211376D01*
X360552Y220424D01*
X366951Y226823D01*
X375999Y226823D01*
X382398Y220424D01*
X382398Y211376D01*
X375999Y204977D01*
X366951Y204977D01*
G37*
%LPD*%
%LPC*%
G36*
X897176Y204977D02*
X897176Y204977D01*
X890777Y211376D01*
X890777Y220424D01*
X897176Y226823D01*
X906224Y226823D01*
X912623Y220424D01*
X912623Y211376D01*
X906224Y204977D01*
X897176Y204977D01*
G37*
%LPD*%
%LPC*%
G36*
X211533Y33908D02*
X211533Y33908D01*
X205358Y40083D01*
X205358Y48817D01*
X211533Y54992D01*
X220267Y54992D01*
X226442Y48817D01*
X226442Y40083D01*
X220267Y33908D01*
X211533Y33908D01*
G37*
%LPD*%
%LPC*%
G36*
X160733Y33908D02*
X160733Y33908D01*
X154558Y40083D01*
X154558Y48817D01*
X160733Y54992D01*
X169467Y54992D01*
X175642Y48817D01*
X175642Y40083D01*
X169467Y33908D01*
X160733Y33908D01*
G37*
%LPD*%
%LPC*%
G36*
X598883Y33908D02*
X598883Y33908D01*
X592708Y40083D01*
X592708Y48817D01*
X598883Y54992D01*
X607617Y54992D01*
X613792Y48817D01*
X613792Y40083D01*
X607617Y33908D01*
X598883Y33908D01*
G37*
%LPD*%
%LPC*%
G36*
X852883Y33908D02*
X852883Y33908D01*
X846708Y40083D01*
X846708Y48817D01*
X852883Y54992D01*
X861617Y54992D01*
X867792Y48817D01*
X867792Y40083D01*
X861617Y33908D01*
X852883Y33908D01*
G37*
%LPD*%
%LPC*%
G36*
X802083Y33908D02*
X802083Y33908D01*
X795908Y40083D01*
X795908Y48817D01*
X802083Y54992D01*
X810817Y54992D01*
X816992Y48817D01*
X816992Y40083D01*
X810817Y33908D01*
X802083Y33908D01*
G37*
%LPD*%
%LPC*%
G36*
X725883Y33908D02*
X725883Y33908D01*
X719708Y40083D01*
X719708Y48817D01*
X725883Y54992D01*
X734617Y54992D01*
X740792Y48817D01*
X740792Y40083D01*
X734617Y33908D01*
X725883Y33908D01*
G37*
%LPD*%
%LPC*%
G36*
X675083Y33908D02*
X675083Y33908D01*
X668908Y40083D01*
X668908Y48817D01*
X675083Y54992D01*
X683817Y54992D01*
X689992Y48817D01*
X689992Y40083D01*
X683817Y33908D01*
X675083Y33908D01*
G37*
%LPD*%
%LPC*%
G36*
X548083Y33908D02*
X548083Y33908D01*
X541908Y40083D01*
X541908Y48817D01*
X548083Y54992D01*
X556817Y54992D01*
X562992Y48817D01*
X562992Y40083D01*
X556817Y33908D01*
X548083Y33908D01*
G37*
%LPD*%
%LPC*%
G36*
X471883Y33908D02*
X471883Y33908D01*
X465708Y40083D01*
X465708Y48817D01*
X471883Y54992D01*
X480617Y54992D01*
X486792Y48817D01*
X486792Y40083D01*
X480617Y33908D01*
X471883Y33908D01*
G37*
%LPD*%
%LPC*%
G36*
X421083Y33908D02*
X421083Y33908D01*
X414908Y40083D01*
X414908Y48817D01*
X421083Y54992D01*
X429817Y54992D01*
X435992Y48817D01*
X435992Y40083D01*
X429817Y33908D01*
X421083Y33908D01*
G37*
%LPD*%
%LPC*%
G36*
X338533Y33908D02*
X338533Y33908D01*
X332358Y40083D01*
X332358Y48817D01*
X338533Y54992D01*
X347267Y54992D01*
X353442Y48817D01*
X353442Y40083D01*
X347267Y33908D01*
X338533Y33908D01*
G37*
%LPD*%
%LPC*%
G36*
X287733Y33908D02*
X287733Y33908D01*
X281558Y40083D01*
X281558Y48817D01*
X287733Y54992D01*
X296467Y54992D01*
X302642Y48817D01*
X302642Y40083D01*
X296467Y33908D01*
X287733Y33908D01*
G37*
%LPD*%
%LPC*%
G36*
X291140Y309498D02*
X291140Y309498D01*
X289366Y310233D01*
X288008Y311591D01*
X287273Y313365D01*
X287273Y315285D01*
X287939Y316891D01*
X287941Y316900D01*
X287946Y316909D01*
X287983Y317054D01*
X288023Y317198D01*
X288023Y317207D01*
X288025Y317216D01*
X288035Y317377D01*
X288035Y346198D01*
X288034Y346207D01*
X288035Y346216D01*
X288014Y346365D01*
X287995Y346513D01*
X287992Y346522D01*
X287991Y346531D01*
X287939Y346684D01*
X287273Y348290D01*
X287273Y350210D01*
X288008Y351984D01*
X289366Y353342D01*
X291140Y354077D01*
X293060Y354077D01*
X294834Y353342D01*
X296192Y351984D01*
X296927Y350210D01*
X296927Y348290D01*
X296261Y346684D01*
X296259Y346675D01*
X296254Y346666D01*
X296217Y346521D01*
X296177Y346377D01*
X296177Y346367D01*
X296175Y346358D01*
X296165Y346198D01*
X296165Y317377D01*
X296166Y317368D01*
X296165Y317359D01*
X296186Y317210D01*
X296205Y317062D01*
X296208Y317053D01*
X296209Y317044D01*
X296261Y316891D01*
X296927Y315285D01*
X296927Y313365D01*
X296192Y311591D01*
X294834Y310233D01*
X293060Y309498D01*
X291140Y309498D01*
G37*
%LPD*%
%LPC*%
G36*
X674178Y135509D02*
X674178Y135509D01*
X670304Y137114D01*
X667339Y140079D01*
X665734Y143953D01*
X665734Y148147D01*
X667339Y152021D01*
X670304Y154986D01*
X674178Y156591D01*
X678372Y156591D01*
X682246Y154986D01*
X685211Y152021D01*
X686816Y148147D01*
X686816Y143953D01*
X685211Y140079D01*
X682246Y137114D01*
X678372Y135509D01*
X674178Y135509D01*
G37*
%LPD*%
%LPC*%
G36*
X801178Y135509D02*
X801178Y135509D01*
X797304Y137114D01*
X794339Y140079D01*
X792734Y143953D01*
X792734Y148147D01*
X794339Y152021D01*
X797304Y154986D01*
X801178Y156591D01*
X805372Y156591D01*
X809246Y154986D01*
X812211Y152021D01*
X813816Y148147D01*
X813816Y143953D01*
X812211Y140079D01*
X809246Y137114D01*
X805372Y135509D01*
X801178Y135509D01*
G37*
%LPD*%
%LPC*%
G36*
X166178Y135509D02*
X166178Y135509D01*
X162304Y137114D01*
X159339Y140079D01*
X157734Y143953D01*
X157734Y148147D01*
X159339Y152021D01*
X162304Y154986D01*
X166178Y156591D01*
X170372Y156591D01*
X174246Y154986D01*
X177211Y152021D01*
X178816Y148147D01*
X178816Y143953D01*
X177211Y140079D01*
X174246Y137114D01*
X170372Y135509D01*
X166178Y135509D01*
G37*
%LPD*%
%LPC*%
G36*
X293178Y135509D02*
X293178Y135509D01*
X289304Y137114D01*
X286339Y140079D01*
X284734Y143953D01*
X284734Y148147D01*
X286339Y152021D01*
X289304Y154986D01*
X293178Y156591D01*
X297372Y156591D01*
X301246Y154986D01*
X304211Y152021D01*
X305816Y148147D01*
X305816Y143953D01*
X304211Y140079D01*
X301246Y137114D01*
X297372Y135509D01*
X293178Y135509D01*
G37*
%LPD*%
%LPC*%
G36*
X547178Y135509D02*
X547178Y135509D01*
X543304Y137114D01*
X540339Y140079D01*
X538734Y143953D01*
X538734Y148147D01*
X540339Y152021D01*
X543304Y154986D01*
X547178Y156591D01*
X551372Y156591D01*
X555246Y154986D01*
X558211Y152021D01*
X559816Y148147D01*
X559816Y143953D01*
X558211Y140079D01*
X555246Y137114D01*
X551372Y135509D01*
X547178Y135509D01*
G37*
%LPD*%
%LPC*%
G36*
X420178Y135509D02*
X420178Y135509D01*
X416304Y137114D01*
X413339Y140079D01*
X411734Y143953D01*
X411734Y148147D01*
X413339Y152021D01*
X416304Y154986D01*
X420178Y156591D01*
X424372Y156591D01*
X428246Y154986D01*
X431211Y152021D01*
X432816Y148147D01*
X432816Y143953D01*
X431211Y140079D01*
X428246Y137114D01*
X424372Y135509D01*
X420178Y135509D01*
G37*
%LPD*%
%LPC*%
G36*
X900793Y269544D02*
X900793Y269544D01*
X895019Y275318D01*
X895019Y283482D01*
X900793Y289256D01*
X908957Y289256D01*
X914731Y283482D01*
X914731Y275318D01*
X908957Y269544D01*
X900793Y269544D01*
G37*
%LPD*%
%LPC*%
G36*
X329293Y269544D02*
X329293Y269544D01*
X323519Y275318D01*
X323519Y283482D01*
X329293Y289256D01*
X337457Y289256D01*
X343231Y283482D01*
X343231Y275318D01*
X337457Y269544D01*
X329293Y269544D01*
G37*
%LPD*%
%LPC*%
G36*
X354693Y269544D02*
X354693Y269544D01*
X348919Y275318D01*
X348919Y283482D01*
X354693Y289256D01*
X362857Y289256D01*
X368631Y283482D01*
X368631Y275318D01*
X362857Y269544D01*
X354693Y269544D01*
G37*
%LPD*%
%LPC*%
G36*
X605518Y269544D02*
X605518Y269544D01*
X599744Y275318D01*
X599744Y283482D01*
X605518Y289256D01*
X613682Y289256D01*
X619456Y283482D01*
X619456Y275318D01*
X613682Y269544D01*
X605518Y269544D01*
G37*
%LPD*%
%LPC*%
G36*
X630918Y269544D02*
X630918Y269544D01*
X625144Y275318D01*
X625144Y283482D01*
X630918Y289256D01*
X639082Y289256D01*
X644856Y283482D01*
X644856Y275318D01*
X639082Y269544D01*
X630918Y269544D01*
G37*
%LPD*%
%LPC*%
G36*
X875393Y269544D02*
X875393Y269544D01*
X869619Y275318D01*
X869619Y283482D01*
X875393Y289256D01*
X883557Y289256D01*
X889331Y283482D01*
X889331Y275318D01*
X883557Y269544D01*
X875393Y269544D01*
G37*
%LPD*%
%LPC*%
G36*
X801337Y60109D02*
X801337Y60109D01*
X797757Y61592D01*
X795017Y64332D01*
X793534Y67912D01*
X793534Y71788D01*
X795017Y75368D01*
X797757Y78108D01*
X801337Y79591D01*
X805213Y79591D01*
X808793Y78108D01*
X811533Y75368D01*
X813016Y71788D01*
X813016Y67912D01*
X811533Y64332D01*
X808793Y61592D01*
X805213Y60109D01*
X801337Y60109D01*
G37*
%LPD*%
%LPC*%
G36*
X166337Y60109D02*
X166337Y60109D01*
X162757Y61592D01*
X160017Y64332D01*
X158534Y67912D01*
X158534Y71788D01*
X160017Y75368D01*
X162757Y78108D01*
X166337Y79591D01*
X170213Y79591D01*
X173793Y78108D01*
X176533Y75368D01*
X178016Y71788D01*
X178016Y67912D01*
X176533Y64332D01*
X173793Y61592D01*
X170213Y60109D01*
X166337Y60109D01*
G37*
%LPD*%
%LPC*%
G36*
X674337Y60109D02*
X674337Y60109D01*
X670757Y61592D01*
X668017Y64332D01*
X666534Y67912D01*
X666534Y71788D01*
X668017Y75368D01*
X670757Y78108D01*
X674337Y79591D01*
X678213Y79591D01*
X681793Y78108D01*
X684533Y75368D01*
X686016Y71788D01*
X686016Y67912D01*
X684533Y64332D01*
X681793Y61592D01*
X678213Y60109D01*
X674337Y60109D01*
G37*
%LPD*%
%LPC*%
G36*
X547337Y60109D02*
X547337Y60109D01*
X543757Y61592D01*
X541017Y64332D01*
X539534Y67912D01*
X539534Y71788D01*
X541017Y75368D01*
X543757Y78108D01*
X547337Y79591D01*
X551213Y79591D01*
X554793Y78108D01*
X557533Y75368D01*
X559016Y71788D01*
X559016Y67912D01*
X557533Y64332D01*
X554793Y61592D01*
X551213Y60109D01*
X547337Y60109D01*
G37*
%LPD*%
%LPC*%
G36*
X420337Y60109D02*
X420337Y60109D01*
X416757Y61592D01*
X414017Y64332D01*
X412534Y67912D01*
X412534Y71788D01*
X414017Y75368D01*
X416757Y78108D01*
X420337Y79591D01*
X424213Y79591D01*
X427793Y78108D01*
X430533Y75368D01*
X432016Y71788D01*
X432016Y67912D01*
X430533Y64332D01*
X427793Y61592D01*
X424213Y60109D01*
X420337Y60109D01*
G37*
%LPD*%
%LPC*%
G36*
X293337Y60109D02*
X293337Y60109D01*
X289757Y61592D01*
X287017Y64332D01*
X285534Y67912D01*
X285534Y71788D01*
X287017Y75368D01*
X289757Y78108D01*
X293337Y79591D01*
X297213Y79591D01*
X300793Y78108D01*
X303533Y75368D01*
X305016Y71788D01*
X305016Y67912D01*
X303533Y64332D01*
X300793Y61592D01*
X297213Y60109D01*
X293337Y60109D01*
G37*
%LPD*%
%LPC*%
G36*
X606476Y404813D02*
X606476Y404813D01*
X604479Y405462D01*
X602608Y406415D01*
X600909Y407649D01*
X599424Y409134D01*
X598190Y410833D01*
X597237Y412704D01*
X596588Y414701D01*
X596259Y416775D01*
X596259Y426086D01*
X607061Y426086D01*
X607061Y404720D01*
X606476Y404813D01*
G37*
%LPD*%
%LPC*%
G36*
X852931Y217931D02*
X852931Y217931D01*
X852931Y226823D01*
X855424Y226823D01*
X861823Y220424D01*
X861823Y217931D01*
X852931Y217931D01*
G37*
%LPD*%
%LPC*%
G36*
X586231Y217931D02*
X586231Y217931D01*
X586231Y226823D01*
X588724Y226823D01*
X595123Y220424D01*
X595123Y217931D01*
X586231Y217931D01*
G37*
%LPD*%
%LPC*%
G36*
X322706Y217931D02*
X322706Y217931D01*
X322706Y226823D01*
X325199Y226823D01*
X331598Y220424D01*
X331598Y217931D01*
X322706Y217931D01*
G37*
%LPD*%
%LPC*%
G36*
X839977Y217931D02*
X839977Y217931D01*
X839977Y220424D01*
X846376Y226823D01*
X848869Y226823D01*
X848869Y217931D01*
X839977Y217931D01*
G37*
%LPD*%
%LPC*%
G36*
X586231Y204977D02*
X586231Y204977D01*
X586231Y213869D01*
X595123Y213869D01*
X595123Y211376D01*
X588724Y204977D01*
X586231Y204977D01*
G37*
%LPD*%
%LPC*%
G36*
X573277Y217931D02*
X573277Y217931D01*
X573277Y220424D01*
X579676Y226823D01*
X582169Y226823D01*
X582169Y217931D01*
X573277Y217931D01*
G37*
%LPD*%
%LPC*%
G36*
X309752Y217931D02*
X309752Y217931D01*
X309752Y220424D01*
X316151Y226823D01*
X318644Y226823D01*
X318644Y217931D01*
X309752Y217931D01*
G37*
%LPD*%
%LPC*%
G36*
X322706Y204977D02*
X322706Y204977D01*
X322706Y213869D01*
X331598Y213869D01*
X331598Y211376D01*
X325199Y204977D01*
X322706Y204977D01*
G37*
%LPD*%
%LPC*%
G36*
X852931Y204977D02*
X852931Y204977D01*
X852931Y213869D01*
X861823Y213869D01*
X861823Y211376D01*
X855424Y204977D01*
X852931Y204977D01*
G37*
%LPD*%
%LPC*%
G36*
X846376Y204977D02*
X846376Y204977D01*
X839977Y211376D01*
X839977Y213869D01*
X848869Y213869D01*
X848869Y204977D01*
X846376Y204977D01*
G37*
%LPD*%
%LPC*%
G36*
X316151Y204977D02*
X316151Y204977D01*
X309752Y211376D01*
X309752Y213869D01*
X318644Y213869D01*
X318644Y204977D01*
X316151Y204977D01*
G37*
%LPD*%
%LPC*%
G36*
X579676Y204977D02*
X579676Y204977D01*
X573277Y211376D01*
X573277Y213869D01*
X582169Y213869D01*
X582169Y204977D01*
X579676Y204977D01*
G37*
%LPD*%
%LPC*%
G36*
X50474Y410049D02*
X50474Y410049D01*
X50474Y410051D01*
X50476Y410051D01*
X50476Y410049D01*
X50474Y410049D01*
G37*
%LPD*%
%LPC*%
G36*
X53974Y57149D02*
X53974Y57149D01*
X53974Y57151D01*
X53976Y57151D01*
X53976Y57149D01*
X53974Y57149D01*
G37*
%LPD*%
%LPC*%
G36*
X942974Y409574D02*
X942974Y409574D01*
X942974Y409576D01*
X942976Y409576D01*
X942976Y409574D01*
X942974Y409574D01*
G37*
%LPD*%
%LPC*%
G36*
X942974Y57149D02*
X942974Y57149D01*
X942974Y57151D01*
X942976Y57151D01*
X942976Y57149D01*
X942974Y57149D01*
G37*
%LPD*%
D10*
X803275Y69850D03*
D11*
X803275Y146050D03*
X841375Y120650D03*
X828675Y139700D03*
X841375Y95250D03*
X828675Y76200D03*
X765175Y95250D03*
X765175Y120650D03*
X777875Y139700D03*
D10*
X676275Y69850D03*
D11*
X676275Y146050D03*
X714375Y120650D03*
X701675Y139700D03*
X714375Y95250D03*
X701675Y76200D03*
X638175Y95250D03*
X638175Y120650D03*
X650875Y139700D03*
D10*
X549275Y69850D03*
D11*
X549275Y146050D03*
X587375Y120650D03*
X574675Y139700D03*
X587375Y95250D03*
X574675Y76200D03*
X511175Y95250D03*
X511175Y120650D03*
X523875Y139700D03*
D10*
X422275Y69850D03*
D11*
X422275Y146050D03*
X460375Y120650D03*
X447675Y139700D03*
X460375Y95250D03*
X447675Y76200D03*
X384175Y95250D03*
X384175Y120650D03*
X396875Y139700D03*
D10*
X295275Y69850D03*
D11*
X295275Y146050D03*
X333375Y120650D03*
X320675Y139700D03*
X333375Y95250D03*
X320675Y76200D03*
X257175Y95250D03*
X257175Y120650D03*
X269875Y139700D03*
D10*
X168275Y69850D03*
D11*
X168275Y146050D03*
X206375Y120650D03*
X193675Y139700D03*
X206375Y95250D03*
X193675Y76200D03*
X130175Y95250D03*
X130175Y120650D03*
X142875Y139700D03*
D12*
X609600Y417825D02*
X609600Y439425D01*
X635000Y439425D02*
X635000Y417825D01*
X660400Y417825D02*
X660400Y439425D01*
X685800Y439425D02*
X685800Y417825D01*
X711200Y417825D02*
X711200Y439425D01*
X736600Y439425D02*
X736600Y417825D01*
X762000Y417825D02*
X762000Y439425D01*
X787400Y439425D02*
X787400Y417825D01*
D13*
X53975Y57150D03*
X942975Y409575D03*
X50475Y410050D03*
X942975Y57150D03*
D14*
X879475Y279400D03*
X904875Y279400D03*
D15*
X806450Y44450D03*
X857250Y44450D03*
X679450Y44450D03*
X730250Y44450D03*
X552450Y44450D03*
X603250Y44450D03*
X425450Y44450D03*
X476250Y44450D03*
X292100Y44450D03*
X342900Y44450D03*
X165100Y44450D03*
X215900Y44450D03*
D16*
X901700Y215900D03*
X850900Y215900D03*
X876300Y241300D03*
D14*
X609600Y279400D03*
X635000Y279400D03*
D16*
X635000Y215900D03*
X584200Y215900D03*
X609600Y241300D03*
D14*
X333375Y279400D03*
X358775Y279400D03*
D16*
X371475Y215900D03*
X320675Y215900D03*
X346075Y241300D03*
D17*
X25400Y330200D03*
X25400Y241300D03*
X25400Y101600D03*
X165100Y444500D03*
X431800Y444500D03*
X292100Y444500D03*
X190500Y12700D03*
X387350Y12700D03*
X635000Y12700D03*
X876300Y12700D03*
X977900Y114300D03*
X977900Y355600D03*
X977900Y241300D03*
X180975Y339725D03*
X200025Y355600D03*
X444500Y336550D03*
X460375Y336550D03*
X463550Y352425D03*
X701675Y336550D03*
X714375Y336550D03*
X717550Y346075D03*
X742950Y381000D03*
X317500Y352425D03*
X358775Y311150D03*
X304800Y298450D03*
X558800Y295275D03*
X419100Y295275D03*
X444500Y241300D03*
X679450Y295275D03*
X803275Y307975D03*
X771525Y346075D03*
X917575Y320675D03*
X879475Y117475D03*
X822325Y120650D03*
X784225Y120650D03*
X800100Y171450D03*
X746125Y219075D03*
X701675Y241300D03*
X828675Y44450D03*
X755650Y44450D03*
X704850Y44450D03*
X638175Y47625D03*
X577850Y44450D03*
X508000Y44450D03*
X450850Y44450D03*
X381000Y44450D03*
X317500Y44450D03*
X247650Y44450D03*
X193675Y44450D03*
X149225Y120650D03*
X187325Y120650D03*
X276225Y123825D03*
X317500Y123825D03*
X403225Y123825D03*
X444500Y123825D03*
X527050Y123825D03*
X571500Y123825D03*
X657225Y123825D03*
X698500Y123825D03*
X612775Y146050D03*
X571500Y327025D03*
X571500Y355600D03*
X628650Y358775D03*
X406400Y327025D03*
X260350Y349250D03*
X177800Y241300D03*
X263525Y241300D03*
X269875Y168275D03*
X174625Y174625D03*
X368300Y161925D03*
X447675Y168275D03*
X488950Y165100D03*
X498475Y203200D03*
X530225Y238125D03*
X787400Y238125D03*
X688975Y165100D03*
X739775Y98425D03*
X711200Y165100D03*
X234950Y98425D03*
X358775Y98425D03*
X485775Y98425D03*
X612775Y98425D03*
X114300Y161925D03*
X161925Y295275D03*
X133350Y406400D03*
X250825Y406400D03*
X368300Y419100D03*
X527050Y352425D03*
X542925Y168275D03*
X336550Y396875D03*
X441325Y396875D03*
X546100Y415925D03*
X822325Y444500D03*
X803275Y279400D03*
D18*
X809625Y273050D01*
X809625Y222250D01*
X762000Y174625D01*
D17*
X762000Y174625D03*
X797814Y196850D03*
D18*
X749300Y148336D01*
X749300Y111125D01*
X765175Y95250D01*
D17*
X587375Y152400D03*
D18*
X606425Y133350D01*
X606425Y114300D01*
X587375Y95250D01*
D17*
X558800Y279400D03*
D18*
X565150Y273050D01*
X565150Y238125D02*
X508000Y180975D01*
D17*
X508000Y180975D03*
D18*
X565150Y238125D02*
X565150Y273050D01*
D17*
X336550Y161925D03*
D18*
X352425Y146050D01*
X352425Y114300D01*
X333375Y95250D01*
D17*
X720725Y390525D03*
D18*
X711200Y400050D01*
X711200Y428625D01*
D17*
X565150Y374650D03*
D18*
X695325Y374650D01*
X711200Y390525D01*
D17*
X311150Y374650D03*
D18*
X314325Y371475D01*
X561975Y371475D01*
X565150Y374650D01*
X711200Y390525D02*
X711200Y400050D01*
D17*
X669925Y390525D03*
D18*
X660400Y400050D01*
X660400Y428625D01*
D17*
X460375Y384175D03*
D18*
X463550Y381000D02*
X650875Y381000D01*
X463550Y381000D02*
X460375Y377825D01*
X320675Y377825D01*
X314325Y384175D01*
X184150Y384175D01*
D17*
X184150Y384175D03*
D18*
X460375Y384175D02*
X463550Y381000D01*
X660400Y390525D02*
X660400Y400050D01*
X660400Y390525D02*
X650875Y381000D01*
D17*
X695325Y390525D03*
D18*
X685800Y400050D01*
X685800Y428625D01*
D17*
X644525Y390525D03*
D18*
X635000Y400050D01*
X635000Y409575D01*
X635000Y428625D01*
D17*
X425450Y387350D03*
D18*
X628650Y393700D02*
X635000Y400050D01*
X628650Y393700D02*
X457200Y393700D01*
X450850Y387350D01*
X425450Y387350D01*
D17*
X139700Y387350D03*
D18*
X146050Y393700D01*
X317500Y393700D01*
X323850Y387350D01*
X425450Y387350D01*
D17*
X219075Y203200D03*
D18*
X231775Y215900D01*
X276225Y215900D01*
X301625Y241300D01*
X301625Y273050D01*
D17*
X301625Y273050D03*
X755650Y314325D03*
X638175Y333375D03*
D18*
X752475Y314325D02*
X755650Y314325D01*
X752475Y314325D02*
X749300Y311150D01*
X660400Y311150D02*
X638175Y333375D01*
X660400Y311150D02*
X749300Y311150D01*
D17*
X517525Y336550D03*
D18*
X501650Y320675D01*
X476250Y320675D01*
D17*
X476250Y320675D03*
X498475Y311150D03*
D18*
X403225Y311150D01*
X381000Y333375D01*
D17*
X381000Y333375D03*
X279400Y336550D03*
D18*
X241300Y336550D01*
X225425Y320675D01*
D17*
X225425Y320675D03*
X738575Y318700D03*
X736600Y358775D03*
D18*
X738575Y356800D01*
X738575Y318700D01*
D17*
X546100Y307975D03*
X552450Y346075D03*
D18*
X552450Y314325D02*
X546100Y307975D01*
X552450Y314325D02*
X552450Y346075D01*
D17*
X292100Y314325D03*
D18*
X292100Y349250D01*
D17*
X292100Y349250D03*
X844550Y158750D03*
D18*
X860425Y142875D01*
X860425Y107950D01*
X847725Y95250D01*
X841375Y95250D01*
D17*
X654050Y165100D03*
D18*
X622300Y133350D01*
X622300Y111125D01*
X638175Y95250D01*
D17*
X730250Y247047D03*
D18*
X720725Y237522D01*
X720725Y127000D01*
X714375Y120650D01*
D17*
X730250Y234950D03*
D18*
X730250Y111125D01*
X714375Y95250D01*
D17*
X682753Y203200D03*
D18*
X682753Y177800D01*
X650875Y145922D01*
X650875Y139700D01*
D17*
X473075Y222250D03*
D18*
X473075Y155575D01*
X479425Y149225D01*
X479425Y114300D01*
X460375Y95250D01*
D17*
X463550Y225425D03*
D18*
X463550Y123825D01*
X460375Y120650D01*
D17*
X393700Y158750D03*
D18*
X368300Y133350D01*
X368300Y111125D01*
X384175Y95250D01*
D17*
X428625Y203200D03*
D18*
X428625Y177800D01*
X396875Y146050D01*
X396875Y139700D01*
D17*
X536575Y193675D03*
D18*
X492125Y149225D01*
X492125Y114300D01*
X511175Y95250D01*
D17*
X196850Y206375D03*
D18*
X196850Y171450D02*
X228600Y139700D01*
X228600Y117475D01*
X206375Y95250D01*
X196850Y171450D02*
X196850Y206375D01*
X212725Y127000D02*
X206375Y120650D01*
X212725Y127000D02*
X212725Y142875D01*
X187325Y168275D01*
X187325Y212725D01*
D17*
X187325Y212725D03*
X158750Y257175D03*
D18*
X158750Y165100D01*
X142875Y149225D01*
X142875Y139700D01*
D17*
X136525Y171450D03*
D18*
X136525Y158750D01*
X111125Y133350D01*
X111125Y114300D01*
X130175Y95250D01*
X241300Y111125D02*
X257175Y95250D01*
X241300Y111125D02*
X241300Y206375D01*
X242256Y207331D01*
D17*
X242256Y207331D03*
M02*
