G04 EAGLE Gerber RS-274X export*
G75*
%MOMM*%
%FSLAX34Y34*%
%LPD*%
%INSilkscreen Top*%
%IPPOS*%
%AMOC8*
5,1,8,0,0,1.08239X$1,22.5*%
G01*
%ADD10C,0.127000*%
%ADD11C,0.254000*%
%ADD12C,0.076200*%
%ADD13C,0.152400*%
%ADD14R,0.584200X0.609600*%
%ADD15C,0.609600*%
%ADD16C,0.177800*%


D10*
X389882Y405137D02*
X387975Y403230D01*
X387975Y399417D01*
X389882Y397510D01*
X397508Y397510D01*
X399415Y399417D01*
X399415Y403230D01*
X397508Y405137D01*
X393695Y405137D01*
X393695Y401323D01*
X399415Y409204D02*
X387975Y409204D01*
X399415Y416830D01*
X387975Y416830D01*
X387975Y420898D02*
X399415Y420898D01*
X399415Y426618D01*
X397508Y428524D01*
X389882Y428524D01*
X387975Y426618D01*
X387975Y420898D01*
X407025Y399417D02*
X418465Y399417D01*
X418465Y403230D02*
X407025Y403230D01*
X410839Y403230D02*
X410839Y397510D01*
X410839Y403230D02*
X410839Y405137D01*
X414652Y405137D02*
X414652Y397510D01*
X407025Y414924D02*
X408932Y416830D01*
X407025Y414924D02*
X407025Y411111D01*
X408932Y409204D01*
X410839Y409204D01*
X412745Y411111D01*
X412745Y414924D01*
X414652Y416830D01*
X416558Y416830D01*
X418465Y414924D01*
X418465Y411111D01*
X416558Y409204D01*
X418465Y420898D02*
X407025Y420898D01*
X418465Y420898D02*
X418465Y428524D01*
X418465Y432592D02*
X410839Y432592D01*
X407025Y436405D01*
X410839Y440218D01*
X418465Y440218D01*
X412745Y440218D02*
X412745Y432592D01*
X418465Y448099D02*
X407025Y448099D01*
X407025Y444286D02*
X407025Y451912D01*
X427982Y405137D02*
X426075Y403230D01*
X426075Y399417D01*
X427982Y397510D01*
X429889Y397510D01*
X431795Y399417D01*
X431795Y403230D01*
X433702Y405137D01*
X435608Y405137D01*
X437515Y403230D01*
X437515Y399417D01*
X435608Y397510D01*
X426075Y414924D02*
X427982Y416830D01*
X426075Y414924D02*
X426075Y411111D01*
X427982Y409204D01*
X435608Y409204D01*
X437515Y411111D01*
X437515Y414924D01*
X435608Y416830D01*
X437515Y420898D02*
X426075Y420898D01*
X426075Y428524D02*
X433702Y420898D01*
X431795Y422805D02*
X437515Y428524D01*
X447032Y405137D02*
X445125Y403230D01*
X445125Y399417D01*
X447032Y397510D01*
X448939Y397510D01*
X450845Y399417D01*
X450845Y403230D01*
X452752Y405137D01*
X454658Y405137D01*
X456565Y403230D01*
X456565Y399417D01*
X454658Y397510D01*
X456565Y409204D02*
X456565Y413017D01*
X456565Y411111D02*
X445125Y411111D01*
X445125Y413017D02*
X445125Y409204D01*
X445125Y417000D02*
X456565Y417000D01*
X456565Y424626D02*
X445125Y417000D01*
X445125Y424626D02*
X456565Y424626D01*
X464175Y399417D02*
X475615Y399417D01*
X475615Y403230D02*
X464175Y403230D01*
X467989Y403230D02*
X467989Y397510D01*
X467989Y403230D02*
X467989Y405137D01*
X471802Y405137D02*
X471802Y397510D01*
X464175Y411111D02*
X464175Y414924D01*
X464175Y411111D02*
X466082Y409204D01*
X473708Y409204D01*
X475615Y411111D01*
X475615Y414924D01*
X473708Y416830D01*
X466082Y416830D01*
X464175Y414924D01*
X464175Y420898D02*
X464175Y428524D01*
X464175Y420898D02*
X475615Y420898D01*
X475615Y428524D01*
X469895Y424711D02*
X469895Y420898D01*
X485132Y405137D02*
X483225Y403230D01*
X483225Y399417D01*
X485132Y397510D01*
X492758Y397510D01*
X494665Y399417D01*
X494665Y403230D01*
X492758Y405137D01*
X488945Y405137D01*
X488945Y401323D01*
X494665Y409204D02*
X483225Y409204D01*
X494665Y416830D01*
X483225Y416830D01*
X483225Y420898D02*
X494665Y420898D01*
X494665Y426618D01*
X492758Y428524D01*
X485132Y428524D01*
X483225Y426618D01*
X483225Y420898D01*
X502275Y397510D02*
X509902Y397510D01*
X513715Y401323D01*
X509902Y405137D01*
X502275Y405137D01*
X502275Y414924D02*
X504182Y416830D01*
X502275Y414924D02*
X502275Y411111D01*
X504182Y409204D01*
X511808Y409204D01*
X513715Y411111D01*
X513715Y414924D01*
X511808Y416830D01*
X502275Y426618D02*
X504182Y428524D01*
X502275Y426618D02*
X502275Y422805D01*
X504182Y420898D01*
X511808Y420898D01*
X513715Y422805D01*
X513715Y426618D01*
X511808Y428524D01*
X513715Y432592D02*
X513715Y436405D01*
X513715Y434499D02*
X502275Y434499D01*
X502275Y436405D02*
X502275Y432592D01*
X502275Y442295D02*
X502275Y446108D01*
X502275Y442295D02*
X504182Y440388D01*
X511808Y440388D01*
X513715Y442295D01*
X513715Y446108D01*
X511808Y448014D01*
X504182Y448014D01*
X502275Y446108D01*
X521325Y397510D02*
X528952Y397510D01*
X532765Y401323D01*
X528952Y405137D01*
X521325Y405137D01*
X521325Y413017D02*
X532765Y413017D01*
X521325Y409204D02*
X521325Y416830D01*
X521325Y420898D02*
X530858Y420898D01*
X532765Y422805D01*
X532765Y426618D01*
X530858Y428524D01*
X521325Y428524D01*
X521325Y432592D02*
X532765Y432592D01*
X521325Y432592D02*
X521325Y438312D01*
X523232Y440218D01*
X525139Y440218D01*
X527045Y438312D01*
X528952Y440218D01*
X530858Y440218D01*
X532765Y438312D01*
X532765Y432592D01*
X527045Y432592D02*
X527045Y438312D01*
X521325Y444286D02*
X521325Y451912D01*
X521325Y444286D02*
X532765Y444286D01*
X532765Y451912D01*
X527045Y448099D02*
X527045Y444286D01*
X137798Y6985D02*
X133985Y6985D01*
X135892Y6985D02*
X135892Y18425D01*
X137798Y18425D02*
X133985Y18425D01*
X141781Y18425D02*
X141781Y10798D01*
X145594Y6985D01*
X149407Y10798D01*
X149407Y18425D01*
X153475Y12705D02*
X161101Y12705D01*
X165169Y14612D02*
X168982Y18425D01*
X168982Y6985D01*
X165169Y6985D02*
X172795Y6985D01*
X180676Y16518D02*
X184489Y18425D01*
X180676Y16518D02*
X176863Y12705D01*
X176863Y8892D01*
X178770Y6985D01*
X182583Y6985D01*
X184489Y8892D01*
X184489Y10798D01*
X182583Y12705D01*
X176863Y12705D01*
X200251Y6985D02*
X200251Y18425D01*
X207877Y18425D01*
X204064Y12705D02*
X200251Y12705D01*
X211945Y14612D02*
X213851Y14612D01*
X213851Y6985D01*
X211945Y6985D02*
X215758Y6985D01*
X213851Y18425D02*
X213851Y20331D01*
X219741Y18425D02*
X221647Y18425D01*
X221647Y6985D01*
X219741Y6985D02*
X223554Y6985D01*
X229443Y14612D02*
X233257Y14612D01*
X235163Y12705D01*
X235163Y6985D01*
X229443Y6985D01*
X227537Y8892D01*
X229443Y10798D01*
X235163Y10798D01*
X239231Y6985D02*
X239231Y14612D01*
X241137Y14612D01*
X243044Y12705D01*
X243044Y6985D01*
X243044Y12705D02*
X244951Y14612D01*
X246857Y12705D01*
X246857Y6985D01*
X252831Y6985D02*
X256645Y6985D01*
X252831Y6985D02*
X250925Y8892D01*
X250925Y12705D01*
X252831Y14612D01*
X256645Y14612D01*
X258551Y12705D01*
X258551Y10798D01*
X250925Y10798D01*
X262619Y6985D02*
X262619Y14612D01*
X268339Y14612D01*
X270245Y12705D01*
X270245Y6985D01*
X276219Y8892D02*
X276219Y16518D01*
X276219Y8892D02*
X278126Y6985D01*
X278126Y14612D02*
X274313Y14612D01*
X297616Y18425D02*
X297616Y6985D01*
X293803Y18425D02*
X301429Y18425D01*
X305497Y14612D02*
X305497Y8892D01*
X307403Y6985D01*
X313123Y6985D01*
X313123Y14612D01*
X317190Y18425D02*
X317190Y6985D01*
X322910Y6985D01*
X324817Y8892D01*
X324817Y12705D01*
X322910Y14612D01*
X317190Y14612D01*
X330791Y6985D02*
X334604Y6985D01*
X330791Y6985D02*
X328884Y8892D01*
X328884Y12705D01*
X330791Y14612D01*
X334604Y14612D01*
X336511Y12705D01*
X336511Y10798D01*
X328884Y10798D01*
X352272Y6985D02*
X352272Y18425D01*
X357992Y18425D01*
X359899Y16518D01*
X359899Y14612D01*
X357992Y12705D01*
X359899Y10798D01*
X359899Y8892D01*
X357992Y6985D01*
X352272Y6985D01*
X352272Y12705D02*
X357992Y12705D01*
X365873Y6985D02*
X369686Y6985D01*
X371593Y8892D01*
X371593Y12705D01*
X369686Y14612D01*
X365873Y14612D01*
X363966Y12705D01*
X363966Y8892D01*
X365873Y6985D01*
X377567Y14612D02*
X381380Y14612D01*
X383287Y12705D01*
X383287Y6985D01*
X377567Y6985D01*
X375660Y8892D01*
X377567Y10798D01*
X383287Y10798D01*
X387354Y6985D02*
X387354Y14612D01*
X387354Y10798D02*
X391168Y14612D01*
X393074Y14612D01*
X404726Y18425D02*
X404726Y6985D01*
X399006Y6985D01*
X397099Y8892D01*
X397099Y12705D01*
X399006Y14612D01*
X404726Y14612D01*
X670560Y18425D02*
X670560Y6985D01*
X670560Y18425D02*
X676280Y18425D01*
X678187Y16518D01*
X678187Y12705D01*
X676280Y10798D01*
X670560Y10798D01*
X674373Y10798D02*
X678187Y6985D01*
X684161Y6985D02*
X687974Y6985D01*
X684161Y6985D02*
X682254Y8892D01*
X682254Y12705D01*
X684161Y14612D01*
X687974Y14612D01*
X689880Y12705D01*
X689880Y10798D01*
X682254Y10798D01*
X693948Y14612D02*
X697761Y6985D01*
X701574Y14612D01*
X705642Y8892D02*
X705642Y6985D01*
X705642Y8892D02*
X707549Y8892D01*
X707549Y6985D01*
X705642Y6985D01*
X711489Y6985D02*
X719115Y6985D01*
X711489Y6985D02*
X719115Y14612D01*
X719115Y16518D01*
X717209Y18425D01*
X713396Y18425D01*
X711489Y16518D01*
X723183Y8892D02*
X723183Y6985D01*
X723183Y8892D02*
X725089Y8892D01*
X725089Y6985D01*
X723183Y6985D01*
X729030Y8892D02*
X729030Y16518D01*
X730936Y18425D01*
X734750Y18425D01*
X736656Y16518D01*
X736656Y8892D01*
X734750Y6985D01*
X730936Y6985D01*
X729030Y8892D01*
X736656Y16518D01*
X752418Y6985D02*
X760044Y6985D01*
X752418Y6985D02*
X760044Y14612D01*
X760044Y16518D01*
X758138Y18425D01*
X754324Y18425D01*
X752418Y16518D01*
X764112Y16518D02*
X764112Y8892D01*
X764112Y16518D02*
X766018Y18425D01*
X769832Y18425D01*
X771738Y16518D01*
X771738Y8892D01*
X769832Y6985D01*
X766018Y6985D01*
X764112Y8892D01*
X771738Y16518D01*
X775806Y6985D02*
X783432Y6985D01*
X775806Y6985D02*
X783432Y14612D01*
X783432Y16518D01*
X781526Y18425D01*
X777712Y18425D01*
X775806Y16518D01*
X787500Y18425D02*
X795126Y18425D01*
X787500Y18425D02*
X787500Y12705D01*
X791313Y14612D01*
X793220Y14612D01*
X795126Y12705D01*
X795126Y8892D01*
X793220Y6985D01*
X789406Y6985D01*
X787500Y8892D01*
X799194Y6985D02*
X806820Y18425D01*
X810888Y16518D02*
X810888Y8892D01*
X810888Y16518D02*
X812794Y18425D01*
X816607Y18425D01*
X818514Y16518D01*
X818514Y8892D01*
X816607Y6985D01*
X812794Y6985D01*
X810888Y8892D01*
X818514Y16518D01*
X822582Y16518D02*
X824488Y18425D01*
X828301Y18425D01*
X830208Y16518D01*
X830208Y14612D01*
X828301Y12705D01*
X830208Y10798D01*
X830208Y8892D01*
X828301Y6985D01*
X824488Y6985D01*
X822582Y8892D01*
X822582Y10798D01*
X824488Y12705D01*
X822582Y14612D01*
X822582Y16518D01*
X824488Y12705D02*
X828301Y12705D01*
X834276Y6985D02*
X841902Y18425D01*
X845970Y6985D02*
X853596Y6985D01*
X845970Y6985D02*
X853596Y14612D01*
X853596Y16518D01*
X851689Y18425D01*
X847876Y18425D01*
X845970Y16518D01*
X863383Y18425D02*
X863383Y6985D01*
X857663Y12705D02*
X863383Y18425D01*
X865290Y12705D02*
X857663Y12705D01*
D11*
X403225Y393700D02*
X403225Y454025D01*
X403225Y393700D02*
X422275Y393700D01*
X422275Y454025D01*
X384175Y454025D01*
X384175Y393700D01*
X403225Y393700D01*
X422275Y393700D02*
X441325Y393700D01*
X460375Y393700D01*
X479425Y393700D01*
X498475Y393700D01*
X517525Y393700D01*
X536575Y393700D01*
X536575Y454025D01*
X441325Y454025D02*
X422275Y454025D01*
X441325Y454025D02*
X460375Y454025D01*
X479425Y454025D01*
X498475Y454025D01*
X517525Y454025D01*
X536575Y454025D01*
X441325Y454025D02*
X441325Y393700D01*
X460375Y393700D02*
X460375Y454025D01*
X479425Y454025D02*
X479425Y393700D01*
X498475Y393700D02*
X498475Y454025D01*
X517525Y454025D02*
X517525Y393700D01*
D10*
X753275Y107950D02*
X753290Y109177D01*
X753335Y110403D01*
X753410Y111628D01*
X753516Y112851D01*
X753651Y114071D01*
X753816Y115287D01*
X754011Y116498D01*
X754236Y117705D01*
X754490Y118905D01*
X754773Y120099D01*
X755086Y121286D01*
X755428Y122464D01*
X755799Y123634D01*
X756198Y124794D01*
X756625Y125945D01*
X757081Y127084D01*
X757565Y128212D01*
X758076Y129328D01*
X758614Y130431D01*
X759179Y131520D01*
X759771Y132595D01*
X760389Y133655D01*
X761032Y134700D01*
X761702Y135729D01*
X762396Y136740D01*
X763115Y137735D01*
X763858Y138712D01*
X764624Y139670D01*
X765415Y140609D01*
X766227Y141528D01*
X767063Y142427D01*
X767920Y143305D01*
X768798Y144162D01*
X769697Y144998D01*
X770616Y145810D01*
X771555Y146601D01*
X772513Y147367D01*
X773490Y148110D01*
X774485Y148829D01*
X775496Y149523D01*
X776525Y150193D01*
X777570Y150836D01*
X778630Y151454D01*
X779705Y152046D01*
X780794Y152611D01*
X781897Y153149D01*
X783013Y153660D01*
X784141Y154144D01*
X785280Y154600D01*
X786431Y155027D01*
X787591Y155426D01*
X788761Y155797D01*
X789939Y156139D01*
X791126Y156452D01*
X792320Y156735D01*
X793520Y156989D01*
X794727Y157214D01*
X795938Y157409D01*
X797154Y157574D01*
X798374Y157709D01*
X799597Y157815D01*
X800822Y157890D01*
X802048Y157935D01*
X803275Y157950D01*
X804502Y157935D01*
X805728Y157890D01*
X806953Y157815D01*
X808176Y157709D01*
X809396Y157574D01*
X810612Y157409D01*
X811823Y157214D01*
X813030Y156989D01*
X814230Y156735D01*
X815424Y156452D01*
X816611Y156139D01*
X817789Y155797D01*
X818959Y155426D01*
X820119Y155027D01*
X821270Y154600D01*
X822409Y154144D01*
X823537Y153660D01*
X824653Y153149D01*
X825756Y152611D01*
X826845Y152046D01*
X827920Y151454D01*
X828980Y150836D01*
X830025Y150193D01*
X831054Y149523D01*
X832065Y148829D01*
X833060Y148110D01*
X834037Y147367D01*
X834995Y146601D01*
X835934Y145810D01*
X836853Y144998D01*
X837752Y144162D01*
X838630Y143305D01*
X839487Y142427D01*
X840323Y141528D01*
X841135Y140609D01*
X841926Y139670D01*
X842692Y138712D01*
X843435Y137735D01*
X844154Y136740D01*
X844848Y135729D01*
X845518Y134700D01*
X846161Y133655D01*
X846779Y132595D01*
X847371Y131520D01*
X847936Y130431D01*
X848474Y129328D01*
X848985Y128212D01*
X849469Y127084D01*
X849925Y125945D01*
X850352Y124794D01*
X850751Y123634D01*
X851122Y122464D01*
X851464Y121286D01*
X851777Y120099D01*
X852060Y118905D01*
X852314Y117705D01*
X852539Y116498D01*
X852734Y115287D01*
X852899Y114071D01*
X853034Y112851D01*
X853140Y111628D01*
X853215Y110403D01*
X853260Y109177D01*
X853275Y107950D01*
X853260Y106723D01*
X853215Y105497D01*
X853140Y104272D01*
X853034Y103049D01*
X852899Y101829D01*
X852734Y100613D01*
X852539Y99402D01*
X852314Y98195D01*
X852060Y96995D01*
X851777Y95801D01*
X851464Y94614D01*
X851122Y93436D01*
X850751Y92266D01*
X850352Y91106D01*
X849925Y89955D01*
X849469Y88816D01*
X848985Y87688D01*
X848474Y86572D01*
X847936Y85469D01*
X847371Y84380D01*
X846779Y83305D01*
X846161Y82245D01*
X845518Y81200D01*
X844848Y80171D01*
X844154Y79160D01*
X843435Y78165D01*
X842692Y77188D01*
X841926Y76230D01*
X841135Y75291D01*
X840323Y74372D01*
X839487Y73473D01*
X838630Y72595D01*
X837752Y71738D01*
X836853Y70902D01*
X835934Y70090D01*
X834995Y69299D01*
X834037Y68533D01*
X833060Y67790D01*
X832065Y67071D01*
X831054Y66377D01*
X830025Y65707D01*
X828980Y65064D01*
X827920Y64446D01*
X826845Y63854D01*
X825756Y63289D01*
X824653Y62751D01*
X823537Y62240D01*
X822409Y61756D01*
X821270Y61300D01*
X820119Y60873D01*
X818959Y60474D01*
X817789Y60103D01*
X816611Y59761D01*
X815424Y59448D01*
X814230Y59165D01*
X813030Y58911D01*
X811823Y58686D01*
X810612Y58491D01*
X809396Y58326D01*
X808176Y58191D01*
X806953Y58085D01*
X805728Y58010D01*
X804502Y57965D01*
X803275Y57950D01*
X802048Y57965D01*
X800822Y58010D01*
X799597Y58085D01*
X798374Y58191D01*
X797154Y58326D01*
X795938Y58491D01*
X794727Y58686D01*
X793520Y58911D01*
X792320Y59165D01*
X791126Y59448D01*
X789939Y59761D01*
X788761Y60103D01*
X787591Y60474D01*
X786431Y60873D01*
X785280Y61300D01*
X784141Y61756D01*
X783013Y62240D01*
X781897Y62751D01*
X780794Y63289D01*
X779705Y63854D01*
X778630Y64446D01*
X777570Y65064D01*
X776525Y65707D01*
X775496Y66377D01*
X774485Y67071D01*
X773490Y67790D01*
X772513Y68533D01*
X771555Y69299D01*
X770616Y70090D01*
X769697Y70902D01*
X768798Y71738D01*
X767920Y72595D01*
X767063Y73473D01*
X766227Y74372D01*
X765415Y75291D01*
X764624Y76230D01*
X763858Y77188D01*
X763115Y78165D01*
X762396Y79160D01*
X761702Y80171D01*
X761032Y81200D01*
X760389Y82245D01*
X759771Y83305D01*
X759179Y84380D01*
X758614Y85469D01*
X758076Y86572D01*
X757565Y87688D01*
X757081Y88816D01*
X756625Y89955D01*
X756198Y91106D01*
X755799Y92266D01*
X755428Y93436D01*
X755086Y94614D01*
X754773Y95801D01*
X754490Y96995D01*
X754236Y98195D01*
X754011Y99402D01*
X753816Y100613D01*
X753651Y101829D01*
X753516Y103049D01*
X753410Y104272D01*
X753335Y105497D01*
X753290Y106723D01*
X753275Y107950D01*
D12*
X790956Y121031D02*
X793413Y121031D01*
X792185Y121031D02*
X792185Y128403D01*
X793413Y128403D02*
X790956Y128403D01*
X795945Y128403D02*
X795945Y123488D01*
X798403Y121031D01*
X800860Y123488D01*
X800860Y128403D01*
X803430Y125946D02*
X805887Y128403D01*
X805887Y121031D01*
X803430Y121031D02*
X808344Y121031D01*
X813371Y127175D02*
X815829Y128403D01*
X813371Y127175D02*
X810914Y124717D01*
X810914Y122260D01*
X812142Y121031D01*
X814600Y121031D01*
X815829Y122260D01*
X815829Y123488D01*
X814600Y124717D01*
X810914Y124717D01*
X793413Y115703D02*
X793413Y108331D01*
X790956Y115703D02*
X795871Y115703D01*
X798440Y113246D02*
X799669Y113246D01*
X799669Y108331D01*
X798440Y108331D02*
X800898Y108331D01*
X799669Y115703D02*
X799669Y116932D01*
X803430Y113246D02*
X803430Y108331D01*
X803430Y113246D02*
X807116Y113246D01*
X808344Y112017D01*
X808344Y108331D01*
X810914Y109560D02*
X810914Y113246D01*
X810914Y109560D02*
X812142Y108331D01*
X815829Y108331D01*
X815829Y107102D02*
X815829Y113246D01*
X815829Y107102D02*
X814600Y105874D01*
X813371Y105874D01*
X778256Y103003D02*
X778256Y95631D01*
X783171Y95631D02*
X778256Y103003D01*
X783171Y103003D02*
X783171Y95631D01*
X785740Y96860D02*
X785740Y100546D01*
X785740Y96860D02*
X786969Y95631D01*
X790655Y95631D01*
X790655Y100546D01*
X793224Y100546D02*
X793224Y95631D01*
X793224Y100546D02*
X794453Y100546D01*
X795682Y99317D01*
X795682Y95631D01*
X795682Y99317D02*
X796910Y100546D01*
X798139Y99317D01*
X798139Y95631D01*
X800708Y100546D02*
X801937Y100546D01*
X801937Y95631D01*
X800708Y95631D02*
X803166Y95631D01*
X801937Y103003D02*
X801937Y104232D01*
X806927Y101775D02*
X806927Y96860D01*
X808155Y95631D01*
X808155Y100546D02*
X805698Y100546D01*
X810687Y100546D02*
X810687Y95631D01*
X810687Y98088D02*
X813145Y100546D01*
X814373Y100546D01*
X818153Y95631D02*
X820610Y95631D01*
X821839Y96860D01*
X821839Y99317D01*
X820610Y100546D01*
X818153Y100546D01*
X816924Y99317D01*
X816924Y96860D01*
X818153Y95631D01*
X824408Y95631D02*
X824408Y100546D01*
X828094Y100546D01*
X829323Y99317D01*
X829323Y95631D01*
D10*
X803275Y88900D02*
X803275Y76200D01*
X796925Y82550D01*
X803275Y76200D02*
X809625Y82550D01*
X626275Y107950D02*
X626290Y109177D01*
X626335Y110403D01*
X626410Y111628D01*
X626516Y112851D01*
X626651Y114071D01*
X626816Y115287D01*
X627011Y116498D01*
X627236Y117705D01*
X627490Y118905D01*
X627773Y120099D01*
X628086Y121286D01*
X628428Y122464D01*
X628799Y123634D01*
X629198Y124794D01*
X629625Y125945D01*
X630081Y127084D01*
X630565Y128212D01*
X631076Y129328D01*
X631614Y130431D01*
X632179Y131520D01*
X632771Y132595D01*
X633389Y133655D01*
X634032Y134700D01*
X634702Y135729D01*
X635396Y136740D01*
X636115Y137735D01*
X636858Y138712D01*
X637624Y139670D01*
X638415Y140609D01*
X639227Y141528D01*
X640063Y142427D01*
X640920Y143305D01*
X641798Y144162D01*
X642697Y144998D01*
X643616Y145810D01*
X644555Y146601D01*
X645513Y147367D01*
X646490Y148110D01*
X647485Y148829D01*
X648496Y149523D01*
X649525Y150193D01*
X650570Y150836D01*
X651630Y151454D01*
X652705Y152046D01*
X653794Y152611D01*
X654897Y153149D01*
X656013Y153660D01*
X657141Y154144D01*
X658280Y154600D01*
X659431Y155027D01*
X660591Y155426D01*
X661761Y155797D01*
X662939Y156139D01*
X664126Y156452D01*
X665320Y156735D01*
X666520Y156989D01*
X667727Y157214D01*
X668938Y157409D01*
X670154Y157574D01*
X671374Y157709D01*
X672597Y157815D01*
X673822Y157890D01*
X675048Y157935D01*
X676275Y157950D01*
X677502Y157935D01*
X678728Y157890D01*
X679953Y157815D01*
X681176Y157709D01*
X682396Y157574D01*
X683612Y157409D01*
X684823Y157214D01*
X686030Y156989D01*
X687230Y156735D01*
X688424Y156452D01*
X689611Y156139D01*
X690789Y155797D01*
X691959Y155426D01*
X693119Y155027D01*
X694270Y154600D01*
X695409Y154144D01*
X696537Y153660D01*
X697653Y153149D01*
X698756Y152611D01*
X699845Y152046D01*
X700920Y151454D01*
X701980Y150836D01*
X703025Y150193D01*
X704054Y149523D01*
X705065Y148829D01*
X706060Y148110D01*
X707037Y147367D01*
X707995Y146601D01*
X708934Y145810D01*
X709853Y144998D01*
X710752Y144162D01*
X711630Y143305D01*
X712487Y142427D01*
X713323Y141528D01*
X714135Y140609D01*
X714926Y139670D01*
X715692Y138712D01*
X716435Y137735D01*
X717154Y136740D01*
X717848Y135729D01*
X718518Y134700D01*
X719161Y133655D01*
X719779Y132595D01*
X720371Y131520D01*
X720936Y130431D01*
X721474Y129328D01*
X721985Y128212D01*
X722469Y127084D01*
X722925Y125945D01*
X723352Y124794D01*
X723751Y123634D01*
X724122Y122464D01*
X724464Y121286D01*
X724777Y120099D01*
X725060Y118905D01*
X725314Y117705D01*
X725539Y116498D01*
X725734Y115287D01*
X725899Y114071D01*
X726034Y112851D01*
X726140Y111628D01*
X726215Y110403D01*
X726260Y109177D01*
X726275Y107950D01*
X726260Y106723D01*
X726215Y105497D01*
X726140Y104272D01*
X726034Y103049D01*
X725899Y101829D01*
X725734Y100613D01*
X725539Y99402D01*
X725314Y98195D01*
X725060Y96995D01*
X724777Y95801D01*
X724464Y94614D01*
X724122Y93436D01*
X723751Y92266D01*
X723352Y91106D01*
X722925Y89955D01*
X722469Y88816D01*
X721985Y87688D01*
X721474Y86572D01*
X720936Y85469D01*
X720371Y84380D01*
X719779Y83305D01*
X719161Y82245D01*
X718518Y81200D01*
X717848Y80171D01*
X717154Y79160D01*
X716435Y78165D01*
X715692Y77188D01*
X714926Y76230D01*
X714135Y75291D01*
X713323Y74372D01*
X712487Y73473D01*
X711630Y72595D01*
X710752Y71738D01*
X709853Y70902D01*
X708934Y70090D01*
X707995Y69299D01*
X707037Y68533D01*
X706060Y67790D01*
X705065Y67071D01*
X704054Y66377D01*
X703025Y65707D01*
X701980Y65064D01*
X700920Y64446D01*
X699845Y63854D01*
X698756Y63289D01*
X697653Y62751D01*
X696537Y62240D01*
X695409Y61756D01*
X694270Y61300D01*
X693119Y60873D01*
X691959Y60474D01*
X690789Y60103D01*
X689611Y59761D01*
X688424Y59448D01*
X687230Y59165D01*
X686030Y58911D01*
X684823Y58686D01*
X683612Y58491D01*
X682396Y58326D01*
X681176Y58191D01*
X679953Y58085D01*
X678728Y58010D01*
X677502Y57965D01*
X676275Y57950D01*
X675048Y57965D01*
X673822Y58010D01*
X672597Y58085D01*
X671374Y58191D01*
X670154Y58326D01*
X668938Y58491D01*
X667727Y58686D01*
X666520Y58911D01*
X665320Y59165D01*
X664126Y59448D01*
X662939Y59761D01*
X661761Y60103D01*
X660591Y60474D01*
X659431Y60873D01*
X658280Y61300D01*
X657141Y61756D01*
X656013Y62240D01*
X654897Y62751D01*
X653794Y63289D01*
X652705Y63854D01*
X651630Y64446D01*
X650570Y65064D01*
X649525Y65707D01*
X648496Y66377D01*
X647485Y67071D01*
X646490Y67790D01*
X645513Y68533D01*
X644555Y69299D01*
X643616Y70090D01*
X642697Y70902D01*
X641798Y71738D01*
X640920Y72595D01*
X640063Y73473D01*
X639227Y74372D01*
X638415Y75291D01*
X637624Y76230D01*
X636858Y77188D01*
X636115Y78165D01*
X635396Y79160D01*
X634702Y80171D01*
X634032Y81200D01*
X633389Y82245D01*
X632771Y83305D01*
X632179Y84380D01*
X631614Y85469D01*
X631076Y86572D01*
X630565Y87688D01*
X630081Y88816D01*
X629625Y89955D01*
X629198Y91106D01*
X628799Y92266D01*
X628428Y93436D01*
X628086Y94614D01*
X627773Y95801D01*
X627490Y96995D01*
X627236Y98195D01*
X627011Y99402D01*
X626816Y100613D01*
X626651Y101829D01*
X626516Y103049D01*
X626410Y104272D01*
X626335Y105497D01*
X626290Y106723D01*
X626275Y107950D01*
D12*
X663956Y121031D02*
X666413Y121031D01*
X665185Y121031D02*
X665185Y128403D01*
X666413Y128403D02*
X663956Y128403D01*
X668945Y128403D02*
X668945Y123488D01*
X671403Y121031D01*
X673860Y123488D01*
X673860Y128403D01*
X676430Y125946D02*
X678887Y128403D01*
X678887Y121031D01*
X676430Y121031D02*
X681344Y121031D01*
X686371Y127175D02*
X688829Y128403D01*
X686371Y127175D02*
X683914Y124717D01*
X683914Y122260D01*
X685142Y121031D01*
X687600Y121031D01*
X688829Y122260D01*
X688829Y123488D01*
X687600Y124717D01*
X683914Y124717D01*
X666413Y115703D02*
X666413Y108331D01*
X663956Y115703D02*
X668871Y115703D01*
X671440Y113246D02*
X672669Y113246D01*
X672669Y108331D01*
X671440Y108331D02*
X673898Y108331D01*
X672669Y115703D02*
X672669Y116932D01*
X676430Y113246D02*
X676430Y108331D01*
X676430Y113246D02*
X680116Y113246D01*
X681344Y112017D01*
X681344Y108331D01*
X683914Y109560D02*
X683914Y113246D01*
X683914Y109560D02*
X685142Y108331D01*
X688829Y108331D01*
X688829Y107102D02*
X688829Y113246D01*
X688829Y107102D02*
X687600Y105874D01*
X686371Y105874D01*
X651256Y103003D02*
X651256Y95631D01*
X656171Y95631D02*
X651256Y103003D01*
X656171Y103003D02*
X656171Y95631D01*
X658740Y96860D02*
X658740Y100546D01*
X658740Y96860D02*
X659969Y95631D01*
X663655Y95631D01*
X663655Y100546D01*
X666224Y100546D02*
X666224Y95631D01*
X666224Y100546D02*
X667453Y100546D01*
X668682Y99317D01*
X668682Y95631D01*
X668682Y99317D02*
X669910Y100546D01*
X671139Y99317D01*
X671139Y95631D01*
X673708Y100546D02*
X674937Y100546D01*
X674937Y95631D01*
X673708Y95631D02*
X676166Y95631D01*
X674937Y103003D02*
X674937Y104232D01*
X679927Y101775D02*
X679927Y96860D01*
X681155Y95631D01*
X681155Y100546D02*
X678698Y100546D01*
X683687Y100546D02*
X683687Y95631D01*
X683687Y98088D02*
X686145Y100546D01*
X687373Y100546D01*
X691153Y95631D02*
X693610Y95631D01*
X694839Y96860D01*
X694839Y99317D01*
X693610Y100546D01*
X691153Y100546D01*
X689924Y99317D01*
X689924Y96860D01*
X691153Y95631D01*
X697408Y95631D02*
X697408Y100546D01*
X701094Y100546D01*
X702323Y99317D01*
X702323Y95631D01*
D10*
X676275Y88900D02*
X676275Y76200D01*
X669925Y82550D01*
X676275Y76200D02*
X682625Y82550D01*
X499275Y107950D02*
X499290Y109177D01*
X499335Y110403D01*
X499410Y111628D01*
X499516Y112851D01*
X499651Y114071D01*
X499816Y115287D01*
X500011Y116498D01*
X500236Y117705D01*
X500490Y118905D01*
X500773Y120099D01*
X501086Y121286D01*
X501428Y122464D01*
X501799Y123634D01*
X502198Y124794D01*
X502625Y125945D01*
X503081Y127084D01*
X503565Y128212D01*
X504076Y129328D01*
X504614Y130431D01*
X505179Y131520D01*
X505771Y132595D01*
X506389Y133655D01*
X507032Y134700D01*
X507702Y135729D01*
X508396Y136740D01*
X509115Y137735D01*
X509858Y138712D01*
X510624Y139670D01*
X511415Y140609D01*
X512227Y141528D01*
X513063Y142427D01*
X513920Y143305D01*
X514798Y144162D01*
X515697Y144998D01*
X516616Y145810D01*
X517555Y146601D01*
X518513Y147367D01*
X519490Y148110D01*
X520485Y148829D01*
X521496Y149523D01*
X522525Y150193D01*
X523570Y150836D01*
X524630Y151454D01*
X525705Y152046D01*
X526794Y152611D01*
X527897Y153149D01*
X529013Y153660D01*
X530141Y154144D01*
X531280Y154600D01*
X532431Y155027D01*
X533591Y155426D01*
X534761Y155797D01*
X535939Y156139D01*
X537126Y156452D01*
X538320Y156735D01*
X539520Y156989D01*
X540727Y157214D01*
X541938Y157409D01*
X543154Y157574D01*
X544374Y157709D01*
X545597Y157815D01*
X546822Y157890D01*
X548048Y157935D01*
X549275Y157950D01*
X550502Y157935D01*
X551728Y157890D01*
X552953Y157815D01*
X554176Y157709D01*
X555396Y157574D01*
X556612Y157409D01*
X557823Y157214D01*
X559030Y156989D01*
X560230Y156735D01*
X561424Y156452D01*
X562611Y156139D01*
X563789Y155797D01*
X564959Y155426D01*
X566119Y155027D01*
X567270Y154600D01*
X568409Y154144D01*
X569537Y153660D01*
X570653Y153149D01*
X571756Y152611D01*
X572845Y152046D01*
X573920Y151454D01*
X574980Y150836D01*
X576025Y150193D01*
X577054Y149523D01*
X578065Y148829D01*
X579060Y148110D01*
X580037Y147367D01*
X580995Y146601D01*
X581934Y145810D01*
X582853Y144998D01*
X583752Y144162D01*
X584630Y143305D01*
X585487Y142427D01*
X586323Y141528D01*
X587135Y140609D01*
X587926Y139670D01*
X588692Y138712D01*
X589435Y137735D01*
X590154Y136740D01*
X590848Y135729D01*
X591518Y134700D01*
X592161Y133655D01*
X592779Y132595D01*
X593371Y131520D01*
X593936Y130431D01*
X594474Y129328D01*
X594985Y128212D01*
X595469Y127084D01*
X595925Y125945D01*
X596352Y124794D01*
X596751Y123634D01*
X597122Y122464D01*
X597464Y121286D01*
X597777Y120099D01*
X598060Y118905D01*
X598314Y117705D01*
X598539Y116498D01*
X598734Y115287D01*
X598899Y114071D01*
X599034Y112851D01*
X599140Y111628D01*
X599215Y110403D01*
X599260Y109177D01*
X599275Y107950D01*
X599260Y106723D01*
X599215Y105497D01*
X599140Y104272D01*
X599034Y103049D01*
X598899Y101829D01*
X598734Y100613D01*
X598539Y99402D01*
X598314Y98195D01*
X598060Y96995D01*
X597777Y95801D01*
X597464Y94614D01*
X597122Y93436D01*
X596751Y92266D01*
X596352Y91106D01*
X595925Y89955D01*
X595469Y88816D01*
X594985Y87688D01*
X594474Y86572D01*
X593936Y85469D01*
X593371Y84380D01*
X592779Y83305D01*
X592161Y82245D01*
X591518Y81200D01*
X590848Y80171D01*
X590154Y79160D01*
X589435Y78165D01*
X588692Y77188D01*
X587926Y76230D01*
X587135Y75291D01*
X586323Y74372D01*
X585487Y73473D01*
X584630Y72595D01*
X583752Y71738D01*
X582853Y70902D01*
X581934Y70090D01*
X580995Y69299D01*
X580037Y68533D01*
X579060Y67790D01*
X578065Y67071D01*
X577054Y66377D01*
X576025Y65707D01*
X574980Y65064D01*
X573920Y64446D01*
X572845Y63854D01*
X571756Y63289D01*
X570653Y62751D01*
X569537Y62240D01*
X568409Y61756D01*
X567270Y61300D01*
X566119Y60873D01*
X564959Y60474D01*
X563789Y60103D01*
X562611Y59761D01*
X561424Y59448D01*
X560230Y59165D01*
X559030Y58911D01*
X557823Y58686D01*
X556612Y58491D01*
X555396Y58326D01*
X554176Y58191D01*
X552953Y58085D01*
X551728Y58010D01*
X550502Y57965D01*
X549275Y57950D01*
X548048Y57965D01*
X546822Y58010D01*
X545597Y58085D01*
X544374Y58191D01*
X543154Y58326D01*
X541938Y58491D01*
X540727Y58686D01*
X539520Y58911D01*
X538320Y59165D01*
X537126Y59448D01*
X535939Y59761D01*
X534761Y60103D01*
X533591Y60474D01*
X532431Y60873D01*
X531280Y61300D01*
X530141Y61756D01*
X529013Y62240D01*
X527897Y62751D01*
X526794Y63289D01*
X525705Y63854D01*
X524630Y64446D01*
X523570Y65064D01*
X522525Y65707D01*
X521496Y66377D01*
X520485Y67071D01*
X519490Y67790D01*
X518513Y68533D01*
X517555Y69299D01*
X516616Y70090D01*
X515697Y70902D01*
X514798Y71738D01*
X513920Y72595D01*
X513063Y73473D01*
X512227Y74372D01*
X511415Y75291D01*
X510624Y76230D01*
X509858Y77188D01*
X509115Y78165D01*
X508396Y79160D01*
X507702Y80171D01*
X507032Y81200D01*
X506389Y82245D01*
X505771Y83305D01*
X505179Y84380D01*
X504614Y85469D01*
X504076Y86572D01*
X503565Y87688D01*
X503081Y88816D01*
X502625Y89955D01*
X502198Y91106D01*
X501799Y92266D01*
X501428Y93436D01*
X501086Y94614D01*
X500773Y95801D01*
X500490Y96995D01*
X500236Y98195D01*
X500011Y99402D01*
X499816Y100613D01*
X499651Y101829D01*
X499516Y103049D01*
X499410Y104272D01*
X499335Y105497D01*
X499290Y106723D01*
X499275Y107950D01*
D12*
X536956Y121031D02*
X539413Y121031D01*
X538185Y121031D02*
X538185Y128403D01*
X539413Y128403D02*
X536956Y128403D01*
X541945Y128403D02*
X541945Y123488D01*
X544403Y121031D01*
X546860Y123488D01*
X546860Y128403D01*
X549430Y125946D02*
X551887Y128403D01*
X551887Y121031D01*
X549430Y121031D02*
X554344Y121031D01*
X559371Y127175D02*
X561829Y128403D01*
X559371Y127175D02*
X556914Y124717D01*
X556914Y122260D01*
X558142Y121031D01*
X560600Y121031D01*
X561829Y122260D01*
X561829Y123488D01*
X560600Y124717D01*
X556914Y124717D01*
X539413Y115703D02*
X539413Y108331D01*
X536956Y115703D02*
X541871Y115703D01*
X544440Y113246D02*
X545669Y113246D01*
X545669Y108331D01*
X544440Y108331D02*
X546898Y108331D01*
X545669Y115703D02*
X545669Y116932D01*
X549430Y113246D02*
X549430Y108331D01*
X549430Y113246D02*
X553116Y113246D01*
X554344Y112017D01*
X554344Y108331D01*
X556914Y109560D02*
X556914Y113246D01*
X556914Y109560D02*
X558142Y108331D01*
X561829Y108331D01*
X561829Y107102D02*
X561829Y113246D01*
X561829Y107102D02*
X560600Y105874D01*
X559371Y105874D01*
X524256Y103003D02*
X524256Y95631D01*
X529171Y95631D02*
X524256Y103003D01*
X529171Y103003D02*
X529171Y95631D01*
X531740Y96860D02*
X531740Y100546D01*
X531740Y96860D02*
X532969Y95631D01*
X536655Y95631D01*
X536655Y100546D01*
X539224Y100546D02*
X539224Y95631D01*
X539224Y100546D02*
X540453Y100546D01*
X541682Y99317D01*
X541682Y95631D01*
X541682Y99317D02*
X542910Y100546D01*
X544139Y99317D01*
X544139Y95631D01*
X546708Y100546D02*
X547937Y100546D01*
X547937Y95631D01*
X546708Y95631D02*
X549166Y95631D01*
X547937Y103003D02*
X547937Y104232D01*
X552927Y101775D02*
X552927Y96860D01*
X554155Y95631D01*
X554155Y100546D02*
X551698Y100546D01*
X556687Y100546D02*
X556687Y95631D01*
X556687Y98088D02*
X559145Y100546D01*
X560373Y100546D01*
X564153Y95631D02*
X566610Y95631D01*
X567839Y96860D01*
X567839Y99317D01*
X566610Y100546D01*
X564153Y100546D01*
X562924Y99317D01*
X562924Y96860D01*
X564153Y95631D01*
X570408Y95631D02*
X570408Y100546D01*
X574094Y100546D01*
X575323Y99317D01*
X575323Y95631D01*
D10*
X549275Y88900D02*
X549275Y76200D01*
X542925Y82550D01*
X549275Y76200D02*
X555625Y82550D01*
X372275Y107950D02*
X372290Y109177D01*
X372335Y110403D01*
X372410Y111628D01*
X372516Y112851D01*
X372651Y114071D01*
X372816Y115287D01*
X373011Y116498D01*
X373236Y117705D01*
X373490Y118905D01*
X373773Y120099D01*
X374086Y121286D01*
X374428Y122464D01*
X374799Y123634D01*
X375198Y124794D01*
X375625Y125945D01*
X376081Y127084D01*
X376565Y128212D01*
X377076Y129328D01*
X377614Y130431D01*
X378179Y131520D01*
X378771Y132595D01*
X379389Y133655D01*
X380032Y134700D01*
X380702Y135729D01*
X381396Y136740D01*
X382115Y137735D01*
X382858Y138712D01*
X383624Y139670D01*
X384415Y140609D01*
X385227Y141528D01*
X386063Y142427D01*
X386920Y143305D01*
X387798Y144162D01*
X388697Y144998D01*
X389616Y145810D01*
X390555Y146601D01*
X391513Y147367D01*
X392490Y148110D01*
X393485Y148829D01*
X394496Y149523D01*
X395525Y150193D01*
X396570Y150836D01*
X397630Y151454D01*
X398705Y152046D01*
X399794Y152611D01*
X400897Y153149D01*
X402013Y153660D01*
X403141Y154144D01*
X404280Y154600D01*
X405431Y155027D01*
X406591Y155426D01*
X407761Y155797D01*
X408939Y156139D01*
X410126Y156452D01*
X411320Y156735D01*
X412520Y156989D01*
X413727Y157214D01*
X414938Y157409D01*
X416154Y157574D01*
X417374Y157709D01*
X418597Y157815D01*
X419822Y157890D01*
X421048Y157935D01*
X422275Y157950D01*
X423502Y157935D01*
X424728Y157890D01*
X425953Y157815D01*
X427176Y157709D01*
X428396Y157574D01*
X429612Y157409D01*
X430823Y157214D01*
X432030Y156989D01*
X433230Y156735D01*
X434424Y156452D01*
X435611Y156139D01*
X436789Y155797D01*
X437959Y155426D01*
X439119Y155027D01*
X440270Y154600D01*
X441409Y154144D01*
X442537Y153660D01*
X443653Y153149D01*
X444756Y152611D01*
X445845Y152046D01*
X446920Y151454D01*
X447980Y150836D01*
X449025Y150193D01*
X450054Y149523D01*
X451065Y148829D01*
X452060Y148110D01*
X453037Y147367D01*
X453995Y146601D01*
X454934Y145810D01*
X455853Y144998D01*
X456752Y144162D01*
X457630Y143305D01*
X458487Y142427D01*
X459323Y141528D01*
X460135Y140609D01*
X460926Y139670D01*
X461692Y138712D01*
X462435Y137735D01*
X463154Y136740D01*
X463848Y135729D01*
X464518Y134700D01*
X465161Y133655D01*
X465779Y132595D01*
X466371Y131520D01*
X466936Y130431D01*
X467474Y129328D01*
X467985Y128212D01*
X468469Y127084D01*
X468925Y125945D01*
X469352Y124794D01*
X469751Y123634D01*
X470122Y122464D01*
X470464Y121286D01*
X470777Y120099D01*
X471060Y118905D01*
X471314Y117705D01*
X471539Y116498D01*
X471734Y115287D01*
X471899Y114071D01*
X472034Y112851D01*
X472140Y111628D01*
X472215Y110403D01*
X472260Y109177D01*
X472275Y107950D01*
X472260Y106723D01*
X472215Y105497D01*
X472140Y104272D01*
X472034Y103049D01*
X471899Y101829D01*
X471734Y100613D01*
X471539Y99402D01*
X471314Y98195D01*
X471060Y96995D01*
X470777Y95801D01*
X470464Y94614D01*
X470122Y93436D01*
X469751Y92266D01*
X469352Y91106D01*
X468925Y89955D01*
X468469Y88816D01*
X467985Y87688D01*
X467474Y86572D01*
X466936Y85469D01*
X466371Y84380D01*
X465779Y83305D01*
X465161Y82245D01*
X464518Y81200D01*
X463848Y80171D01*
X463154Y79160D01*
X462435Y78165D01*
X461692Y77188D01*
X460926Y76230D01*
X460135Y75291D01*
X459323Y74372D01*
X458487Y73473D01*
X457630Y72595D01*
X456752Y71738D01*
X455853Y70902D01*
X454934Y70090D01*
X453995Y69299D01*
X453037Y68533D01*
X452060Y67790D01*
X451065Y67071D01*
X450054Y66377D01*
X449025Y65707D01*
X447980Y65064D01*
X446920Y64446D01*
X445845Y63854D01*
X444756Y63289D01*
X443653Y62751D01*
X442537Y62240D01*
X441409Y61756D01*
X440270Y61300D01*
X439119Y60873D01*
X437959Y60474D01*
X436789Y60103D01*
X435611Y59761D01*
X434424Y59448D01*
X433230Y59165D01*
X432030Y58911D01*
X430823Y58686D01*
X429612Y58491D01*
X428396Y58326D01*
X427176Y58191D01*
X425953Y58085D01*
X424728Y58010D01*
X423502Y57965D01*
X422275Y57950D01*
X421048Y57965D01*
X419822Y58010D01*
X418597Y58085D01*
X417374Y58191D01*
X416154Y58326D01*
X414938Y58491D01*
X413727Y58686D01*
X412520Y58911D01*
X411320Y59165D01*
X410126Y59448D01*
X408939Y59761D01*
X407761Y60103D01*
X406591Y60474D01*
X405431Y60873D01*
X404280Y61300D01*
X403141Y61756D01*
X402013Y62240D01*
X400897Y62751D01*
X399794Y63289D01*
X398705Y63854D01*
X397630Y64446D01*
X396570Y65064D01*
X395525Y65707D01*
X394496Y66377D01*
X393485Y67071D01*
X392490Y67790D01*
X391513Y68533D01*
X390555Y69299D01*
X389616Y70090D01*
X388697Y70902D01*
X387798Y71738D01*
X386920Y72595D01*
X386063Y73473D01*
X385227Y74372D01*
X384415Y75291D01*
X383624Y76230D01*
X382858Y77188D01*
X382115Y78165D01*
X381396Y79160D01*
X380702Y80171D01*
X380032Y81200D01*
X379389Y82245D01*
X378771Y83305D01*
X378179Y84380D01*
X377614Y85469D01*
X377076Y86572D01*
X376565Y87688D01*
X376081Y88816D01*
X375625Y89955D01*
X375198Y91106D01*
X374799Y92266D01*
X374428Y93436D01*
X374086Y94614D01*
X373773Y95801D01*
X373490Y96995D01*
X373236Y98195D01*
X373011Y99402D01*
X372816Y100613D01*
X372651Y101829D01*
X372516Y103049D01*
X372410Y104272D01*
X372335Y105497D01*
X372290Y106723D01*
X372275Y107950D01*
D12*
X409956Y121031D02*
X412413Y121031D01*
X411185Y121031D02*
X411185Y128403D01*
X412413Y128403D02*
X409956Y128403D01*
X414945Y128403D02*
X414945Y123488D01*
X417403Y121031D01*
X419860Y123488D01*
X419860Y128403D01*
X422430Y125946D02*
X424887Y128403D01*
X424887Y121031D01*
X422430Y121031D02*
X427344Y121031D01*
X432371Y127175D02*
X434829Y128403D01*
X432371Y127175D02*
X429914Y124717D01*
X429914Y122260D01*
X431142Y121031D01*
X433600Y121031D01*
X434829Y122260D01*
X434829Y123488D01*
X433600Y124717D01*
X429914Y124717D01*
X412413Y115703D02*
X412413Y108331D01*
X409956Y115703D02*
X414871Y115703D01*
X417440Y113246D02*
X418669Y113246D01*
X418669Y108331D01*
X417440Y108331D02*
X419898Y108331D01*
X418669Y115703D02*
X418669Y116932D01*
X422430Y113246D02*
X422430Y108331D01*
X422430Y113246D02*
X426116Y113246D01*
X427344Y112017D01*
X427344Y108331D01*
X429914Y109560D02*
X429914Y113246D01*
X429914Y109560D02*
X431142Y108331D01*
X434829Y108331D01*
X434829Y107102D02*
X434829Y113246D01*
X434829Y107102D02*
X433600Y105874D01*
X432371Y105874D01*
X397256Y103003D02*
X397256Y95631D01*
X402171Y95631D02*
X397256Y103003D01*
X402171Y103003D02*
X402171Y95631D01*
X404740Y96860D02*
X404740Y100546D01*
X404740Y96860D02*
X405969Y95631D01*
X409655Y95631D01*
X409655Y100546D01*
X412224Y100546D02*
X412224Y95631D01*
X412224Y100546D02*
X413453Y100546D01*
X414682Y99317D01*
X414682Y95631D01*
X414682Y99317D02*
X415910Y100546D01*
X417139Y99317D01*
X417139Y95631D01*
X419708Y100546D02*
X420937Y100546D01*
X420937Y95631D01*
X419708Y95631D02*
X422166Y95631D01*
X420937Y103003D02*
X420937Y104232D01*
X425927Y101775D02*
X425927Y96860D01*
X427155Y95631D01*
X427155Y100546D02*
X424698Y100546D01*
X429687Y100546D02*
X429687Y95631D01*
X429687Y98088D02*
X432145Y100546D01*
X433373Y100546D01*
X437153Y95631D02*
X439610Y95631D01*
X440839Y96860D01*
X440839Y99317D01*
X439610Y100546D01*
X437153Y100546D01*
X435924Y99317D01*
X435924Y96860D01*
X437153Y95631D01*
X443408Y95631D02*
X443408Y100546D01*
X447094Y100546D01*
X448323Y99317D01*
X448323Y95631D01*
D10*
X422275Y88900D02*
X422275Y76200D01*
X415925Y82550D01*
X422275Y76200D02*
X428625Y82550D01*
X245275Y107950D02*
X245290Y109177D01*
X245335Y110403D01*
X245410Y111628D01*
X245516Y112851D01*
X245651Y114071D01*
X245816Y115287D01*
X246011Y116498D01*
X246236Y117705D01*
X246490Y118905D01*
X246773Y120099D01*
X247086Y121286D01*
X247428Y122464D01*
X247799Y123634D01*
X248198Y124794D01*
X248625Y125945D01*
X249081Y127084D01*
X249565Y128212D01*
X250076Y129328D01*
X250614Y130431D01*
X251179Y131520D01*
X251771Y132595D01*
X252389Y133655D01*
X253032Y134700D01*
X253702Y135729D01*
X254396Y136740D01*
X255115Y137735D01*
X255858Y138712D01*
X256624Y139670D01*
X257415Y140609D01*
X258227Y141528D01*
X259063Y142427D01*
X259920Y143305D01*
X260798Y144162D01*
X261697Y144998D01*
X262616Y145810D01*
X263555Y146601D01*
X264513Y147367D01*
X265490Y148110D01*
X266485Y148829D01*
X267496Y149523D01*
X268525Y150193D01*
X269570Y150836D01*
X270630Y151454D01*
X271705Y152046D01*
X272794Y152611D01*
X273897Y153149D01*
X275013Y153660D01*
X276141Y154144D01*
X277280Y154600D01*
X278431Y155027D01*
X279591Y155426D01*
X280761Y155797D01*
X281939Y156139D01*
X283126Y156452D01*
X284320Y156735D01*
X285520Y156989D01*
X286727Y157214D01*
X287938Y157409D01*
X289154Y157574D01*
X290374Y157709D01*
X291597Y157815D01*
X292822Y157890D01*
X294048Y157935D01*
X295275Y157950D01*
X296502Y157935D01*
X297728Y157890D01*
X298953Y157815D01*
X300176Y157709D01*
X301396Y157574D01*
X302612Y157409D01*
X303823Y157214D01*
X305030Y156989D01*
X306230Y156735D01*
X307424Y156452D01*
X308611Y156139D01*
X309789Y155797D01*
X310959Y155426D01*
X312119Y155027D01*
X313270Y154600D01*
X314409Y154144D01*
X315537Y153660D01*
X316653Y153149D01*
X317756Y152611D01*
X318845Y152046D01*
X319920Y151454D01*
X320980Y150836D01*
X322025Y150193D01*
X323054Y149523D01*
X324065Y148829D01*
X325060Y148110D01*
X326037Y147367D01*
X326995Y146601D01*
X327934Y145810D01*
X328853Y144998D01*
X329752Y144162D01*
X330630Y143305D01*
X331487Y142427D01*
X332323Y141528D01*
X333135Y140609D01*
X333926Y139670D01*
X334692Y138712D01*
X335435Y137735D01*
X336154Y136740D01*
X336848Y135729D01*
X337518Y134700D01*
X338161Y133655D01*
X338779Y132595D01*
X339371Y131520D01*
X339936Y130431D01*
X340474Y129328D01*
X340985Y128212D01*
X341469Y127084D01*
X341925Y125945D01*
X342352Y124794D01*
X342751Y123634D01*
X343122Y122464D01*
X343464Y121286D01*
X343777Y120099D01*
X344060Y118905D01*
X344314Y117705D01*
X344539Y116498D01*
X344734Y115287D01*
X344899Y114071D01*
X345034Y112851D01*
X345140Y111628D01*
X345215Y110403D01*
X345260Y109177D01*
X345275Y107950D01*
X345260Y106723D01*
X345215Y105497D01*
X345140Y104272D01*
X345034Y103049D01*
X344899Y101829D01*
X344734Y100613D01*
X344539Y99402D01*
X344314Y98195D01*
X344060Y96995D01*
X343777Y95801D01*
X343464Y94614D01*
X343122Y93436D01*
X342751Y92266D01*
X342352Y91106D01*
X341925Y89955D01*
X341469Y88816D01*
X340985Y87688D01*
X340474Y86572D01*
X339936Y85469D01*
X339371Y84380D01*
X338779Y83305D01*
X338161Y82245D01*
X337518Y81200D01*
X336848Y80171D01*
X336154Y79160D01*
X335435Y78165D01*
X334692Y77188D01*
X333926Y76230D01*
X333135Y75291D01*
X332323Y74372D01*
X331487Y73473D01*
X330630Y72595D01*
X329752Y71738D01*
X328853Y70902D01*
X327934Y70090D01*
X326995Y69299D01*
X326037Y68533D01*
X325060Y67790D01*
X324065Y67071D01*
X323054Y66377D01*
X322025Y65707D01*
X320980Y65064D01*
X319920Y64446D01*
X318845Y63854D01*
X317756Y63289D01*
X316653Y62751D01*
X315537Y62240D01*
X314409Y61756D01*
X313270Y61300D01*
X312119Y60873D01*
X310959Y60474D01*
X309789Y60103D01*
X308611Y59761D01*
X307424Y59448D01*
X306230Y59165D01*
X305030Y58911D01*
X303823Y58686D01*
X302612Y58491D01*
X301396Y58326D01*
X300176Y58191D01*
X298953Y58085D01*
X297728Y58010D01*
X296502Y57965D01*
X295275Y57950D01*
X294048Y57965D01*
X292822Y58010D01*
X291597Y58085D01*
X290374Y58191D01*
X289154Y58326D01*
X287938Y58491D01*
X286727Y58686D01*
X285520Y58911D01*
X284320Y59165D01*
X283126Y59448D01*
X281939Y59761D01*
X280761Y60103D01*
X279591Y60474D01*
X278431Y60873D01*
X277280Y61300D01*
X276141Y61756D01*
X275013Y62240D01*
X273897Y62751D01*
X272794Y63289D01*
X271705Y63854D01*
X270630Y64446D01*
X269570Y65064D01*
X268525Y65707D01*
X267496Y66377D01*
X266485Y67071D01*
X265490Y67790D01*
X264513Y68533D01*
X263555Y69299D01*
X262616Y70090D01*
X261697Y70902D01*
X260798Y71738D01*
X259920Y72595D01*
X259063Y73473D01*
X258227Y74372D01*
X257415Y75291D01*
X256624Y76230D01*
X255858Y77188D01*
X255115Y78165D01*
X254396Y79160D01*
X253702Y80171D01*
X253032Y81200D01*
X252389Y82245D01*
X251771Y83305D01*
X251179Y84380D01*
X250614Y85469D01*
X250076Y86572D01*
X249565Y87688D01*
X249081Y88816D01*
X248625Y89955D01*
X248198Y91106D01*
X247799Y92266D01*
X247428Y93436D01*
X247086Y94614D01*
X246773Y95801D01*
X246490Y96995D01*
X246236Y98195D01*
X246011Y99402D01*
X245816Y100613D01*
X245651Y101829D01*
X245516Y103049D01*
X245410Y104272D01*
X245335Y105497D01*
X245290Y106723D01*
X245275Y107950D01*
D12*
X282956Y121031D02*
X285413Y121031D01*
X284185Y121031D02*
X284185Y128403D01*
X285413Y128403D02*
X282956Y128403D01*
X287945Y128403D02*
X287945Y123488D01*
X290403Y121031D01*
X292860Y123488D01*
X292860Y128403D01*
X295430Y125946D02*
X297887Y128403D01*
X297887Y121031D01*
X295430Y121031D02*
X300344Y121031D01*
X305371Y127175D02*
X307829Y128403D01*
X305371Y127175D02*
X302914Y124717D01*
X302914Y122260D01*
X304142Y121031D01*
X306600Y121031D01*
X307829Y122260D01*
X307829Y123488D01*
X306600Y124717D01*
X302914Y124717D01*
X285413Y115703D02*
X285413Y108331D01*
X282956Y115703D02*
X287871Y115703D01*
X290440Y113246D02*
X291669Y113246D01*
X291669Y108331D01*
X290440Y108331D02*
X292898Y108331D01*
X291669Y115703D02*
X291669Y116932D01*
X295430Y113246D02*
X295430Y108331D01*
X295430Y113246D02*
X299116Y113246D01*
X300344Y112017D01*
X300344Y108331D01*
X302914Y109560D02*
X302914Y113246D01*
X302914Y109560D02*
X304142Y108331D01*
X307829Y108331D01*
X307829Y107102D02*
X307829Y113246D01*
X307829Y107102D02*
X306600Y105874D01*
X305371Y105874D01*
X270256Y103003D02*
X270256Y95631D01*
X275171Y95631D02*
X270256Y103003D01*
X275171Y103003D02*
X275171Y95631D01*
X277740Y96860D02*
X277740Y100546D01*
X277740Y96860D02*
X278969Y95631D01*
X282655Y95631D01*
X282655Y100546D01*
X285224Y100546D02*
X285224Y95631D01*
X285224Y100546D02*
X286453Y100546D01*
X287682Y99317D01*
X287682Y95631D01*
X287682Y99317D02*
X288910Y100546D01*
X290139Y99317D01*
X290139Y95631D01*
X292708Y100546D02*
X293937Y100546D01*
X293937Y95631D01*
X292708Y95631D02*
X295166Y95631D01*
X293937Y103003D02*
X293937Y104232D01*
X298927Y101775D02*
X298927Y96860D01*
X300155Y95631D01*
X300155Y100546D02*
X297698Y100546D01*
X302687Y100546D02*
X302687Y95631D01*
X302687Y98088D02*
X305145Y100546D01*
X306373Y100546D01*
X310153Y95631D02*
X312610Y95631D01*
X313839Y96860D01*
X313839Y99317D01*
X312610Y100546D01*
X310153Y100546D01*
X308924Y99317D01*
X308924Y96860D01*
X310153Y95631D01*
X316408Y95631D02*
X316408Y100546D01*
X320094Y100546D01*
X321323Y99317D01*
X321323Y95631D01*
D10*
X295275Y88900D02*
X295275Y76200D01*
X288925Y82550D01*
X295275Y76200D02*
X301625Y82550D01*
X118275Y107950D02*
X118290Y109177D01*
X118335Y110403D01*
X118410Y111628D01*
X118516Y112851D01*
X118651Y114071D01*
X118816Y115287D01*
X119011Y116498D01*
X119236Y117705D01*
X119490Y118905D01*
X119773Y120099D01*
X120086Y121286D01*
X120428Y122464D01*
X120799Y123634D01*
X121198Y124794D01*
X121625Y125945D01*
X122081Y127084D01*
X122565Y128212D01*
X123076Y129328D01*
X123614Y130431D01*
X124179Y131520D01*
X124771Y132595D01*
X125389Y133655D01*
X126032Y134700D01*
X126702Y135729D01*
X127396Y136740D01*
X128115Y137735D01*
X128858Y138712D01*
X129624Y139670D01*
X130415Y140609D01*
X131227Y141528D01*
X132063Y142427D01*
X132920Y143305D01*
X133798Y144162D01*
X134697Y144998D01*
X135616Y145810D01*
X136555Y146601D01*
X137513Y147367D01*
X138490Y148110D01*
X139485Y148829D01*
X140496Y149523D01*
X141525Y150193D01*
X142570Y150836D01*
X143630Y151454D01*
X144705Y152046D01*
X145794Y152611D01*
X146897Y153149D01*
X148013Y153660D01*
X149141Y154144D01*
X150280Y154600D01*
X151431Y155027D01*
X152591Y155426D01*
X153761Y155797D01*
X154939Y156139D01*
X156126Y156452D01*
X157320Y156735D01*
X158520Y156989D01*
X159727Y157214D01*
X160938Y157409D01*
X162154Y157574D01*
X163374Y157709D01*
X164597Y157815D01*
X165822Y157890D01*
X167048Y157935D01*
X168275Y157950D01*
X169502Y157935D01*
X170728Y157890D01*
X171953Y157815D01*
X173176Y157709D01*
X174396Y157574D01*
X175612Y157409D01*
X176823Y157214D01*
X178030Y156989D01*
X179230Y156735D01*
X180424Y156452D01*
X181611Y156139D01*
X182789Y155797D01*
X183959Y155426D01*
X185119Y155027D01*
X186270Y154600D01*
X187409Y154144D01*
X188537Y153660D01*
X189653Y153149D01*
X190756Y152611D01*
X191845Y152046D01*
X192920Y151454D01*
X193980Y150836D01*
X195025Y150193D01*
X196054Y149523D01*
X197065Y148829D01*
X198060Y148110D01*
X199037Y147367D01*
X199995Y146601D01*
X200934Y145810D01*
X201853Y144998D01*
X202752Y144162D01*
X203630Y143305D01*
X204487Y142427D01*
X205323Y141528D01*
X206135Y140609D01*
X206926Y139670D01*
X207692Y138712D01*
X208435Y137735D01*
X209154Y136740D01*
X209848Y135729D01*
X210518Y134700D01*
X211161Y133655D01*
X211779Y132595D01*
X212371Y131520D01*
X212936Y130431D01*
X213474Y129328D01*
X213985Y128212D01*
X214469Y127084D01*
X214925Y125945D01*
X215352Y124794D01*
X215751Y123634D01*
X216122Y122464D01*
X216464Y121286D01*
X216777Y120099D01*
X217060Y118905D01*
X217314Y117705D01*
X217539Y116498D01*
X217734Y115287D01*
X217899Y114071D01*
X218034Y112851D01*
X218140Y111628D01*
X218215Y110403D01*
X218260Y109177D01*
X218275Y107950D01*
X218260Y106723D01*
X218215Y105497D01*
X218140Y104272D01*
X218034Y103049D01*
X217899Y101829D01*
X217734Y100613D01*
X217539Y99402D01*
X217314Y98195D01*
X217060Y96995D01*
X216777Y95801D01*
X216464Y94614D01*
X216122Y93436D01*
X215751Y92266D01*
X215352Y91106D01*
X214925Y89955D01*
X214469Y88816D01*
X213985Y87688D01*
X213474Y86572D01*
X212936Y85469D01*
X212371Y84380D01*
X211779Y83305D01*
X211161Y82245D01*
X210518Y81200D01*
X209848Y80171D01*
X209154Y79160D01*
X208435Y78165D01*
X207692Y77188D01*
X206926Y76230D01*
X206135Y75291D01*
X205323Y74372D01*
X204487Y73473D01*
X203630Y72595D01*
X202752Y71738D01*
X201853Y70902D01*
X200934Y70090D01*
X199995Y69299D01*
X199037Y68533D01*
X198060Y67790D01*
X197065Y67071D01*
X196054Y66377D01*
X195025Y65707D01*
X193980Y65064D01*
X192920Y64446D01*
X191845Y63854D01*
X190756Y63289D01*
X189653Y62751D01*
X188537Y62240D01*
X187409Y61756D01*
X186270Y61300D01*
X185119Y60873D01*
X183959Y60474D01*
X182789Y60103D01*
X181611Y59761D01*
X180424Y59448D01*
X179230Y59165D01*
X178030Y58911D01*
X176823Y58686D01*
X175612Y58491D01*
X174396Y58326D01*
X173176Y58191D01*
X171953Y58085D01*
X170728Y58010D01*
X169502Y57965D01*
X168275Y57950D01*
X167048Y57965D01*
X165822Y58010D01*
X164597Y58085D01*
X163374Y58191D01*
X162154Y58326D01*
X160938Y58491D01*
X159727Y58686D01*
X158520Y58911D01*
X157320Y59165D01*
X156126Y59448D01*
X154939Y59761D01*
X153761Y60103D01*
X152591Y60474D01*
X151431Y60873D01*
X150280Y61300D01*
X149141Y61756D01*
X148013Y62240D01*
X146897Y62751D01*
X145794Y63289D01*
X144705Y63854D01*
X143630Y64446D01*
X142570Y65064D01*
X141525Y65707D01*
X140496Y66377D01*
X139485Y67071D01*
X138490Y67790D01*
X137513Y68533D01*
X136555Y69299D01*
X135616Y70090D01*
X134697Y70902D01*
X133798Y71738D01*
X132920Y72595D01*
X132063Y73473D01*
X131227Y74372D01*
X130415Y75291D01*
X129624Y76230D01*
X128858Y77188D01*
X128115Y78165D01*
X127396Y79160D01*
X126702Y80171D01*
X126032Y81200D01*
X125389Y82245D01*
X124771Y83305D01*
X124179Y84380D01*
X123614Y85469D01*
X123076Y86572D01*
X122565Y87688D01*
X122081Y88816D01*
X121625Y89955D01*
X121198Y91106D01*
X120799Y92266D01*
X120428Y93436D01*
X120086Y94614D01*
X119773Y95801D01*
X119490Y96995D01*
X119236Y98195D01*
X119011Y99402D01*
X118816Y100613D01*
X118651Y101829D01*
X118516Y103049D01*
X118410Y104272D01*
X118335Y105497D01*
X118290Y106723D01*
X118275Y107950D01*
D12*
X155956Y121031D02*
X158413Y121031D01*
X157185Y121031D02*
X157185Y128403D01*
X158413Y128403D02*
X155956Y128403D01*
X160945Y128403D02*
X160945Y123488D01*
X163403Y121031D01*
X165860Y123488D01*
X165860Y128403D01*
X168430Y125946D02*
X170887Y128403D01*
X170887Y121031D01*
X168430Y121031D02*
X173344Y121031D01*
X178371Y127175D02*
X180829Y128403D01*
X178371Y127175D02*
X175914Y124717D01*
X175914Y122260D01*
X177142Y121031D01*
X179600Y121031D01*
X180829Y122260D01*
X180829Y123488D01*
X179600Y124717D01*
X175914Y124717D01*
X158413Y115703D02*
X158413Y108331D01*
X155956Y115703D02*
X160871Y115703D01*
X163440Y113246D02*
X164669Y113246D01*
X164669Y108331D01*
X163440Y108331D02*
X165898Y108331D01*
X164669Y115703D02*
X164669Y116932D01*
X168430Y113246D02*
X168430Y108331D01*
X168430Y113246D02*
X172116Y113246D01*
X173344Y112017D01*
X173344Y108331D01*
X175914Y109560D02*
X175914Y113246D01*
X175914Y109560D02*
X177142Y108331D01*
X180829Y108331D01*
X180829Y107102D02*
X180829Y113246D01*
X180829Y107102D02*
X179600Y105874D01*
X178371Y105874D01*
X143256Y103003D02*
X143256Y95631D01*
X148171Y95631D02*
X143256Y103003D01*
X148171Y103003D02*
X148171Y95631D01*
X150740Y96860D02*
X150740Y100546D01*
X150740Y96860D02*
X151969Y95631D01*
X155655Y95631D01*
X155655Y100546D01*
X158224Y100546D02*
X158224Y95631D01*
X158224Y100546D02*
X159453Y100546D01*
X160682Y99317D01*
X160682Y95631D01*
X160682Y99317D02*
X161910Y100546D01*
X163139Y99317D01*
X163139Y95631D01*
X165708Y100546D02*
X166937Y100546D01*
X166937Y95631D01*
X165708Y95631D02*
X168166Y95631D01*
X166937Y103003D02*
X166937Y104232D01*
X171927Y101775D02*
X171927Y96860D01*
X173155Y95631D01*
X173155Y100546D02*
X170698Y100546D01*
X175687Y100546D02*
X175687Y95631D01*
X175687Y98088D02*
X178145Y100546D01*
X179373Y100546D01*
X183153Y95631D02*
X185610Y95631D01*
X186839Y96860D01*
X186839Y99317D01*
X185610Y100546D01*
X183153Y100546D01*
X181924Y99317D01*
X181924Y96860D01*
X183153Y95631D01*
X189408Y95631D02*
X189408Y100546D01*
X193094Y100546D01*
X194323Y99317D01*
X194323Y95631D01*
D10*
X168275Y88900D02*
X168275Y76200D01*
X161925Y82550D01*
X168275Y76200D02*
X174625Y82550D01*
X704855Y348525D02*
X706762Y346618D01*
X704855Y348525D02*
X701042Y348525D01*
X699135Y346618D01*
X699135Y338992D01*
X701042Y337085D01*
X704855Y337085D01*
X706762Y338992D01*
X710829Y344712D02*
X714642Y348525D01*
X714642Y337085D01*
X710829Y337085D02*
X718455Y337085D01*
X227337Y372018D02*
X225430Y373925D01*
X221617Y373925D01*
X219710Y372018D01*
X219710Y364392D01*
X221617Y362485D01*
X225430Y362485D01*
X227337Y364392D01*
X231404Y372018D02*
X233311Y373925D01*
X237124Y373925D01*
X239030Y372018D01*
X239030Y370112D01*
X237124Y368205D01*
X235217Y368205D01*
X237124Y368205D02*
X239030Y366298D01*
X239030Y364392D01*
X237124Y362485D01*
X233311Y362485D01*
X231404Y364392D01*
X485780Y377100D02*
X487687Y375193D01*
X485780Y377100D02*
X481967Y377100D01*
X480060Y375193D01*
X480060Y367567D01*
X481967Y365660D01*
X485780Y365660D01*
X487687Y367567D01*
X491754Y365660D02*
X499380Y365660D01*
X491754Y365660D02*
X499380Y373287D01*
X499380Y375193D01*
X497474Y377100D01*
X493661Y377100D01*
X491754Y375193D01*
X812800Y403225D02*
X812800Y454025D01*
X736600Y454025D01*
X660400Y454025D01*
X584200Y454025D01*
X584200Y403225D01*
X812800Y403225D01*
X736600Y441325D02*
X736600Y454025D01*
X736600Y441325D02*
X660400Y441325D01*
X660400Y454025D01*
X558157Y417837D02*
X556250Y415930D01*
X556250Y412117D01*
X558157Y410210D01*
X565783Y410210D01*
X567690Y412117D01*
X567690Y415930D01*
X565783Y417837D01*
X567690Y421904D02*
X556250Y421904D01*
X567690Y429530D01*
X556250Y429530D01*
X560064Y433598D02*
X556250Y437411D01*
X567690Y437411D01*
X567690Y433598D02*
X567690Y441224D01*
D13*
X767080Y394335D02*
X795020Y394335D01*
X767080Y374015D02*
X766980Y374017D01*
X766881Y374023D01*
X766781Y374033D01*
X766683Y374046D01*
X766584Y374064D01*
X766487Y374085D01*
X766391Y374110D01*
X766295Y374139D01*
X766201Y374172D01*
X766108Y374208D01*
X766017Y374248D01*
X765927Y374292D01*
X765839Y374339D01*
X765753Y374389D01*
X765669Y374443D01*
X765587Y374500D01*
X765508Y374560D01*
X765430Y374624D01*
X765356Y374690D01*
X765284Y374759D01*
X765215Y374831D01*
X765149Y374905D01*
X765085Y374983D01*
X765025Y375062D01*
X764968Y375144D01*
X764914Y375228D01*
X764864Y375314D01*
X764817Y375402D01*
X764773Y375492D01*
X764733Y375583D01*
X764697Y375676D01*
X764664Y375770D01*
X764635Y375866D01*
X764610Y375962D01*
X764589Y376059D01*
X764571Y376158D01*
X764558Y376256D01*
X764548Y376356D01*
X764542Y376455D01*
X764540Y376555D01*
X795020Y374015D02*
X795120Y374017D01*
X795219Y374023D01*
X795319Y374033D01*
X795417Y374046D01*
X795516Y374064D01*
X795613Y374085D01*
X795709Y374110D01*
X795805Y374139D01*
X795899Y374172D01*
X795992Y374208D01*
X796083Y374248D01*
X796173Y374292D01*
X796261Y374339D01*
X796347Y374389D01*
X796431Y374443D01*
X796513Y374500D01*
X796592Y374560D01*
X796670Y374624D01*
X796744Y374690D01*
X796816Y374759D01*
X796885Y374831D01*
X796951Y374905D01*
X797015Y374983D01*
X797075Y375062D01*
X797132Y375144D01*
X797186Y375228D01*
X797236Y375314D01*
X797283Y375402D01*
X797327Y375492D01*
X797367Y375583D01*
X797403Y375676D01*
X797436Y375770D01*
X797465Y375866D01*
X797490Y375962D01*
X797511Y376059D01*
X797529Y376158D01*
X797542Y376256D01*
X797552Y376356D01*
X797558Y376455D01*
X797560Y376555D01*
X797560Y391795D02*
X797558Y391895D01*
X797552Y391994D01*
X797542Y392094D01*
X797529Y392192D01*
X797511Y392291D01*
X797490Y392388D01*
X797465Y392484D01*
X797436Y392580D01*
X797403Y392674D01*
X797367Y392767D01*
X797327Y392858D01*
X797283Y392948D01*
X797236Y393036D01*
X797186Y393122D01*
X797132Y393206D01*
X797075Y393288D01*
X797015Y393367D01*
X796951Y393445D01*
X796885Y393519D01*
X796816Y393591D01*
X796744Y393660D01*
X796670Y393726D01*
X796592Y393790D01*
X796513Y393850D01*
X796431Y393907D01*
X796347Y393961D01*
X796261Y394011D01*
X796173Y394058D01*
X796083Y394102D01*
X795992Y394142D01*
X795899Y394178D01*
X795805Y394211D01*
X795709Y394240D01*
X795613Y394265D01*
X795516Y394286D01*
X795417Y394304D01*
X795319Y394317D01*
X795219Y394327D01*
X795120Y394333D01*
X795020Y394335D01*
X767080Y394335D02*
X766980Y394333D01*
X766881Y394327D01*
X766781Y394317D01*
X766683Y394304D01*
X766584Y394286D01*
X766487Y394265D01*
X766391Y394240D01*
X766295Y394211D01*
X766201Y394178D01*
X766108Y394142D01*
X766017Y394102D01*
X765927Y394058D01*
X765839Y394011D01*
X765753Y393961D01*
X765669Y393907D01*
X765587Y393850D01*
X765508Y393790D01*
X765430Y393726D01*
X765356Y393660D01*
X765284Y393591D01*
X765215Y393519D01*
X765149Y393445D01*
X765085Y393367D01*
X765025Y393288D01*
X764968Y393206D01*
X764914Y393122D01*
X764864Y393036D01*
X764817Y392948D01*
X764773Y392858D01*
X764733Y392767D01*
X764697Y392674D01*
X764664Y392580D01*
X764635Y392484D01*
X764610Y392388D01*
X764589Y392291D01*
X764571Y392192D01*
X764558Y392094D01*
X764548Y391994D01*
X764542Y391895D01*
X764540Y391795D01*
X764540Y376555D01*
X797560Y376555D02*
X797560Y391795D01*
X795020Y374015D02*
X767080Y374015D01*
D10*
X772165Y369580D02*
X774072Y367673D01*
X772165Y369580D02*
X768352Y369580D01*
X766445Y367673D01*
X766445Y365767D01*
X768352Y363860D01*
X772165Y363860D01*
X774072Y361953D01*
X774072Y360047D01*
X772165Y358140D01*
X768352Y358140D01*
X766445Y360047D01*
X778139Y360047D02*
X780046Y358140D01*
X781952Y358140D01*
X783859Y360047D01*
X783859Y369580D01*
X785765Y369580D02*
X781952Y369580D01*
X789833Y369580D02*
X797459Y369580D01*
X789833Y369580D02*
X789833Y363860D01*
X793646Y365767D01*
X795553Y365767D01*
X797459Y363860D01*
X797459Y360047D01*
X795553Y358140D01*
X791740Y358140D01*
X789833Y360047D01*
D13*
X19685Y57150D02*
X19695Y57992D01*
X19726Y58833D01*
X19778Y59673D01*
X19850Y60511D01*
X19943Y61347D01*
X20056Y62181D01*
X20190Y63012D01*
X20344Y63840D01*
X20518Y64663D01*
X20713Y65482D01*
X20927Y66296D01*
X21162Y67104D01*
X21416Y67906D01*
X21689Y68702D01*
X21983Y69491D01*
X22295Y70272D01*
X22627Y71046D01*
X22977Y71811D01*
X23346Y72567D01*
X23734Y73314D01*
X24140Y74051D01*
X24563Y74779D01*
X25005Y75495D01*
X25464Y76201D01*
X25940Y76894D01*
X26433Y77577D01*
X26943Y78246D01*
X27468Y78903D01*
X28010Y79547D01*
X28568Y80178D01*
X29141Y80794D01*
X29728Y81397D01*
X30331Y81984D01*
X30947Y82557D01*
X31578Y83115D01*
X32222Y83657D01*
X32879Y84182D01*
X33548Y84692D01*
X34231Y85185D01*
X34924Y85661D01*
X35630Y86120D01*
X36346Y86562D01*
X37074Y86985D01*
X37811Y87391D01*
X38558Y87779D01*
X39314Y88148D01*
X40079Y88498D01*
X40853Y88830D01*
X41634Y89142D01*
X42423Y89436D01*
X43219Y89709D01*
X44021Y89963D01*
X44829Y90198D01*
X45643Y90412D01*
X46462Y90607D01*
X47285Y90781D01*
X48113Y90935D01*
X48944Y91069D01*
X49778Y91182D01*
X50614Y91275D01*
X51452Y91347D01*
X52292Y91399D01*
X53133Y91430D01*
X53975Y91440D01*
X54817Y91430D01*
X55658Y91399D01*
X56498Y91347D01*
X57336Y91275D01*
X58172Y91182D01*
X59006Y91069D01*
X59837Y90935D01*
X60665Y90781D01*
X61488Y90607D01*
X62307Y90412D01*
X63121Y90198D01*
X63929Y89963D01*
X64731Y89709D01*
X65527Y89436D01*
X66316Y89142D01*
X67097Y88830D01*
X67871Y88498D01*
X68636Y88148D01*
X69392Y87779D01*
X70139Y87391D01*
X70876Y86985D01*
X71604Y86562D01*
X72320Y86120D01*
X73026Y85661D01*
X73719Y85185D01*
X74402Y84692D01*
X75071Y84182D01*
X75728Y83657D01*
X76372Y83115D01*
X77003Y82557D01*
X77619Y81984D01*
X78222Y81397D01*
X78809Y80794D01*
X79382Y80178D01*
X79940Y79547D01*
X80482Y78903D01*
X81007Y78246D01*
X81517Y77577D01*
X82010Y76894D01*
X82486Y76201D01*
X82945Y75495D01*
X83387Y74779D01*
X83810Y74051D01*
X84216Y73314D01*
X84604Y72567D01*
X84973Y71811D01*
X85323Y71046D01*
X85655Y70272D01*
X85967Y69491D01*
X86261Y68702D01*
X86534Y67906D01*
X86788Y67104D01*
X87023Y66296D01*
X87237Y65482D01*
X87432Y64663D01*
X87606Y63840D01*
X87760Y63012D01*
X87894Y62181D01*
X88007Y61347D01*
X88100Y60511D01*
X88172Y59673D01*
X88224Y58833D01*
X88255Y57992D01*
X88265Y57150D01*
X88255Y56308D01*
X88224Y55467D01*
X88172Y54627D01*
X88100Y53789D01*
X88007Y52953D01*
X87894Y52119D01*
X87760Y51288D01*
X87606Y50460D01*
X87432Y49637D01*
X87237Y48818D01*
X87023Y48004D01*
X86788Y47196D01*
X86534Y46394D01*
X86261Y45598D01*
X85967Y44809D01*
X85655Y44028D01*
X85323Y43254D01*
X84973Y42489D01*
X84604Y41733D01*
X84216Y40986D01*
X83810Y40249D01*
X83387Y39521D01*
X82945Y38805D01*
X82486Y38099D01*
X82010Y37406D01*
X81517Y36723D01*
X81007Y36054D01*
X80482Y35397D01*
X79940Y34753D01*
X79382Y34122D01*
X78809Y33506D01*
X78222Y32903D01*
X77619Y32316D01*
X77003Y31743D01*
X76372Y31185D01*
X75728Y30643D01*
X75071Y30118D01*
X74402Y29608D01*
X73719Y29115D01*
X73026Y28639D01*
X72320Y28180D01*
X71604Y27738D01*
X70876Y27315D01*
X70139Y26909D01*
X69392Y26521D01*
X68636Y26152D01*
X67871Y25802D01*
X67097Y25470D01*
X66316Y25158D01*
X65527Y24864D01*
X64731Y24591D01*
X63929Y24337D01*
X63121Y24102D01*
X62307Y23888D01*
X61488Y23693D01*
X60665Y23519D01*
X59837Y23365D01*
X59006Y23231D01*
X58172Y23118D01*
X57336Y23025D01*
X56498Y22953D01*
X55658Y22901D01*
X54817Y22870D01*
X53975Y22860D01*
X53133Y22870D01*
X52292Y22901D01*
X51452Y22953D01*
X50614Y23025D01*
X49778Y23118D01*
X48944Y23231D01*
X48113Y23365D01*
X47285Y23519D01*
X46462Y23693D01*
X45643Y23888D01*
X44829Y24102D01*
X44021Y24337D01*
X43219Y24591D01*
X42423Y24864D01*
X41634Y25158D01*
X40853Y25470D01*
X40079Y25802D01*
X39314Y26152D01*
X38558Y26521D01*
X37811Y26909D01*
X37074Y27315D01*
X36346Y27738D01*
X35630Y28180D01*
X34924Y28639D01*
X34231Y29115D01*
X33548Y29608D01*
X32879Y30118D01*
X32222Y30643D01*
X31578Y31185D01*
X30947Y31743D01*
X30331Y32316D01*
X29728Y32903D01*
X29141Y33506D01*
X28568Y34122D01*
X28010Y34753D01*
X27468Y35397D01*
X26943Y36054D01*
X26433Y36723D01*
X25940Y37406D01*
X25464Y38099D01*
X25005Y38805D01*
X24563Y39521D01*
X24140Y40249D01*
X23734Y40986D01*
X23346Y41733D01*
X22977Y42489D01*
X22627Y43254D01*
X22295Y44028D01*
X21983Y44809D01*
X21689Y45598D01*
X21416Y46394D01*
X21162Y47196D01*
X20927Y48004D01*
X20713Y48818D01*
X20518Y49637D01*
X20344Y50460D01*
X20190Y51288D01*
X20056Y52119D01*
X19943Y52953D01*
X19850Y53789D01*
X19778Y54627D01*
X19726Y55467D01*
X19695Y56308D01*
X19685Y57150D01*
X36975Y57150D02*
X36980Y57567D01*
X36995Y57984D01*
X37021Y58401D01*
X37057Y58816D01*
X37103Y59231D01*
X37159Y59644D01*
X37225Y60056D01*
X37302Y60467D01*
X37388Y60875D01*
X37484Y61281D01*
X37591Y61684D01*
X37707Y62085D01*
X37833Y62483D01*
X37969Y62877D01*
X38114Y63268D01*
X38269Y63656D01*
X38433Y64039D01*
X38607Y64418D01*
X38790Y64793D01*
X38982Y65164D01*
X39184Y65529D01*
X39394Y65890D01*
X39612Y66245D01*
X39840Y66595D01*
X40076Y66939D01*
X40320Y67277D01*
X40573Y67609D01*
X40834Y67935D01*
X41102Y68254D01*
X41379Y68567D01*
X41663Y68872D01*
X41954Y69171D01*
X42253Y69462D01*
X42558Y69746D01*
X42871Y70023D01*
X43190Y70291D01*
X43516Y70552D01*
X43848Y70805D01*
X44186Y71049D01*
X44530Y71285D01*
X44880Y71513D01*
X45235Y71731D01*
X45596Y71941D01*
X45961Y72143D01*
X46332Y72335D01*
X46707Y72518D01*
X47086Y72692D01*
X47469Y72856D01*
X47857Y73011D01*
X48248Y73156D01*
X48642Y73292D01*
X49040Y73418D01*
X49441Y73534D01*
X49844Y73641D01*
X50250Y73737D01*
X50658Y73823D01*
X51069Y73900D01*
X51481Y73966D01*
X51894Y74022D01*
X52309Y74068D01*
X52724Y74104D01*
X53141Y74130D01*
X53558Y74145D01*
X53975Y74150D01*
X54392Y74145D01*
X54809Y74130D01*
X55226Y74104D01*
X55641Y74068D01*
X56056Y74022D01*
X56469Y73966D01*
X56881Y73900D01*
X57292Y73823D01*
X57700Y73737D01*
X58106Y73641D01*
X58509Y73534D01*
X58910Y73418D01*
X59308Y73292D01*
X59702Y73156D01*
X60093Y73011D01*
X60481Y72856D01*
X60864Y72692D01*
X61243Y72518D01*
X61618Y72335D01*
X61989Y72143D01*
X62354Y71941D01*
X62715Y71731D01*
X63070Y71513D01*
X63420Y71285D01*
X63764Y71049D01*
X64102Y70805D01*
X64434Y70552D01*
X64760Y70291D01*
X65079Y70023D01*
X65392Y69746D01*
X65697Y69462D01*
X65996Y69171D01*
X66287Y68872D01*
X66571Y68567D01*
X66848Y68254D01*
X67116Y67935D01*
X67377Y67609D01*
X67630Y67277D01*
X67874Y66939D01*
X68110Y66595D01*
X68338Y66245D01*
X68556Y65890D01*
X68766Y65529D01*
X68968Y65164D01*
X69160Y64793D01*
X69343Y64418D01*
X69517Y64039D01*
X69681Y63656D01*
X69836Y63268D01*
X69981Y62877D01*
X70117Y62483D01*
X70243Y62085D01*
X70359Y61684D01*
X70466Y61281D01*
X70562Y60875D01*
X70648Y60467D01*
X70725Y60056D01*
X70791Y59644D01*
X70847Y59231D01*
X70893Y58816D01*
X70929Y58401D01*
X70955Y57984D01*
X70970Y57567D01*
X70975Y57150D01*
X70970Y56733D01*
X70955Y56316D01*
X70929Y55899D01*
X70893Y55484D01*
X70847Y55069D01*
X70791Y54656D01*
X70725Y54244D01*
X70648Y53833D01*
X70562Y53425D01*
X70466Y53019D01*
X70359Y52616D01*
X70243Y52215D01*
X70117Y51817D01*
X69981Y51423D01*
X69836Y51032D01*
X69681Y50644D01*
X69517Y50261D01*
X69343Y49882D01*
X69160Y49507D01*
X68968Y49136D01*
X68766Y48771D01*
X68556Y48410D01*
X68338Y48055D01*
X68110Y47705D01*
X67874Y47361D01*
X67630Y47023D01*
X67377Y46691D01*
X67116Y46365D01*
X66848Y46046D01*
X66571Y45733D01*
X66287Y45428D01*
X65996Y45129D01*
X65697Y44838D01*
X65392Y44554D01*
X65079Y44277D01*
X64760Y44009D01*
X64434Y43748D01*
X64102Y43495D01*
X63764Y43251D01*
X63420Y43015D01*
X63070Y42787D01*
X62715Y42569D01*
X62354Y42359D01*
X61989Y42157D01*
X61618Y41965D01*
X61243Y41782D01*
X60864Y41608D01*
X60481Y41444D01*
X60093Y41289D01*
X59702Y41144D01*
X59308Y41008D01*
X58910Y40882D01*
X58509Y40766D01*
X58106Y40659D01*
X57700Y40563D01*
X57292Y40477D01*
X56881Y40400D01*
X56469Y40334D01*
X56056Y40278D01*
X55641Y40232D01*
X55226Y40196D01*
X54809Y40170D01*
X54392Y40155D01*
X53975Y40150D01*
X53558Y40155D01*
X53141Y40170D01*
X52724Y40196D01*
X52309Y40232D01*
X51894Y40278D01*
X51481Y40334D01*
X51069Y40400D01*
X50658Y40477D01*
X50250Y40563D01*
X49844Y40659D01*
X49441Y40766D01*
X49040Y40882D01*
X48642Y41008D01*
X48248Y41144D01*
X47857Y41289D01*
X47469Y41444D01*
X47086Y41608D01*
X46707Y41782D01*
X46332Y41965D01*
X45961Y42157D01*
X45596Y42359D01*
X45235Y42569D01*
X44880Y42787D01*
X44530Y43015D01*
X44186Y43251D01*
X43848Y43495D01*
X43516Y43748D01*
X43190Y44009D01*
X42871Y44277D01*
X42558Y44554D01*
X42253Y44838D01*
X41954Y45129D01*
X41663Y45428D01*
X41379Y45733D01*
X41102Y46046D01*
X40834Y46365D01*
X40573Y46691D01*
X40320Y47023D01*
X40076Y47361D01*
X39840Y47705D01*
X39612Y48055D01*
X39394Y48410D01*
X39184Y48771D01*
X38982Y49136D01*
X38790Y49507D01*
X38607Y49882D01*
X38433Y50261D01*
X38269Y50644D01*
X38114Y51032D01*
X37969Y51423D01*
X37833Y51817D01*
X37707Y52215D01*
X37591Y52616D01*
X37484Y53019D01*
X37388Y53425D01*
X37302Y53833D01*
X37225Y54244D01*
X37159Y54656D01*
X37103Y55069D01*
X37057Y55484D01*
X37021Y55899D01*
X36995Y56316D01*
X36980Y56733D01*
X36975Y57150D01*
X908685Y409575D02*
X908695Y410417D01*
X908726Y411258D01*
X908778Y412098D01*
X908850Y412936D01*
X908943Y413772D01*
X909056Y414606D01*
X909190Y415437D01*
X909344Y416265D01*
X909518Y417088D01*
X909713Y417907D01*
X909927Y418721D01*
X910162Y419529D01*
X910416Y420331D01*
X910689Y421127D01*
X910983Y421916D01*
X911295Y422697D01*
X911627Y423471D01*
X911977Y424236D01*
X912346Y424992D01*
X912734Y425739D01*
X913140Y426476D01*
X913563Y427204D01*
X914005Y427920D01*
X914464Y428626D01*
X914940Y429319D01*
X915433Y430002D01*
X915943Y430671D01*
X916468Y431328D01*
X917010Y431972D01*
X917568Y432603D01*
X918141Y433219D01*
X918728Y433822D01*
X919331Y434409D01*
X919947Y434982D01*
X920578Y435540D01*
X921222Y436082D01*
X921879Y436607D01*
X922548Y437117D01*
X923231Y437610D01*
X923924Y438086D01*
X924630Y438545D01*
X925346Y438987D01*
X926074Y439410D01*
X926811Y439816D01*
X927558Y440204D01*
X928314Y440573D01*
X929079Y440923D01*
X929853Y441255D01*
X930634Y441567D01*
X931423Y441861D01*
X932219Y442134D01*
X933021Y442388D01*
X933829Y442623D01*
X934643Y442837D01*
X935462Y443032D01*
X936285Y443206D01*
X937113Y443360D01*
X937944Y443494D01*
X938778Y443607D01*
X939614Y443700D01*
X940452Y443772D01*
X941292Y443824D01*
X942133Y443855D01*
X942975Y443865D01*
X943817Y443855D01*
X944658Y443824D01*
X945498Y443772D01*
X946336Y443700D01*
X947172Y443607D01*
X948006Y443494D01*
X948837Y443360D01*
X949665Y443206D01*
X950488Y443032D01*
X951307Y442837D01*
X952121Y442623D01*
X952929Y442388D01*
X953731Y442134D01*
X954527Y441861D01*
X955316Y441567D01*
X956097Y441255D01*
X956871Y440923D01*
X957636Y440573D01*
X958392Y440204D01*
X959139Y439816D01*
X959876Y439410D01*
X960604Y438987D01*
X961320Y438545D01*
X962026Y438086D01*
X962719Y437610D01*
X963402Y437117D01*
X964071Y436607D01*
X964728Y436082D01*
X965372Y435540D01*
X966003Y434982D01*
X966619Y434409D01*
X967222Y433822D01*
X967809Y433219D01*
X968382Y432603D01*
X968940Y431972D01*
X969482Y431328D01*
X970007Y430671D01*
X970517Y430002D01*
X971010Y429319D01*
X971486Y428626D01*
X971945Y427920D01*
X972387Y427204D01*
X972810Y426476D01*
X973216Y425739D01*
X973604Y424992D01*
X973973Y424236D01*
X974323Y423471D01*
X974655Y422697D01*
X974967Y421916D01*
X975261Y421127D01*
X975534Y420331D01*
X975788Y419529D01*
X976023Y418721D01*
X976237Y417907D01*
X976432Y417088D01*
X976606Y416265D01*
X976760Y415437D01*
X976894Y414606D01*
X977007Y413772D01*
X977100Y412936D01*
X977172Y412098D01*
X977224Y411258D01*
X977255Y410417D01*
X977265Y409575D01*
X977255Y408733D01*
X977224Y407892D01*
X977172Y407052D01*
X977100Y406214D01*
X977007Y405378D01*
X976894Y404544D01*
X976760Y403713D01*
X976606Y402885D01*
X976432Y402062D01*
X976237Y401243D01*
X976023Y400429D01*
X975788Y399621D01*
X975534Y398819D01*
X975261Y398023D01*
X974967Y397234D01*
X974655Y396453D01*
X974323Y395679D01*
X973973Y394914D01*
X973604Y394158D01*
X973216Y393411D01*
X972810Y392674D01*
X972387Y391946D01*
X971945Y391230D01*
X971486Y390524D01*
X971010Y389831D01*
X970517Y389148D01*
X970007Y388479D01*
X969482Y387822D01*
X968940Y387178D01*
X968382Y386547D01*
X967809Y385931D01*
X967222Y385328D01*
X966619Y384741D01*
X966003Y384168D01*
X965372Y383610D01*
X964728Y383068D01*
X964071Y382543D01*
X963402Y382033D01*
X962719Y381540D01*
X962026Y381064D01*
X961320Y380605D01*
X960604Y380163D01*
X959876Y379740D01*
X959139Y379334D01*
X958392Y378946D01*
X957636Y378577D01*
X956871Y378227D01*
X956097Y377895D01*
X955316Y377583D01*
X954527Y377289D01*
X953731Y377016D01*
X952929Y376762D01*
X952121Y376527D01*
X951307Y376313D01*
X950488Y376118D01*
X949665Y375944D01*
X948837Y375790D01*
X948006Y375656D01*
X947172Y375543D01*
X946336Y375450D01*
X945498Y375378D01*
X944658Y375326D01*
X943817Y375295D01*
X942975Y375285D01*
X942133Y375295D01*
X941292Y375326D01*
X940452Y375378D01*
X939614Y375450D01*
X938778Y375543D01*
X937944Y375656D01*
X937113Y375790D01*
X936285Y375944D01*
X935462Y376118D01*
X934643Y376313D01*
X933829Y376527D01*
X933021Y376762D01*
X932219Y377016D01*
X931423Y377289D01*
X930634Y377583D01*
X929853Y377895D01*
X929079Y378227D01*
X928314Y378577D01*
X927558Y378946D01*
X926811Y379334D01*
X926074Y379740D01*
X925346Y380163D01*
X924630Y380605D01*
X923924Y381064D01*
X923231Y381540D01*
X922548Y382033D01*
X921879Y382543D01*
X921222Y383068D01*
X920578Y383610D01*
X919947Y384168D01*
X919331Y384741D01*
X918728Y385328D01*
X918141Y385931D01*
X917568Y386547D01*
X917010Y387178D01*
X916468Y387822D01*
X915943Y388479D01*
X915433Y389148D01*
X914940Y389831D01*
X914464Y390524D01*
X914005Y391230D01*
X913563Y391946D01*
X913140Y392674D01*
X912734Y393411D01*
X912346Y394158D01*
X911977Y394914D01*
X911627Y395679D01*
X911295Y396453D01*
X910983Y397234D01*
X910689Y398023D01*
X910416Y398819D01*
X910162Y399621D01*
X909927Y400429D01*
X909713Y401243D01*
X909518Y402062D01*
X909344Y402885D01*
X909190Y403713D01*
X909056Y404544D01*
X908943Y405378D01*
X908850Y406214D01*
X908778Y407052D01*
X908726Y407892D01*
X908695Y408733D01*
X908685Y409575D01*
X925975Y409575D02*
X925980Y409992D01*
X925995Y410409D01*
X926021Y410826D01*
X926057Y411241D01*
X926103Y411656D01*
X926159Y412069D01*
X926225Y412481D01*
X926302Y412892D01*
X926388Y413300D01*
X926484Y413706D01*
X926591Y414109D01*
X926707Y414510D01*
X926833Y414908D01*
X926969Y415302D01*
X927114Y415693D01*
X927269Y416081D01*
X927433Y416464D01*
X927607Y416843D01*
X927790Y417218D01*
X927982Y417589D01*
X928184Y417954D01*
X928394Y418315D01*
X928612Y418670D01*
X928840Y419020D01*
X929076Y419364D01*
X929320Y419702D01*
X929573Y420034D01*
X929834Y420360D01*
X930102Y420679D01*
X930379Y420992D01*
X930663Y421297D01*
X930954Y421596D01*
X931253Y421887D01*
X931558Y422171D01*
X931871Y422448D01*
X932190Y422716D01*
X932516Y422977D01*
X932848Y423230D01*
X933186Y423474D01*
X933530Y423710D01*
X933880Y423938D01*
X934235Y424156D01*
X934596Y424366D01*
X934961Y424568D01*
X935332Y424760D01*
X935707Y424943D01*
X936086Y425117D01*
X936469Y425281D01*
X936857Y425436D01*
X937248Y425581D01*
X937642Y425717D01*
X938040Y425843D01*
X938441Y425959D01*
X938844Y426066D01*
X939250Y426162D01*
X939658Y426248D01*
X940069Y426325D01*
X940481Y426391D01*
X940894Y426447D01*
X941309Y426493D01*
X941724Y426529D01*
X942141Y426555D01*
X942558Y426570D01*
X942975Y426575D01*
X943392Y426570D01*
X943809Y426555D01*
X944226Y426529D01*
X944641Y426493D01*
X945056Y426447D01*
X945469Y426391D01*
X945881Y426325D01*
X946292Y426248D01*
X946700Y426162D01*
X947106Y426066D01*
X947509Y425959D01*
X947910Y425843D01*
X948308Y425717D01*
X948702Y425581D01*
X949093Y425436D01*
X949481Y425281D01*
X949864Y425117D01*
X950243Y424943D01*
X950618Y424760D01*
X950989Y424568D01*
X951354Y424366D01*
X951715Y424156D01*
X952070Y423938D01*
X952420Y423710D01*
X952764Y423474D01*
X953102Y423230D01*
X953434Y422977D01*
X953760Y422716D01*
X954079Y422448D01*
X954392Y422171D01*
X954697Y421887D01*
X954996Y421596D01*
X955287Y421297D01*
X955571Y420992D01*
X955848Y420679D01*
X956116Y420360D01*
X956377Y420034D01*
X956630Y419702D01*
X956874Y419364D01*
X957110Y419020D01*
X957338Y418670D01*
X957556Y418315D01*
X957766Y417954D01*
X957968Y417589D01*
X958160Y417218D01*
X958343Y416843D01*
X958517Y416464D01*
X958681Y416081D01*
X958836Y415693D01*
X958981Y415302D01*
X959117Y414908D01*
X959243Y414510D01*
X959359Y414109D01*
X959466Y413706D01*
X959562Y413300D01*
X959648Y412892D01*
X959725Y412481D01*
X959791Y412069D01*
X959847Y411656D01*
X959893Y411241D01*
X959929Y410826D01*
X959955Y410409D01*
X959970Y409992D01*
X959975Y409575D01*
X959970Y409158D01*
X959955Y408741D01*
X959929Y408324D01*
X959893Y407909D01*
X959847Y407494D01*
X959791Y407081D01*
X959725Y406669D01*
X959648Y406258D01*
X959562Y405850D01*
X959466Y405444D01*
X959359Y405041D01*
X959243Y404640D01*
X959117Y404242D01*
X958981Y403848D01*
X958836Y403457D01*
X958681Y403069D01*
X958517Y402686D01*
X958343Y402307D01*
X958160Y401932D01*
X957968Y401561D01*
X957766Y401196D01*
X957556Y400835D01*
X957338Y400480D01*
X957110Y400130D01*
X956874Y399786D01*
X956630Y399448D01*
X956377Y399116D01*
X956116Y398790D01*
X955848Y398471D01*
X955571Y398158D01*
X955287Y397853D01*
X954996Y397554D01*
X954697Y397263D01*
X954392Y396979D01*
X954079Y396702D01*
X953760Y396434D01*
X953434Y396173D01*
X953102Y395920D01*
X952764Y395676D01*
X952420Y395440D01*
X952070Y395212D01*
X951715Y394994D01*
X951354Y394784D01*
X950989Y394582D01*
X950618Y394390D01*
X950243Y394207D01*
X949864Y394033D01*
X949481Y393869D01*
X949093Y393714D01*
X948702Y393569D01*
X948308Y393433D01*
X947910Y393307D01*
X947509Y393191D01*
X947106Y393084D01*
X946700Y392988D01*
X946292Y392902D01*
X945881Y392825D01*
X945469Y392759D01*
X945056Y392703D01*
X944641Y392657D01*
X944226Y392621D01*
X943809Y392595D01*
X943392Y392580D01*
X942975Y392575D01*
X942558Y392580D01*
X942141Y392595D01*
X941724Y392621D01*
X941309Y392657D01*
X940894Y392703D01*
X940481Y392759D01*
X940069Y392825D01*
X939658Y392902D01*
X939250Y392988D01*
X938844Y393084D01*
X938441Y393191D01*
X938040Y393307D01*
X937642Y393433D01*
X937248Y393569D01*
X936857Y393714D01*
X936469Y393869D01*
X936086Y394033D01*
X935707Y394207D01*
X935332Y394390D01*
X934961Y394582D01*
X934596Y394784D01*
X934235Y394994D01*
X933880Y395212D01*
X933530Y395440D01*
X933186Y395676D01*
X932848Y395920D01*
X932516Y396173D01*
X932190Y396434D01*
X931871Y396702D01*
X931558Y396979D01*
X931253Y397263D01*
X930954Y397554D01*
X930663Y397853D01*
X930379Y398158D01*
X930102Y398471D01*
X929834Y398790D01*
X929573Y399116D01*
X929320Y399448D01*
X929076Y399786D01*
X928840Y400130D01*
X928612Y400480D01*
X928394Y400835D01*
X928184Y401196D01*
X927982Y401561D01*
X927790Y401932D01*
X927607Y402307D01*
X927433Y402686D01*
X927269Y403069D01*
X927114Y403457D01*
X926969Y403848D01*
X926833Y404242D01*
X926707Y404640D01*
X926591Y405041D01*
X926484Y405444D01*
X926388Y405850D01*
X926302Y406258D01*
X926225Y406669D01*
X926159Y407081D01*
X926103Y407494D01*
X926057Y407909D01*
X926021Y408324D01*
X925995Y408741D01*
X925980Y409158D01*
X925975Y409575D01*
X16185Y410050D02*
X16195Y410892D01*
X16226Y411733D01*
X16278Y412573D01*
X16350Y413411D01*
X16443Y414247D01*
X16556Y415081D01*
X16690Y415912D01*
X16844Y416740D01*
X17018Y417563D01*
X17213Y418382D01*
X17427Y419196D01*
X17662Y420004D01*
X17916Y420806D01*
X18189Y421602D01*
X18483Y422391D01*
X18795Y423172D01*
X19127Y423946D01*
X19477Y424711D01*
X19846Y425467D01*
X20234Y426214D01*
X20640Y426951D01*
X21063Y427679D01*
X21505Y428395D01*
X21964Y429101D01*
X22440Y429794D01*
X22933Y430477D01*
X23443Y431146D01*
X23968Y431803D01*
X24510Y432447D01*
X25068Y433078D01*
X25641Y433694D01*
X26228Y434297D01*
X26831Y434884D01*
X27447Y435457D01*
X28078Y436015D01*
X28722Y436557D01*
X29379Y437082D01*
X30048Y437592D01*
X30731Y438085D01*
X31424Y438561D01*
X32130Y439020D01*
X32846Y439462D01*
X33574Y439885D01*
X34311Y440291D01*
X35058Y440679D01*
X35814Y441048D01*
X36579Y441398D01*
X37353Y441730D01*
X38134Y442042D01*
X38923Y442336D01*
X39719Y442609D01*
X40521Y442863D01*
X41329Y443098D01*
X42143Y443312D01*
X42962Y443507D01*
X43785Y443681D01*
X44613Y443835D01*
X45444Y443969D01*
X46278Y444082D01*
X47114Y444175D01*
X47952Y444247D01*
X48792Y444299D01*
X49633Y444330D01*
X50475Y444340D01*
X51317Y444330D01*
X52158Y444299D01*
X52998Y444247D01*
X53836Y444175D01*
X54672Y444082D01*
X55506Y443969D01*
X56337Y443835D01*
X57165Y443681D01*
X57988Y443507D01*
X58807Y443312D01*
X59621Y443098D01*
X60429Y442863D01*
X61231Y442609D01*
X62027Y442336D01*
X62816Y442042D01*
X63597Y441730D01*
X64371Y441398D01*
X65136Y441048D01*
X65892Y440679D01*
X66639Y440291D01*
X67376Y439885D01*
X68104Y439462D01*
X68820Y439020D01*
X69526Y438561D01*
X70219Y438085D01*
X70902Y437592D01*
X71571Y437082D01*
X72228Y436557D01*
X72872Y436015D01*
X73503Y435457D01*
X74119Y434884D01*
X74722Y434297D01*
X75309Y433694D01*
X75882Y433078D01*
X76440Y432447D01*
X76982Y431803D01*
X77507Y431146D01*
X78017Y430477D01*
X78510Y429794D01*
X78986Y429101D01*
X79445Y428395D01*
X79887Y427679D01*
X80310Y426951D01*
X80716Y426214D01*
X81104Y425467D01*
X81473Y424711D01*
X81823Y423946D01*
X82155Y423172D01*
X82467Y422391D01*
X82761Y421602D01*
X83034Y420806D01*
X83288Y420004D01*
X83523Y419196D01*
X83737Y418382D01*
X83932Y417563D01*
X84106Y416740D01*
X84260Y415912D01*
X84394Y415081D01*
X84507Y414247D01*
X84600Y413411D01*
X84672Y412573D01*
X84724Y411733D01*
X84755Y410892D01*
X84765Y410050D01*
X84755Y409208D01*
X84724Y408367D01*
X84672Y407527D01*
X84600Y406689D01*
X84507Y405853D01*
X84394Y405019D01*
X84260Y404188D01*
X84106Y403360D01*
X83932Y402537D01*
X83737Y401718D01*
X83523Y400904D01*
X83288Y400096D01*
X83034Y399294D01*
X82761Y398498D01*
X82467Y397709D01*
X82155Y396928D01*
X81823Y396154D01*
X81473Y395389D01*
X81104Y394633D01*
X80716Y393886D01*
X80310Y393149D01*
X79887Y392421D01*
X79445Y391705D01*
X78986Y390999D01*
X78510Y390306D01*
X78017Y389623D01*
X77507Y388954D01*
X76982Y388297D01*
X76440Y387653D01*
X75882Y387022D01*
X75309Y386406D01*
X74722Y385803D01*
X74119Y385216D01*
X73503Y384643D01*
X72872Y384085D01*
X72228Y383543D01*
X71571Y383018D01*
X70902Y382508D01*
X70219Y382015D01*
X69526Y381539D01*
X68820Y381080D01*
X68104Y380638D01*
X67376Y380215D01*
X66639Y379809D01*
X65892Y379421D01*
X65136Y379052D01*
X64371Y378702D01*
X63597Y378370D01*
X62816Y378058D01*
X62027Y377764D01*
X61231Y377491D01*
X60429Y377237D01*
X59621Y377002D01*
X58807Y376788D01*
X57988Y376593D01*
X57165Y376419D01*
X56337Y376265D01*
X55506Y376131D01*
X54672Y376018D01*
X53836Y375925D01*
X52998Y375853D01*
X52158Y375801D01*
X51317Y375770D01*
X50475Y375760D01*
X49633Y375770D01*
X48792Y375801D01*
X47952Y375853D01*
X47114Y375925D01*
X46278Y376018D01*
X45444Y376131D01*
X44613Y376265D01*
X43785Y376419D01*
X42962Y376593D01*
X42143Y376788D01*
X41329Y377002D01*
X40521Y377237D01*
X39719Y377491D01*
X38923Y377764D01*
X38134Y378058D01*
X37353Y378370D01*
X36579Y378702D01*
X35814Y379052D01*
X35058Y379421D01*
X34311Y379809D01*
X33574Y380215D01*
X32846Y380638D01*
X32130Y381080D01*
X31424Y381539D01*
X30731Y382015D01*
X30048Y382508D01*
X29379Y383018D01*
X28722Y383543D01*
X28078Y384085D01*
X27447Y384643D01*
X26831Y385216D01*
X26228Y385803D01*
X25641Y386406D01*
X25068Y387022D01*
X24510Y387653D01*
X23968Y388297D01*
X23443Y388954D01*
X22933Y389623D01*
X22440Y390306D01*
X21964Y390999D01*
X21505Y391705D01*
X21063Y392421D01*
X20640Y393149D01*
X20234Y393886D01*
X19846Y394633D01*
X19477Y395389D01*
X19127Y396154D01*
X18795Y396928D01*
X18483Y397709D01*
X18189Y398498D01*
X17916Y399294D01*
X17662Y400096D01*
X17427Y400904D01*
X17213Y401718D01*
X17018Y402537D01*
X16844Y403360D01*
X16690Y404188D01*
X16556Y405019D01*
X16443Y405853D01*
X16350Y406689D01*
X16278Y407527D01*
X16226Y408367D01*
X16195Y409208D01*
X16185Y410050D01*
X33475Y410050D02*
X33480Y410467D01*
X33495Y410884D01*
X33521Y411301D01*
X33557Y411716D01*
X33603Y412131D01*
X33659Y412544D01*
X33725Y412956D01*
X33802Y413367D01*
X33888Y413775D01*
X33984Y414181D01*
X34091Y414584D01*
X34207Y414985D01*
X34333Y415383D01*
X34469Y415777D01*
X34614Y416168D01*
X34769Y416556D01*
X34933Y416939D01*
X35107Y417318D01*
X35290Y417693D01*
X35482Y418064D01*
X35684Y418429D01*
X35894Y418790D01*
X36112Y419145D01*
X36340Y419495D01*
X36576Y419839D01*
X36820Y420177D01*
X37073Y420509D01*
X37334Y420835D01*
X37602Y421154D01*
X37879Y421467D01*
X38163Y421772D01*
X38454Y422071D01*
X38753Y422362D01*
X39058Y422646D01*
X39371Y422923D01*
X39690Y423191D01*
X40016Y423452D01*
X40348Y423705D01*
X40686Y423949D01*
X41030Y424185D01*
X41380Y424413D01*
X41735Y424631D01*
X42096Y424841D01*
X42461Y425043D01*
X42832Y425235D01*
X43207Y425418D01*
X43586Y425592D01*
X43969Y425756D01*
X44357Y425911D01*
X44748Y426056D01*
X45142Y426192D01*
X45540Y426318D01*
X45941Y426434D01*
X46344Y426541D01*
X46750Y426637D01*
X47158Y426723D01*
X47569Y426800D01*
X47981Y426866D01*
X48394Y426922D01*
X48809Y426968D01*
X49224Y427004D01*
X49641Y427030D01*
X50058Y427045D01*
X50475Y427050D01*
X50892Y427045D01*
X51309Y427030D01*
X51726Y427004D01*
X52141Y426968D01*
X52556Y426922D01*
X52969Y426866D01*
X53381Y426800D01*
X53792Y426723D01*
X54200Y426637D01*
X54606Y426541D01*
X55009Y426434D01*
X55410Y426318D01*
X55808Y426192D01*
X56202Y426056D01*
X56593Y425911D01*
X56981Y425756D01*
X57364Y425592D01*
X57743Y425418D01*
X58118Y425235D01*
X58489Y425043D01*
X58854Y424841D01*
X59215Y424631D01*
X59570Y424413D01*
X59920Y424185D01*
X60264Y423949D01*
X60602Y423705D01*
X60934Y423452D01*
X61260Y423191D01*
X61579Y422923D01*
X61892Y422646D01*
X62197Y422362D01*
X62496Y422071D01*
X62787Y421772D01*
X63071Y421467D01*
X63348Y421154D01*
X63616Y420835D01*
X63877Y420509D01*
X64130Y420177D01*
X64374Y419839D01*
X64610Y419495D01*
X64838Y419145D01*
X65056Y418790D01*
X65266Y418429D01*
X65468Y418064D01*
X65660Y417693D01*
X65843Y417318D01*
X66017Y416939D01*
X66181Y416556D01*
X66336Y416168D01*
X66481Y415777D01*
X66617Y415383D01*
X66743Y414985D01*
X66859Y414584D01*
X66966Y414181D01*
X67062Y413775D01*
X67148Y413367D01*
X67225Y412956D01*
X67291Y412544D01*
X67347Y412131D01*
X67393Y411716D01*
X67429Y411301D01*
X67455Y410884D01*
X67470Y410467D01*
X67475Y410050D01*
X67470Y409633D01*
X67455Y409216D01*
X67429Y408799D01*
X67393Y408384D01*
X67347Y407969D01*
X67291Y407556D01*
X67225Y407144D01*
X67148Y406733D01*
X67062Y406325D01*
X66966Y405919D01*
X66859Y405516D01*
X66743Y405115D01*
X66617Y404717D01*
X66481Y404323D01*
X66336Y403932D01*
X66181Y403544D01*
X66017Y403161D01*
X65843Y402782D01*
X65660Y402407D01*
X65468Y402036D01*
X65266Y401671D01*
X65056Y401310D01*
X64838Y400955D01*
X64610Y400605D01*
X64374Y400261D01*
X64130Y399923D01*
X63877Y399591D01*
X63616Y399265D01*
X63348Y398946D01*
X63071Y398633D01*
X62787Y398328D01*
X62496Y398029D01*
X62197Y397738D01*
X61892Y397454D01*
X61579Y397177D01*
X61260Y396909D01*
X60934Y396648D01*
X60602Y396395D01*
X60264Y396151D01*
X59920Y395915D01*
X59570Y395687D01*
X59215Y395469D01*
X58854Y395259D01*
X58489Y395057D01*
X58118Y394865D01*
X57743Y394682D01*
X57364Y394508D01*
X56981Y394344D01*
X56593Y394189D01*
X56202Y394044D01*
X55808Y393908D01*
X55410Y393782D01*
X55009Y393666D01*
X54606Y393559D01*
X54200Y393463D01*
X53792Y393377D01*
X53381Y393300D01*
X52969Y393234D01*
X52556Y393178D01*
X52141Y393132D01*
X51726Y393096D01*
X51309Y393070D01*
X50892Y393055D01*
X50475Y393050D01*
X50058Y393055D01*
X49641Y393070D01*
X49224Y393096D01*
X48809Y393132D01*
X48394Y393178D01*
X47981Y393234D01*
X47569Y393300D01*
X47158Y393377D01*
X46750Y393463D01*
X46344Y393559D01*
X45941Y393666D01*
X45540Y393782D01*
X45142Y393908D01*
X44748Y394044D01*
X44357Y394189D01*
X43969Y394344D01*
X43586Y394508D01*
X43207Y394682D01*
X42832Y394865D01*
X42461Y395057D01*
X42096Y395259D01*
X41735Y395469D01*
X41380Y395687D01*
X41030Y395915D01*
X40686Y396151D01*
X40348Y396395D01*
X40016Y396648D01*
X39690Y396909D01*
X39371Y397177D01*
X39058Y397454D01*
X38753Y397738D01*
X38454Y398029D01*
X38163Y398328D01*
X37879Y398633D01*
X37602Y398946D01*
X37334Y399265D01*
X37073Y399591D01*
X36820Y399923D01*
X36576Y400261D01*
X36340Y400605D01*
X36112Y400955D01*
X35894Y401310D01*
X35684Y401671D01*
X35482Y402036D01*
X35290Y402407D01*
X35107Y402782D01*
X34933Y403161D01*
X34769Y403544D01*
X34614Y403932D01*
X34469Y404323D01*
X34333Y404717D01*
X34207Y405115D01*
X34091Y405516D01*
X33984Y405919D01*
X33888Y406325D01*
X33802Y406733D01*
X33725Y407144D01*
X33659Y407556D01*
X33603Y407969D01*
X33557Y408384D01*
X33521Y408799D01*
X33495Y409216D01*
X33480Y409633D01*
X33475Y410050D01*
X908685Y57150D02*
X908695Y57992D01*
X908726Y58833D01*
X908778Y59673D01*
X908850Y60511D01*
X908943Y61347D01*
X909056Y62181D01*
X909190Y63012D01*
X909344Y63840D01*
X909518Y64663D01*
X909713Y65482D01*
X909927Y66296D01*
X910162Y67104D01*
X910416Y67906D01*
X910689Y68702D01*
X910983Y69491D01*
X911295Y70272D01*
X911627Y71046D01*
X911977Y71811D01*
X912346Y72567D01*
X912734Y73314D01*
X913140Y74051D01*
X913563Y74779D01*
X914005Y75495D01*
X914464Y76201D01*
X914940Y76894D01*
X915433Y77577D01*
X915943Y78246D01*
X916468Y78903D01*
X917010Y79547D01*
X917568Y80178D01*
X918141Y80794D01*
X918728Y81397D01*
X919331Y81984D01*
X919947Y82557D01*
X920578Y83115D01*
X921222Y83657D01*
X921879Y84182D01*
X922548Y84692D01*
X923231Y85185D01*
X923924Y85661D01*
X924630Y86120D01*
X925346Y86562D01*
X926074Y86985D01*
X926811Y87391D01*
X927558Y87779D01*
X928314Y88148D01*
X929079Y88498D01*
X929853Y88830D01*
X930634Y89142D01*
X931423Y89436D01*
X932219Y89709D01*
X933021Y89963D01*
X933829Y90198D01*
X934643Y90412D01*
X935462Y90607D01*
X936285Y90781D01*
X937113Y90935D01*
X937944Y91069D01*
X938778Y91182D01*
X939614Y91275D01*
X940452Y91347D01*
X941292Y91399D01*
X942133Y91430D01*
X942975Y91440D01*
X943817Y91430D01*
X944658Y91399D01*
X945498Y91347D01*
X946336Y91275D01*
X947172Y91182D01*
X948006Y91069D01*
X948837Y90935D01*
X949665Y90781D01*
X950488Y90607D01*
X951307Y90412D01*
X952121Y90198D01*
X952929Y89963D01*
X953731Y89709D01*
X954527Y89436D01*
X955316Y89142D01*
X956097Y88830D01*
X956871Y88498D01*
X957636Y88148D01*
X958392Y87779D01*
X959139Y87391D01*
X959876Y86985D01*
X960604Y86562D01*
X961320Y86120D01*
X962026Y85661D01*
X962719Y85185D01*
X963402Y84692D01*
X964071Y84182D01*
X964728Y83657D01*
X965372Y83115D01*
X966003Y82557D01*
X966619Y81984D01*
X967222Y81397D01*
X967809Y80794D01*
X968382Y80178D01*
X968940Y79547D01*
X969482Y78903D01*
X970007Y78246D01*
X970517Y77577D01*
X971010Y76894D01*
X971486Y76201D01*
X971945Y75495D01*
X972387Y74779D01*
X972810Y74051D01*
X973216Y73314D01*
X973604Y72567D01*
X973973Y71811D01*
X974323Y71046D01*
X974655Y70272D01*
X974967Y69491D01*
X975261Y68702D01*
X975534Y67906D01*
X975788Y67104D01*
X976023Y66296D01*
X976237Y65482D01*
X976432Y64663D01*
X976606Y63840D01*
X976760Y63012D01*
X976894Y62181D01*
X977007Y61347D01*
X977100Y60511D01*
X977172Y59673D01*
X977224Y58833D01*
X977255Y57992D01*
X977265Y57150D01*
X977255Y56308D01*
X977224Y55467D01*
X977172Y54627D01*
X977100Y53789D01*
X977007Y52953D01*
X976894Y52119D01*
X976760Y51288D01*
X976606Y50460D01*
X976432Y49637D01*
X976237Y48818D01*
X976023Y48004D01*
X975788Y47196D01*
X975534Y46394D01*
X975261Y45598D01*
X974967Y44809D01*
X974655Y44028D01*
X974323Y43254D01*
X973973Y42489D01*
X973604Y41733D01*
X973216Y40986D01*
X972810Y40249D01*
X972387Y39521D01*
X971945Y38805D01*
X971486Y38099D01*
X971010Y37406D01*
X970517Y36723D01*
X970007Y36054D01*
X969482Y35397D01*
X968940Y34753D01*
X968382Y34122D01*
X967809Y33506D01*
X967222Y32903D01*
X966619Y32316D01*
X966003Y31743D01*
X965372Y31185D01*
X964728Y30643D01*
X964071Y30118D01*
X963402Y29608D01*
X962719Y29115D01*
X962026Y28639D01*
X961320Y28180D01*
X960604Y27738D01*
X959876Y27315D01*
X959139Y26909D01*
X958392Y26521D01*
X957636Y26152D01*
X956871Y25802D01*
X956097Y25470D01*
X955316Y25158D01*
X954527Y24864D01*
X953731Y24591D01*
X952929Y24337D01*
X952121Y24102D01*
X951307Y23888D01*
X950488Y23693D01*
X949665Y23519D01*
X948837Y23365D01*
X948006Y23231D01*
X947172Y23118D01*
X946336Y23025D01*
X945498Y22953D01*
X944658Y22901D01*
X943817Y22870D01*
X942975Y22860D01*
X942133Y22870D01*
X941292Y22901D01*
X940452Y22953D01*
X939614Y23025D01*
X938778Y23118D01*
X937944Y23231D01*
X937113Y23365D01*
X936285Y23519D01*
X935462Y23693D01*
X934643Y23888D01*
X933829Y24102D01*
X933021Y24337D01*
X932219Y24591D01*
X931423Y24864D01*
X930634Y25158D01*
X929853Y25470D01*
X929079Y25802D01*
X928314Y26152D01*
X927558Y26521D01*
X926811Y26909D01*
X926074Y27315D01*
X925346Y27738D01*
X924630Y28180D01*
X923924Y28639D01*
X923231Y29115D01*
X922548Y29608D01*
X921879Y30118D01*
X921222Y30643D01*
X920578Y31185D01*
X919947Y31743D01*
X919331Y32316D01*
X918728Y32903D01*
X918141Y33506D01*
X917568Y34122D01*
X917010Y34753D01*
X916468Y35397D01*
X915943Y36054D01*
X915433Y36723D01*
X914940Y37406D01*
X914464Y38099D01*
X914005Y38805D01*
X913563Y39521D01*
X913140Y40249D01*
X912734Y40986D01*
X912346Y41733D01*
X911977Y42489D01*
X911627Y43254D01*
X911295Y44028D01*
X910983Y44809D01*
X910689Y45598D01*
X910416Y46394D01*
X910162Y47196D01*
X909927Y48004D01*
X909713Y48818D01*
X909518Y49637D01*
X909344Y50460D01*
X909190Y51288D01*
X909056Y52119D01*
X908943Y52953D01*
X908850Y53789D01*
X908778Y54627D01*
X908726Y55467D01*
X908695Y56308D01*
X908685Y57150D01*
X925975Y57150D02*
X925980Y57567D01*
X925995Y57984D01*
X926021Y58401D01*
X926057Y58816D01*
X926103Y59231D01*
X926159Y59644D01*
X926225Y60056D01*
X926302Y60467D01*
X926388Y60875D01*
X926484Y61281D01*
X926591Y61684D01*
X926707Y62085D01*
X926833Y62483D01*
X926969Y62877D01*
X927114Y63268D01*
X927269Y63656D01*
X927433Y64039D01*
X927607Y64418D01*
X927790Y64793D01*
X927982Y65164D01*
X928184Y65529D01*
X928394Y65890D01*
X928612Y66245D01*
X928840Y66595D01*
X929076Y66939D01*
X929320Y67277D01*
X929573Y67609D01*
X929834Y67935D01*
X930102Y68254D01*
X930379Y68567D01*
X930663Y68872D01*
X930954Y69171D01*
X931253Y69462D01*
X931558Y69746D01*
X931871Y70023D01*
X932190Y70291D01*
X932516Y70552D01*
X932848Y70805D01*
X933186Y71049D01*
X933530Y71285D01*
X933880Y71513D01*
X934235Y71731D01*
X934596Y71941D01*
X934961Y72143D01*
X935332Y72335D01*
X935707Y72518D01*
X936086Y72692D01*
X936469Y72856D01*
X936857Y73011D01*
X937248Y73156D01*
X937642Y73292D01*
X938040Y73418D01*
X938441Y73534D01*
X938844Y73641D01*
X939250Y73737D01*
X939658Y73823D01*
X940069Y73900D01*
X940481Y73966D01*
X940894Y74022D01*
X941309Y74068D01*
X941724Y74104D01*
X942141Y74130D01*
X942558Y74145D01*
X942975Y74150D01*
X943392Y74145D01*
X943809Y74130D01*
X944226Y74104D01*
X944641Y74068D01*
X945056Y74022D01*
X945469Y73966D01*
X945881Y73900D01*
X946292Y73823D01*
X946700Y73737D01*
X947106Y73641D01*
X947509Y73534D01*
X947910Y73418D01*
X948308Y73292D01*
X948702Y73156D01*
X949093Y73011D01*
X949481Y72856D01*
X949864Y72692D01*
X950243Y72518D01*
X950618Y72335D01*
X950989Y72143D01*
X951354Y71941D01*
X951715Y71731D01*
X952070Y71513D01*
X952420Y71285D01*
X952764Y71049D01*
X953102Y70805D01*
X953434Y70552D01*
X953760Y70291D01*
X954079Y70023D01*
X954392Y69746D01*
X954697Y69462D01*
X954996Y69171D01*
X955287Y68872D01*
X955571Y68567D01*
X955848Y68254D01*
X956116Y67935D01*
X956377Y67609D01*
X956630Y67277D01*
X956874Y66939D01*
X957110Y66595D01*
X957338Y66245D01*
X957556Y65890D01*
X957766Y65529D01*
X957968Y65164D01*
X958160Y64793D01*
X958343Y64418D01*
X958517Y64039D01*
X958681Y63656D01*
X958836Y63268D01*
X958981Y62877D01*
X959117Y62483D01*
X959243Y62085D01*
X959359Y61684D01*
X959466Y61281D01*
X959562Y60875D01*
X959648Y60467D01*
X959725Y60056D01*
X959791Y59644D01*
X959847Y59231D01*
X959893Y58816D01*
X959929Y58401D01*
X959955Y57984D01*
X959970Y57567D01*
X959975Y57150D01*
X959970Y56733D01*
X959955Y56316D01*
X959929Y55899D01*
X959893Y55484D01*
X959847Y55069D01*
X959791Y54656D01*
X959725Y54244D01*
X959648Y53833D01*
X959562Y53425D01*
X959466Y53019D01*
X959359Y52616D01*
X959243Y52215D01*
X959117Y51817D01*
X958981Y51423D01*
X958836Y51032D01*
X958681Y50644D01*
X958517Y50261D01*
X958343Y49882D01*
X958160Y49507D01*
X957968Y49136D01*
X957766Y48771D01*
X957556Y48410D01*
X957338Y48055D01*
X957110Y47705D01*
X956874Y47361D01*
X956630Y47023D01*
X956377Y46691D01*
X956116Y46365D01*
X955848Y46046D01*
X955571Y45733D01*
X955287Y45428D01*
X954996Y45129D01*
X954697Y44838D01*
X954392Y44554D01*
X954079Y44277D01*
X953760Y44009D01*
X953434Y43748D01*
X953102Y43495D01*
X952764Y43251D01*
X952420Y43015D01*
X952070Y42787D01*
X951715Y42569D01*
X951354Y42359D01*
X950989Y42157D01*
X950618Y41965D01*
X950243Y41782D01*
X949864Y41608D01*
X949481Y41444D01*
X949093Y41289D01*
X948702Y41144D01*
X948308Y41008D01*
X947910Y40882D01*
X947509Y40766D01*
X947106Y40659D01*
X946700Y40563D01*
X946292Y40477D01*
X945881Y40400D01*
X945469Y40334D01*
X945056Y40278D01*
X944641Y40232D01*
X944226Y40196D01*
X943809Y40170D01*
X943392Y40155D01*
X942975Y40150D01*
X942558Y40155D01*
X942141Y40170D01*
X941724Y40196D01*
X941309Y40232D01*
X940894Y40278D01*
X940481Y40334D01*
X940069Y40400D01*
X939658Y40477D01*
X939250Y40563D01*
X938844Y40659D01*
X938441Y40766D01*
X938040Y40882D01*
X937642Y41008D01*
X937248Y41144D01*
X936857Y41289D01*
X936469Y41444D01*
X936086Y41608D01*
X935707Y41782D01*
X935332Y41965D01*
X934961Y42157D01*
X934596Y42359D01*
X934235Y42569D01*
X933880Y42787D01*
X933530Y43015D01*
X933186Y43251D01*
X932848Y43495D01*
X932516Y43748D01*
X932190Y44009D01*
X931871Y44277D01*
X931558Y44554D01*
X931253Y44838D01*
X930954Y45129D01*
X930663Y45428D01*
X930379Y45733D01*
X930102Y46046D01*
X929834Y46365D01*
X929573Y46691D01*
X929320Y47023D01*
X929076Y47361D01*
X928840Y47705D01*
X928612Y48055D01*
X928394Y48410D01*
X928184Y48771D01*
X927982Y49136D01*
X927790Y49507D01*
X927607Y49882D01*
X927433Y50261D01*
X927269Y50644D01*
X927114Y51032D01*
X926969Y51423D01*
X926833Y51817D01*
X926707Y52215D01*
X926591Y52616D01*
X926484Y53019D01*
X926388Y53425D01*
X926302Y53833D01*
X926225Y54244D01*
X926159Y54656D01*
X926103Y55069D01*
X926057Y55484D01*
X926021Y55899D01*
X925995Y56316D01*
X925980Y56733D01*
X925975Y57150D01*
X614045Y342265D02*
X586105Y342265D01*
X614045Y362585D02*
X614145Y362583D01*
X614244Y362577D01*
X614344Y362567D01*
X614442Y362554D01*
X614541Y362536D01*
X614638Y362515D01*
X614734Y362490D01*
X614830Y362461D01*
X614924Y362428D01*
X615017Y362392D01*
X615108Y362352D01*
X615198Y362308D01*
X615286Y362261D01*
X615372Y362211D01*
X615456Y362157D01*
X615538Y362100D01*
X615617Y362040D01*
X615695Y361976D01*
X615769Y361910D01*
X615841Y361841D01*
X615910Y361769D01*
X615976Y361695D01*
X616040Y361617D01*
X616100Y361538D01*
X616157Y361456D01*
X616211Y361372D01*
X616261Y361286D01*
X616308Y361198D01*
X616352Y361108D01*
X616392Y361017D01*
X616428Y360924D01*
X616461Y360830D01*
X616490Y360734D01*
X616515Y360638D01*
X616536Y360541D01*
X616554Y360442D01*
X616567Y360344D01*
X616577Y360244D01*
X616583Y360145D01*
X616585Y360045D01*
X586105Y362585D02*
X586005Y362583D01*
X585906Y362577D01*
X585806Y362567D01*
X585708Y362554D01*
X585609Y362536D01*
X585512Y362515D01*
X585416Y362490D01*
X585320Y362461D01*
X585226Y362428D01*
X585133Y362392D01*
X585042Y362352D01*
X584952Y362308D01*
X584864Y362261D01*
X584778Y362211D01*
X584694Y362157D01*
X584612Y362100D01*
X584533Y362040D01*
X584455Y361976D01*
X584381Y361910D01*
X584309Y361841D01*
X584240Y361769D01*
X584174Y361695D01*
X584110Y361617D01*
X584050Y361538D01*
X583993Y361456D01*
X583939Y361372D01*
X583889Y361286D01*
X583842Y361198D01*
X583798Y361108D01*
X583758Y361017D01*
X583722Y360924D01*
X583689Y360830D01*
X583660Y360734D01*
X583635Y360638D01*
X583614Y360541D01*
X583596Y360442D01*
X583583Y360344D01*
X583573Y360244D01*
X583567Y360145D01*
X583565Y360045D01*
X583565Y344805D02*
X583567Y344705D01*
X583573Y344606D01*
X583583Y344506D01*
X583596Y344408D01*
X583614Y344309D01*
X583635Y344212D01*
X583660Y344116D01*
X583689Y344020D01*
X583722Y343926D01*
X583758Y343833D01*
X583798Y343742D01*
X583842Y343652D01*
X583889Y343564D01*
X583939Y343478D01*
X583993Y343394D01*
X584050Y343312D01*
X584110Y343233D01*
X584174Y343155D01*
X584240Y343081D01*
X584309Y343009D01*
X584381Y342940D01*
X584455Y342874D01*
X584533Y342810D01*
X584612Y342750D01*
X584694Y342693D01*
X584778Y342639D01*
X584864Y342589D01*
X584952Y342542D01*
X585042Y342498D01*
X585133Y342458D01*
X585226Y342422D01*
X585320Y342389D01*
X585416Y342360D01*
X585512Y342335D01*
X585609Y342314D01*
X585708Y342296D01*
X585806Y342283D01*
X585906Y342273D01*
X586005Y342267D01*
X586105Y342265D01*
X614045Y342265D02*
X614145Y342267D01*
X614244Y342273D01*
X614344Y342283D01*
X614442Y342296D01*
X614541Y342314D01*
X614638Y342335D01*
X614734Y342360D01*
X614830Y342389D01*
X614924Y342422D01*
X615017Y342458D01*
X615108Y342498D01*
X615198Y342542D01*
X615286Y342589D01*
X615372Y342639D01*
X615456Y342693D01*
X615538Y342750D01*
X615617Y342810D01*
X615695Y342874D01*
X615769Y342940D01*
X615841Y343009D01*
X615910Y343081D01*
X615976Y343155D01*
X616040Y343233D01*
X616100Y343312D01*
X616157Y343394D01*
X616211Y343478D01*
X616261Y343564D01*
X616308Y343652D01*
X616352Y343742D01*
X616392Y343833D01*
X616428Y343926D01*
X616461Y344020D01*
X616490Y344116D01*
X616515Y344212D01*
X616536Y344309D01*
X616554Y344408D01*
X616567Y344506D01*
X616577Y344606D01*
X616583Y344705D01*
X616585Y344805D01*
X616585Y360045D01*
X583565Y360045D02*
X583565Y344805D01*
X586105Y362585D02*
X614045Y362585D01*
D10*
X591190Y337830D02*
X593097Y335923D01*
X591190Y337830D02*
X587377Y337830D01*
X585470Y335923D01*
X585470Y334017D01*
X587377Y332110D01*
X591190Y332110D01*
X593097Y330203D01*
X593097Y328297D01*
X591190Y326390D01*
X587377Y326390D01*
X585470Y328297D01*
X597164Y328297D02*
X599071Y326390D01*
X600977Y326390D01*
X602884Y328297D01*
X602884Y337830D01*
X604790Y337830D02*
X600977Y337830D01*
X612671Y335923D02*
X616484Y337830D01*
X612671Y335923D02*
X608858Y332110D01*
X608858Y328297D01*
X610765Y326390D01*
X614578Y326390D01*
X616484Y328297D01*
X616484Y330203D01*
X614578Y332110D01*
X608858Y332110D01*
D13*
X372745Y339090D02*
X344805Y339090D01*
X372745Y359410D02*
X372845Y359408D01*
X372944Y359402D01*
X373044Y359392D01*
X373142Y359379D01*
X373241Y359361D01*
X373338Y359340D01*
X373434Y359315D01*
X373530Y359286D01*
X373624Y359253D01*
X373717Y359217D01*
X373808Y359177D01*
X373898Y359133D01*
X373986Y359086D01*
X374072Y359036D01*
X374156Y358982D01*
X374238Y358925D01*
X374317Y358865D01*
X374395Y358801D01*
X374469Y358735D01*
X374541Y358666D01*
X374610Y358594D01*
X374676Y358520D01*
X374740Y358442D01*
X374800Y358363D01*
X374857Y358281D01*
X374911Y358197D01*
X374961Y358111D01*
X375008Y358023D01*
X375052Y357933D01*
X375092Y357842D01*
X375128Y357749D01*
X375161Y357655D01*
X375190Y357559D01*
X375215Y357463D01*
X375236Y357366D01*
X375254Y357267D01*
X375267Y357169D01*
X375277Y357069D01*
X375283Y356970D01*
X375285Y356870D01*
X344805Y359410D02*
X344705Y359408D01*
X344606Y359402D01*
X344506Y359392D01*
X344408Y359379D01*
X344309Y359361D01*
X344212Y359340D01*
X344116Y359315D01*
X344020Y359286D01*
X343926Y359253D01*
X343833Y359217D01*
X343742Y359177D01*
X343652Y359133D01*
X343564Y359086D01*
X343478Y359036D01*
X343394Y358982D01*
X343312Y358925D01*
X343233Y358865D01*
X343155Y358801D01*
X343081Y358735D01*
X343009Y358666D01*
X342940Y358594D01*
X342874Y358520D01*
X342810Y358442D01*
X342750Y358363D01*
X342693Y358281D01*
X342639Y358197D01*
X342589Y358111D01*
X342542Y358023D01*
X342498Y357933D01*
X342458Y357842D01*
X342422Y357749D01*
X342389Y357655D01*
X342360Y357559D01*
X342335Y357463D01*
X342314Y357366D01*
X342296Y357267D01*
X342283Y357169D01*
X342273Y357069D01*
X342267Y356970D01*
X342265Y356870D01*
X342265Y341630D02*
X342267Y341530D01*
X342273Y341431D01*
X342283Y341331D01*
X342296Y341233D01*
X342314Y341134D01*
X342335Y341037D01*
X342360Y340941D01*
X342389Y340845D01*
X342422Y340751D01*
X342458Y340658D01*
X342498Y340567D01*
X342542Y340477D01*
X342589Y340389D01*
X342639Y340303D01*
X342693Y340219D01*
X342750Y340137D01*
X342810Y340058D01*
X342874Y339980D01*
X342940Y339906D01*
X343009Y339834D01*
X343081Y339765D01*
X343155Y339699D01*
X343233Y339635D01*
X343312Y339575D01*
X343394Y339518D01*
X343478Y339464D01*
X343564Y339414D01*
X343652Y339367D01*
X343742Y339323D01*
X343833Y339283D01*
X343926Y339247D01*
X344020Y339214D01*
X344116Y339185D01*
X344212Y339160D01*
X344309Y339139D01*
X344408Y339121D01*
X344506Y339108D01*
X344606Y339098D01*
X344705Y339092D01*
X344805Y339090D01*
X372745Y339090D02*
X372845Y339092D01*
X372944Y339098D01*
X373044Y339108D01*
X373142Y339121D01*
X373241Y339139D01*
X373338Y339160D01*
X373434Y339185D01*
X373530Y339214D01*
X373624Y339247D01*
X373717Y339283D01*
X373808Y339323D01*
X373898Y339367D01*
X373986Y339414D01*
X374072Y339464D01*
X374156Y339518D01*
X374238Y339575D01*
X374317Y339635D01*
X374395Y339699D01*
X374469Y339765D01*
X374541Y339834D01*
X374610Y339906D01*
X374676Y339980D01*
X374740Y340058D01*
X374800Y340137D01*
X374857Y340219D01*
X374911Y340303D01*
X374961Y340389D01*
X375008Y340477D01*
X375052Y340567D01*
X375092Y340658D01*
X375128Y340751D01*
X375161Y340845D01*
X375190Y340941D01*
X375215Y341037D01*
X375236Y341134D01*
X375254Y341233D01*
X375267Y341331D01*
X375277Y341431D01*
X375283Y341530D01*
X375285Y341630D01*
X375285Y356870D01*
X342265Y356870D02*
X342265Y341630D01*
X344805Y359410D02*
X372745Y359410D01*
D10*
X346715Y334655D02*
X348622Y332748D01*
X346715Y334655D02*
X342902Y334655D01*
X340995Y332748D01*
X340995Y330842D01*
X342902Y328935D01*
X346715Y328935D01*
X348622Y327028D01*
X348622Y325122D01*
X346715Y323215D01*
X342902Y323215D01*
X340995Y325122D01*
X352689Y325122D02*
X354596Y323215D01*
X356502Y323215D01*
X358409Y325122D01*
X358409Y334655D01*
X360315Y334655D02*
X356502Y334655D01*
X364383Y330842D02*
X368196Y334655D01*
X368196Y323215D01*
X364383Y323215D02*
X372009Y323215D01*
X376077Y325122D02*
X376077Y332748D01*
X377984Y334655D01*
X381797Y334655D01*
X383703Y332748D01*
X383703Y325122D01*
X381797Y323215D01*
X377984Y323215D01*
X376077Y325122D01*
X383703Y332748D01*
D13*
X864235Y279400D02*
X864240Y279774D01*
X864253Y280148D01*
X864276Y280521D01*
X864308Y280894D01*
X864350Y281266D01*
X864400Y281636D01*
X864459Y282005D01*
X864528Y282373D01*
X864605Y282739D01*
X864692Y283103D01*
X864787Y283465D01*
X864891Y283824D01*
X865004Y284181D01*
X865126Y284534D01*
X865256Y284885D01*
X865395Y285232D01*
X865542Y285576D01*
X865698Y285916D01*
X865862Y286252D01*
X866035Y286584D01*
X866215Y286912D01*
X866403Y287235D01*
X866599Y287553D01*
X866803Y287867D01*
X867015Y288175D01*
X867234Y288478D01*
X867461Y288776D01*
X867694Y289068D01*
X867935Y289354D01*
X868183Y289635D01*
X868437Y289909D01*
X868699Y290176D01*
X868966Y290438D01*
X869240Y290692D01*
X869521Y290940D01*
X869807Y291181D01*
X870099Y291414D01*
X870397Y291641D01*
X870700Y291860D01*
X871008Y292072D01*
X871322Y292276D01*
X871640Y292472D01*
X871963Y292660D01*
X872291Y292840D01*
X872623Y293013D01*
X872959Y293177D01*
X873299Y293333D01*
X873643Y293480D01*
X873990Y293619D01*
X874341Y293749D01*
X874694Y293871D01*
X875051Y293984D01*
X875410Y294088D01*
X875772Y294183D01*
X876136Y294270D01*
X876502Y294347D01*
X876870Y294416D01*
X877239Y294475D01*
X877609Y294525D01*
X877981Y294567D01*
X878354Y294599D01*
X878727Y294622D01*
X879101Y294635D01*
X879475Y294640D01*
X879849Y294635D01*
X880223Y294622D01*
X880596Y294599D01*
X880969Y294567D01*
X881341Y294525D01*
X881711Y294475D01*
X882080Y294416D01*
X882448Y294347D01*
X882814Y294270D01*
X883178Y294183D01*
X883540Y294088D01*
X883899Y293984D01*
X884256Y293871D01*
X884609Y293749D01*
X884960Y293619D01*
X885307Y293480D01*
X885651Y293333D01*
X885991Y293177D01*
X886327Y293013D01*
X886659Y292840D01*
X886987Y292660D01*
X887310Y292472D01*
X887628Y292276D01*
X887942Y292072D01*
X888250Y291860D01*
X888553Y291641D01*
X888851Y291414D01*
X889143Y291181D01*
X889429Y290940D01*
X889710Y290692D01*
X889984Y290438D01*
X890251Y290176D01*
X890513Y289909D01*
X890767Y289635D01*
X891015Y289354D01*
X891256Y289068D01*
X891489Y288776D01*
X891716Y288478D01*
X891935Y288175D01*
X892147Y287867D01*
X892351Y287553D01*
X892547Y287235D01*
X892735Y286912D01*
X892915Y286584D01*
X893088Y286252D01*
X893252Y285916D01*
X893408Y285576D01*
X893555Y285232D01*
X893694Y284885D01*
X893824Y284534D01*
X893946Y284181D01*
X894059Y283824D01*
X894163Y283465D01*
X894258Y283103D01*
X894345Y282739D01*
X894422Y282373D01*
X894491Y282005D01*
X894550Y281636D01*
X894600Y281266D01*
X894642Y280894D01*
X894674Y280521D01*
X894697Y280148D01*
X894710Y279774D01*
X894715Y279400D01*
X894710Y279026D01*
X894697Y278652D01*
X894674Y278279D01*
X894642Y277906D01*
X894600Y277534D01*
X894550Y277164D01*
X894491Y276795D01*
X894422Y276427D01*
X894345Y276061D01*
X894258Y275697D01*
X894163Y275335D01*
X894059Y274976D01*
X893946Y274619D01*
X893824Y274266D01*
X893694Y273915D01*
X893555Y273568D01*
X893408Y273224D01*
X893252Y272884D01*
X893088Y272548D01*
X892915Y272216D01*
X892735Y271888D01*
X892547Y271565D01*
X892351Y271247D01*
X892147Y270933D01*
X891935Y270625D01*
X891716Y270322D01*
X891489Y270024D01*
X891256Y269732D01*
X891015Y269446D01*
X890767Y269165D01*
X890513Y268891D01*
X890251Y268624D01*
X889984Y268362D01*
X889710Y268108D01*
X889429Y267860D01*
X889143Y267619D01*
X888851Y267386D01*
X888553Y267159D01*
X888250Y266940D01*
X887942Y266728D01*
X887628Y266524D01*
X887310Y266328D01*
X886987Y266140D01*
X886659Y265960D01*
X886327Y265787D01*
X885991Y265623D01*
X885651Y265467D01*
X885307Y265320D01*
X884960Y265181D01*
X884609Y265051D01*
X884256Y264929D01*
X883899Y264816D01*
X883540Y264712D01*
X883178Y264617D01*
X882814Y264530D01*
X882448Y264453D01*
X882080Y264384D01*
X881711Y264325D01*
X881341Y264275D01*
X880969Y264233D01*
X880596Y264201D01*
X880223Y264178D01*
X879849Y264165D01*
X879475Y264160D01*
X879101Y264165D01*
X878727Y264178D01*
X878354Y264201D01*
X877981Y264233D01*
X877609Y264275D01*
X877239Y264325D01*
X876870Y264384D01*
X876502Y264453D01*
X876136Y264530D01*
X875772Y264617D01*
X875410Y264712D01*
X875051Y264816D01*
X874694Y264929D01*
X874341Y265051D01*
X873990Y265181D01*
X873643Y265320D01*
X873299Y265467D01*
X872959Y265623D01*
X872623Y265787D01*
X872291Y265960D01*
X871963Y266140D01*
X871640Y266328D01*
X871322Y266524D01*
X871008Y266728D01*
X870700Y266940D01*
X870397Y267159D01*
X870099Y267386D01*
X869807Y267619D01*
X869521Y267860D01*
X869240Y268108D01*
X868966Y268362D01*
X868699Y268624D01*
X868437Y268891D01*
X868183Y269165D01*
X867935Y269446D01*
X867694Y269732D01*
X867461Y270024D01*
X867234Y270322D01*
X867015Y270625D01*
X866803Y270933D01*
X866599Y271247D01*
X866403Y271565D01*
X866215Y271888D01*
X866035Y272216D01*
X865862Y272548D01*
X865698Y272884D01*
X865542Y273224D01*
X865395Y273568D01*
X865256Y273915D01*
X865126Y274266D01*
X865004Y274619D01*
X864891Y274976D01*
X864787Y275335D01*
X864692Y275697D01*
X864605Y276061D01*
X864528Y276427D01*
X864459Y276795D01*
X864400Y277164D01*
X864350Y277534D01*
X864308Y277906D01*
X864276Y278279D01*
X864253Y278652D01*
X864240Y279026D01*
X864235Y279400D01*
D14*
X891794Y279400D03*
D10*
X871855Y301625D02*
X871855Y313065D01*
X877575Y313065D01*
X879482Y311158D01*
X879482Y307345D01*
X877575Y305438D01*
X871855Y305438D01*
X875668Y305438D02*
X879482Y301625D01*
X883549Y309252D02*
X887362Y313065D01*
X887362Y301625D01*
X883549Y301625D02*
X891175Y301625D01*
D13*
X722622Y328500D02*
X722622Y251000D01*
X766122Y251000D01*
X766122Y328500D01*
X722622Y328500D01*
X726907Y321256D02*
X726909Y321361D01*
X726915Y321466D01*
X726925Y321570D01*
X726939Y321674D01*
X726957Y321778D01*
X726978Y321880D01*
X727004Y321982D01*
X727033Y322083D01*
X727066Y322182D01*
X727103Y322281D01*
X727144Y322377D01*
X727188Y322473D01*
X727236Y322566D01*
X727287Y322658D01*
X727342Y322747D01*
X727400Y322835D01*
X727462Y322920D01*
X727526Y323002D01*
X727594Y323083D01*
X727664Y323160D01*
X727738Y323235D01*
X727814Y323307D01*
X727893Y323376D01*
X727975Y323443D01*
X728059Y323506D01*
X728145Y323565D01*
X728233Y323622D01*
X728324Y323675D01*
X728416Y323724D01*
X728511Y323770D01*
X728607Y323813D01*
X728704Y323852D01*
X728803Y323887D01*
X728903Y323918D01*
X729005Y323945D01*
X729107Y323969D01*
X729210Y323989D01*
X729314Y324005D01*
X729418Y324017D01*
X729523Y324025D01*
X729628Y324029D01*
X729732Y324029D01*
X729837Y324025D01*
X729942Y324017D01*
X730046Y324005D01*
X730150Y323989D01*
X730253Y323969D01*
X730355Y323945D01*
X730457Y323918D01*
X730557Y323887D01*
X730656Y323852D01*
X730753Y323813D01*
X730849Y323770D01*
X730944Y323724D01*
X731036Y323675D01*
X731127Y323622D01*
X731215Y323565D01*
X731301Y323506D01*
X731385Y323443D01*
X731467Y323376D01*
X731546Y323307D01*
X731622Y323235D01*
X731696Y323160D01*
X731766Y323083D01*
X731834Y323002D01*
X731898Y322920D01*
X731960Y322835D01*
X732018Y322747D01*
X732073Y322658D01*
X732124Y322566D01*
X732172Y322473D01*
X732216Y322377D01*
X732257Y322281D01*
X732294Y322182D01*
X732327Y322083D01*
X732356Y321982D01*
X732382Y321880D01*
X732403Y321778D01*
X732421Y321674D01*
X732435Y321570D01*
X732445Y321466D01*
X732451Y321361D01*
X732453Y321256D01*
X732451Y321151D01*
X732445Y321046D01*
X732435Y320942D01*
X732421Y320838D01*
X732403Y320734D01*
X732382Y320632D01*
X732356Y320530D01*
X732327Y320429D01*
X732294Y320330D01*
X732257Y320231D01*
X732216Y320135D01*
X732172Y320039D01*
X732124Y319946D01*
X732073Y319854D01*
X732018Y319765D01*
X731960Y319677D01*
X731898Y319592D01*
X731834Y319510D01*
X731766Y319429D01*
X731696Y319352D01*
X731622Y319277D01*
X731546Y319205D01*
X731467Y319136D01*
X731385Y319069D01*
X731301Y319006D01*
X731215Y318947D01*
X731127Y318890D01*
X731036Y318837D01*
X730944Y318788D01*
X730849Y318742D01*
X730753Y318699D01*
X730656Y318660D01*
X730557Y318625D01*
X730457Y318594D01*
X730355Y318567D01*
X730253Y318543D01*
X730150Y318523D01*
X730046Y318507D01*
X729942Y318495D01*
X729837Y318487D01*
X729732Y318483D01*
X729628Y318483D01*
X729523Y318487D01*
X729418Y318495D01*
X729314Y318507D01*
X729210Y318523D01*
X729107Y318543D01*
X729005Y318567D01*
X728903Y318594D01*
X728803Y318625D01*
X728704Y318660D01*
X728607Y318699D01*
X728511Y318742D01*
X728416Y318788D01*
X728324Y318837D01*
X728233Y318890D01*
X728145Y318947D01*
X728059Y319006D01*
X727975Y319069D01*
X727893Y319136D01*
X727814Y319205D01*
X727738Y319277D01*
X727664Y319352D01*
X727594Y319429D01*
X727526Y319510D01*
X727462Y319592D01*
X727400Y319677D01*
X727342Y319765D01*
X727287Y319854D01*
X727236Y319946D01*
X727188Y320039D01*
X727144Y320135D01*
X727103Y320231D01*
X727066Y320330D01*
X727033Y320429D01*
X727004Y320530D01*
X726978Y320632D01*
X726957Y320734D01*
X726939Y320838D01*
X726925Y320942D01*
X726915Y321046D01*
X726909Y321151D01*
X726907Y321256D01*
D10*
X736879Y233916D02*
X740692Y233916D01*
X738786Y233916D02*
X738786Y245356D01*
X740692Y245356D02*
X736879Y245356D01*
X750395Y245356D02*
X752301Y243449D01*
X750395Y245356D02*
X746582Y245356D01*
X744675Y243449D01*
X744675Y235823D01*
X746582Y233916D01*
X750395Y233916D01*
X752301Y235823D01*
X756369Y241543D02*
X760182Y245356D01*
X760182Y233916D01*
X756369Y233916D02*
X763995Y233916D01*
D13*
X465116Y251000D02*
X465116Y328500D01*
X465116Y251000D02*
X508616Y251000D01*
X508616Y328500D01*
X465116Y328500D01*
X469401Y321256D02*
X469403Y321361D01*
X469409Y321466D01*
X469419Y321570D01*
X469433Y321674D01*
X469451Y321778D01*
X469472Y321880D01*
X469498Y321982D01*
X469527Y322083D01*
X469560Y322182D01*
X469597Y322281D01*
X469638Y322377D01*
X469682Y322473D01*
X469730Y322566D01*
X469781Y322658D01*
X469836Y322747D01*
X469894Y322835D01*
X469956Y322920D01*
X470020Y323002D01*
X470088Y323083D01*
X470158Y323160D01*
X470232Y323235D01*
X470308Y323307D01*
X470387Y323376D01*
X470469Y323443D01*
X470553Y323506D01*
X470639Y323565D01*
X470727Y323622D01*
X470818Y323675D01*
X470910Y323724D01*
X471005Y323770D01*
X471101Y323813D01*
X471198Y323852D01*
X471297Y323887D01*
X471397Y323918D01*
X471499Y323945D01*
X471601Y323969D01*
X471704Y323989D01*
X471808Y324005D01*
X471912Y324017D01*
X472017Y324025D01*
X472122Y324029D01*
X472226Y324029D01*
X472331Y324025D01*
X472436Y324017D01*
X472540Y324005D01*
X472644Y323989D01*
X472747Y323969D01*
X472849Y323945D01*
X472951Y323918D01*
X473051Y323887D01*
X473150Y323852D01*
X473247Y323813D01*
X473343Y323770D01*
X473438Y323724D01*
X473530Y323675D01*
X473621Y323622D01*
X473709Y323565D01*
X473795Y323506D01*
X473879Y323443D01*
X473961Y323376D01*
X474040Y323307D01*
X474116Y323235D01*
X474190Y323160D01*
X474260Y323083D01*
X474328Y323002D01*
X474392Y322920D01*
X474454Y322835D01*
X474512Y322747D01*
X474567Y322658D01*
X474618Y322566D01*
X474666Y322473D01*
X474710Y322377D01*
X474751Y322281D01*
X474788Y322182D01*
X474821Y322083D01*
X474850Y321982D01*
X474876Y321880D01*
X474897Y321778D01*
X474915Y321674D01*
X474929Y321570D01*
X474939Y321466D01*
X474945Y321361D01*
X474947Y321256D01*
X474945Y321151D01*
X474939Y321046D01*
X474929Y320942D01*
X474915Y320838D01*
X474897Y320734D01*
X474876Y320632D01*
X474850Y320530D01*
X474821Y320429D01*
X474788Y320330D01*
X474751Y320231D01*
X474710Y320135D01*
X474666Y320039D01*
X474618Y319946D01*
X474567Y319854D01*
X474512Y319765D01*
X474454Y319677D01*
X474392Y319592D01*
X474328Y319510D01*
X474260Y319429D01*
X474190Y319352D01*
X474116Y319277D01*
X474040Y319205D01*
X473961Y319136D01*
X473879Y319069D01*
X473795Y319006D01*
X473709Y318947D01*
X473621Y318890D01*
X473530Y318837D01*
X473438Y318788D01*
X473343Y318742D01*
X473247Y318699D01*
X473150Y318660D01*
X473051Y318625D01*
X472951Y318594D01*
X472849Y318567D01*
X472747Y318543D01*
X472644Y318523D01*
X472540Y318507D01*
X472436Y318495D01*
X472331Y318487D01*
X472226Y318483D01*
X472122Y318483D01*
X472017Y318487D01*
X471912Y318495D01*
X471808Y318507D01*
X471704Y318523D01*
X471601Y318543D01*
X471499Y318567D01*
X471397Y318594D01*
X471297Y318625D01*
X471198Y318660D01*
X471101Y318699D01*
X471005Y318742D01*
X470910Y318788D01*
X470818Y318837D01*
X470727Y318890D01*
X470639Y318947D01*
X470553Y319006D01*
X470469Y319069D01*
X470387Y319136D01*
X470308Y319205D01*
X470232Y319277D01*
X470158Y319352D01*
X470088Y319429D01*
X470020Y319510D01*
X469956Y319592D01*
X469894Y319677D01*
X469836Y319765D01*
X469781Y319854D01*
X469730Y319946D01*
X469682Y320039D01*
X469638Y320135D01*
X469597Y320231D01*
X469560Y320330D01*
X469527Y320429D01*
X469498Y320530D01*
X469472Y320632D01*
X469451Y320734D01*
X469433Y320838D01*
X469419Y320942D01*
X469409Y321046D01*
X469403Y321151D01*
X469401Y321256D01*
D10*
X476198Y233916D02*
X480011Y233916D01*
X478105Y233916D02*
X478105Y245356D01*
X480011Y245356D02*
X476198Y245356D01*
X489714Y245356D02*
X491620Y243449D01*
X489714Y245356D02*
X485901Y245356D01*
X483994Y243449D01*
X483994Y235823D01*
X485901Y233916D01*
X489714Y233916D01*
X491620Y235823D01*
X495688Y233916D02*
X503314Y233916D01*
X495688Y233916D02*
X503314Y241543D01*
X503314Y243449D01*
X501408Y245356D01*
X497595Y245356D01*
X495688Y243449D01*
D13*
X204435Y251000D02*
X204435Y328500D01*
X204435Y251000D02*
X247935Y251000D01*
X247935Y328500D01*
X204435Y328500D01*
X208720Y321256D02*
X208722Y321361D01*
X208728Y321466D01*
X208738Y321570D01*
X208752Y321674D01*
X208770Y321778D01*
X208791Y321880D01*
X208817Y321982D01*
X208846Y322083D01*
X208879Y322182D01*
X208916Y322281D01*
X208957Y322377D01*
X209001Y322473D01*
X209049Y322566D01*
X209100Y322658D01*
X209155Y322747D01*
X209213Y322835D01*
X209275Y322920D01*
X209339Y323002D01*
X209407Y323083D01*
X209477Y323160D01*
X209551Y323235D01*
X209627Y323307D01*
X209706Y323376D01*
X209788Y323443D01*
X209872Y323506D01*
X209958Y323565D01*
X210046Y323622D01*
X210137Y323675D01*
X210229Y323724D01*
X210324Y323770D01*
X210420Y323813D01*
X210517Y323852D01*
X210616Y323887D01*
X210716Y323918D01*
X210818Y323945D01*
X210920Y323969D01*
X211023Y323989D01*
X211127Y324005D01*
X211231Y324017D01*
X211336Y324025D01*
X211441Y324029D01*
X211545Y324029D01*
X211650Y324025D01*
X211755Y324017D01*
X211859Y324005D01*
X211963Y323989D01*
X212066Y323969D01*
X212168Y323945D01*
X212270Y323918D01*
X212370Y323887D01*
X212469Y323852D01*
X212566Y323813D01*
X212662Y323770D01*
X212757Y323724D01*
X212849Y323675D01*
X212940Y323622D01*
X213028Y323565D01*
X213114Y323506D01*
X213198Y323443D01*
X213280Y323376D01*
X213359Y323307D01*
X213435Y323235D01*
X213509Y323160D01*
X213579Y323083D01*
X213647Y323002D01*
X213711Y322920D01*
X213773Y322835D01*
X213831Y322747D01*
X213886Y322658D01*
X213937Y322566D01*
X213985Y322473D01*
X214029Y322377D01*
X214070Y322281D01*
X214107Y322182D01*
X214140Y322083D01*
X214169Y321982D01*
X214195Y321880D01*
X214216Y321778D01*
X214234Y321674D01*
X214248Y321570D01*
X214258Y321466D01*
X214264Y321361D01*
X214266Y321256D01*
X214264Y321151D01*
X214258Y321046D01*
X214248Y320942D01*
X214234Y320838D01*
X214216Y320734D01*
X214195Y320632D01*
X214169Y320530D01*
X214140Y320429D01*
X214107Y320330D01*
X214070Y320231D01*
X214029Y320135D01*
X213985Y320039D01*
X213937Y319946D01*
X213886Y319854D01*
X213831Y319765D01*
X213773Y319677D01*
X213711Y319592D01*
X213647Y319510D01*
X213579Y319429D01*
X213509Y319352D01*
X213435Y319277D01*
X213359Y319205D01*
X213280Y319136D01*
X213198Y319069D01*
X213114Y319006D01*
X213028Y318947D01*
X212940Y318890D01*
X212849Y318837D01*
X212757Y318788D01*
X212662Y318742D01*
X212566Y318699D01*
X212469Y318660D01*
X212370Y318625D01*
X212270Y318594D01*
X212168Y318567D01*
X212066Y318543D01*
X211963Y318523D01*
X211859Y318507D01*
X211755Y318495D01*
X211650Y318487D01*
X211545Y318483D01*
X211441Y318483D01*
X211336Y318487D01*
X211231Y318495D01*
X211127Y318507D01*
X211023Y318523D01*
X210920Y318543D01*
X210818Y318567D01*
X210716Y318594D01*
X210616Y318625D01*
X210517Y318660D01*
X210420Y318699D01*
X210324Y318742D01*
X210229Y318788D01*
X210137Y318837D01*
X210046Y318890D01*
X209958Y318947D01*
X209872Y319006D01*
X209788Y319069D01*
X209706Y319136D01*
X209627Y319205D01*
X209551Y319277D01*
X209477Y319352D01*
X209407Y319429D01*
X209339Y319510D01*
X209275Y319592D01*
X209213Y319677D01*
X209155Y319765D01*
X209100Y319854D01*
X209049Y319946D01*
X209001Y320039D01*
X208957Y320135D01*
X208916Y320231D01*
X208879Y320330D01*
X208846Y320429D01*
X208817Y320530D01*
X208791Y320632D01*
X208770Y320734D01*
X208752Y320838D01*
X208738Y320942D01*
X208728Y321046D01*
X208722Y321151D01*
X208720Y321256D01*
D10*
X215517Y233916D02*
X219330Y233916D01*
X217424Y233916D02*
X217424Y245356D01*
X219330Y245356D02*
X215517Y245356D01*
X229033Y245356D02*
X230939Y243449D01*
X229033Y245356D02*
X225220Y245356D01*
X223313Y243449D01*
X223313Y235823D01*
X225220Y233916D01*
X229033Y233916D01*
X230939Y235823D01*
X235007Y243449D02*
X236914Y245356D01*
X240727Y245356D01*
X242633Y243449D01*
X242633Y241543D01*
X240727Y239636D01*
X238820Y239636D01*
X240727Y239636D02*
X242633Y237729D01*
X242633Y235823D01*
X240727Y233916D01*
X236914Y233916D01*
X235007Y235823D01*
D13*
X730885Y354330D02*
X730885Y382270D01*
X713105Y384810D02*
X713005Y384808D01*
X712906Y384802D01*
X712806Y384792D01*
X712708Y384779D01*
X712609Y384761D01*
X712512Y384740D01*
X712416Y384715D01*
X712320Y384686D01*
X712226Y384653D01*
X712133Y384617D01*
X712042Y384577D01*
X711952Y384533D01*
X711864Y384486D01*
X711778Y384436D01*
X711694Y384382D01*
X711612Y384325D01*
X711533Y384265D01*
X711455Y384201D01*
X711381Y384135D01*
X711309Y384066D01*
X711240Y383994D01*
X711174Y383920D01*
X711110Y383842D01*
X711050Y383763D01*
X710993Y383681D01*
X710939Y383597D01*
X710889Y383511D01*
X710842Y383423D01*
X710798Y383333D01*
X710758Y383242D01*
X710722Y383149D01*
X710689Y383055D01*
X710660Y382959D01*
X710635Y382863D01*
X710614Y382766D01*
X710596Y382667D01*
X710583Y382569D01*
X710573Y382469D01*
X710567Y382370D01*
X710565Y382270D01*
X710565Y354330D02*
X710567Y354230D01*
X710573Y354131D01*
X710583Y354031D01*
X710596Y353933D01*
X710614Y353834D01*
X710635Y353737D01*
X710660Y353641D01*
X710689Y353545D01*
X710722Y353451D01*
X710758Y353358D01*
X710798Y353267D01*
X710842Y353177D01*
X710889Y353089D01*
X710939Y353003D01*
X710993Y352919D01*
X711050Y352837D01*
X711110Y352758D01*
X711174Y352680D01*
X711240Y352606D01*
X711309Y352534D01*
X711381Y352465D01*
X711455Y352399D01*
X711533Y352335D01*
X711612Y352275D01*
X711694Y352218D01*
X711778Y352164D01*
X711864Y352114D01*
X711952Y352067D01*
X712042Y352023D01*
X712133Y351983D01*
X712226Y351947D01*
X712320Y351914D01*
X712416Y351885D01*
X712512Y351860D01*
X712609Y351839D01*
X712708Y351821D01*
X712806Y351808D01*
X712906Y351798D01*
X713005Y351792D01*
X713105Y351790D01*
X728345Y351790D02*
X728445Y351792D01*
X728544Y351798D01*
X728644Y351808D01*
X728742Y351821D01*
X728841Y351839D01*
X728938Y351860D01*
X729034Y351885D01*
X729130Y351914D01*
X729224Y351947D01*
X729317Y351983D01*
X729408Y352023D01*
X729498Y352067D01*
X729586Y352114D01*
X729672Y352164D01*
X729756Y352218D01*
X729838Y352275D01*
X729917Y352335D01*
X729995Y352399D01*
X730069Y352465D01*
X730141Y352534D01*
X730210Y352606D01*
X730276Y352680D01*
X730340Y352758D01*
X730400Y352837D01*
X730457Y352919D01*
X730511Y353003D01*
X730561Y353089D01*
X730608Y353177D01*
X730652Y353267D01*
X730692Y353358D01*
X730728Y353451D01*
X730761Y353545D01*
X730790Y353641D01*
X730815Y353737D01*
X730836Y353834D01*
X730854Y353933D01*
X730867Y354031D01*
X730877Y354131D01*
X730883Y354230D01*
X730885Y354330D01*
X730885Y382270D02*
X730883Y382370D01*
X730877Y382469D01*
X730867Y382569D01*
X730854Y382667D01*
X730836Y382766D01*
X730815Y382863D01*
X730790Y382959D01*
X730761Y383055D01*
X730728Y383149D01*
X730692Y383242D01*
X730652Y383333D01*
X730608Y383423D01*
X730561Y383511D01*
X730511Y383597D01*
X730457Y383681D01*
X730400Y383763D01*
X730340Y383842D01*
X730276Y383920D01*
X730210Y383994D01*
X730141Y384066D01*
X730069Y384135D01*
X729995Y384201D01*
X729917Y384265D01*
X729838Y384325D01*
X729756Y384382D01*
X729672Y384436D01*
X729586Y384486D01*
X729498Y384533D01*
X729408Y384577D01*
X729317Y384617D01*
X729224Y384653D01*
X729130Y384686D01*
X729034Y384715D01*
X728938Y384740D01*
X728841Y384761D01*
X728742Y384779D01*
X728644Y384792D01*
X728544Y384802D01*
X728445Y384808D01*
X728345Y384810D01*
X713105Y384810D01*
X713105Y351790D02*
X728345Y351790D01*
X710565Y354330D02*
X710565Y382270D01*
D10*
X619752Y375927D02*
X617845Y374020D01*
X617845Y370207D01*
X619752Y368300D01*
X621659Y368300D01*
X623565Y370207D01*
X623565Y374020D01*
X625472Y375927D01*
X627378Y375927D01*
X629285Y374020D01*
X629285Y370207D01*
X627378Y368300D01*
X627378Y379994D02*
X629285Y381901D01*
X629285Y383807D01*
X627378Y385714D01*
X617845Y385714D01*
X617845Y387620D02*
X617845Y383807D01*
X621659Y391688D02*
X617845Y395501D01*
X629285Y395501D01*
X629285Y391688D02*
X629285Y399314D01*
D13*
X680085Y382270D02*
X680085Y354330D01*
X659765Y382270D02*
X659767Y382370D01*
X659773Y382469D01*
X659783Y382569D01*
X659796Y382667D01*
X659814Y382766D01*
X659835Y382863D01*
X659860Y382959D01*
X659889Y383055D01*
X659922Y383149D01*
X659958Y383242D01*
X659998Y383333D01*
X660042Y383423D01*
X660089Y383511D01*
X660139Y383597D01*
X660193Y383681D01*
X660250Y383763D01*
X660310Y383842D01*
X660374Y383920D01*
X660440Y383994D01*
X660509Y384066D01*
X660581Y384135D01*
X660655Y384201D01*
X660733Y384265D01*
X660812Y384325D01*
X660894Y384382D01*
X660978Y384436D01*
X661064Y384486D01*
X661152Y384533D01*
X661242Y384577D01*
X661333Y384617D01*
X661426Y384653D01*
X661520Y384686D01*
X661616Y384715D01*
X661712Y384740D01*
X661809Y384761D01*
X661908Y384779D01*
X662006Y384792D01*
X662106Y384802D01*
X662205Y384808D01*
X662305Y384810D01*
X659765Y354330D02*
X659767Y354230D01*
X659773Y354131D01*
X659783Y354031D01*
X659796Y353933D01*
X659814Y353834D01*
X659835Y353737D01*
X659860Y353641D01*
X659889Y353545D01*
X659922Y353451D01*
X659958Y353358D01*
X659998Y353267D01*
X660042Y353177D01*
X660089Y353089D01*
X660139Y353003D01*
X660193Y352919D01*
X660250Y352837D01*
X660310Y352758D01*
X660374Y352680D01*
X660440Y352606D01*
X660509Y352534D01*
X660581Y352465D01*
X660655Y352399D01*
X660733Y352335D01*
X660812Y352275D01*
X660894Y352218D01*
X660978Y352164D01*
X661064Y352114D01*
X661152Y352067D01*
X661242Y352023D01*
X661333Y351983D01*
X661426Y351947D01*
X661520Y351914D01*
X661616Y351885D01*
X661712Y351860D01*
X661809Y351839D01*
X661908Y351821D01*
X662006Y351808D01*
X662106Y351798D01*
X662205Y351792D01*
X662305Y351790D01*
X677545Y351790D02*
X677645Y351792D01*
X677744Y351798D01*
X677844Y351808D01*
X677942Y351821D01*
X678041Y351839D01*
X678138Y351860D01*
X678234Y351885D01*
X678330Y351914D01*
X678424Y351947D01*
X678517Y351983D01*
X678608Y352023D01*
X678698Y352067D01*
X678786Y352114D01*
X678872Y352164D01*
X678956Y352218D01*
X679038Y352275D01*
X679117Y352335D01*
X679195Y352399D01*
X679269Y352465D01*
X679341Y352534D01*
X679410Y352606D01*
X679476Y352680D01*
X679540Y352758D01*
X679600Y352837D01*
X679657Y352919D01*
X679711Y353003D01*
X679761Y353089D01*
X679808Y353177D01*
X679852Y353267D01*
X679892Y353358D01*
X679928Y353451D01*
X679961Y353545D01*
X679990Y353641D01*
X680015Y353737D01*
X680036Y353834D01*
X680054Y353933D01*
X680067Y354031D01*
X680077Y354131D01*
X680083Y354230D01*
X680085Y354330D01*
X680085Y382270D02*
X680083Y382370D01*
X680077Y382469D01*
X680067Y382569D01*
X680054Y382667D01*
X680036Y382766D01*
X680015Y382863D01*
X679990Y382959D01*
X679961Y383055D01*
X679928Y383149D01*
X679892Y383242D01*
X679852Y383333D01*
X679808Y383423D01*
X679761Y383511D01*
X679711Y383597D01*
X679657Y383681D01*
X679600Y383763D01*
X679540Y383842D01*
X679476Y383920D01*
X679410Y383994D01*
X679341Y384066D01*
X679269Y384135D01*
X679195Y384201D01*
X679117Y384265D01*
X679038Y384325D01*
X678956Y384382D01*
X678872Y384436D01*
X678786Y384486D01*
X678698Y384533D01*
X678608Y384577D01*
X678517Y384617D01*
X678424Y384653D01*
X678330Y384686D01*
X678234Y384715D01*
X678138Y384740D01*
X678041Y384761D01*
X677942Y384779D01*
X677844Y384792D01*
X677744Y384802D01*
X677645Y384808D01*
X677545Y384810D01*
X662305Y384810D01*
X662305Y351790D02*
X677545Y351790D01*
X659765Y354330D02*
X659765Y382270D01*
D10*
X588002Y375927D02*
X586095Y374020D01*
X586095Y370207D01*
X588002Y368300D01*
X589909Y368300D01*
X591815Y370207D01*
X591815Y374020D01*
X593722Y375927D01*
X595628Y375927D01*
X597535Y374020D01*
X597535Y370207D01*
X595628Y368300D01*
X595628Y379994D02*
X597535Y381901D01*
X597535Y383807D01*
X595628Y385714D01*
X586095Y385714D01*
X586095Y387620D02*
X586095Y383807D01*
X597535Y391688D02*
X597535Y399314D01*
X597535Y391688D02*
X589909Y399314D01*
X588002Y399314D01*
X586095Y397408D01*
X586095Y393595D01*
X588002Y391688D01*
D13*
X705485Y382270D02*
X705485Y354330D01*
X685165Y382270D02*
X685167Y382370D01*
X685173Y382469D01*
X685183Y382569D01*
X685196Y382667D01*
X685214Y382766D01*
X685235Y382863D01*
X685260Y382959D01*
X685289Y383055D01*
X685322Y383149D01*
X685358Y383242D01*
X685398Y383333D01*
X685442Y383423D01*
X685489Y383511D01*
X685539Y383597D01*
X685593Y383681D01*
X685650Y383763D01*
X685710Y383842D01*
X685774Y383920D01*
X685840Y383994D01*
X685909Y384066D01*
X685981Y384135D01*
X686055Y384201D01*
X686133Y384265D01*
X686212Y384325D01*
X686294Y384382D01*
X686378Y384436D01*
X686464Y384486D01*
X686552Y384533D01*
X686642Y384577D01*
X686733Y384617D01*
X686826Y384653D01*
X686920Y384686D01*
X687016Y384715D01*
X687112Y384740D01*
X687209Y384761D01*
X687308Y384779D01*
X687406Y384792D01*
X687506Y384802D01*
X687605Y384808D01*
X687705Y384810D01*
X685165Y354330D02*
X685167Y354230D01*
X685173Y354131D01*
X685183Y354031D01*
X685196Y353933D01*
X685214Y353834D01*
X685235Y353737D01*
X685260Y353641D01*
X685289Y353545D01*
X685322Y353451D01*
X685358Y353358D01*
X685398Y353267D01*
X685442Y353177D01*
X685489Y353089D01*
X685539Y353003D01*
X685593Y352919D01*
X685650Y352837D01*
X685710Y352758D01*
X685774Y352680D01*
X685840Y352606D01*
X685909Y352534D01*
X685981Y352465D01*
X686055Y352399D01*
X686133Y352335D01*
X686212Y352275D01*
X686294Y352218D01*
X686378Y352164D01*
X686464Y352114D01*
X686552Y352067D01*
X686642Y352023D01*
X686733Y351983D01*
X686826Y351947D01*
X686920Y351914D01*
X687016Y351885D01*
X687112Y351860D01*
X687209Y351839D01*
X687308Y351821D01*
X687406Y351808D01*
X687506Y351798D01*
X687605Y351792D01*
X687705Y351790D01*
X702945Y351790D02*
X703045Y351792D01*
X703144Y351798D01*
X703244Y351808D01*
X703342Y351821D01*
X703441Y351839D01*
X703538Y351860D01*
X703634Y351885D01*
X703730Y351914D01*
X703824Y351947D01*
X703917Y351983D01*
X704008Y352023D01*
X704098Y352067D01*
X704186Y352114D01*
X704272Y352164D01*
X704356Y352218D01*
X704438Y352275D01*
X704517Y352335D01*
X704595Y352399D01*
X704669Y352465D01*
X704741Y352534D01*
X704810Y352606D01*
X704876Y352680D01*
X704940Y352758D01*
X705000Y352837D01*
X705057Y352919D01*
X705111Y353003D01*
X705161Y353089D01*
X705208Y353177D01*
X705252Y353267D01*
X705292Y353358D01*
X705328Y353451D01*
X705361Y353545D01*
X705390Y353641D01*
X705415Y353737D01*
X705436Y353834D01*
X705454Y353933D01*
X705467Y354031D01*
X705477Y354131D01*
X705483Y354230D01*
X705485Y354330D01*
X705485Y382270D02*
X705483Y382370D01*
X705477Y382469D01*
X705467Y382569D01*
X705454Y382667D01*
X705436Y382766D01*
X705415Y382863D01*
X705390Y382959D01*
X705361Y383055D01*
X705328Y383149D01*
X705292Y383242D01*
X705252Y383333D01*
X705208Y383423D01*
X705161Y383511D01*
X705111Y383597D01*
X705057Y383681D01*
X705000Y383763D01*
X704940Y383842D01*
X704876Y383920D01*
X704810Y383994D01*
X704741Y384066D01*
X704669Y384135D01*
X704595Y384201D01*
X704517Y384265D01*
X704438Y384325D01*
X704356Y384382D01*
X704272Y384436D01*
X704186Y384486D01*
X704098Y384533D01*
X704008Y384577D01*
X703917Y384617D01*
X703824Y384653D01*
X703730Y384686D01*
X703634Y384715D01*
X703538Y384740D01*
X703441Y384761D01*
X703342Y384779D01*
X703244Y384792D01*
X703144Y384802D01*
X703045Y384808D01*
X702945Y384810D01*
X687705Y384810D01*
X687705Y351790D02*
X702945Y351790D01*
X685165Y354330D02*
X685165Y382270D01*
D10*
X603877Y375927D02*
X601970Y374020D01*
X601970Y370207D01*
X603877Y368300D01*
X605784Y368300D01*
X607690Y370207D01*
X607690Y374020D01*
X609597Y375927D01*
X611503Y375927D01*
X613410Y374020D01*
X613410Y370207D01*
X611503Y368300D01*
X611503Y379994D02*
X613410Y381901D01*
X613410Y383807D01*
X611503Y385714D01*
X601970Y385714D01*
X601970Y387620D02*
X601970Y383807D01*
X603877Y391688D02*
X601970Y393595D01*
X601970Y397408D01*
X603877Y399314D01*
X605784Y399314D01*
X607690Y397408D01*
X607690Y395501D01*
X607690Y397408D02*
X609597Y399314D01*
X611503Y399314D01*
X613410Y397408D01*
X613410Y393595D01*
X611503Y391688D01*
D13*
X654685Y382270D02*
X654685Y354330D01*
X634365Y382270D02*
X634367Y382370D01*
X634373Y382469D01*
X634383Y382569D01*
X634396Y382667D01*
X634414Y382766D01*
X634435Y382863D01*
X634460Y382959D01*
X634489Y383055D01*
X634522Y383149D01*
X634558Y383242D01*
X634598Y383333D01*
X634642Y383423D01*
X634689Y383511D01*
X634739Y383597D01*
X634793Y383681D01*
X634850Y383763D01*
X634910Y383842D01*
X634974Y383920D01*
X635040Y383994D01*
X635109Y384066D01*
X635181Y384135D01*
X635255Y384201D01*
X635333Y384265D01*
X635412Y384325D01*
X635494Y384382D01*
X635578Y384436D01*
X635664Y384486D01*
X635752Y384533D01*
X635842Y384577D01*
X635933Y384617D01*
X636026Y384653D01*
X636120Y384686D01*
X636216Y384715D01*
X636312Y384740D01*
X636409Y384761D01*
X636508Y384779D01*
X636606Y384792D01*
X636706Y384802D01*
X636805Y384808D01*
X636905Y384810D01*
X634365Y354330D02*
X634367Y354230D01*
X634373Y354131D01*
X634383Y354031D01*
X634396Y353933D01*
X634414Y353834D01*
X634435Y353737D01*
X634460Y353641D01*
X634489Y353545D01*
X634522Y353451D01*
X634558Y353358D01*
X634598Y353267D01*
X634642Y353177D01*
X634689Y353089D01*
X634739Y353003D01*
X634793Y352919D01*
X634850Y352837D01*
X634910Y352758D01*
X634974Y352680D01*
X635040Y352606D01*
X635109Y352534D01*
X635181Y352465D01*
X635255Y352399D01*
X635333Y352335D01*
X635412Y352275D01*
X635494Y352218D01*
X635578Y352164D01*
X635664Y352114D01*
X635752Y352067D01*
X635842Y352023D01*
X635933Y351983D01*
X636026Y351947D01*
X636120Y351914D01*
X636216Y351885D01*
X636312Y351860D01*
X636409Y351839D01*
X636508Y351821D01*
X636606Y351808D01*
X636706Y351798D01*
X636805Y351792D01*
X636905Y351790D01*
X652145Y351790D02*
X652245Y351792D01*
X652344Y351798D01*
X652444Y351808D01*
X652542Y351821D01*
X652641Y351839D01*
X652738Y351860D01*
X652834Y351885D01*
X652930Y351914D01*
X653024Y351947D01*
X653117Y351983D01*
X653208Y352023D01*
X653298Y352067D01*
X653386Y352114D01*
X653472Y352164D01*
X653556Y352218D01*
X653638Y352275D01*
X653717Y352335D01*
X653795Y352399D01*
X653869Y352465D01*
X653941Y352534D01*
X654010Y352606D01*
X654076Y352680D01*
X654140Y352758D01*
X654200Y352837D01*
X654257Y352919D01*
X654311Y353003D01*
X654361Y353089D01*
X654408Y353177D01*
X654452Y353267D01*
X654492Y353358D01*
X654528Y353451D01*
X654561Y353545D01*
X654590Y353641D01*
X654615Y353737D01*
X654636Y353834D01*
X654654Y353933D01*
X654667Y354031D01*
X654677Y354131D01*
X654683Y354230D01*
X654685Y354330D01*
X654685Y382270D02*
X654683Y382370D01*
X654677Y382469D01*
X654667Y382569D01*
X654654Y382667D01*
X654636Y382766D01*
X654615Y382863D01*
X654590Y382959D01*
X654561Y383055D01*
X654528Y383149D01*
X654492Y383242D01*
X654452Y383333D01*
X654408Y383423D01*
X654361Y383511D01*
X654311Y383597D01*
X654257Y383681D01*
X654200Y383763D01*
X654140Y383842D01*
X654076Y383920D01*
X654010Y383994D01*
X653941Y384066D01*
X653869Y384135D01*
X653795Y384201D01*
X653717Y384265D01*
X653638Y384325D01*
X653556Y384382D01*
X653472Y384436D01*
X653386Y384486D01*
X653298Y384533D01*
X653208Y384577D01*
X653117Y384617D01*
X653024Y384653D01*
X652930Y384686D01*
X652834Y384715D01*
X652738Y384740D01*
X652641Y384761D01*
X652542Y384779D01*
X652444Y384792D01*
X652344Y384802D01*
X652245Y384808D01*
X652145Y384810D01*
X636905Y384810D01*
X636905Y351790D02*
X652145Y351790D01*
X634365Y354330D02*
X634365Y382270D01*
D10*
X572127Y375927D02*
X570220Y374020D01*
X570220Y370207D01*
X572127Y368300D01*
X574034Y368300D01*
X575940Y370207D01*
X575940Y374020D01*
X577847Y375927D01*
X579753Y375927D01*
X581660Y374020D01*
X581660Y370207D01*
X579753Y368300D01*
X579753Y379994D02*
X581660Y381901D01*
X581660Y383807D01*
X579753Y385714D01*
X570220Y385714D01*
X570220Y387620D02*
X570220Y383807D01*
X570220Y397408D02*
X581660Y397408D01*
X575940Y391688D02*
X570220Y397408D01*
X575940Y399314D02*
X575940Y391688D01*
D13*
X562610Y382270D02*
X562610Y354330D01*
X542290Y382270D02*
X542292Y382370D01*
X542298Y382469D01*
X542308Y382569D01*
X542321Y382667D01*
X542339Y382766D01*
X542360Y382863D01*
X542385Y382959D01*
X542414Y383055D01*
X542447Y383149D01*
X542483Y383242D01*
X542523Y383333D01*
X542567Y383423D01*
X542614Y383511D01*
X542664Y383597D01*
X542718Y383681D01*
X542775Y383763D01*
X542835Y383842D01*
X542899Y383920D01*
X542965Y383994D01*
X543034Y384066D01*
X543106Y384135D01*
X543180Y384201D01*
X543258Y384265D01*
X543337Y384325D01*
X543419Y384382D01*
X543503Y384436D01*
X543589Y384486D01*
X543677Y384533D01*
X543767Y384577D01*
X543858Y384617D01*
X543951Y384653D01*
X544045Y384686D01*
X544141Y384715D01*
X544237Y384740D01*
X544334Y384761D01*
X544433Y384779D01*
X544531Y384792D01*
X544631Y384802D01*
X544730Y384808D01*
X544830Y384810D01*
X542290Y354330D02*
X542292Y354230D01*
X542298Y354131D01*
X542308Y354031D01*
X542321Y353933D01*
X542339Y353834D01*
X542360Y353737D01*
X542385Y353641D01*
X542414Y353545D01*
X542447Y353451D01*
X542483Y353358D01*
X542523Y353267D01*
X542567Y353177D01*
X542614Y353089D01*
X542664Y353003D01*
X542718Y352919D01*
X542775Y352837D01*
X542835Y352758D01*
X542899Y352680D01*
X542965Y352606D01*
X543034Y352534D01*
X543106Y352465D01*
X543180Y352399D01*
X543258Y352335D01*
X543337Y352275D01*
X543419Y352218D01*
X543503Y352164D01*
X543589Y352114D01*
X543677Y352067D01*
X543767Y352023D01*
X543858Y351983D01*
X543951Y351947D01*
X544045Y351914D01*
X544141Y351885D01*
X544237Y351860D01*
X544334Y351839D01*
X544433Y351821D01*
X544531Y351808D01*
X544631Y351798D01*
X544730Y351792D01*
X544830Y351790D01*
X560070Y351790D02*
X560170Y351792D01*
X560269Y351798D01*
X560369Y351808D01*
X560467Y351821D01*
X560566Y351839D01*
X560663Y351860D01*
X560759Y351885D01*
X560855Y351914D01*
X560949Y351947D01*
X561042Y351983D01*
X561133Y352023D01*
X561223Y352067D01*
X561311Y352114D01*
X561397Y352164D01*
X561481Y352218D01*
X561563Y352275D01*
X561642Y352335D01*
X561720Y352399D01*
X561794Y352465D01*
X561866Y352534D01*
X561935Y352606D01*
X562001Y352680D01*
X562065Y352758D01*
X562125Y352837D01*
X562182Y352919D01*
X562236Y353003D01*
X562286Y353089D01*
X562333Y353177D01*
X562377Y353267D01*
X562417Y353358D01*
X562453Y353451D01*
X562486Y353545D01*
X562515Y353641D01*
X562540Y353737D01*
X562561Y353834D01*
X562579Y353933D01*
X562592Y354031D01*
X562602Y354131D01*
X562608Y354230D01*
X562610Y354330D01*
X562610Y382270D02*
X562608Y382370D01*
X562602Y382469D01*
X562592Y382569D01*
X562579Y382667D01*
X562561Y382766D01*
X562540Y382863D01*
X562515Y382959D01*
X562486Y383055D01*
X562453Y383149D01*
X562417Y383242D01*
X562377Y383333D01*
X562333Y383423D01*
X562286Y383511D01*
X562236Y383597D01*
X562182Y383681D01*
X562125Y383763D01*
X562065Y383842D01*
X562001Y383920D01*
X561935Y383994D01*
X561866Y384066D01*
X561794Y384135D01*
X561720Y384201D01*
X561642Y384265D01*
X561563Y384325D01*
X561481Y384382D01*
X561397Y384436D01*
X561311Y384486D01*
X561223Y384533D01*
X561133Y384577D01*
X561042Y384617D01*
X560949Y384653D01*
X560855Y384686D01*
X560759Y384715D01*
X560663Y384740D01*
X560566Y384761D01*
X560467Y384779D01*
X560369Y384792D01*
X560269Y384802D01*
X560170Y384808D01*
X560070Y384810D01*
X544830Y384810D01*
X544830Y351790D02*
X560070Y351790D01*
X542290Y354330D02*
X542290Y382270D01*
D10*
X527677Y360052D02*
X525770Y358145D01*
X525770Y354332D01*
X527677Y352425D01*
X529584Y352425D01*
X531490Y354332D01*
X531490Y358145D01*
X533397Y360052D01*
X535303Y360052D01*
X537210Y358145D01*
X537210Y354332D01*
X535303Y352425D01*
X535303Y364119D02*
X537210Y366026D01*
X537210Y367932D01*
X535303Y369839D01*
X525770Y369839D01*
X525770Y371745D02*
X525770Y367932D01*
X525770Y375813D02*
X525770Y383439D01*
X527677Y383439D01*
X535303Y375813D01*
X537210Y375813D01*
D13*
X454660Y382270D02*
X454660Y354330D01*
X434340Y382270D02*
X434342Y382370D01*
X434348Y382469D01*
X434358Y382569D01*
X434371Y382667D01*
X434389Y382766D01*
X434410Y382863D01*
X434435Y382959D01*
X434464Y383055D01*
X434497Y383149D01*
X434533Y383242D01*
X434573Y383333D01*
X434617Y383423D01*
X434664Y383511D01*
X434714Y383597D01*
X434768Y383681D01*
X434825Y383763D01*
X434885Y383842D01*
X434949Y383920D01*
X435015Y383994D01*
X435084Y384066D01*
X435156Y384135D01*
X435230Y384201D01*
X435308Y384265D01*
X435387Y384325D01*
X435469Y384382D01*
X435553Y384436D01*
X435639Y384486D01*
X435727Y384533D01*
X435817Y384577D01*
X435908Y384617D01*
X436001Y384653D01*
X436095Y384686D01*
X436191Y384715D01*
X436287Y384740D01*
X436384Y384761D01*
X436483Y384779D01*
X436581Y384792D01*
X436681Y384802D01*
X436780Y384808D01*
X436880Y384810D01*
X434340Y354330D02*
X434342Y354230D01*
X434348Y354131D01*
X434358Y354031D01*
X434371Y353933D01*
X434389Y353834D01*
X434410Y353737D01*
X434435Y353641D01*
X434464Y353545D01*
X434497Y353451D01*
X434533Y353358D01*
X434573Y353267D01*
X434617Y353177D01*
X434664Y353089D01*
X434714Y353003D01*
X434768Y352919D01*
X434825Y352837D01*
X434885Y352758D01*
X434949Y352680D01*
X435015Y352606D01*
X435084Y352534D01*
X435156Y352465D01*
X435230Y352399D01*
X435308Y352335D01*
X435387Y352275D01*
X435469Y352218D01*
X435553Y352164D01*
X435639Y352114D01*
X435727Y352067D01*
X435817Y352023D01*
X435908Y351983D01*
X436001Y351947D01*
X436095Y351914D01*
X436191Y351885D01*
X436287Y351860D01*
X436384Y351839D01*
X436483Y351821D01*
X436581Y351808D01*
X436681Y351798D01*
X436780Y351792D01*
X436880Y351790D01*
X452120Y351790D02*
X452220Y351792D01*
X452319Y351798D01*
X452419Y351808D01*
X452517Y351821D01*
X452616Y351839D01*
X452713Y351860D01*
X452809Y351885D01*
X452905Y351914D01*
X452999Y351947D01*
X453092Y351983D01*
X453183Y352023D01*
X453273Y352067D01*
X453361Y352114D01*
X453447Y352164D01*
X453531Y352218D01*
X453613Y352275D01*
X453692Y352335D01*
X453770Y352399D01*
X453844Y352465D01*
X453916Y352534D01*
X453985Y352606D01*
X454051Y352680D01*
X454115Y352758D01*
X454175Y352837D01*
X454232Y352919D01*
X454286Y353003D01*
X454336Y353089D01*
X454383Y353177D01*
X454427Y353267D01*
X454467Y353358D01*
X454503Y353451D01*
X454536Y353545D01*
X454565Y353641D01*
X454590Y353737D01*
X454611Y353834D01*
X454629Y353933D01*
X454642Y354031D01*
X454652Y354131D01*
X454658Y354230D01*
X454660Y354330D01*
X454660Y382270D02*
X454658Y382370D01*
X454652Y382469D01*
X454642Y382569D01*
X454629Y382667D01*
X454611Y382766D01*
X454590Y382863D01*
X454565Y382959D01*
X454536Y383055D01*
X454503Y383149D01*
X454467Y383242D01*
X454427Y383333D01*
X454383Y383423D01*
X454336Y383511D01*
X454286Y383597D01*
X454232Y383681D01*
X454175Y383763D01*
X454115Y383842D01*
X454051Y383920D01*
X453985Y383994D01*
X453916Y384066D01*
X453844Y384135D01*
X453770Y384201D01*
X453692Y384265D01*
X453613Y384325D01*
X453531Y384382D01*
X453447Y384436D01*
X453361Y384486D01*
X453273Y384533D01*
X453183Y384577D01*
X453092Y384617D01*
X452999Y384653D01*
X452905Y384686D01*
X452809Y384715D01*
X452713Y384740D01*
X452616Y384761D01*
X452517Y384779D01*
X452419Y384792D01*
X452319Y384802D01*
X452220Y384808D01*
X452120Y384810D01*
X436880Y384810D01*
X436880Y351790D02*
X452120Y351790D01*
X434340Y354330D02*
X434340Y382270D01*
D10*
X394327Y353702D02*
X392420Y351795D01*
X392420Y347982D01*
X394327Y346075D01*
X396234Y346075D01*
X398140Y347982D01*
X398140Y351795D01*
X400047Y353702D01*
X401953Y353702D01*
X403860Y351795D01*
X403860Y347982D01*
X401953Y346075D01*
X401953Y357769D02*
X403860Y359676D01*
X403860Y361582D01*
X401953Y363489D01*
X392420Y363489D01*
X392420Y365395D02*
X392420Y361582D01*
X394327Y369463D02*
X392420Y371370D01*
X392420Y375183D01*
X394327Y377089D01*
X396234Y377089D01*
X398140Y375183D01*
X400047Y377089D01*
X401953Y377089D01*
X403860Y375183D01*
X403860Y371370D01*
X401953Y369463D01*
X400047Y369463D01*
X398140Y371370D01*
X396234Y369463D01*
X394327Y369463D01*
X398140Y371370D02*
X398140Y375183D01*
D13*
X429260Y382270D02*
X429260Y354330D01*
X408940Y382270D02*
X408942Y382370D01*
X408948Y382469D01*
X408958Y382569D01*
X408971Y382667D01*
X408989Y382766D01*
X409010Y382863D01*
X409035Y382959D01*
X409064Y383055D01*
X409097Y383149D01*
X409133Y383242D01*
X409173Y383333D01*
X409217Y383423D01*
X409264Y383511D01*
X409314Y383597D01*
X409368Y383681D01*
X409425Y383763D01*
X409485Y383842D01*
X409549Y383920D01*
X409615Y383994D01*
X409684Y384066D01*
X409756Y384135D01*
X409830Y384201D01*
X409908Y384265D01*
X409987Y384325D01*
X410069Y384382D01*
X410153Y384436D01*
X410239Y384486D01*
X410327Y384533D01*
X410417Y384577D01*
X410508Y384617D01*
X410601Y384653D01*
X410695Y384686D01*
X410791Y384715D01*
X410887Y384740D01*
X410984Y384761D01*
X411083Y384779D01*
X411181Y384792D01*
X411281Y384802D01*
X411380Y384808D01*
X411480Y384810D01*
X408940Y354330D02*
X408942Y354230D01*
X408948Y354131D01*
X408958Y354031D01*
X408971Y353933D01*
X408989Y353834D01*
X409010Y353737D01*
X409035Y353641D01*
X409064Y353545D01*
X409097Y353451D01*
X409133Y353358D01*
X409173Y353267D01*
X409217Y353177D01*
X409264Y353089D01*
X409314Y353003D01*
X409368Y352919D01*
X409425Y352837D01*
X409485Y352758D01*
X409549Y352680D01*
X409615Y352606D01*
X409684Y352534D01*
X409756Y352465D01*
X409830Y352399D01*
X409908Y352335D01*
X409987Y352275D01*
X410069Y352218D01*
X410153Y352164D01*
X410239Y352114D01*
X410327Y352067D01*
X410417Y352023D01*
X410508Y351983D01*
X410601Y351947D01*
X410695Y351914D01*
X410791Y351885D01*
X410887Y351860D01*
X410984Y351839D01*
X411083Y351821D01*
X411181Y351808D01*
X411281Y351798D01*
X411380Y351792D01*
X411480Y351790D01*
X426720Y351790D02*
X426820Y351792D01*
X426919Y351798D01*
X427019Y351808D01*
X427117Y351821D01*
X427216Y351839D01*
X427313Y351860D01*
X427409Y351885D01*
X427505Y351914D01*
X427599Y351947D01*
X427692Y351983D01*
X427783Y352023D01*
X427873Y352067D01*
X427961Y352114D01*
X428047Y352164D01*
X428131Y352218D01*
X428213Y352275D01*
X428292Y352335D01*
X428370Y352399D01*
X428444Y352465D01*
X428516Y352534D01*
X428585Y352606D01*
X428651Y352680D01*
X428715Y352758D01*
X428775Y352837D01*
X428832Y352919D01*
X428886Y353003D01*
X428936Y353089D01*
X428983Y353177D01*
X429027Y353267D01*
X429067Y353358D01*
X429103Y353451D01*
X429136Y353545D01*
X429165Y353641D01*
X429190Y353737D01*
X429211Y353834D01*
X429229Y353933D01*
X429242Y354031D01*
X429252Y354131D01*
X429258Y354230D01*
X429260Y354330D01*
X429260Y382270D02*
X429258Y382370D01*
X429252Y382469D01*
X429242Y382569D01*
X429229Y382667D01*
X429211Y382766D01*
X429190Y382863D01*
X429165Y382959D01*
X429136Y383055D01*
X429103Y383149D01*
X429067Y383242D01*
X429027Y383333D01*
X428983Y383423D01*
X428936Y383511D01*
X428886Y383597D01*
X428832Y383681D01*
X428775Y383763D01*
X428715Y383842D01*
X428651Y383920D01*
X428585Y383994D01*
X428516Y384066D01*
X428444Y384135D01*
X428370Y384201D01*
X428292Y384265D01*
X428213Y384325D01*
X428131Y384382D01*
X428047Y384436D01*
X427961Y384486D01*
X427873Y384533D01*
X427783Y384577D01*
X427692Y384617D01*
X427599Y384653D01*
X427505Y384686D01*
X427409Y384715D01*
X427313Y384740D01*
X427216Y384761D01*
X427117Y384779D01*
X427019Y384792D01*
X426919Y384802D01*
X426820Y384808D01*
X426720Y384810D01*
X411480Y384810D01*
X411480Y351790D02*
X426720Y351790D01*
X408940Y354330D02*
X408940Y382270D01*
D10*
X378452Y353702D02*
X376545Y351795D01*
X376545Y347982D01*
X378452Y346075D01*
X380359Y346075D01*
X382265Y347982D01*
X382265Y351795D01*
X384172Y353702D01*
X386078Y353702D01*
X387985Y351795D01*
X387985Y347982D01*
X386078Y346075D01*
X386078Y357769D02*
X387985Y359676D01*
X387985Y361582D01*
X386078Y363489D01*
X376545Y363489D01*
X376545Y365395D02*
X376545Y361582D01*
X386078Y369463D02*
X387985Y371370D01*
X387985Y375183D01*
X386078Y377089D01*
X378452Y377089D01*
X376545Y375183D01*
X376545Y371370D01*
X378452Y369463D01*
X380359Y369463D01*
X382265Y371370D01*
X382265Y377089D01*
D13*
X302260Y382270D02*
X302260Y354330D01*
X281940Y382270D02*
X281942Y382370D01*
X281948Y382469D01*
X281958Y382569D01*
X281971Y382667D01*
X281989Y382766D01*
X282010Y382863D01*
X282035Y382959D01*
X282064Y383055D01*
X282097Y383149D01*
X282133Y383242D01*
X282173Y383333D01*
X282217Y383423D01*
X282264Y383511D01*
X282314Y383597D01*
X282368Y383681D01*
X282425Y383763D01*
X282485Y383842D01*
X282549Y383920D01*
X282615Y383994D01*
X282684Y384066D01*
X282756Y384135D01*
X282830Y384201D01*
X282908Y384265D01*
X282987Y384325D01*
X283069Y384382D01*
X283153Y384436D01*
X283239Y384486D01*
X283327Y384533D01*
X283417Y384577D01*
X283508Y384617D01*
X283601Y384653D01*
X283695Y384686D01*
X283791Y384715D01*
X283887Y384740D01*
X283984Y384761D01*
X284083Y384779D01*
X284181Y384792D01*
X284281Y384802D01*
X284380Y384808D01*
X284480Y384810D01*
X281940Y354330D02*
X281942Y354230D01*
X281948Y354131D01*
X281958Y354031D01*
X281971Y353933D01*
X281989Y353834D01*
X282010Y353737D01*
X282035Y353641D01*
X282064Y353545D01*
X282097Y353451D01*
X282133Y353358D01*
X282173Y353267D01*
X282217Y353177D01*
X282264Y353089D01*
X282314Y353003D01*
X282368Y352919D01*
X282425Y352837D01*
X282485Y352758D01*
X282549Y352680D01*
X282615Y352606D01*
X282684Y352534D01*
X282756Y352465D01*
X282830Y352399D01*
X282908Y352335D01*
X282987Y352275D01*
X283069Y352218D01*
X283153Y352164D01*
X283239Y352114D01*
X283327Y352067D01*
X283417Y352023D01*
X283508Y351983D01*
X283601Y351947D01*
X283695Y351914D01*
X283791Y351885D01*
X283887Y351860D01*
X283984Y351839D01*
X284083Y351821D01*
X284181Y351808D01*
X284281Y351798D01*
X284380Y351792D01*
X284480Y351790D01*
X299720Y351790D02*
X299820Y351792D01*
X299919Y351798D01*
X300019Y351808D01*
X300117Y351821D01*
X300216Y351839D01*
X300313Y351860D01*
X300409Y351885D01*
X300505Y351914D01*
X300599Y351947D01*
X300692Y351983D01*
X300783Y352023D01*
X300873Y352067D01*
X300961Y352114D01*
X301047Y352164D01*
X301131Y352218D01*
X301213Y352275D01*
X301292Y352335D01*
X301370Y352399D01*
X301444Y352465D01*
X301516Y352534D01*
X301585Y352606D01*
X301651Y352680D01*
X301715Y352758D01*
X301775Y352837D01*
X301832Y352919D01*
X301886Y353003D01*
X301936Y353089D01*
X301983Y353177D01*
X302027Y353267D01*
X302067Y353358D01*
X302103Y353451D01*
X302136Y353545D01*
X302165Y353641D01*
X302190Y353737D01*
X302211Y353834D01*
X302229Y353933D01*
X302242Y354031D01*
X302252Y354131D01*
X302258Y354230D01*
X302260Y354330D01*
X302260Y382270D02*
X302258Y382370D01*
X302252Y382469D01*
X302242Y382569D01*
X302229Y382667D01*
X302211Y382766D01*
X302190Y382863D01*
X302165Y382959D01*
X302136Y383055D01*
X302103Y383149D01*
X302067Y383242D01*
X302027Y383333D01*
X301983Y383423D01*
X301936Y383511D01*
X301886Y383597D01*
X301832Y383681D01*
X301775Y383763D01*
X301715Y383842D01*
X301651Y383920D01*
X301585Y383994D01*
X301516Y384066D01*
X301444Y384135D01*
X301370Y384201D01*
X301292Y384265D01*
X301213Y384325D01*
X301131Y384382D01*
X301047Y384436D01*
X300961Y384486D01*
X300873Y384533D01*
X300783Y384577D01*
X300692Y384617D01*
X300599Y384653D01*
X300505Y384686D01*
X300409Y384715D01*
X300313Y384740D01*
X300216Y384761D01*
X300117Y384779D01*
X300019Y384792D01*
X299919Y384802D01*
X299820Y384808D01*
X299720Y384810D01*
X284480Y384810D01*
X284480Y351790D02*
X299720Y351790D01*
X281940Y354330D02*
X281940Y382270D01*
D10*
X267327Y356877D02*
X265420Y354970D01*
X265420Y351157D01*
X267327Y349250D01*
X269234Y349250D01*
X271140Y351157D01*
X271140Y354970D01*
X273047Y356877D01*
X274953Y356877D01*
X276860Y354970D01*
X276860Y351157D01*
X274953Y349250D01*
X274953Y360944D02*
X276860Y362851D01*
X276860Y364757D01*
X274953Y366664D01*
X265420Y366664D01*
X265420Y368570D02*
X265420Y364757D01*
X269234Y372638D02*
X265420Y376451D01*
X276860Y376451D01*
X276860Y372638D02*
X276860Y380264D01*
X269234Y384332D02*
X265420Y388145D01*
X276860Y388145D01*
X276860Y384332D02*
X276860Y391958D01*
D13*
X168910Y379095D02*
X168910Y351155D01*
X148590Y379095D02*
X148592Y379195D01*
X148598Y379294D01*
X148608Y379394D01*
X148621Y379492D01*
X148639Y379591D01*
X148660Y379688D01*
X148685Y379784D01*
X148714Y379880D01*
X148747Y379974D01*
X148783Y380067D01*
X148823Y380158D01*
X148867Y380248D01*
X148914Y380336D01*
X148964Y380422D01*
X149018Y380506D01*
X149075Y380588D01*
X149135Y380667D01*
X149199Y380745D01*
X149265Y380819D01*
X149334Y380891D01*
X149406Y380960D01*
X149480Y381026D01*
X149558Y381090D01*
X149637Y381150D01*
X149719Y381207D01*
X149803Y381261D01*
X149889Y381311D01*
X149977Y381358D01*
X150067Y381402D01*
X150158Y381442D01*
X150251Y381478D01*
X150345Y381511D01*
X150441Y381540D01*
X150537Y381565D01*
X150634Y381586D01*
X150733Y381604D01*
X150831Y381617D01*
X150931Y381627D01*
X151030Y381633D01*
X151130Y381635D01*
X148590Y351155D02*
X148592Y351055D01*
X148598Y350956D01*
X148608Y350856D01*
X148621Y350758D01*
X148639Y350659D01*
X148660Y350562D01*
X148685Y350466D01*
X148714Y350370D01*
X148747Y350276D01*
X148783Y350183D01*
X148823Y350092D01*
X148867Y350002D01*
X148914Y349914D01*
X148964Y349828D01*
X149018Y349744D01*
X149075Y349662D01*
X149135Y349583D01*
X149199Y349505D01*
X149265Y349431D01*
X149334Y349359D01*
X149406Y349290D01*
X149480Y349224D01*
X149558Y349160D01*
X149637Y349100D01*
X149719Y349043D01*
X149803Y348989D01*
X149889Y348939D01*
X149977Y348892D01*
X150067Y348848D01*
X150158Y348808D01*
X150251Y348772D01*
X150345Y348739D01*
X150441Y348710D01*
X150537Y348685D01*
X150634Y348664D01*
X150733Y348646D01*
X150831Y348633D01*
X150931Y348623D01*
X151030Y348617D01*
X151130Y348615D01*
X166370Y348615D02*
X166470Y348617D01*
X166569Y348623D01*
X166669Y348633D01*
X166767Y348646D01*
X166866Y348664D01*
X166963Y348685D01*
X167059Y348710D01*
X167155Y348739D01*
X167249Y348772D01*
X167342Y348808D01*
X167433Y348848D01*
X167523Y348892D01*
X167611Y348939D01*
X167697Y348989D01*
X167781Y349043D01*
X167863Y349100D01*
X167942Y349160D01*
X168020Y349224D01*
X168094Y349290D01*
X168166Y349359D01*
X168235Y349431D01*
X168301Y349505D01*
X168365Y349583D01*
X168425Y349662D01*
X168482Y349744D01*
X168536Y349828D01*
X168586Y349914D01*
X168633Y350002D01*
X168677Y350092D01*
X168717Y350183D01*
X168753Y350276D01*
X168786Y350370D01*
X168815Y350466D01*
X168840Y350562D01*
X168861Y350659D01*
X168879Y350758D01*
X168892Y350856D01*
X168902Y350956D01*
X168908Y351055D01*
X168910Y351155D01*
X168910Y379095D02*
X168908Y379195D01*
X168902Y379294D01*
X168892Y379394D01*
X168879Y379492D01*
X168861Y379591D01*
X168840Y379688D01*
X168815Y379784D01*
X168786Y379880D01*
X168753Y379974D01*
X168717Y380067D01*
X168677Y380158D01*
X168633Y380248D01*
X168586Y380336D01*
X168536Y380422D01*
X168482Y380506D01*
X168425Y380588D01*
X168365Y380667D01*
X168301Y380745D01*
X168235Y380819D01*
X168166Y380891D01*
X168094Y380960D01*
X168020Y381026D01*
X167942Y381090D01*
X167863Y381150D01*
X167781Y381207D01*
X167697Y381261D01*
X167611Y381311D01*
X167523Y381358D01*
X167433Y381402D01*
X167342Y381442D01*
X167249Y381478D01*
X167155Y381511D01*
X167059Y381540D01*
X166963Y381565D01*
X166866Y381586D01*
X166767Y381604D01*
X166669Y381617D01*
X166569Y381627D01*
X166470Y381633D01*
X166370Y381635D01*
X151130Y381635D01*
X151130Y348615D02*
X166370Y348615D01*
X148590Y351155D02*
X148590Y379095D01*
D10*
X108577Y353702D02*
X106670Y351795D01*
X106670Y347982D01*
X108577Y346075D01*
X110484Y346075D01*
X112390Y347982D01*
X112390Y351795D01*
X114297Y353702D01*
X116203Y353702D01*
X118110Y351795D01*
X118110Y347982D01*
X116203Y346075D01*
X116203Y357769D02*
X118110Y359676D01*
X118110Y361582D01*
X116203Y363489D01*
X106670Y363489D01*
X106670Y365395D02*
X106670Y361582D01*
X110484Y369463D02*
X106670Y373276D01*
X118110Y373276D01*
X118110Y369463D02*
X118110Y377089D01*
X118110Y381157D02*
X118110Y388783D01*
X118110Y381157D02*
X110484Y388783D01*
X108577Y388783D01*
X106670Y386877D01*
X106670Y383064D01*
X108577Y381157D01*
D13*
X143510Y379095D02*
X143510Y351155D01*
X123190Y379095D02*
X123192Y379195D01*
X123198Y379294D01*
X123208Y379394D01*
X123221Y379492D01*
X123239Y379591D01*
X123260Y379688D01*
X123285Y379784D01*
X123314Y379880D01*
X123347Y379974D01*
X123383Y380067D01*
X123423Y380158D01*
X123467Y380248D01*
X123514Y380336D01*
X123564Y380422D01*
X123618Y380506D01*
X123675Y380588D01*
X123735Y380667D01*
X123799Y380745D01*
X123865Y380819D01*
X123934Y380891D01*
X124006Y380960D01*
X124080Y381026D01*
X124158Y381090D01*
X124237Y381150D01*
X124319Y381207D01*
X124403Y381261D01*
X124489Y381311D01*
X124577Y381358D01*
X124667Y381402D01*
X124758Y381442D01*
X124851Y381478D01*
X124945Y381511D01*
X125041Y381540D01*
X125137Y381565D01*
X125234Y381586D01*
X125333Y381604D01*
X125431Y381617D01*
X125531Y381627D01*
X125630Y381633D01*
X125730Y381635D01*
X123190Y351155D02*
X123192Y351055D01*
X123198Y350956D01*
X123208Y350856D01*
X123221Y350758D01*
X123239Y350659D01*
X123260Y350562D01*
X123285Y350466D01*
X123314Y350370D01*
X123347Y350276D01*
X123383Y350183D01*
X123423Y350092D01*
X123467Y350002D01*
X123514Y349914D01*
X123564Y349828D01*
X123618Y349744D01*
X123675Y349662D01*
X123735Y349583D01*
X123799Y349505D01*
X123865Y349431D01*
X123934Y349359D01*
X124006Y349290D01*
X124080Y349224D01*
X124158Y349160D01*
X124237Y349100D01*
X124319Y349043D01*
X124403Y348989D01*
X124489Y348939D01*
X124577Y348892D01*
X124667Y348848D01*
X124758Y348808D01*
X124851Y348772D01*
X124945Y348739D01*
X125041Y348710D01*
X125137Y348685D01*
X125234Y348664D01*
X125333Y348646D01*
X125431Y348633D01*
X125531Y348623D01*
X125630Y348617D01*
X125730Y348615D01*
X140970Y348615D02*
X141070Y348617D01*
X141169Y348623D01*
X141269Y348633D01*
X141367Y348646D01*
X141466Y348664D01*
X141563Y348685D01*
X141659Y348710D01*
X141755Y348739D01*
X141849Y348772D01*
X141942Y348808D01*
X142033Y348848D01*
X142123Y348892D01*
X142211Y348939D01*
X142297Y348989D01*
X142381Y349043D01*
X142463Y349100D01*
X142542Y349160D01*
X142620Y349224D01*
X142694Y349290D01*
X142766Y349359D01*
X142835Y349431D01*
X142901Y349505D01*
X142965Y349583D01*
X143025Y349662D01*
X143082Y349744D01*
X143136Y349828D01*
X143186Y349914D01*
X143233Y350002D01*
X143277Y350092D01*
X143317Y350183D01*
X143353Y350276D01*
X143386Y350370D01*
X143415Y350466D01*
X143440Y350562D01*
X143461Y350659D01*
X143479Y350758D01*
X143492Y350856D01*
X143502Y350956D01*
X143508Y351055D01*
X143510Y351155D01*
X143510Y379095D02*
X143508Y379195D01*
X143502Y379294D01*
X143492Y379394D01*
X143479Y379492D01*
X143461Y379591D01*
X143440Y379688D01*
X143415Y379784D01*
X143386Y379880D01*
X143353Y379974D01*
X143317Y380067D01*
X143277Y380158D01*
X143233Y380248D01*
X143186Y380336D01*
X143136Y380422D01*
X143082Y380506D01*
X143025Y380588D01*
X142965Y380667D01*
X142901Y380745D01*
X142835Y380819D01*
X142766Y380891D01*
X142694Y380960D01*
X142620Y381026D01*
X142542Y381090D01*
X142463Y381150D01*
X142381Y381207D01*
X142297Y381261D01*
X142211Y381311D01*
X142123Y381358D01*
X142033Y381402D01*
X141942Y381442D01*
X141849Y381478D01*
X141755Y381511D01*
X141659Y381540D01*
X141563Y381565D01*
X141466Y381586D01*
X141367Y381604D01*
X141269Y381617D01*
X141169Y381627D01*
X141070Y381633D01*
X140970Y381635D01*
X125730Y381635D01*
X125730Y348615D02*
X140970Y348615D01*
X123190Y351155D02*
X123190Y379095D01*
D10*
X92702Y353702D02*
X90795Y351795D01*
X90795Y347982D01*
X92702Y346075D01*
X94609Y346075D01*
X96515Y347982D01*
X96515Y351795D01*
X98422Y353702D01*
X100328Y353702D01*
X102235Y351795D01*
X102235Y347982D01*
X100328Y346075D01*
X100328Y357769D02*
X102235Y359676D01*
X102235Y361582D01*
X100328Y363489D01*
X90795Y363489D01*
X90795Y365395D02*
X90795Y361582D01*
X94609Y369463D02*
X90795Y373276D01*
X102235Y373276D01*
X102235Y369463D02*
X102235Y377089D01*
X92702Y381157D02*
X90795Y383064D01*
X90795Y386877D01*
X92702Y388783D01*
X94609Y388783D01*
X96515Y386877D01*
X96515Y384970D01*
X96515Y386877D02*
X98422Y388783D01*
X100328Y388783D01*
X102235Y386877D01*
X102235Y383064D01*
X100328Y381157D01*
D15*
X818388Y44450D02*
X845312Y44450D01*
D10*
X774067Y38100D02*
X772160Y40007D01*
X774067Y38100D02*
X775973Y38100D01*
X777880Y40007D01*
X777880Y49540D01*
X775973Y49540D02*
X779787Y49540D01*
X783854Y45727D02*
X787667Y49540D01*
X787667Y38100D01*
X783854Y38100D02*
X791480Y38100D01*
D15*
X718312Y44450D02*
X691388Y44450D01*
D10*
X647067Y38100D02*
X645160Y40007D01*
X647067Y38100D02*
X648973Y38100D01*
X650880Y40007D01*
X650880Y49540D01*
X648973Y49540D02*
X652787Y49540D01*
X656854Y38100D02*
X664480Y38100D01*
X656854Y38100D02*
X664480Y45727D01*
X664480Y47633D01*
X662574Y49540D01*
X658761Y49540D01*
X656854Y47633D01*
D15*
X591312Y44450D02*
X564388Y44450D01*
D10*
X516892Y38100D02*
X514985Y40007D01*
X516892Y38100D02*
X518798Y38100D01*
X520705Y40007D01*
X520705Y49540D01*
X518798Y49540D02*
X522612Y49540D01*
X526679Y47633D02*
X528586Y49540D01*
X532399Y49540D01*
X534305Y47633D01*
X534305Y45727D01*
X532399Y43820D01*
X530492Y43820D01*
X532399Y43820D02*
X534305Y41913D01*
X534305Y40007D01*
X532399Y38100D01*
X528586Y38100D01*
X526679Y40007D01*
D15*
X464312Y44450D02*
X437388Y44450D01*
D10*
X393067Y38100D02*
X391160Y40007D01*
X393067Y38100D02*
X394973Y38100D01*
X396880Y40007D01*
X396880Y49540D01*
X394973Y49540D02*
X398787Y49540D01*
X408574Y49540D02*
X408574Y38100D01*
X402854Y43820D02*
X408574Y49540D01*
X410480Y43820D02*
X402854Y43820D01*
D15*
X330962Y44450D02*
X304038Y44450D01*
D10*
X259717Y38100D02*
X257810Y40007D01*
X259717Y38100D02*
X261623Y38100D01*
X263530Y40007D01*
X263530Y49540D01*
X261623Y49540D02*
X265437Y49540D01*
X269504Y49540D02*
X277130Y49540D01*
X269504Y49540D02*
X269504Y43820D01*
X273317Y45727D01*
X275224Y45727D01*
X277130Y43820D01*
X277130Y40007D01*
X275224Y38100D01*
X271411Y38100D01*
X269504Y40007D01*
D15*
X203962Y44450D02*
X177038Y44450D01*
D10*
X132717Y38100D02*
X130810Y40007D01*
X132717Y38100D02*
X134623Y38100D01*
X136530Y40007D01*
X136530Y49540D01*
X134623Y49540D02*
X138437Y49540D01*
X146317Y47633D02*
X150130Y49540D01*
X146317Y47633D02*
X142504Y43820D01*
X142504Y40007D01*
X144411Y38100D01*
X148224Y38100D01*
X150130Y40007D01*
X150130Y41913D01*
X148224Y43820D01*
X142504Y43820D01*
D16*
X841375Y250825D02*
X911225Y250825D01*
X911225Y180975D01*
X841375Y180975D01*
X841375Y250825D01*
D10*
X900430Y191988D02*
X901871Y193428D01*
X904752Y193428D01*
X906192Y191988D01*
X906192Y190547D01*
X904752Y189107D01*
X903311Y189107D01*
X904752Y189107D02*
X906192Y187666D01*
X906192Y186226D01*
X904752Y184785D01*
X901871Y184785D01*
X900430Y186226D01*
X850606Y193428D02*
X847725Y190547D01*
X850606Y193428D02*
X850606Y184785D01*
X847725Y184785D02*
X853487Y184785D01*
X862965Y175270D02*
X862965Y163830D01*
X862965Y175270D02*
X868685Y175270D01*
X870592Y173363D01*
X870592Y169550D01*
X868685Y167643D01*
X862965Y167643D01*
X866778Y167643D02*
X870592Y163830D01*
X874659Y163830D02*
X882285Y163830D01*
X874659Y163830D02*
X882285Y171457D01*
X882285Y173363D01*
X880379Y175270D01*
X876566Y175270D01*
X874659Y173363D01*
D13*
X594360Y279400D02*
X594365Y279774D01*
X594378Y280148D01*
X594401Y280521D01*
X594433Y280894D01*
X594475Y281266D01*
X594525Y281636D01*
X594584Y282005D01*
X594653Y282373D01*
X594730Y282739D01*
X594817Y283103D01*
X594912Y283465D01*
X595016Y283824D01*
X595129Y284181D01*
X595251Y284534D01*
X595381Y284885D01*
X595520Y285232D01*
X595667Y285576D01*
X595823Y285916D01*
X595987Y286252D01*
X596160Y286584D01*
X596340Y286912D01*
X596528Y287235D01*
X596724Y287553D01*
X596928Y287867D01*
X597140Y288175D01*
X597359Y288478D01*
X597586Y288776D01*
X597819Y289068D01*
X598060Y289354D01*
X598308Y289635D01*
X598562Y289909D01*
X598824Y290176D01*
X599091Y290438D01*
X599365Y290692D01*
X599646Y290940D01*
X599932Y291181D01*
X600224Y291414D01*
X600522Y291641D01*
X600825Y291860D01*
X601133Y292072D01*
X601447Y292276D01*
X601765Y292472D01*
X602088Y292660D01*
X602416Y292840D01*
X602748Y293013D01*
X603084Y293177D01*
X603424Y293333D01*
X603768Y293480D01*
X604115Y293619D01*
X604466Y293749D01*
X604819Y293871D01*
X605176Y293984D01*
X605535Y294088D01*
X605897Y294183D01*
X606261Y294270D01*
X606627Y294347D01*
X606995Y294416D01*
X607364Y294475D01*
X607734Y294525D01*
X608106Y294567D01*
X608479Y294599D01*
X608852Y294622D01*
X609226Y294635D01*
X609600Y294640D01*
X609974Y294635D01*
X610348Y294622D01*
X610721Y294599D01*
X611094Y294567D01*
X611466Y294525D01*
X611836Y294475D01*
X612205Y294416D01*
X612573Y294347D01*
X612939Y294270D01*
X613303Y294183D01*
X613665Y294088D01*
X614024Y293984D01*
X614381Y293871D01*
X614734Y293749D01*
X615085Y293619D01*
X615432Y293480D01*
X615776Y293333D01*
X616116Y293177D01*
X616452Y293013D01*
X616784Y292840D01*
X617112Y292660D01*
X617435Y292472D01*
X617753Y292276D01*
X618067Y292072D01*
X618375Y291860D01*
X618678Y291641D01*
X618976Y291414D01*
X619268Y291181D01*
X619554Y290940D01*
X619835Y290692D01*
X620109Y290438D01*
X620376Y290176D01*
X620638Y289909D01*
X620892Y289635D01*
X621140Y289354D01*
X621381Y289068D01*
X621614Y288776D01*
X621841Y288478D01*
X622060Y288175D01*
X622272Y287867D01*
X622476Y287553D01*
X622672Y287235D01*
X622860Y286912D01*
X623040Y286584D01*
X623213Y286252D01*
X623377Y285916D01*
X623533Y285576D01*
X623680Y285232D01*
X623819Y284885D01*
X623949Y284534D01*
X624071Y284181D01*
X624184Y283824D01*
X624288Y283465D01*
X624383Y283103D01*
X624470Y282739D01*
X624547Y282373D01*
X624616Y282005D01*
X624675Y281636D01*
X624725Y281266D01*
X624767Y280894D01*
X624799Y280521D01*
X624822Y280148D01*
X624835Y279774D01*
X624840Y279400D01*
X624835Y279026D01*
X624822Y278652D01*
X624799Y278279D01*
X624767Y277906D01*
X624725Y277534D01*
X624675Y277164D01*
X624616Y276795D01*
X624547Y276427D01*
X624470Y276061D01*
X624383Y275697D01*
X624288Y275335D01*
X624184Y274976D01*
X624071Y274619D01*
X623949Y274266D01*
X623819Y273915D01*
X623680Y273568D01*
X623533Y273224D01*
X623377Y272884D01*
X623213Y272548D01*
X623040Y272216D01*
X622860Y271888D01*
X622672Y271565D01*
X622476Y271247D01*
X622272Y270933D01*
X622060Y270625D01*
X621841Y270322D01*
X621614Y270024D01*
X621381Y269732D01*
X621140Y269446D01*
X620892Y269165D01*
X620638Y268891D01*
X620376Y268624D01*
X620109Y268362D01*
X619835Y268108D01*
X619554Y267860D01*
X619268Y267619D01*
X618976Y267386D01*
X618678Y267159D01*
X618375Y266940D01*
X618067Y266728D01*
X617753Y266524D01*
X617435Y266328D01*
X617112Y266140D01*
X616784Y265960D01*
X616452Y265787D01*
X616116Y265623D01*
X615776Y265467D01*
X615432Y265320D01*
X615085Y265181D01*
X614734Y265051D01*
X614381Y264929D01*
X614024Y264816D01*
X613665Y264712D01*
X613303Y264617D01*
X612939Y264530D01*
X612573Y264453D01*
X612205Y264384D01*
X611836Y264325D01*
X611466Y264275D01*
X611094Y264233D01*
X610721Y264201D01*
X610348Y264178D01*
X609974Y264165D01*
X609600Y264160D01*
X609226Y264165D01*
X608852Y264178D01*
X608479Y264201D01*
X608106Y264233D01*
X607734Y264275D01*
X607364Y264325D01*
X606995Y264384D01*
X606627Y264453D01*
X606261Y264530D01*
X605897Y264617D01*
X605535Y264712D01*
X605176Y264816D01*
X604819Y264929D01*
X604466Y265051D01*
X604115Y265181D01*
X603768Y265320D01*
X603424Y265467D01*
X603084Y265623D01*
X602748Y265787D01*
X602416Y265960D01*
X602088Y266140D01*
X601765Y266328D01*
X601447Y266524D01*
X601133Y266728D01*
X600825Y266940D01*
X600522Y267159D01*
X600224Y267386D01*
X599932Y267619D01*
X599646Y267860D01*
X599365Y268108D01*
X599091Y268362D01*
X598824Y268624D01*
X598562Y268891D01*
X598308Y269165D01*
X598060Y269446D01*
X597819Y269732D01*
X597586Y270024D01*
X597359Y270322D01*
X597140Y270625D01*
X596928Y270933D01*
X596724Y271247D01*
X596528Y271565D01*
X596340Y271888D01*
X596160Y272216D01*
X595987Y272548D01*
X595823Y272884D01*
X595667Y273224D01*
X595520Y273568D01*
X595381Y273915D01*
X595251Y274266D01*
X595129Y274619D01*
X595016Y274976D01*
X594912Y275335D01*
X594817Y275697D01*
X594730Y276061D01*
X594653Y276427D01*
X594584Y276795D01*
X594525Y277164D01*
X594475Y277534D01*
X594433Y277906D01*
X594401Y278279D01*
X594378Y278652D01*
X594365Y279026D01*
X594360Y279400D01*
D14*
X621919Y279400D03*
D10*
X598805Y301625D02*
X598805Y313065D01*
X604525Y313065D01*
X606432Y311158D01*
X606432Y307345D01*
X604525Y305438D01*
X598805Y305438D01*
X602618Y305438D02*
X606432Y301625D01*
X610499Y311158D02*
X612406Y313065D01*
X616219Y313065D01*
X618125Y311158D01*
X618125Y309252D01*
X616219Y307345D01*
X614312Y307345D01*
X616219Y307345D02*
X618125Y305438D01*
X618125Y303532D01*
X616219Y301625D01*
X612406Y301625D01*
X610499Y303532D01*
D16*
X644525Y250825D02*
X574675Y250825D01*
X644525Y250825D02*
X644525Y180975D01*
X574675Y180975D01*
X574675Y250825D01*
D10*
X633730Y191988D02*
X635171Y193428D01*
X638052Y193428D01*
X639492Y191988D01*
X639492Y190547D01*
X638052Y189107D01*
X636611Y189107D01*
X638052Y189107D02*
X639492Y187666D01*
X639492Y186226D01*
X638052Y184785D01*
X635171Y184785D01*
X633730Y186226D01*
X583906Y193428D02*
X581025Y190547D01*
X583906Y193428D02*
X583906Y184785D01*
X581025Y184785D02*
X586787Y184785D01*
X596265Y175270D02*
X596265Y163830D01*
X596265Y175270D02*
X601985Y175270D01*
X603892Y173363D01*
X603892Y169550D01*
X601985Y167643D01*
X596265Y167643D01*
X600078Y167643D02*
X603892Y163830D01*
X613679Y163830D02*
X613679Y175270D01*
X607959Y169550D01*
X615585Y169550D01*
D13*
X318135Y279400D02*
X318140Y279774D01*
X318153Y280148D01*
X318176Y280521D01*
X318208Y280894D01*
X318250Y281266D01*
X318300Y281636D01*
X318359Y282005D01*
X318428Y282373D01*
X318505Y282739D01*
X318592Y283103D01*
X318687Y283465D01*
X318791Y283824D01*
X318904Y284181D01*
X319026Y284534D01*
X319156Y284885D01*
X319295Y285232D01*
X319442Y285576D01*
X319598Y285916D01*
X319762Y286252D01*
X319935Y286584D01*
X320115Y286912D01*
X320303Y287235D01*
X320499Y287553D01*
X320703Y287867D01*
X320915Y288175D01*
X321134Y288478D01*
X321361Y288776D01*
X321594Y289068D01*
X321835Y289354D01*
X322083Y289635D01*
X322337Y289909D01*
X322599Y290176D01*
X322866Y290438D01*
X323140Y290692D01*
X323421Y290940D01*
X323707Y291181D01*
X323999Y291414D01*
X324297Y291641D01*
X324600Y291860D01*
X324908Y292072D01*
X325222Y292276D01*
X325540Y292472D01*
X325863Y292660D01*
X326191Y292840D01*
X326523Y293013D01*
X326859Y293177D01*
X327199Y293333D01*
X327543Y293480D01*
X327890Y293619D01*
X328241Y293749D01*
X328594Y293871D01*
X328951Y293984D01*
X329310Y294088D01*
X329672Y294183D01*
X330036Y294270D01*
X330402Y294347D01*
X330770Y294416D01*
X331139Y294475D01*
X331509Y294525D01*
X331881Y294567D01*
X332254Y294599D01*
X332627Y294622D01*
X333001Y294635D01*
X333375Y294640D01*
X333749Y294635D01*
X334123Y294622D01*
X334496Y294599D01*
X334869Y294567D01*
X335241Y294525D01*
X335611Y294475D01*
X335980Y294416D01*
X336348Y294347D01*
X336714Y294270D01*
X337078Y294183D01*
X337440Y294088D01*
X337799Y293984D01*
X338156Y293871D01*
X338509Y293749D01*
X338860Y293619D01*
X339207Y293480D01*
X339551Y293333D01*
X339891Y293177D01*
X340227Y293013D01*
X340559Y292840D01*
X340887Y292660D01*
X341210Y292472D01*
X341528Y292276D01*
X341842Y292072D01*
X342150Y291860D01*
X342453Y291641D01*
X342751Y291414D01*
X343043Y291181D01*
X343329Y290940D01*
X343610Y290692D01*
X343884Y290438D01*
X344151Y290176D01*
X344413Y289909D01*
X344667Y289635D01*
X344915Y289354D01*
X345156Y289068D01*
X345389Y288776D01*
X345616Y288478D01*
X345835Y288175D01*
X346047Y287867D01*
X346251Y287553D01*
X346447Y287235D01*
X346635Y286912D01*
X346815Y286584D01*
X346988Y286252D01*
X347152Y285916D01*
X347308Y285576D01*
X347455Y285232D01*
X347594Y284885D01*
X347724Y284534D01*
X347846Y284181D01*
X347959Y283824D01*
X348063Y283465D01*
X348158Y283103D01*
X348245Y282739D01*
X348322Y282373D01*
X348391Y282005D01*
X348450Y281636D01*
X348500Y281266D01*
X348542Y280894D01*
X348574Y280521D01*
X348597Y280148D01*
X348610Y279774D01*
X348615Y279400D01*
X348610Y279026D01*
X348597Y278652D01*
X348574Y278279D01*
X348542Y277906D01*
X348500Y277534D01*
X348450Y277164D01*
X348391Y276795D01*
X348322Y276427D01*
X348245Y276061D01*
X348158Y275697D01*
X348063Y275335D01*
X347959Y274976D01*
X347846Y274619D01*
X347724Y274266D01*
X347594Y273915D01*
X347455Y273568D01*
X347308Y273224D01*
X347152Y272884D01*
X346988Y272548D01*
X346815Y272216D01*
X346635Y271888D01*
X346447Y271565D01*
X346251Y271247D01*
X346047Y270933D01*
X345835Y270625D01*
X345616Y270322D01*
X345389Y270024D01*
X345156Y269732D01*
X344915Y269446D01*
X344667Y269165D01*
X344413Y268891D01*
X344151Y268624D01*
X343884Y268362D01*
X343610Y268108D01*
X343329Y267860D01*
X343043Y267619D01*
X342751Y267386D01*
X342453Y267159D01*
X342150Y266940D01*
X341842Y266728D01*
X341528Y266524D01*
X341210Y266328D01*
X340887Y266140D01*
X340559Y265960D01*
X340227Y265787D01*
X339891Y265623D01*
X339551Y265467D01*
X339207Y265320D01*
X338860Y265181D01*
X338509Y265051D01*
X338156Y264929D01*
X337799Y264816D01*
X337440Y264712D01*
X337078Y264617D01*
X336714Y264530D01*
X336348Y264453D01*
X335980Y264384D01*
X335611Y264325D01*
X335241Y264275D01*
X334869Y264233D01*
X334496Y264201D01*
X334123Y264178D01*
X333749Y264165D01*
X333375Y264160D01*
X333001Y264165D01*
X332627Y264178D01*
X332254Y264201D01*
X331881Y264233D01*
X331509Y264275D01*
X331139Y264325D01*
X330770Y264384D01*
X330402Y264453D01*
X330036Y264530D01*
X329672Y264617D01*
X329310Y264712D01*
X328951Y264816D01*
X328594Y264929D01*
X328241Y265051D01*
X327890Y265181D01*
X327543Y265320D01*
X327199Y265467D01*
X326859Y265623D01*
X326523Y265787D01*
X326191Y265960D01*
X325863Y266140D01*
X325540Y266328D01*
X325222Y266524D01*
X324908Y266728D01*
X324600Y266940D01*
X324297Y267159D01*
X323999Y267386D01*
X323707Y267619D01*
X323421Y267860D01*
X323140Y268108D01*
X322866Y268362D01*
X322599Y268624D01*
X322337Y268891D01*
X322083Y269165D01*
X321835Y269446D01*
X321594Y269732D01*
X321361Y270024D01*
X321134Y270322D01*
X320915Y270625D01*
X320703Y270933D01*
X320499Y271247D01*
X320303Y271565D01*
X320115Y271888D01*
X319935Y272216D01*
X319762Y272548D01*
X319598Y272884D01*
X319442Y273224D01*
X319295Y273568D01*
X319156Y273915D01*
X319026Y274266D01*
X318904Y274619D01*
X318791Y274976D01*
X318687Y275335D01*
X318592Y275697D01*
X318505Y276061D01*
X318428Y276427D01*
X318359Y276795D01*
X318300Y277164D01*
X318250Y277534D01*
X318208Y277906D01*
X318176Y278279D01*
X318153Y278652D01*
X318140Y279026D01*
X318135Y279400D01*
D14*
X345694Y279400D03*
D10*
X322580Y298450D02*
X322580Y309890D01*
X328300Y309890D01*
X330207Y307983D01*
X330207Y304170D01*
X328300Y302263D01*
X322580Y302263D01*
X326393Y302263D02*
X330207Y298450D01*
X334274Y309890D02*
X341900Y309890D01*
X334274Y309890D02*
X334274Y304170D01*
X338087Y306077D01*
X339994Y306077D01*
X341900Y304170D01*
X341900Y300357D01*
X339994Y298450D01*
X336181Y298450D01*
X334274Y300357D01*
D16*
X311150Y250825D02*
X381000Y250825D01*
X381000Y180975D01*
X311150Y180975D01*
X311150Y250825D01*
D10*
X370205Y191988D02*
X371646Y193428D01*
X374527Y193428D01*
X375967Y191988D01*
X375967Y190547D01*
X374527Y189107D01*
X373086Y189107D01*
X374527Y189107D02*
X375967Y187666D01*
X375967Y186226D01*
X374527Y184785D01*
X371646Y184785D01*
X370205Y186226D01*
X320381Y193428D02*
X317500Y190547D01*
X320381Y193428D02*
X320381Y184785D01*
X317500Y184785D02*
X323262Y184785D01*
X339090Y175270D02*
X339090Y163830D01*
X339090Y175270D02*
X344810Y175270D01*
X346717Y173363D01*
X346717Y169550D01*
X344810Y167643D01*
X339090Y167643D01*
X342903Y167643D02*
X346717Y163830D01*
X354597Y173363D02*
X358410Y175270D01*
X354597Y173363D02*
X350784Y169550D01*
X350784Y165737D01*
X352691Y163830D01*
X356504Y163830D01*
X358410Y165737D01*
X358410Y167643D01*
X356504Y169550D01*
X350784Y169550D01*
M02*
