G04 EAGLE Gerber RS-274X export*
G75*
%MOMM*%
%FSLAX34Y34*%
%LPD*%
%INSolderpaste Top*%
%IPPOS*%
%AMOC8*
5,1,8,0,0,1.08239X$1,22.5*%
G01*
%ADD10R,1.300000X1.500000*%
%ADD11R,1.168400X1.600200*%
%ADD12R,2.500000X0.304800*%
%ADD13R,1.600200X1.168400*%


D10*
X751450Y343000D03*
X734450Y343000D03*
X237100Y349350D03*
X220100Y349350D03*
X497450Y352525D03*
X480450Y352525D03*
D11*
X788670Y384175D03*
X773430Y384175D03*
X592455Y352425D03*
X607695Y352425D03*
X351155Y349250D03*
X366395Y349250D03*
D12*
X707694Y325500D03*
X707694Y319000D03*
X707694Y312500D03*
X707694Y306000D03*
X707694Y299500D03*
X707694Y293000D03*
X707694Y286500D03*
X707694Y280000D03*
X707694Y273500D03*
X707694Y267000D03*
X707694Y260500D03*
X707694Y254000D03*
X781050Y254000D03*
X781050Y260500D03*
X781050Y267000D03*
X781050Y273500D03*
X781050Y280000D03*
X781050Y286500D03*
X781050Y293000D03*
X781050Y299500D03*
X781050Y306000D03*
X781050Y312500D03*
X781050Y319000D03*
X781050Y325500D03*
X450188Y325500D03*
X450188Y319000D03*
X450188Y312500D03*
X450188Y306000D03*
X450188Y299500D03*
X450188Y293000D03*
X450188Y286500D03*
X450188Y280000D03*
X450188Y273500D03*
X450188Y267000D03*
X450188Y260500D03*
X450188Y254000D03*
X523544Y254000D03*
X523544Y260500D03*
X523544Y267000D03*
X523544Y273500D03*
X523544Y280000D03*
X523544Y286500D03*
X523544Y293000D03*
X523544Y299500D03*
X523544Y306000D03*
X523544Y312500D03*
X523544Y319000D03*
X523544Y325500D03*
X189507Y325500D03*
X189507Y319000D03*
X189507Y312500D03*
X189507Y306000D03*
X189507Y299500D03*
X189507Y293000D03*
X189507Y286500D03*
X189507Y280000D03*
X189507Y273500D03*
X189507Y267000D03*
X189507Y260500D03*
X189507Y254000D03*
X262863Y254000D03*
X262863Y260500D03*
X262863Y267000D03*
X262863Y273500D03*
X262863Y280000D03*
X262863Y286500D03*
X262863Y293000D03*
X262863Y299500D03*
X262863Y306000D03*
X262863Y312500D03*
X262863Y319000D03*
X262863Y325500D03*
D13*
X720725Y360680D03*
X720725Y375920D03*
X669925Y360680D03*
X669925Y375920D03*
X695325Y360680D03*
X695325Y375920D03*
X644525Y360680D03*
X644525Y375920D03*
X552450Y360680D03*
X552450Y375920D03*
X444500Y360680D03*
X444500Y375920D03*
X419100Y360680D03*
X419100Y375920D03*
X292100Y360680D03*
X292100Y375920D03*
X158750Y357505D03*
X158750Y372745D03*
X133350Y357505D03*
X133350Y372745D03*
M02*
