  0
SECTION
  2
HEADER
  9
$ANGBASE
  50
0.0
  9
$ANGDIR
  70
1
  9
$MEASUREMENT
  70
1
  0
ENDSEC
  0
SECTION
  2
TABLES
  0
TABLE
  2
LTYPE
  70
4
  0
LTYPE
  5
40F
  2
CONTINUOUS
  70
0
  3
Solid line
  72
65
  73
0
  40
0.0
  0
LTYPE
  5
410
  2
DASHDOT
 70
0
  3
Dash Dot ____ _ ____ _
 72
65
 73
4
 40
2.0
 49
1.25
 49
-0.25
 49
0.25
 49
-0.25
  0
LTYPE
  5
411
  2
DASHED
 70
0
  3
Dashed __ __ __ __ __
 72
65
 73
2
 40
0.75
 49
0.5
 49
-0.25
  0
LTYPE
  5
43B
  2
DOTTED
 70
0
  3
Dotted .  .  .  .
 72
65
 73
2
 40
0.2
 49
0.0
 49
-0.2
  0
ENDTAB
  0
TABLE
  2
STYLE
  70
4
  0
STYLE
  2
KICAD
  70
0
  40
0
  41
1
  42
1
  50
0
  71
0
  3
isocp.shx
  0
STYLE
  2
KICADB
  70
0
  40
0
  41
1
  42
1
  50
0
  71
0
  3
isocp.shx
  0
STYLE
  2
KICADI
  70
0
  40
0
  41
1
  42
1
  50
15
  71
0
  3
isocp.shx
  0
STYLE
  2
KICADBI
  70
0
  40
0
  41
1
  42
1
  50
15
  71
0
  3
isocp.shx
  0
ENDTAB
  0
TABLE
  2
LAYER
  70
1
  0
LAYER
  2
BLACK
  70
0
  62
7
  6
CONTINUOUS
  0
ENDTAB
  0
ENDSEC
  0
SECTION
  2
ENTITIES
0
LINE
8
BLACK
6
CONTINUOUS
10
123.0095669999999899
20
-41.9769030000000001
11
123.0230969999999928
21
-41.9904329999999959
0
LINE
8
BLACK
6
CONTINUOUS
10
123.0230969999999928
20
-41.9904329999999959
11
123.0249999999999915
21
-42.
0
LINE
8
BLACK
6
CONTINUOUS
10
123.0249999999999915
20
-42.
11
123.0249999999999915
21
-78.
0
LINE
8
BLACK
6
CONTINUOUS
10
123.0249999999999915
20
-78.
11
123.0230969999999928
21
-78.0095669999999899
0
LINE
8
BLACK
6
CONTINUOUS
10
123.0230969999999928
20
-78.0095669999999899
11
123.0095669999999899
21
-78.0230969999999928
0
LINE
8
BLACK
6
CONTINUOUS
10
123.0095669999999899
20
-78.0230969999999928
11
123.
21
-78.0249999999999915
0
LINE
8
BLACK
6
CONTINUOUS
10
123.
20
-78.0249999999999915
11
118.
21
-78.0249999999999915
0
LINE
8
BLACK
6
CONTINUOUS
10
118.
20
-78.0249999999999915
11
117.9904329999999959
21
-78.0230969999999928
0
LINE
8
BLACK
6
CONTINUOUS
10
117.9904329999999959
20
-78.0230969999999928
11
117.976902999999993
21
-78.0095669999999899
0
LINE
8
BLACK
6
CONTINUOUS
10
117.976902999999993
20
-78.0095669999999899
11
117.9749999999999943
21
-78.
0
LINE
8
BLACK
6
CONTINUOUS
10
117.9749999999999943
20
-78.
11
117.9749999999999943
21
-42.
0
LINE
8
BLACK
6
CONTINUOUS
10
117.9749999999999943
20
-42.
11
117.976902999999993
21
-41.9904329999999959
0
LINE
8
BLACK
6
CONTINUOUS
10
117.976902999999993
20
-41.9904329999999959
11
117.9904329999999959
21
-41.9769030000000001
0
LINE
8
BLACK
6
CONTINUOUS
10
117.9904329999999959
20
-41.9769030000000001
11
118.
21
-41.9750000000000014
0
LINE
8
BLACK
6
CONTINUOUS
10
118.
20
-41.9750000000000014
11
123.
21
-41.9750000000000014
0
LINE
8
BLACK
6
CONTINUOUS
10
123.
20
-41.9750000000000014
11
123.0095669999999899
21
-41.9769030000000001
0
LINE
8
BLACK
6
CONTINUOUS
10
118.0249999999999915
20
-42.0249999999999986
11
118.0249999999999915
21
-77.9749999999999943
0
LINE
8
BLACK
6
CONTINUOUS
10
118.0249999999999915
20
-77.9749999999999943
11
122.9749999999999943
21
-77.9749999999999943
0
LINE
8
BLACK
6
CONTINUOUS
10
122.9749999999999943
20
-77.9749999999999943
11
122.9749999999999943
21
-42.0249999999999986
0
LINE
8
BLACK
6
CONTINUOUS
10
122.9749999999999943
20
-42.0249999999999986
11
118.0249999999999915
21
-42.0249999999999986
0
LINE
8
BLACK
6
CONTINUOUS
10
133.0095670000000041
20
-41.9769030000000001
11
133.023097000000007
21
-41.9904329999999959
0
LINE
8
BLACK
6
CONTINUOUS
10
133.023097000000007
20
-41.9904329999999959
11
133.0250000000000057
21
-42.
0
LINE
8
BLACK
6
CONTINUOUS
10
133.0250000000000057
20
-42.
11
133.0250000000000057
21
-78.
0
LINE
8
BLACK
6
CONTINUOUS
10
133.0250000000000057
20
-78.
11
133.023097000000007
21
-78.0095669999999899
0
LINE
8
BLACK
6
CONTINUOUS
10
133.023097000000007
20
-78.0095669999999899
11
133.0095670000000041
21
-78.0230969999999928
0
LINE
8
BLACK
6
CONTINUOUS
10
133.0095670000000041
20
-78.0230969999999928
11
133.
21
-78.0249999999999915
0
LINE
8
BLACK
6
CONTINUOUS
10
133.
20
-78.0249999999999915
11
128.
21
-78.0249999999999915
0
LINE
8
BLACK
6
CONTINUOUS
10
128.
20
-78.0249999999999915
11
127.9904329999999959
21
-78.0230969999999928
0
LINE
8
BLACK
6
CONTINUOUS
10
127.9904329999999959
20
-78.0230969999999928
11
127.976902999999993
21
-78.0095669999999899
0
LINE
8
BLACK
6
CONTINUOUS
10
127.976902999999993
20
-78.0095669999999899
11
127.9749999999999943
21
-78.
0
LINE
8
BLACK
6
CONTINUOUS
10
127.9749999999999943
20
-78.
11
127.9749999999999943
21
-42.
0
LINE
8
BLACK
6
CONTINUOUS
10
127.9749999999999943
20
-42.
11
127.976902999999993
21
-41.9904329999999959
0
LINE
8
BLACK
6
CONTINUOUS
10
127.976902999999993
20
-41.9904329999999959
11
127.9904329999999959
21
-41.9769030000000001
0
LINE
8
BLACK
6
CONTINUOUS
10
127.9904329999999959
20
-41.9769030000000001
11
128.
21
-41.9750000000000014
0
LINE
8
BLACK
6
CONTINUOUS
10
128.
20
-41.9750000000000014
11
133.
21
-41.9750000000000014
0
LINE
8
BLACK
6
CONTINUOUS
10
133.
20
-41.9750000000000014
11
133.0095670000000041
21
-41.9769030000000001
0
LINE
8
BLACK
6
CONTINUOUS
10
128.0250000000000057
20
-42.0249999999999986
11
128.0250000000000057
21
-77.9749999999999943
0
LINE
8
BLACK
6
CONTINUOUS
10
128.0250000000000057
20
-77.9749999999999943
11
132.9749999999999943
21
-77.9749999999999943
0
LINE
8
BLACK
6
CONTINUOUS
10
132.9749999999999943
20
-77.9749999999999943
11
132.9749999999999943
21
-42.0249999999999986
0
LINE
8
BLACK
6
CONTINUOUS
10
132.9749999999999943
20
-42.0249999999999986
11
128.0250000000000057
21
-42.0249999999999986
0
LINE
8
BLACK
6
CONTINUOUS
10
66.0095670000000041
20
-44.9769030000000001
11
66.0230969999999928
21
-44.9904329999999959
0
LINE
8
BLACK
6
CONTINUOUS
10
66.0230969999999928
20
-44.9904329999999959
11
66.0249999999999915
21
-45.
0
LINE
8
BLACK
6
CONTINUOUS
10
66.0249999999999915
20
-45.
11
66.0249999999999915
21
-75.
0
LINE
8
BLACK
6
CONTINUOUS
10
66.0249999999999915
20
-75.
11
66.0230969999999928
21
-75.0095669999999899
0
LINE
8
BLACK
6
CONTINUOUS
10
66.0230969999999928
20
-75.0095669999999899
11
66.0095670000000041
21
-75.0230969999999928
0
LINE
8
BLACK
6
CONTINUOUS
10
66.0095670000000041
20
-75.0230969999999928
11
66.
21
-75.0249999999999915
0
LINE
8
BLACK
6
CONTINUOUS
10
66.
20
-75.0249999999999915
11
49.
21
-75.0249999999999915
0
LINE
8
BLACK
6
CONTINUOUS
10
49.
20
-75.0249999999999915
11
48.9904329999999959
21
-75.0230969999999928
0
LINE
8
BLACK
6
CONTINUOUS
10
48.9904329999999959
20
-75.0230969999999928
11
48.9769030000000001
21
-75.0095669999999899
0
LINE
8
BLACK
6
CONTINUOUS
10
48.9769030000000001
20
-75.0095669999999899
11
48.9749999999999943
21
-75.
0
LINE
8
BLACK
6
CONTINUOUS
10
48.9749999999999943
20
-75.
11
48.9749999999999943
21
-60.
0
LINE
8
BLACK
6
CONTINUOUS
10
48.9749999999999943
20
-60.
11
48.9749999999999943
21
-45.
0
LINE
8
BLACK
6
CONTINUOUS
10
48.9749999999999943
20
-45.
11
48.9769030000000001
21
-44.9904329999999959
0
LINE
8
BLACK
6
CONTINUOUS
10
48.9769030000000001
20
-44.9904329999999959
11
48.9904329999999959
21
-44.9769030000000001
0
LINE
8
BLACK
6
CONTINUOUS
10
48.9904329999999959
20
-44.9769030000000001
11
49.
21
-44.9750000000000014
0
LINE
8
BLACK
6
CONTINUOUS
10
49.
20
-44.9750000000000014
11
66.
21
-44.9750000000000014
0
LINE
8
BLACK
6
CONTINUOUS
10
66.
20
-44.9750000000000014
11
66.0095670000000041
21
-44.9769030000000001
0
LINE
8
BLACK
6
CONTINUOUS
10
49.0249999999999986
20
-45.0249999999999986
11
49.0249999999999986
21
-60.
0
LINE
8
BLACK
6
CONTINUOUS
10
49.0249999999999986
20
-60.
11
49.0249999999999986
21
-74.9749999999999943
0
LINE
8
BLACK
6
CONTINUOUS
10
49.0249999999999986
20
-74.9749999999999943
11
65.9749999999999943
21
-74.9749999999999943
0
LINE
8
BLACK
6
CONTINUOUS
10
65.9749999999999943
20
-74.9749999999999943
11
65.9749999999999943
21
-45.0249999999999986
0
LINE
8
BLACK
6
CONTINUOUS
10
65.9749999999999943
20
-45.0249999999999986
11
49.0249999999999986
21
-45.0249999999999986
0
LINE
8
BLACK
6
CONTINUOUS
10
98.0095669999999899
20
-34.5269029999999972
11
98.0230969999999928
21
-34.5404330000000002
0
LINE
8
BLACK
6
CONTINUOUS
10
98.0230969999999928
20
-34.5404330000000002
11
98.0249999999999915
21
-34.5499999999999972
0
LINE
8
BLACK
6
CONTINUOUS
10
98.0249999999999915
20
-34.5499999999999972
11
98.0249999999999915
21
-36.5249999999999986
0
LINE
8
BLACK
6
CONTINUOUS
10
98.0249999999999915
20
-36.5249999999999986
11
138.4499999999999886
21
-36.5249999999999986
0
LINE
8
BLACK
6
CONTINUOUS
10
138.4499999999999886
20
-36.5249999999999986
11
138.4595669999999927
21
-36.5269029999999972
0
LINE
8
BLACK
6
CONTINUOUS
10
138.4595669999999927
20
-36.5269029999999972
11
138.4730969999999957
21
-36.5404330000000002
0
LINE
8
BLACK
6
CONTINUOUS
10
138.4730969999999957
20
-36.5404330000000002
11
138.4749999999999943
21
-36.5499999999999972
0
LINE
8
BLACK
6
CONTINUOUS
10
138.4749999999999943
20
-36.5499999999999972
11
138.4749999999999943
21
-54.9749999999999943
0
LINE
8
BLACK
6
CONTINUOUS
10
138.4749999999999943
20
-54.9749999999999943
11
140.4499999999999886
21
-54.9749999999999943
0
LINE
8
BLACK
6
CONTINUOUS
10
140.4499999999999886
20
-54.9749999999999943
11
140.4595669999999927
21
-54.9769030000000001
0
LINE
8
BLACK
6
CONTINUOUS
10
140.4595669999999927
20
-54.9769030000000001
11
140.4730969999999957
21
-54.9904329999999959
0
LINE
8
BLACK
6
CONTINUOUS
10
140.4730969999999957
20
-54.9904329999999959
11
140.4749999999999943
21
-55.
0
LINE
8
BLACK
6
CONTINUOUS
10
140.4749999999999943
20
-55.
11
140.4749999999999943
21
-65.
0
LINE
8
BLACK
6
CONTINUOUS
10
140.4749999999999943
20
-65.
11
140.4730969999999957
21
-65.0095670000000041
0
LINE
8
BLACK
6
CONTINUOUS
10
140.4730969999999957
20
-65.0095670000000041
11
140.4595669999999927
21
-65.0230969999999928
0
LINE
8
BLACK
6
CONTINUOUS
10
140.4595669999999927
20
-65.0230969999999928
11
140.4499999999999886
21
-65.0249999999999915
0
LINE
8
BLACK
6
CONTINUOUS
10
140.4499999999999886
20
-65.0249999999999915
11
138.4749999999999943
21
-65.0249999999999915
0
LINE
8
BLACK
6
CONTINUOUS
10
138.4749999999999943
20
-65.0249999999999915
11
138.4749999999999943
21
-83.4500000000000028
0
LINE
8
BLACK
6
CONTINUOUS
10
138.4749999999999943
20
-83.4500000000000028
11
138.4730969999999957
21
-83.4595669999999927
0
LINE
8
BLACK
6
CONTINUOUS
10
138.4730969999999957
20
-83.4595669999999927
11
138.4595669999999927
21
-83.4730969999999957
0
LINE
8
BLACK
6
CONTINUOUS
10
138.4595669999999927
20
-83.4730969999999957
11
138.4499999999999886
21
-83.4749999999999943
0
LINE
8
BLACK
6
CONTINUOUS
10
138.4499999999999886
20
-83.4749999999999943
11
98.0249999999999915
21
-83.4749999999999943
0
LINE
8
BLACK
6
CONTINUOUS
10
98.0249999999999915
20
-83.4749999999999943
11
98.0249999999999915
21
-85.4500000000000028
0
LINE
8
BLACK
6
CONTINUOUS
10
98.0249999999999915
20
-85.4500000000000028
11
98.0230969999999928
21
-85.4595669999999927
0
LINE
8
BLACK
6
CONTINUOUS
10
98.0230969999999928
20
-85.4595669999999927
11
98.0095669999999899
21
-85.4730969999999957
0
LINE
8
BLACK
6
CONTINUOUS
10
98.0095669999999899
20
-85.4730969999999957
11
98.
21
-85.4749999999999943
0
LINE
8
BLACK
6
CONTINUOUS
10
98.
20
-85.4749999999999943
11
78.
21
-85.4749999999999943
0
LINE
8
BLACK
6
CONTINUOUS
10
78.
20
-85.4749999999999943
11
77.9904329999999959
21
-85.4730969999999957
0
LINE
8
BLACK
6
CONTINUOUS
10
77.9904329999999959
20
-85.4730969999999957
11
77.976902999999993
21
-85.4595669999999927
0
LINE
8
BLACK
6
CONTINUOUS
10
77.976902999999993
20
-85.4595669999999927
11
77.9749999999999943
21
-85.4500000000000028
0
LINE
8
BLACK
6
CONTINUOUS
10
77.9749999999999943
20
-85.4500000000000028
11
77.9749999999999943
21
-83.4749999999999943
0
LINE
8
BLACK
6
CONTINUOUS
10
77.9749999999999943
20
-83.4749999999999943
11
37.5499999999999972
21
-83.4749999999999943
0
LINE
8
BLACK
6
CONTINUOUS
10
37.5499999999999972
20
-83.4749999999999943
11
37.5404330000000002
21
-83.4730969999999957
0
LINE
8
BLACK
6
CONTINUOUS
10
37.5404330000000002
20
-83.4730969999999957
11
37.5269029999999972
21
-83.4595669999999927
0
LINE
8
BLACK
6
CONTINUOUS
10
37.5269029999999972
20
-83.4595669999999927
11
37.5249999999999986
21
-83.4500000000000028
0
LINE
8
BLACK
6
CONTINUOUS
10
37.5249999999999986
20
-83.4500000000000028
11
37.5249999999999986
21
-65.0249999999999915
0
LINE
8
BLACK
6
CONTINUOUS
10
37.5249999999999986
20
-65.0249999999999915
11
35.5499999999999972
21
-65.0249999999999915
0
LINE
8
BLACK
6
CONTINUOUS
10
35.5499999999999972
20
-65.0249999999999915
11
35.5404330000000002
21
-65.0230969999999928
0
LINE
8
BLACK
6
CONTINUOUS
10
35.5404330000000002
20
-65.0230969999999928
11
35.5269029999999972
21
-65.0095670000000041
0
LINE
8
BLACK
6
CONTINUOUS
10
35.5269029999999972
20
-65.0095670000000041
11
35.5249999999999986
21
-65.
0
LINE
8
BLACK
6
CONTINUOUS
10
35.5249999999999986
20
-65.
11
35.5249999999999986
21
-55.
0
LINE
8
BLACK
6
CONTINUOUS
10
35.5249999999999986
20
-55.
11
35.5269029999999972
21
-54.9904329999999959
0
LINE
8
BLACK
6
CONTINUOUS
10
35.5269029999999972
20
-54.9904329999999959
11
35.5404330000000002
21
-54.9769030000000001
0
LINE
8
BLACK
6
CONTINUOUS
10
35.5404330000000002
20
-54.9769030000000001
11
35.5499999999999972
21
-54.9749999999999943
0
LINE
8
BLACK
6
CONTINUOUS
10
35.5499999999999972
20
-54.9749999999999943
11
37.5249999999999986
21
-54.9749999999999943
0
LINE
8
BLACK
6
CONTINUOUS
10
37.5249999999999986
20
-54.9749999999999943
11
37.5249999999999986
21
-36.5499999999999972
0
LINE
8
BLACK
6
CONTINUOUS
10
37.5249999999999986
20
-36.5499999999999972
11
37.5269029999999972
21
-36.5404330000000002
0
LINE
8
BLACK
6
CONTINUOUS
10
37.5269029999999972
20
-36.5404330000000002
11
37.5404330000000002
21
-36.5269029999999972
0
LINE
8
BLACK
6
CONTINUOUS
10
37.5404330000000002
20
-36.5269029999999972
11
37.5499999999999972
21
-36.5249999999999986
0
LINE
8
BLACK
6
CONTINUOUS
10
37.5499999999999972
20
-36.5249999999999986
11
77.9749999999999943
21
-36.5249999999999986
0
LINE
8
BLACK
6
CONTINUOUS
10
77.9749999999999943
20
-36.5249999999999986
11
77.9749999999999943
21
-34.5499999999999972
0
LINE
8
BLACK
6
CONTINUOUS
10
77.9749999999999943
20
-34.5499999999999972
11
77.976902999999993
21
-34.5404330000000002
0
LINE
8
BLACK
6
CONTINUOUS
10
77.976902999999993
20
-34.5404330000000002
11
77.9904329999999959
21
-34.5269029999999972
0
LINE
8
BLACK
6
CONTINUOUS
10
77.9904329999999959
20
-34.5269029999999972
11
78.
21
-34.5249999999999986
0
LINE
8
BLACK
6
CONTINUOUS
10
78.
20
-34.5249999999999986
11
98.
21
-34.5249999999999986
0
LINE
8
BLACK
6
CONTINUOUS
10
98.
20
-34.5249999999999986
11
98.0095669999999899
21
-34.5269029999999972
0
LINE
8
BLACK
6
CONTINUOUS
10
78.0249999999999915
20
-34.5749999999999957
11
78.0249999999999915
21
-36.5499999999999972
0
LINE
8
BLACK
6
CONTINUOUS
10
78.0249999999999915
20
-36.5499999999999972
11
78.0230969999999928
21
-36.5595670000000013
0
LINE
8
BLACK
6
CONTINUOUS
10
78.0230969999999928
20
-36.5595670000000013
11
78.0095669999999899
21
-36.5730969999999971
0
LINE
8
BLACK
6
CONTINUOUS
10
78.0095669999999899
20
-36.5730969999999971
11
78.
21
-36.5749999999999957
0
LINE
8
BLACK
6
CONTINUOUS
10
78.
20
-36.5749999999999957
11
37.5749999999999957
21
-36.5749999999999957
0
LINE
8
BLACK
6
CONTINUOUS
10
37.5749999999999957
20
-36.5749999999999957
11
37.5749999999999957
21
-55.
0
LINE
8
BLACK
6
CONTINUOUS
10
37.5749999999999957
20
-55.
11
37.5730969999999971
21
-55.009566999999997
0
LINE
8
BLACK
6
CONTINUOUS
10
37.5730969999999971
20
-55.009566999999997
11
37.5595670000000013
21
-55.0230969999999999
0
LINE
8
BLACK
6
CONTINUOUS
10
37.5595670000000013
20
-55.0230969999999999
11
37.5499999999999972
21
-55.0249999999999986
0
LINE
8
BLACK
6
CONTINUOUS
10
37.5499999999999972
20
-55.0249999999999986
11
35.5749999999999957
21
-55.0249999999999986
0
LINE
8
BLACK
6
CONTINUOUS
10
35.5749999999999957
20
-55.0249999999999986
11
35.5749999999999957
21
-64.9749999999999943
0
LINE
8
BLACK
6
CONTINUOUS
10
35.5749999999999957
20
-64.9749999999999943
11
37.5499999999999972
21
-64.9749999999999943
0
LINE
8
BLACK
6
CONTINUOUS
10
37.5499999999999972
20
-64.9749999999999943
11
37.5595670000000013
21
-64.976902999999993
0
LINE
8
BLACK
6
CONTINUOUS
10
37.5595670000000013
20
-64.976902999999993
11
37.5730969999999971
21
-64.9904329999999959
0
LINE
8
BLACK
6
CONTINUOUS
10
37.5730969999999971
20
-64.9904329999999959
11
37.5749999999999957
21
-65.
0
LINE
8
BLACK
6
CONTINUOUS
10
37.5749999999999957
20
-65.
11
37.5749999999999957
21
-83.4249999999999972
0
LINE
8
BLACK
6
CONTINUOUS
10
37.5749999999999957
20
-83.4249999999999972
11
78.
21
-83.4249999999999972
0
LINE
8
BLACK
6
CONTINUOUS
10
78.
20
-83.4249999999999972
11
78.0095669999999899
21
-83.4269029999999958
0
LINE
8
BLACK
6
CONTINUOUS
10
78.0095669999999899
20
-83.4269029999999958
11
78.0230969999999928
21
-83.4404329999999987
0
LINE
8
BLACK
6
CONTINUOUS
10
78.0230969999999928
20
-83.4404329999999987
11
78.0249999999999915
21
-83.4500000000000028
0
LINE
8
BLACK
6
CONTINUOUS
10
78.0249999999999915
20
-83.4500000000000028
11
78.0249999999999915
21
-85.4249999999999972
0
LINE
8
BLACK
6
CONTINUOUS
10
78.0249999999999915
20
-85.4249999999999972
11
97.9749999999999943
21
-85.4249999999999972
0
LINE
8
BLACK
6
CONTINUOUS
10
97.9749999999999943
20
-85.4249999999999972
11
97.9749999999999943
21
-83.4500000000000028
0
LINE
8
BLACK
6
CONTINUOUS
10
97.9749999999999943
20
-83.4500000000000028
11
97.976902999999993
21
-83.4404329999999987
0
LINE
8
BLACK
6
CONTINUOUS
10
97.976902999999993
20
-83.4404329999999987
11
97.9904329999999959
21
-83.4269029999999958
0
LINE
8
BLACK
6
CONTINUOUS
10
97.9904329999999959
20
-83.4269029999999958
11
98.
21
-83.4249999999999972
0
LINE
8
BLACK
6
CONTINUOUS
10
98.
20
-83.4249999999999972
11
138.4249999999999829
21
-83.4249999999999972
0
LINE
8
BLACK
6
CONTINUOUS
10
138.4249999999999829
20
-83.4249999999999972
11
138.4249999999999829
21
-65.
0
LINE
8
BLACK
6
CONTINUOUS
10
138.4249999999999829
20
-65.
11
138.4269029999999816
21
-64.9904329999999959
0
LINE
8
BLACK
6
CONTINUOUS
10
138.4269029999999816
20
-64.9904329999999959
11
138.4404329999999845
21
-64.976902999999993
0
LINE
8
BLACK
6
CONTINUOUS
10
138.4404329999999845
20
-64.976902999999993
11
138.4499999999999886
21
-64.9749999999999943
0
LINE
8
BLACK
6
CONTINUOUS
10
138.4499999999999886
20
-64.9749999999999943
11
140.4249999999999829
21
-64.9749999999999943
0
LINE
8
BLACK
6
CONTINUOUS
10
140.4249999999999829
20
-64.9749999999999943
11
140.4249999999999829
21
-55.0249999999999986
0
LINE
8
BLACK
6
CONTINUOUS
10
140.4249999999999829
20
-55.0249999999999986
11
138.4499999999999886
21
-55.0249999999999986
0
LINE
8
BLACK
6
CONTINUOUS
10
138.4499999999999886
20
-55.0249999999999986
11
138.4404329999999845
21
-55.0230969999999999
0
LINE
8
BLACK
6
CONTINUOUS
10
138.4404329999999845
20
-55.0230969999999999
11
138.4269029999999816
21
-55.009566999999997
0
LINE
8
BLACK
6
CONTINUOUS
10
138.4269029999999816
20
-55.009566999999997
11
138.4249999999999829
21
-55.
0
LINE
8
BLACK
6
CONTINUOUS
10
138.4249999999999829
20
-55.
11
138.4249999999999829
21
-36.5749999999999957
0
LINE
8
BLACK
6
CONTINUOUS
10
138.4249999999999829
20
-36.5749999999999957
11
98.
21
-36.5749999999999957
0
LINE
8
BLACK
6
CONTINUOUS
10
98.
20
-36.5749999999999957
11
97.9904329999999959
21
-36.5730969999999971
0
LINE
8
BLACK
6
CONTINUOUS
10
97.9904329999999959
20
-36.5730969999999971
11
97.976902999999993
21
-36.5595670000000013
0
LINE
8
BLACK
6
CONTINUOUS
10
97.976902999999993
20
-36.5595670000000013
11
97.9749999999999943
21
-36.5499999999999972
0
LINE
8
BLACK
6
CONTINUOUS
10
97.9749999999999943
20
-36.5499999999999972
11
97.9749999999999943
21
-34.5749999999999957
0
LINE
8
BLACK
6
CONTINUOUS
10
97.9749999999999943
20
-34.5749999999999957
11
78.0249999999999915
21
-34.5749999999999957
  0
ENDSEC
  0
EOF
