M48
;GenerationSoftware,Autodesk,EAGLE,9.6.0*%
;CreationDate,2025-11-01T19:40:52Z*%
FMAT,2
ICI,OFF
METRIC,TZ,000.000
T13C0.305
T12C0.406
T11C0.508
T10C0.610
T9C0.800
T8C0.813
T7C0.900
T6C0.914
T5C1.000
T4C1.016
T3C1.200
T2C1.600
T1C3.200
%
G90
M71
T1
X94297Y40958
X94297Y5715
X5048Y41005
X5398Y5715
T2
X12330Y16510
X6530Y16510
X9330Y11710
T3
X20105Y10160
X47205Y8890
X60960Y42863
X63500Y42863
X66040Y42863
X68580Y42863
X71120Y42863
X73660Y42863
X76200Y42863
X78740Y42863
X47205Y11430
T4
X96596Y11709
X96596Y16231
X15220Y3175
X12720Y3175
X90094Y11709
X90094Y16231
X96596Y23216
X96596Y18694
X90094Y23216
X90094Y18694
X90094Y30201
X90094Y25679
X96596Y30201
X96596Y25679
X5080Y29210
X5080Y31750
X5080Y34290
T5
X93980Y33655
X96520Y33655
X91440Y33655
T6
X78740Y6350
X81280Y3810
X83820Y3810
X83820Y6350
X78740Y3810
X81280Y6350
X29845Y31432
X29845Y28892
T7
X13970Y24130
X3810Y24130
X8890Y24130
X11430Y24130
T8
X17780Y44132
X15240Y44132
X66834Y6985
X66834Y17145
X41275Y21749
X41275Y19209
X44767Y21749
X44767Y19209
X69374Y6985
X69374Y17145
X71914Y6985
X27940Y44132
X61754Y6985
X61754Y17145
X64294Y6985
X64294Y17145
X15240Y36513
X17780Y36513
X20320Y36513
X22860Y36513
X71914Y17145
X78740Y29210
X86360Y29210
X25400Y36513
X27940Y36513
X30480Y36513
X35560Y36513
X49530Y2540
X52070Y2540
X46355Y4445
X46355Y1905
X18415Y25400
X18415Y27940
X38100Y36513
X40640Y36513
X43180Y36513
X45720Y36513
X48260Y36513
X48260Y44132
X82550Y41910
X87630Y41910
X85090Y41910
X59055Y5080
X59055Y7620
X59055Y10160
X59055Y12700
X51435Y12700
X51435Y10160
X51435Y7620
X51435Y5080
X45720Y44132
X43180Y44132
X40640Y44132
X38100Y44132
X35560Y44132
X33020Y44132
X30480Y44132
X25400Y44132
X22860Y44132
X20320Y44132
X33020Y36513
T9
X34290Y31432
X36830Y31432
X39370Y31432
X48260Y25717
X48260Y23177
X48260Y20638
X18415Y20955
X18415Y15875
T10
X45720Y17304
T11
X60007Y24765
X49054Y28099
T12
X63024Y12065
T13
X34925Y27781
X28257Y30162
X23495Y28575
X25400Y19685
X28416Y20161
X39688Y30004
X30004Y26987
X32861Y26987
X10954Y30956
X12382Y29051
X15399Y23019
X11430Y21114
X13811Y11906
X34290Y45244
X39370Y45244
X49689Y45244
X42069Y42386
X67310Y45244
X77470Y45244
X79375Y39529
X72073Y35560
X70168Y30639
X72708Y31909
X76835Y24447
X73819Y12859
X75248Y12859
X80486Y12859
X83503Y12859
X83344Y15081
X82550Y2699
X52546Y952
X60007Y952
X64294Y952
X66834Y952
X69374Y952
X71914Y952
X78740Y952
X83820Y952
X90487Y952
X98425Y952
X98425Y8255
X86360Y10319
X76994Y12859
X83503Y10160
X68104Y12224
X68104Y10160
X59690Y16589
X63024Y16589
X65405Y16192
X67945Y18494
X64770Y21273
X49927Y36513
X50721Y33973
X52546Y34925
X61992Y34687
X62627Y34131
X59928Y37068
X60801Y36909
X67389Y38100
X67389Y35798
X60881Y30559
X29210Y37941
X70088Y27861
X89773Y33020
X93266Y31353
X98425Y45164
X98425Y37465
X98425Y31829
X33179Y32544
X41434Y31274
X39529Y33020
X44132Y34449
X49371Y26511
X54134Y25559
X82550Y18733
X82550Y22542
X54292Y27305
X68580Y35878
X67520Y20428
X71120Y35878
X68421Y22066
X66834Y18733
X58579Y19844
X60484Y32544
X51752Y38576
X55880Y29686
X54927Y32226
X63817Y36036
X66199Y20320
X38259Y27305
X55721Y16192
X37783Y20638
X54509Y16135
X39529Y27146
X39053Y20320
X56991Y16192
X23444Y29686
X22225Y29686
X58261Y16192
X84455Y35878
X70009Y28829
X56039Y37465
X75724Y33338
X59531Y34290
X71438Y29527
X81280Y31591
X54927Y37465
X60166Y29527
X61277Y31432
X53022Y39211
X77311Y32544
X21749Y34290
X55721Y33020
X66040Y35878
X67628Y23971
X70168Y23177
X61754Y36989
X60007Y20638
X62865Y27781
X58268Y33016
X41287Y27610
X44253Y29407
X57309Y32702
X22860Y31750
X48895Y29686
X48736Y17939
X65405Y27781
X61277Y22860
X61754Y20479
X46911Y21352
X46276Y22860
X34290Y34290
X32067Y32544
X37306Y27781
X37148Y22066
X23495Y26511
X20638Y26670
X18415Y13970
X30797Y14129
X32702Y16034
X39688Y16034
X43021Y17463
X45402Y9525
X44926Y3175
X47784Y3175
X53499Y3651
X53340Y8890
X50324Y11430
X53181Y11589
X56197Y10001
X63500Y13176
X57467Y18574
X53340Y20003
X50482Y22384
X19050Y42386
X21590Y42386
X24289Y42386
X26670Y42386
X21590Y38735
X15399Y40958
X13494Y37465
X11430Y33338
X10954Y36036
X10954Y25559
X7302Y25559
X20638Y29210
X21273Y31591
X31750Y30162
X28416Y33020
X36830Y37941
X46990Y37941
X46990Y34687
X53657Y37306
X47625Y27146
X49530Y29051
X54134Y29527
X57467Y29527
X60007Y27781
X60007Y26670
X54451Y23812
X65246Y23019
X65246Y24606
X62706Y24606
X70009Y24447
X72549Y28575
X73660Y22701
X70326Y21273
X72708Y18415
X63024Y17939
X67469Y15716
X75248Y10160
X77311Y9525
X80010Y9684
X62865Y10478
X72231Y10001
X72231Y12065
X80010Y5080
X83503Y17621
X83503Y19526
X65802Y30559
X83344Y22066
X78581Y21590
X76200Y19050
X78740Y18098
X76200Y21590
X76041Y30797
X74295Y35560
X77629Y35401
X80645Y35401
X79693Y30639
X84614Y28257
X87154Y30956
X87947Y28099
X82074Y25082
X84773Y24924
X87789Y22225
X87471Y17463
X87630Y15240
X82868Y33020
X83503Y36513
X86201Y35719
X69850Y40481
X67310Y40481
X64770Y40481
X49689Y42863
X39370Y42386
X37941Y41434
X34290Y43021
X13970Y45244
X952Y37941
X952Y26194
X952Y952
X952Y12859
X17145Y952
X19209Y952
X19209Y12382
X33655Y12382
X33973Y952
X45402Y12382
X48260Y12541
X56039Y13335
X48101Y18733
X43021Y21749
X40164Y20479
X33496Y22066
X35719Y22066
M30